<svg xmlns="http://www.w3.org/2000/svg" xmlns:xlink="http://www.w3.org/1999/xlink" viewBox="0 0 577.62 667.68"><defs><style>.cls-1,.cls-4{fill:none;}.cls-2{isolation:isolate;}.cls-3,.cls-5{fill:#f2cf63;}.cls-4,.cls-5,.cls-6{stroke:#fff;stroke-linecap:round;stroke-linejoin:round;stroke-width:1.5px;}.cls-10,.cls-6{fill:#e6a144;}.cls-7{fill:#594f2d;}.cls-34,.cls-8{opacity:0.55;}.cls-9{fill:#fff;}.cls-11{clip-path:url(#clip-path);}.cls-12{fill:#d89c79;}.cls-13{fill:#cb9271;}.cls-14{fill:#268875;}.cls-15{fill:#dee4ef;}.cls-16{fill:#177262;}.cls-17{fill:#a06653;}.cls-18{fill:#413c42;}.cls-19{fill:#352c38;}.cls-20{clip-path:url(#clip-path-2);}.cls-21{fill:#93a5aa;}.cls-22{fill:#c9d6d6;}.cls-23{fill:#884300;}.cls-24{fill:#ba9663;}.cls-25{fill:#724423;}.cls-26{opacity:0.16;}.cls-26,.cls-31,.cls-35,.cls-39{mix-blend-mode:screen;}.cls-27{fill:#975307;}.cls-28{fill:#c9853c;}.cls-29{fill:#714100;}.cls-30,.cls-31{fill:#6b563b;}.cls-31,.cls-35{opacity:0.46;}.cls-32,.cls-39{fill:#95714d;}.cls-33{clip-path:url(#clip-path-3);}.cls-34{fill:#593721;mix-blend-mode:multiply;}.cls-36{fill:#b5aa7e;}.cls-37{fill:#cc2c00;}.cls-38{fill:#62482c;}.cls-39{opacity:0.15;}</style><clipPath id="clip-path"><path id="SVGID" class="cls-1" d="M570.1,531.43a41.22,41.22,0,0,1-82.43,0c0-22.77,18.45-57.8,41.21-57.8S570.1,508.66,570.1,531.43Z"/></clipPath><clipPath id="clip-path-2"><path id="SVGID-2" data-name="SVGID" class="cls-1" d="M491.52,402.87a52,52,0,1,1-91.58-33.67c9.54-11.2-18.7-69.59,58.17-68.65,45.39.56,13.67,58.59,23.15,71.31A51.79,51.79,0,0,1,491.52,402.87Z"/></clipPath><clipPath id="clip-path-3"><path id="SVGID-3" data-name="SVGID" class="cls-1" d="M502.85,406.9c0,23.7-21.06,42.71-44.75,42.87-26.61.17-46.78-19.91-46.78-43.61,0-8.37,2.22-22.82,7.65-22.58,21.69,1,22.8,1.34,38.13,1.34,14.25,0,21.42-1,33.85-4.07C499.52,378.71,502.85,397.45,502.85,406.9Z"/></clipPath></defs><g class="cls-2"><g id="Capa_2" data-name="Capa 2"><g id="Capa_4" data-name="Capa 4"><path class="cls-3" d="M359.75,41.09a21.07,21.07,0,0,0-4.59-1c-3.13-.33-6.73,0-8.93-2.25-1.49-1.52-2-4-3.89-5-2.33-1.24-5.53.47-7.71-1-1-.65-1.48-1.8-2.3-2.63a4.81,4.81,0,0,0-6.46-.11c-2,1.86-2.13,5.23-4.35,6.8-2.62,1.86-6.44-.79-8.09,2-2.13,3.56-4.1,7.91-6.23,11.46-1,1.65-2.22,3.47-4.12,3.76a6.72,6.72,0,0,1-4.1-1.21l-7.48-4.17c-1.28-.72-3.06-1.38-4.07-.31-.83.88-.53,2.39-1.25,3.37-1.08,1.45-3.42.71-5.09,1.4s-2.47,2.92-4,4c-2.5,1.72-5.86.07-8.89,0-1.55,0-3.12.36-4.63,0-4.46-1-6.39-7.86-10.95-7.56a6.48,6.48,0,0,0-1.56.33,6.27,6.27,0,0,1-3.29.51c-1.62-.4-2.57-2.19-4.16-2.71-1.18-.4-2.6,0-3.61-.78-.53-.39-.85-1-1.38-1.43a4.09,4.09,0,0,0-1.76-.59c-7-1.18-14.41-2.34-21.2-.14-2.45.8-4.84,2-7.42,2-2.25,0-4.38-.9-6.52-1.63a39.33,39.33,0,0,0-16.4-1.88,11.52,11.52,0,0,1-4.14,0c-3.46-.93-4.85-5-5.7-8.47a2,2,0,0,0-2.18.24A9.67,9.67,0,0,0,167.57,31a5.52,5.52,0,0,1-1.85-.45,6.69,6.69,0,0,1-1.35-1.31c-1.93-2-5-2.29-7.81-2.42l-9.78-.46c-3-.14-6.28-.35-8.72-2.16a23.08,23.08,0,0,0-2.9-2.26c-1.85-.94-4.07-.53-6.14-.37-5.15.39-10.26-1-15.26-2.29a2.52,2.52,0,0,0,.43,2.79A12.15,12.15,0,0,1,116,24.48c.67,1.68-.26,3.56-.29,5.37-.07,3.7,3.5,6.4,4.69,9.9a4.29,4.29,0,0,1,.27,1.91,4.4,4.4,0,0,1-1.84,2.84,8.22,8.22,0,0,1-13.26-6,27,27,0,0,0-5.86,6.34,4,4,0,0,0-.83,2c0,.54.17,1.07.2,1.61.1,1.9-1.85,3.43-3.75,3.47a8.07,8.07,0,0,1-5.11-2.25c-2.34-2-3.64-3.33-6.47-4.57-1.33-.58-3.32-1.74-4.76-1.71-.34,0-5.74,0-5.37,1,1,2.82,2.92,2.47,4.13,3.8s2.31,3,2.22,4.77a2.58,2.58,0,0,1-.49,1.46,2.85,2.85,0,0,1-2.89.68,7.79,7.79,0,0,1-4.31-3.05c-1-1.26-1.47-3.15-2.67-4.19a1.71,1.71,0,0,0-2-.29,2.21,2.21,0,0,0-.71.91c-1.17,2.45-.85,5.71-1.39,8.35-.77,3.82-3.14,5.66-5.09,8.78a4.71,4.71,0,0,0,0,5.25C60.06,72.2,58.21,72.26,57,73c-1.79,1-2,3.5-2.37,5.54-.68,3.25-2.53,6.13-3.9,9.16a66.11,66.11,0,0,0-3.87,13.49,16.73,16.73,0,0,0-.51,3.84,21.33,21.33,0,0,0,.54,3.54,16.87,16.87,0,0,1,.19,7.31,36.26,36.26,0,0,1-2.22,5.51A25,25,0,0,0,43.27,135a7.62,7.62,0,0,1,3,7c-.37,2.85-2.37,5.38-2.29,8.25.1,3.43,3.19,6.7,5.9,8.81l-4.61,7.74c-1.17,2-2.38,4-2.6,6.31a19.62,19.62,0,0,0,.84,6,77,77,0,0,1,1.36,11.74c.08,1.21.08,2.61-.85,3.38a4.87,4.87,0,0,1-2.14.77,9.3,9.3,0,0,0-6.94,7.52c-.47,3.16.65,6.78-1.26,9.34-.69.92-1.69,1.56-2.46,2.42A10.25,10.25,0,0,0,29,219.94c-.88,6.48.35,13.42-2.4,19.35-.83,1.8-2,3.46-2.43,5.4-1,4.6,2.55,9.32,1.49,13.91a14.51,14.51,0,0,1-3.31,5.62c-2.82,3.45-5.68,6.94-9.26,9.59S5.47,279.46,1,279c-1,2.83.83,5.84,2.78,8.13s4.24,4.71,4.28,7.71A9.31,9.31,0,0,0,8.17,297c.52,2.06,3.14,2.62,5.27,2.76s4.73.6,5.38,2.63c.41,1.28-.2,2.71.15,4,1.1,4.08-.6,1.36,5.9,4.63,2.62-3.89.17-8.86,9.34-12.5,1-.41,2.13-.56,3.11-1.05A2.71,2.71,0,0,0,39,295c-.18-1.46-1.92-2.12-2.77-3.31a4.18,4.18,0,0,1,.26-4.68,12.36,12.36,0,0,1,3.78-3.21l13.6-8.67A10.8,10.8,0,0,1,59,273c2.8-.14,5.19,1.83,7.58,3.28a22.75,22.75,0,0,0,11.69,3.29c4,0,8.05-1,11.86.13,4.75,1.4,8.25,5.91,13.14,6.73a2.14,2.14,0,0,0,1.52-.16,2.36,2.36,0,0,0,.72-.9c5.39-9.74,2.92-21.15,2.45-32.28l-.74-17.59c-.23-5.48.08-12.06,4.78-14.9,3.56-2.15,8.3-1.06,11.69,1.33s5.82,5.89,8.53,9a59.12,59.12,0,0,0,30,18.58c3.08.78,6.5,1.48,8.48,4,2.45,3.07,1.78,7.79,4.14,10.94,3.48,4.63,11.16,2.86,15.27-1.23s6.36-9.78,10.55-13.79a4.92,4.92,0,0,0,1.39-1.76,4.32,4.32,0,0,0-.13-2.41l-3.17-12.66c-1.16-4.63-3.44-10.24-8.2-10.47a34.5,34.5,0,0,1,10.21-32.88c3.24-2.93,7.58-5.32,11.83-4.31,3.18.75,6,3.32,9.26,2.75,3.41-.61,3.39-2.71,6.16-4.41,1.21-.74,4.52-2.64,5.91-2.35-.59-4.21-2.82-6-4.16-9.18-1.89-4.42-2.77-2.7-4.1-9.62a31.4,31.4,0,0,1,.53-4.19c.8-4.76,6.58-4.62,6.88-4.5,7.42,3,6.73,1.51,14.56,2.86,7.38,1.26,16.13,1.15,20.87-4.64,1.11-1.35,2-3,3.62-3.71a7,7,0,0,1,4.28,0c17.18,3.89,31.37,18.12,49,18.91,14,.64,28.63-6.43,33.48-19.62,1.41-3.83,1.76-8.79,5.29-10.84a22.45,22.45,0,0,1,10.11-2.92c3.43-.13,6.79-2.9,8.68-5.78,1.64-2.48.9-5.74.83-8.71-.13-5.17,1.94-10.14,2.29-15.3.25-3.62-.36-7.32.47-10.85s3.13-6.79,3.34-10.46c.32-5.36-3.85-10.57-2.41-15.74.36-1.27,1-2.5,1-3.81a5.23,5.23,0,0,0-1.39-3c-1.75-2.07-4.15-4.11-6.84-3.82-2.05.23-4.59.22-5.61-1.57-.76-1.32-.29-3-.88-4.44a6.2,6.2,0,0,0-2.52-2.53C367.55,45,363.81,42.48,359.75,41.09Z"/><path class="cls-4" d="M359.75,41.09a21.07,21.07,0,0,0-4.59-1c-3.13-.33-6.73,0-8.93-2.25-1.49-1.52-2-4-3.89-5-2.33-1.24-5.53.47-7.71-1-1-.65-1.48-1.8-2.3-2.63a4.81,4.81,0,0,0-6.46-.11c-2,1.86-2.13,5.23-4.35,6.8-2.62,1.86-6.44-.79-8.09,2-2.13,3.56-4.1,7.91-6.23,11.46-1,1.65-2.22,3.47-4.12,3.76a6.72,6.72,0,0,1-4.1-1.21l-7.48-4.17c-1.28-.72-3.06-1.38-4.07-.31-.83.88-.53,2.39-1.25,3.37-1.08,1.45-3.42.71-5.09,1.4s-2.47,2.92-4,4c-2.5,1.72-5.86.07-8.89,0-1.55,0-3.12.36-4.63,0-4.46-1-6.39-7.86-10.95-7.56a6.48,6.48,0,0,0-1.56.33,6.27,6.27,0,0,1-3.29.51c-1.62-.4-2.57-2.19-4.16-2.71-1.18-.4-2.6,0-3.61-.78-.53-.39-.85-1-1.38-1.43a4.09,4.09,0,0,0-1.76-.59c-7-1.18-14.41-2.34-21.2-.14-2.45.8-4.84,2-7.42,2-2.25,0-4.38-.9-6.52-1.63a39.33,39.33,0,0,0-16.4-1.88,11.52,11.52,0,0,1-4.14,0c-3.46-.93-4.85-5-5.7-8.47a2,2,0,0,0-2.18.24A9.67,9.67,0,0,0,167.57,31a5.52,5.52,0,0,1-1.85-.45,6.69,6.69,0,0,1-1.35-1.31c-1.93-2-5-2.29-7.81-2.42l-9.78-.46c-3-.14-6.28-.35-8.72-2.16a23.08,23.08,0,0,0-2.9-2.26c-1.85-.94-4.07-.53-6.14-.37-5.15.39-10.26-1-15.26-2.29a2.52,2.52,0,0,0,.43,2.79A12.15,12.15,0,0,1,116,24.48c.67,1.68-.26,3.56-.29,5.37-.07,3.7,3.5,6.4,4.69,9.9a4.29,4.29,0,0,1,.27,1.91,4.4,4.4,0,0,1-1.84,2.84,8.22,8.22,0,0,1-13.26-6,27,27,0,0,0-5.86,6.34,4,4,0,0,0-.83,2c0,.54.17,1.07.2,1.61.1,1.9-1.85,3.43-3.75,3.47a8.07,8.07,0,0,1-5.11-2.25c-2.34-2-3.64-3.33-6.47-4.57-1.33-.58-3.32-1.74-4.76-1.71-.34,0-5.74,0-5.37,1,1,2.82,2.92,2.47,4.13,3.8s2.31,3,2.22,4.77a2.58,2.58,0,0,1-.49,1.46,2.85,2.85,0,0,1-2.89.68,7.79,7.79,0,0,1-4.31-3.05c-1-1.26-1.47-3.15-2.67-4.19a1.71,1.71,0,0,0-2-.29,2.21,2.21,0,0,0-.71.91c-1.17,2.45-.85,5.71-1.39,8.35-.77,3.82-3.14,5.66-5.09,8.78a4.71,4.71,0,0,0,0,5.25C60.06,72.2,58.21,72.26,57,73c-1.79,1-2,3.5-2.37,5.54-.68,3.25-2.53,6.13-3.9,9.16a66.11,66.11,0,0,0-3.87,13.49,16.73,16.73,0,0,0-.51,3.84,21.33,21.33,0,0,0,.54,3.54,16.87,16.87,0,0,1,.19,7.31,36.26,36.26,0,0,1-2.22,5.51A25,25,0,0,0,43.27,135a7.62,7.62,0,0,1,3,7c-.37,2.85-2.37,5.38-2.29,8.25.1,3.43,3.19,6.7,5.9,8.81l-4.61,7.74c-1.17,2-2.38,4-2.6,6.31a19.62,19.62,0,0,0,.84,6,77,77,0,0,1,1.36,11.74c.08,1.21.08,2.61-.85,3.38a4.87,4.87,0,0,1-2.14.77,9.3,9.3,0,0,0-6.94,7.52c-.47,3.16.65,6.78-1.26,9.34-.69.92-1.69,1.56-2.46,2.42A10.25,10.25,0,0,0,29,219.94c-.88,6.48.35,13.42-2.4,19.35-.83,1.8-2,3.46-2.43,5.4-1,4.6,2.55,9.32,1.49,13.91a14.51,14.51,0,0,1-3.31,5.62c-2.82,3.45-5.68,6.94-9.26,9.59S5.47,279.46,1,279c-1,2.83.83,5.84,2.78,8.13s4.24,4.71,4.28,7.71A9.31,9.31,0,0,0,8.17,297c.52,2.06,3.14,2.62,5.27,2.76s4.73.6,5.38,2.63c.41,1.28-.2,2.71.15,4,1.1,4.08-.6,1.36,5.9,4.63,2.62-3.89.17-8.86,9.34-12.5,1-.41,2.13-.56,3.11-1.05A2.71,2.71,0,0,0,39,295c-.18-1.46-1.92-2.12-2.77-3.31a4.18,4.18,0,0,1,.26-4.68,12.36,12.36,0,0,1,3.78-3.21l13.6-8.67A10.8,10.8,0,0,1,59,273c2.8-.14,5.19,1.83,7.58,3.28a22.75,22.75,0,0,0,11.69,3.29c4,0,8.05-1,11.86.13,4.75,1.4,8.25,5.91,13.14,6.73a2.14,2.14,0,0,0,1.52-.16,2.36,2.36,0,0,0,.72-.9c5.39-9.74,2.92-21.15,2.45-32.28l-.74-17.59c-.23-5.48.08-12.06,4.78-14.9,3.56-2.15,8.3-1.06,11.69,1.33s5.82,5.89,8.53,9a59.12,59.12,0,0,0,30,18.58c3.08.78,6.5,1.48,8.48,4,2.45,3.07,1.78,7.79,4.14,10.94,3.48,4.63,11.16,2.86,15.27-1.23s6.36-9.78,10.55-13.79a4.92,4.92,0,0,0,1.39-1.76,4.32,4.32,0,0,0-.13-2.41l-3.17-12.66c-1.16-4.63-3.44-10.24-8.2-10.47a34.5,34.5,0,0,1,10.21-32.88c3.24-2.93,7.58-5.32,11.83-4.31,3.18.75,6,3.32,9.26,2.75,3.41-.61,3.39-2.71,6.16-4.41,1.21-.74,4.52-2.64,5.91-2.35-.59-4.21-2.82-6-4.16-9.18-1.89-4.42-2.77-2.7-4.1-9.62a31.4,31.4,0,0,1,.53-4.19c.8-4.76,6.58-4.62,6.88-4.5,7.42,3,6.73,1.51,14.56,2.86,7.38,1.26,16.13,1.15,20.87-4.64,1.11-1.35,2-3,3.62-3.71a7,7,0,0,1,4.28,0c17.18,3.89,31.37,18.12,49,18.91,14,.64,28.63-6.43,33.48-19.62,1.41-3.83,1.76-8.79,5.29-10.84a22.45,22.45,0,0,1,10.11-2.92c3.43-.13,6.79-2.9,8.68-5.78,1.64-2.48.9-5.74.83-8.71-.13-5.17,1.94-10.14,2.29-15.3.25-3.62-.36-7.32.47-10.85s3.13-6.79,3.34-10.46c.32-5.36-3.85-10.57-2.41-15.74.36-1.27,1-2.5,1-3.81a5.23,5.23,0,0,0-1.39-3c-1.75-2.07-4.15-4.11-6.84-3.82-2.05.23-4.59.22-5.61-1.57-.76-1.32-.29-3-.88-4.44a6.2,6.2,0,0,0-2.52-2.53C367.55,45,363.81,42.48,359.75,41.09Z"/><path class="cls-5" d="M473.78,151.22a4.79,4.79,0,0,1,2.22-6.07c.92-.44,2-.56,2.88-1,2.57-1.37,2.91-4.85,2.87-7.76s.16-6.36,2.63-7.9c-1.79-1.31-3.78-3.6-2.51-5.42,1.49-2.13,5.54-.46,7.08-2.55,1-1.35.33-3.65,1.69-4.65s3.31-.06,4.25-1.25-.16-2.59-1-3.67-1.4-3-.16-3.57a2.36,2.36,0,0,1,1.32-.11,26.28,26.28,0,0,1,5.67,1.27c1.61-1.22,1.21-3.9-.18-5.37s-3.4-2.14-5.21-3c-2.85-1.43-5.56-4-5.38-7.23.07-1.42.72-2.76.84-4.18s-.59-3.12-2-3.29c-.56-.07-1.13.12-1.7.07-1.45-.13-2.24-1.73-3.42-2.6-2.52-1.88-6.6-.55-7.92-3.4l-9.14-6.06a3.58,3.58,0,0,0-1.9-.79c-1.23,0-2.13,1.13-3.27,1.56-2.63,1-5.51-2-8.16-1.07-1.68.59-2.45,2.48-3.16,4.12a1.93,1.93,0,0,1-.82,1.07c-1.05.48-1.91-1-1.91-2.18,0-2,.76-3.87.91-5.84s-.58-4.28-2.45-4.93c-.88-.3-1.85-.18-2.75-.44-2-.59-3-3-2.89-5.14s1.16-4.07,1.85-6.09c1.34-3.93,1.17-9-2.18-11.41-1.67-1.22-4.12-1.86-4.63-3.87-.43-1.72.95-3.39,2.44-4.35S440.93,32.38,442,31c1.65-2.16,1.14-5.22.45-7.85-1-3.86-2.36-8.32-3.36-12.18a10.4,10.4,0,0,1,.75-7.15,3.06,3.06,0,0,0,.5-1.55c-.17-2.44-3.43-1.21-4.81-.83a30.28,30.28,0,0,1-5.32,1.26c-2,.2-5.53.11-4.38,3.54.24.71-.61,1.38-1,2-1.82,2.87-4.56,5.11-7.1,7.31a3.38,3.38,0,0,0-1,1.07,3.07,3.07,0,0,0-.23,1.28,12.28,12.28,0,0,1-.31,3c-.85,2.89-4.38,3.25-6.89,3.59-2.91.38-7-.64-9.65.3-4.31,1.54.85,8.51,1.31,11.19a3.24,3.24,0,0,1-.22,2.38,5.8,5.8,0,0,1-1.68,1.28c-1.14.8-.9,2.57-1.64,3.72s-2.28,2-3.44,2.73c-1.78,1.14-3.62,3-3.06,5,.15.56.47,1.15.21,1.66s-.78.57-1.26.71a5.36,5.36,0,0,0-3.55,2.82,3.55,3.55,0,0,0,.74,3.59,5.09,5.09,0,0,1,1.3,2.92c.07,1.31-.62,2.54-1,3.81C386,71.76,390.14,77,389.82,82.33c-.21,3.67-2.49,6.88-3.34,10.46s-.22,7.23-.47,10.85c-.35,5.16-2.42,10.13-2.29,15.3.07,3,.81,6.23-.83,8.71s-5.49,4.63-5.47,7.75c0,1.57,1.23,2.84,2.37,3.93l9.37,8.93c2.28,2.17,5.48,4.5,8.28,3.05,1.34-.7,2.35-2.22,3.87-2.22a4.37,4.37,0,0,1,2.22.86,70.22,70.22,0,0,0,8.32,4.39c1.37.61,3,1.18,4.33.46,2.69-1.45,1.52-6.59,4.39-7.67,1.46-.55,3.13.5,3.82,1.91a9.52,9.52,0,0,1,.59,4.6c-.25,6.65-.57,13.1,2.07,19.21a14.84,14.84,0,0,0,2.62,4.49c2.39,2.5,6.16,3,9.62,3.09a3.87,3.87,0,0,1,1.82.35c1.07.61,1.25,2,1.62,3.22a42.19,42.19,0,0,0,2,4.16c1.56,3.45,1.23,7.57,3,10.92,2.37,4.45,7.29,6.71,11.44,9.16a2.78,2.78,0,0,0,1.22.47,2.42,2.42,0,0,0,1.16-.35c4.93-2.53,8.36-8.13,6.71-13.71a9.71,9.71,0,0,1-.6-2.53,6.63,6.63,0,0,1,.68-2.56c2.14-5.16,4-11.37.94-16a3.21,3.21,0,0,1-.7-1.42,2.71,2.71,0,0,1,.54-1.57c1.76-2.9,3.9-5.95,3.58-9.32-.15-1.66-.9-3.22-1-4.88A5.63,5.63,0,0,1,473.78,151.22Z"/><path class="cls-5" d="M523.52,188.1l-.88-5.47a3,3,0,0,1,.22-2.23,7.55,7.55,0,0,1,.81-.79c1.14-1.17.88-3,.59-4.64a19,19,0,0,1-.42-3.9,21.65,21.65,0,0,0,.09-4.1c-.14-.79-.45-1.54-.66-2.33a16.63,16.63,0,0,1-.21-5.18c.16-2.46.77-4.9.37-7.33-.16-1-1.17-1.57-1.65-2.44a4.91,4.91,0,0,1-.44-1.94l-.92-10.45a20.71,20.71,0,0,0-.45-3.24,19.94,19.94,0,0,0-1.36-3.59,20.59,20.59,0,0,0-1.74-3.24,15.62,15.62,0,0,1-1.69-2.52c-.7-1.59-.49-3.54-1.49-4.95-.44-.63-1.09-1.09-1.51-1.74-.87-1.34-.58-3.1-.24-4.67s.9-3.25,1.11-4.95a15.09,15.09,0,0,0-.1-4.4,3.7,3.7,0,0,0-.47-1.39,5.75,5.75,0,0,0-1.13-1.07,6.44,6.44,0,0,1-1.89-2.82,8.19,8.19,0,0,0-.68-1.83,1.48,1.48,0,0,0-1.65-.73c-.67.25-.88,1.06-1.23,1.68a7.61,7.61,0,0,1-2,2,21,21,0,0,0-3.38,3.28c1.39,1.47,1.79,4.15.18,5.37a26.28,26.28,0,0,0-5.67-1.27,2.36,2.36,0,0,0-1.32.11c-1.24.6-.68,2.49.16,3.57s1.85,2.58,1,3.67-3,.35-4.25,1.25-.69,3.3-1.69,4.65c-1.54,2.09-5.59.42-7.08,2.55-1.27,1.82.72,4.11,2.51,5.42-2.47,1.54-2.66,5-2.63,7.9s-.3,6.39-2.87,7.76c-.91.48-2,.6-2.88,1a4.79,4.79,0,0,0-2.22,6.07,5.63,5.63,0,0,0-2.06,5.14c.14,1.66.89,3.22,1,4.88.32,3.37-1.82,6.42-3.58,9.32a2.71,2.71,0,0,0-.54,1.57,3.21,3.21,0,0,0,.7,1.42c3.1,4.64,1.2,10.85-.94,16a6.63,6.63,0,0,0-.68,2.56,9.71,9.71,0,0,0,.6,2.53c1.65,5.58-1.78,11.18-6.71,13.71a1.7,1.7,0,0,0-1.75,1.42,2.33,2.33,0,0,0,1.05,1.9,4.47,4.47,0,0,1,1,.83,3,3,0,0,1,.43,1.82c0,2.33,0,4.94-1.69,6.58a10.18,10.18,0,0,1-2,1.4,37.18,37.18,0,0,0-5.87,4.25,12.31,12.31,0,0,0-3.23,4c-1.68,3.76.12,8.22,2.75,11.4a4.32,4.32,0,0,1,1.21,2.14,4.17,4.17,0,0,1-1.35,2.9,56.69,56.69,0,0,0-5.81,8.44,2.29,2.29,0,0,0-.37,1c0,1,1.22,1.61,2.22,1.45a27.86,27.86,0,0,0,2.85-1,5.82,5.82,0,0,1,4.63.93,17.39,17.39,0,0,1,3.51,3.35,2.74,2.74,0,0,0,2.93,1c2.51-.78,4.61-2.88,7.23-3,1.38,0,2.72.5,4.1.46,3-.08,5.56-2.84,8.55-2.53,2.09.22,3.91,1.93,6,1.72,1.47-.14,2.65-1.19,3.82-2.08s2.64-1.71,4.06-1.29c2.2.65,3.18,4,5.48,3.84a4.15,4.15,0,0,0,2.4-1.39,25.11,25.11,0,0,0,3.81-4.83,19.46,19.46,0,0,1,1.68-2.59c1.35-1.51,3.74-1.82,4.75-3.58a4,4,0,0,0,0-3.85,12.93,12.93,0,0,0-2.16-2.4,3.59,3.59,0,0,1-1.2-2.89c.08-.51.35-1,.38-1.51a7.52,7.52,0,0,0-.71-2.28c-.58-2.06,1.09-4,1.68-6.08.74-2.61-.28-5.37-.26-8.08a10.58,10.58,0,0,1,2.72-7c2.46-2.72,1-7.23,2.54-10.56,1-2.13,2.83-3.83,3.46-6.09a9.55,9.55,0,0,1,.94-3.07c.42-.59,1.06-1,1.47-1.59A5.3,5.3,0,0,0,523.52,188.1Z"/><path class="cls-5" d="M448.08,257.69a27.86,27.86,0,0,0,2.85-1,5.82,5.82,0,0,1,4.63.93,17.46,17.46,0,0,1,3.52,3.35,2.76,2.76,0,0,0,2.94,1c2.51-.78,4.61-2.89,7.23-3,1.38,0,2.73.5,4.11.46,3-.08,5.56-2.84,8.55-2.53,2.1.22,3.92,1.93,6,1.73,1.47-.15,2.66-1.2,3.83-2.09s2.64-1.71,4.06-1.3c2.21.66,3.19,4,5.49,3.85a4.15,4.15,0,0,0,2.4-1.39,25.17,25.17,0,0,0,3.81-4.84,24.72,24.72,0,0,1,2.12-2.66c.44-.08.28.18.41.6s.71,1.33.58,1.75c-.33,1.12-1.95,1.95-2.1,3.1a2.93,2.93,0,0,0,2.16,2.86c1.05.14,1.93-.78,2.48-1.69,1.51-2.54,2.11-5.82,4.55-7.5a10.54,10.54,0,0,1,4-1.41,4.71,4.71,0,0,1,1.39-.15,3.33,3.33,0,0,1,1.47.6c2.06,1.38,3,3.89,3.8,6.23.56,1.59,1.11,3.19,1.62,4.79a11.76,11.76,0,0,1,.74,4.45,13.38,13.38,0,0,1-.82,3.1,18,18,0,0,0-1.21,5.77,7.22,7.22,0,0,0,2.11,5.34c.8.73,3.24,2.25,4.49,2.25.66-.39,1.09.76,1.32,1.49a3.54,3.54,0,0,1-.26,2.23,26.57,26.57,0,0,1-2.19,4.64,5.58,5.58,0,0,0-.9,2.08c-.14,1.16.53,2.25.9,3.36a13.24,13.24,0,0,1,.47,4.07l.05,4.29a4.42,4.42,0,0,1-.4,2.28c-.31.52-.83.89-1.17,1.4-.93,1.38-.3,3.22.27,4.78a44.85,44.85,0,0,1,2.6,12.28,13.27,13.27,0,0,1-.67,6c-.91,2.18-2.84,4-3,6.34a4.36,4.36,0,0,1-.36,2.08c-1.24,1.88-4.59-.67-6.35.74-.77.63-.88,1.81-1.63,2.46-2,1.72-5.26-1.85-7.4-.38-.63.44-1,1.23-1.62,1.61-1.32.76-2.87-.47-3.83-1.65-1.94-2.37-3.68-5-6.19-6.75-4.58-3.2-11-2.79-15.85,0-2.84,1.68-5.77,4.23-9,3.43-1.51-.37-2.84-1.47-4.39-1.44a3.82,3.82,0,0,0-3.25,2.42,6.52,6.52,0,0,0-.12,4.21c.35,1.3.88,2.87-.05,3.83a5.94,5.94,0,0,1-3.84-4.23c-.45-1.91-.37-3.91-.7-5.85-.36-2.1-1.21-4.09-1.65-6.18-.49-2.31-.46-4.7-.76-7.05a11.55,11.55,0,0,0-2.56-6.49,15.57,15.57,0,0,0-2.74-7.12c-2.07-2.91-5.67-4.48-7.66-7.45-2.43-3.6-1.91-8.58.24-12.35a38.31,38.31,0,0,0,2.4-4.16,11.42,11.42,0,0,0,.14-7.59,25.88,25.88,0,0,0-3.49-6.87,35,35,0,0,0-5.14-6.3,12.85,12.85,0,0,1-2-2.05,3.15,3.15,0,0,1-.54-2.72C444.51,258.27,446.58,257.92,448.08,257.69Z"/><path class="cls-5" d="M472.35,342.28a6.52,6.52,0,0,1,.12-4.21,3.82,3.82,0,0,1,3.25-2.42c1.55,0,2.88,1.07,4.39,1.44,3.2.8,6.13-1.75,9-3.43,4.81-2.83,11.27-3.24,15.85,0,2.51,1.76,4.25,4.38,6.19,6.75,1,1.18,2.51,2.41,3.83,1.65.66-.38,1-1.17,1.62-1.61,2.14-1.47,5.44,2.1,7.4.38.75-.65.86-1.83,1.63-2.46,1.76-1.41,5.11,1.14,6.35-.74,2,.7,1.88,3.38,1.48,5.47s-1.16,4.36-.16,6.23a14.08,14.08,0,0,0,2.59,2.76c.88.92,1.55,2.3,1,3.43s-2.33,1.4-3.74,1.41c-6.7.09-13.83,1.11-18.9,5.49a30.42,30.42,0,0,0-5.29,6.49,20.27,20.27,0,0,0-3.14,6.33,7.66,7.66,0,0,0,1.27,6.72,14.2,14.2,0,0,1,1.91,2.13c1.07,1.89,0,4.25.25,6.4.21,1.95,1.48,3.68,1.58,5.64.16,3.06-2.67,5.58-5.65,6.33s-6.09.26-9.15.11a4.93,4.93,0,0,0-2.36.31c-.8.4-1.35,1.19-2.13,1.62-1.71,1-4-.23-4.91-2s-.87-3.8-.79-5.76l.56-14.8a13.69,13.69,0,0,0-.6-5.71c-.39-.93-1-1.76-1.27-2.72s-.29-1.71-.54-2.55c-.72-2.47-3.1-4-4.5-6.22-2.77-4.29-1.37-10.32-4.14-14.62-.66-1-1.54-1.9-2.17-2.94C472.22,345.7,472.79,343.94,472.35,342.28Z"/><path class="cls-5" d="M453,325.75a21.38,21.38,0,0,0-2.86,6.12,7.16,7.16,0,0,1-2.61,3.79,27.9,27.9,0,0,0-3.61,2.07,39.38,39.38,0,0,0-2.74,3.15c-1,1-2.43,1.75-3.73,1.24a3.66,3.66,0,0,1-1.93-2.75,28.12,28.12,0,0,0-.68-3.43c-.81-2.17-3-3.65-3.56-5.91-.37-1.62,0-3.79-1.5-4.53a3.66,3.66,0,0,0-1.55-.24,19.19,19.19,0,0,1-7.11-1.05,11.22,11.22,0,0,1-5.74-5.21c-1.14-2.19-1.71-4.94-3.87-6.14-1.85-1-4.4-.56-5.91-2,.17-2.38-.63-5.49-2.53-6.93s-4.34-.88-6.41-1.7-3.41-2.8-4.61-4.68l-1.33-2.08a52.65,52.65,0,0,1-4.07-7.15,27.11,27.11,0,0,1-1.27-3.61,17.31,17.31,0,0,0-1.64-4.81c-2.18-3.48-7.52-4.82-8.17-8.88-.31-1.94.65-4.18,1.05-6.1,1.49-7-2.12-14.34-.8-21.39a9.77,9.77,0,0,1,3.25-6,16.22,16.22,0,0,1,3.66-1.94,21.72,21.72,0,0,0,6.76-4.29,10.33,10.33,0,0,0,3.24-7.14c0-4.69-3.88-8.32-6.1-12.46-.68-1.28-1.2-2.91-.39-4.12,4.14-6.17,1.24-14.57-.18-21.86a9,9,0,0,1-.27-3,2.83,2.83,0,0,1,1.64-2.32c.77-.27,1.64-.07,2.43-.27a4,4,0,0,0,2.46-3.06,22.38,22.38,0,0,1,1-4,16,16,0,0,0,.81-1.6c.45-1.34-.06-2.79-.42-4.16a22.07,22.07,0,0,1,0-9.33c.73-4.17.13-4.08,5.87-8.3.8,0,3.25-.2,3.94.22a70.22,70.22,0,0,0,8.32,4.39c1.37.61,3,1.18,4.33.46,2.69-1.45,1.52-6.59,4.39-7.67,1.46-.55,3.13.5,3.82,1.91a9.52,9.52,0,0,1,.59,4.6c-.25,6.65-.57,13.1,2.07,19.21a14.84,14.84,0,0,0,2.62,4.49c2.39,2.5,6.16,3,9.62,3.09a3.87,3.87,0,0,1,1.82.35c1.07.61,1.25,2,1.62,3.22a42.19,42.19,0,0,0,2,4.16c1.56,3.45,1.23,7.57,3,10.92,2.61,4.9,8.31,7.14,12.67,9.91,1.34,2.22.78,2.58,1.5,3.52a3,3,0,0,1,.43,1.82c0,2.33,0,4.94-1.69,6.58a10.18,10.18,0,0,1-2,1.4,37.18,37.18,0,0,0-5.87,4.25,12.31,12.31,0,0,0-3.23,4c-1.68,3.76.12,8.22,2.75,11.4a4.32,4.32,0,0,1,1.21,2.14,4.17,4.17,0,0,1-1.35,2.9,53.51,53.51,0,0,0-5.65,8c-.55,1-.6,2.48.4,3a3,3,0,0,0-2.84,2.62c-.18,1.8,1.42,3,2.59,4.06a35,35,0,0,1,5.14,6.3,26.27,26.27,0,0,1,3.49,6.86,11.52,11.52,0,0,1-.14,7.58,39.29,39.29,0,0,1-2.4,4.16c-2.15,3.76-2.67,8.74-.25,12.33,2,3,5.59,4.53,7.66,7.44a15.45,15.45,0,0,1,2.73,7.12c.11,1.4,1,2.56,1.72,3.78.26.46.51,1.08.15,1.46a1.22,1.22,0,0,1-1.15.18c-1.7-.34-3.4-1.05-5.11-.76a7.45,7.45,0,0,0-4.19,2.85A21.18,21.18,0,0,0,453,325.75Z"/><path class="cls-6" d="M399.81,465.39c-.82,2.94-1.58,6.29,0,8.88a8.67,8.67,0,0,0,2.41,2.38c3.68,2.59,8.37,3.86,11.26,7.31,1,1.22,1.76,2.66,2.73,3.92a6.19,6.19,0,0,0,3.89,2.59c1.58.2,3.38-.86,3.52-2.45a4.88,4.88,0,0,1,.12-1.53c.36-.91,1.55-1.05,2.52-1.21,2-.33,4.15-.89,5.5-2.41a86.11,86.11,0,0,1,15.84,1.66c2.3.46,5,1.43,5.46,3.74.09.52.13,1.16.6,1.37a1.28,1.28,0,0,0,.7,0c2.61-.43,5.54-1.92,7.66-.33.72.53,1.32,1.4,2.21,1.38s1.47-1,1.71-1.86a4.66,4.66,0,0,1,1-2.44,3.8,3.8,0,0,1,1.57-.67c1.82-.49,3.73-1.31,4.64-3a8.23,8.23,0,0,0,.65-4c0-3.48-.05-7.06-1.37-10.28-1-2.51-2.82-4.77-3.18-7.47-.46-3.5,1.53-7.46-.47-10.38-.7-1-2-2.43-1.3-3.44,1.53-2.13,3.14-4.63,2.55-7.19a9.17,9.17,0,0,1-.59-2.59,6.44,6.44,0,0,1,1.2-2.64,8.48,8.48,0,0,0,.61-6.89c-.4-1.13-1.06-2.25-.87-3.43a3.83,3.83,0,0,1,2.67-2.73c1.25-.46,2.61-.58,3.87-1a2.78,2.78,0,0,0,1.3-.79c.69-.83.45-2.06.53-3.15.13-2.12,1.54-3.91,2.77-5.65a39.77,39.77,0,0,0,5-8.64c-.92-1.73-.87-3.8-.79-5.76l.56-14.8a13.69,13.69,0,0,0-.6-5.71c-.39-.93-1-1.76-1.27-2.72s-.29-1.71-.54-2.55c-.72-2.47-3.1-4-4.5-6.22-2.77-4.29-1.37-10.32-4.14-14.62-.86-1.32-2.07-2.4-2.66-3.91a5.91,5.91,0,0,1-4.17-4.33c-.45-1.91-.37-3.91-.7-5.85-.36-2.1-1.21-4.09-1.65-6.18-.55-2.61-.45-5.31-.89-7.93-2.27.07-4.54-1.33-6.83-.94a7.51,7.51,0,0,0-4.2,2.85,19.26,19.26,0,0,0-1.34,1.78,21.41,21.41,0,0,0-2.87,6.12,7.12,7.12,0,0,1-2.61,3.79,29.31,29.31,0,0,0-3.62,2.08,39.38,39.38,0,0,0-2.74,3.15c-1,1-2.43,1.75-3.73,1.24l-1.28-.5.05.43a11.22,11.22,0,0,1-1.16,5.42l-1.5,3.75a8.88,8.88,0,0,1-1.34,2.55,3.05,3.05,0,0,1-2.52,1.17,1.16,1.16,0,0,1-1-.58,1.74,1.74,0,0,1-.09-.72c.05-4.14-2.31-7.88-4.59-11.34A8.81,8.81,0,0,0,422.1,340c-1.28-1-3.08-1.29-4.3-2a1.87,1.87,0,0,0-1.25-.38c-1.91.31-3.12,2.14-3.75,3.93s-.92,3.59-1.94,5.11-2.08,1.28-2.82,3.1c-.63,1.56,1.39,4.3.58,5.78-.5.9-4,2.11-4.9,2.59a10.33,10.33,0,0,1-9.55-.14c-.78-.43-1.5-1-2.3-1.35a14.91,14.91,0,0,0-3.4-1.06l-24.12-5.44c-1.69-.39-2.21-1.49-4.47-2.37-1.29,1.37-.47,3.74.11,5.54,1,3.21.14,6.68-.76,9.93l-2.14,7.69a9.66,9.66,0,0,0-.52,4.47c.26,1.26,1,2.45.88,3.73a9.21,9.21,0,0,1-.6,1.91c-.4,1.2-.43,2.5-.71,3.73-.63,2.78-2.49,5.11-3.48,7.78-1.32,3.58-1,7.53-1.78,11.27a4.32,4.32,0,0,1-.79,2,8.14,8.14,0,0,1-1.62,1.23c-2.93,2.07-3.67,6.08-3.71,9.67s.32,7.37-1.28,10.58a5.91,5.91,0,0,0-.28,4.83,4.22,4.22,0,0,0,3.9,3c1.57-.1,3-1.39,4.55-1a8.9,8.9,0,0,1,1.6.74,4.94,4.94,0,0,0,5.9-1.5,6.67,6.67,0,0,1,1.64-2.06,3.69,3.69,0,0,1,2.9,0,26.06,26.06,0,0,1,8.68,4.35,4.34,4.34,0,0,0,1.75,1c1.22.23,2.4-.67,3.63-.55S379.87,437,381,437c1.38,0,2.63-1.34,3.94-.94a23.63,23.63,0,0,0,1,13.11,6.17,6.17,0,0,0,2,3.08,7.07,7.07,0,0,0,3.37.91l5.4.53a3.9,3.9,0,0,1,1.76.46,4,4,0,0,1,1.34,2.13A18.17,18.17,0,0,1,401,461C401.12,462.67,400.24,463.82,399.81,465.39Z"/><path class="cls-5" d="M343.74,427.29a5.87,5.87,0,0,0-.28,4.83,4.24,4.24,0,0,0,3.89,3c1.57-.1,3-1.39,4.55-1a8.14,8.14,0,0,1,1.59.73,4.93,4.93,0,0,0,5.9-1.5c.52-.71.88-1.6,1.63-2a3.76,3.76,0,0,1,2.91,0,26.49,26.49,0,0,1,8.67,4.35,4.38,4.38,0,0,0,1.74,1c1.22.23,2.4-.67,3.63-.56s2.11,1.08,3.27,1.09c1.37,0,2.62-1.34,3.93-.94a23.68,23.68,0,0,0,.95,13.1,6.1,6.1,0,0,0,2,3.07,7,7,0,0,0,3.36.92l5.4.53a3.94,3.94,0,0,1,1.76.46,3.88,3.88,0,0,1,1.33,2.12,17.43,17.43,0,0,1,1.2,4.72c.11,1.63-.77,2.78-1.21,4.35-.81,2.94-1.57,6.28,0,8.87a8.71,8.71,0,0,0,2.42,2.38c3.67,2.58,8.35,3.85,11.24,7.3,1,1.22,1.75,2.66,2.73,3.92a6.18,6.18,0,0,0,3.88,2.58c-.57,2.58-2.69,5.72-2.33,8.25a22.51,22.51,0,0,1,.52,3.44,5.06,5.06,0,0,1-.76,2.56,3.48,3.48,0,0,1-2,1.58,21,21,0,0,1-2.76.11c-1.86.24-5.05,4.27-6.78,5.4-2.48,1.61-5.07,3.26-8,3.67-2.73.39-5.63-.33-8.21.62a21.88,21.88,0,0,0-3.71,2.16,17.05,17.05,0,0,1-25.06-9.11,5.15,5.15,0,0,0-.91-1.9,1.44,1.44,0,0,0-1.91-.28,4.4,4.4,0,0,0-.51.69c-.82,1.08-2.53,1-3.7.33a18,18,0,0,1-3-2.74c-2.94-2.73-7.16-3.48-11.12-4.11a26,26,0,0,1,2.43-10.32,10.4,10.4,0,0,0,1.1-5.49c-.3-2.67-1.27-5.22-1.57-7.88-.27-2.34,0-4.79-.85-7-1.89-5.1-8.67-7.15-10.37-12.32-.47-1.43-.84-3.35-2.33-3.57-1.21-.17-2.15,1-3.25,1.51-1.93.94-4.27-.2-5.77-1.73s-2.58-3.48-4.28-4.79c-.14-1.75,2.87-2.36,2.92-4.11.05-1.42-1.95-2.41-1.64-3.8.2-.89,1.22-1.26,2-1.65a14.92,14.92,0,0,0,4.49-3.9l7.75-8.83a4.68,4.68,0,0,1,6-1.74C338.79,426,341.7,426.79,343.74,427.29Z"/><path class="cls-5" d="M372.26,521.93a1.16,1.16,0,0,1,1.33-1.53,17.37,17.37,0,0,0,12.5-2.12,21.18,21.18,0,0,1,3.71-2.15c2.59-1,5.49-.24,8.22-.63,2.93-.41,5.52-2.06,8-3.67,1.74-1.13,4.93-5.17,6.79-5.41a21.25,21.25,0,0,0,2.77-.11,3.46,3.46,0,0,0,2-1.58,5,5,0,0,0,.76-2.56,18.54,18.54,0,0,0-.49-3.29,3.7,3.7,0,0,1,.14-1.62c.67-2.28,1.47-4.52,2.17-6.79,1.58.2,3.38-.86,3.52-2.45a4.88,4.88,0,0,1,.12-1.53c.36-.91,1.55-1.05,2.52-1.21,2-.33,4.15-.89,5.5-2.41a86.11,86.11,0,0,1,15.84,1.66c2.3.46,5,1.43,5.46,3.74.09.52.13,1.16.6,1.37a1.28,1.28,0,0,0,.7,0c2.61-.43,5.54-1.92,7.66-.33.72.53,1.32,1.4,2.21,1.38-1,1.42-2.44,2.32-3.06,4a4.58,4.58,0,0,1-.82,1.67c-.42.42-1,.61-1.43,1.05a3.21,3.21,0,0,0-.6,1.66l-1,6.08a1.34,1.34,0,0,1-.48,1,2.2,2.2,0,0,1-.89.15c-1.07.11-1.78,1.16-2.13,2.18a8,8,0,0,0,.38,6.07c.58,1.19,1.49,2.29,1.62,3.61a3.36,3.36,0,0,1-1.1,2.8,4.12,4.12,0,0,0-.81.75c-.47.7-.18,1.64-.37,2.46-.32,1.36-1.84,2.06-2.59,3.24a4.28,4.28,0,0,0,.26,4.46,11.56,11.56,0,0,0,3.43,3.17,15.36,15.36,0,0,1,3.59,3c.78.16.81,1.22.6,2a8.73,8.73,0,0,1-1.2,2.06,10.56,10.56,0,0,0-1.16,3.33,13.2,13.2,0,0,0-.26,5.34,5.78,5.78,0,0,0,3.06,4.18c.67.3,1.4.42,2.07.7A2.44,2.44,0,0,1,463,557.1a2.33,2.33,0,0,1-.55,2,13.5,13.5,0,0,1-1.62,1.49,8.93,8.93,0,0,0-2.17,3,3.58,3.58,0,0,0-.36,1.47,5.09,5.09,0,0,0,.71,2.11,24.63,24.63,0,0,1,2.25,7.25,2.84,2.84,0,0,1-.48,2.49,2.37,2.37,0,0,1-1.61.55c-1.19.06-2.37-.19-3.55-.23a9.55,9.55,0,0,0-2.66.68,2.59,2.59,0,0,1-3.12.92c-.89-.36-1.51-1.19-2.38-1.59a4.75,4.75,0,0,0-1.67-.35,6.47,6.47,0,0,0-2.48.16c-1.81.57-2.94,2.33-4.35,3.61-2.48,2.26-6.21,2.24-9.5,2.91-3,.62-6.29,1.08-8.56,3.18-1.52,1.41-2.38,3.38-3.37,5.21s-2.3,3.66-4.25,4.39a9.57,9.57,0,0,1-2.38.47c-1.44.16-2.89.29-4.34.39a7.89,7.89,0,0,1-2.91-.15,6.67,6.67,0,0,1-2.44-1.48c-1.35-1.17-2.52-2.53-3.87-3.7a9.14,9.14,0,0,0-4.69-2.39,4.51,4.51,0,0,1-3.77-1.71c-.9-1.06-1.49-2.34-2.28-3.48a2.1,2.1,0,0,0-1.08-.94,2.59,2.59,0,0,0-1.49.22,11.66,11.66,0,0,1-5.37.49,1.73,1.73,0,0,1-1.39-.73c-.4-.77.39-1.62.5-2.48a3.26,3.26,0,0,0-1.22-2.47l-4.93-5.26c-2.2-2.34-4.52-5-4.73-8.17a15.6,15.6,0,0,0-.16-2.82c-.62-2.59-3.86-4.41-3.35-7,.45-2.37,3.86-3.68,3.52-6.06a1.37,1.37,0,0,1,0-.75c.17-.36.69-.39,1-.68.61-.62-.3-1.51-.74-2.27-.87-1.51.39-3.35,1.68-4.53s2.84-2.56,2.61-4.3c-.14-1-.86-1.85-.84-2.84a5.24,5.24,0,0,1,1-2.35A11.62,11.62,0,0,0,372.26,521.93Z"/><path class="cls-5" d="M560.32,390c.12,2.86-1.74,6.06,0,8.34a7.62,7.62,0,0,0,2.68,1.87,20.31,20.31,0,0,1,9.61,11.64,3.74,3.74,0,0,0,.7,1.51c.5.53,1.28.71,1.82,1.18,1,.87.94,2.44.52,3.69a13.88,13.88,0,0,0-1.15,3.75,4.64,4.64,0,0,0,.9,3.18c-.75,1.37-2.7,1.32-4.23,1-5.7-1.06-11.5-2.8-17.17-1.64-3.55.72-6.78,2.55-10.27,3.57-3,.87-6.33,1.22-8.6,3.36-1.07,1-2,2.44-3.42,2.65s-2.61-.78-4-.93c-2.52-.29-4.43,2.15-5.64,4.38s-2.66,4.81-5.17,5.16A12.26,12.26,0,0,0,514,443c-1.48.6-.66,2.78-1.65,4-1.42,1.77-4.78,1.81-6.31,3-1.83,1.38-2,4-2.1,6.28l-.23,8.94a1.48,1.48,0,0,1-.17.81c-.39.63-1.39.4-1.95-.09s-1-1.18-1.74-1.35a2,2,0,0,0-2.2,1.62,10,10,0,0,0-.06,3,10,10,0,0,1-.58,3.69,1.67,1.67,0,0,1-1,1.17c-.46.12-.94-.14-1.41-.11-1.26.07-1.52,1.81-1.39,3.06l.72,7.49a7.93,7.93,0,0,1-.4,4.33c-.65,1.32-2.4,2.42-3.63,1.63a8.8,8.8,0,0,1-3.49.41,2.69,2.69,0,0,1-2.45-1.42c-.36-1.06.47-2.11.91-3.14a4.6,4.6,0,0,0-.21-3.92,4.86,4.86,0,0,1-1-2.15,4.39,4.39,0,0,1,1-2.12c.41-.67.63-1.66,0-2.18a1.66,1.66,0,0,0-2,.21,7.84,7.84,0,0,1-1.71,1.29c-1.17.46-2.71-.21-3.66.62s-.43,2.7-1.25,3.77a4,4,0,0,1-2.91,1,8.23,8.23,0,0,0,.65-4c0-3.48-.05-7.06-1.37-10.28-1-2.51-2.82-4.77-3.18-7.47-.46-3.5,1.53-7.47-.47-10.38a4.85,4.85,0,0,1-.09-5.24c1-1.69,1.77-3.52,1.34-5.39a9.17,9.17,0,0,1-.59-2.59,6.44,6.44,0,0,1,1.2-2.64,8.48,8.48,0,0,0,.61-6.89c-.4-1.13-1.06-2.25-.87-3.43a3.83,3.83,0,0,1,2.67-2.73c1.25-.46,2.61-.58,3.87-1a2.78,2.78,0,0,0,1.3-.79c.69-.83.45-2.06.53-3.15.13-2.12,1.54-3.91,2.77-5.65a57.4,57.4,0,0,0,3.28-5.07A3.38,3.38,0,0,1,489,404.6a3,3,0,0,0,2.45-.14c.78-.43,1.33-1.22,2.13-1.62a4.93,4.93,0,0,1,2.36-.31c3.06.15,6.18.65,9.15-.11s5.81-3.27,5.65-6.33c-.1-2-1.37-3.69-1.58-5.64-.23-2.15.82-4.51-.25-6.4a14.2,14.2,0,0,0-1.91-2.13,7.66,7.66,0,0,1-1.27-6.72,20.27,20.27,0,0,1,3.14-6.33,30.42,30.42,0,0,1,5.29-6.49c5.07-4.38,12.2-5.4,18.9-5.49a7.39,7.39,0,0,0,2.44-.34,3.09,3.09,0,0,1,3.16.78c1.48,1.41,3,2.76,4.44,4.29,2.22,2.3,4.59,5,4.37,8.2-.15,2.23-1.59,4.21-1.78,6.43a7.58,7.58,0,0,0,2.66,6.05,16.14,16.14,0,0,0,6,3.18,14,14,0,0,1,3.69,1.51C559.18,387.73,560.26,388.62,560.32,390Z"/><path class="cls-5" d="M575.6,425.4a.27.27,0,0,0-.43,0c-.85,1.05-2.62,1-4,.72-5.7-1.06-11.5-2.8-17.17-1.64-3.55.72-6.78,2.55-10.27,3.57-3,.87-6.33,1.22-8.6,3.36-1.07,1-2,2.44-3.42,2.65s-2.61-.78-4-.93c-2.52-.29-4.43,2.15-5.64,4.38s-2.66,4.81-5.17,5.16A12.26,12.26,0,0,0,514,443c-1.48.6-.66,2.78-1.65,4-1.42,1.77-4.78,1.81-6.31,3-1.83,1.38-2,4-2.1,6.28l-.23,8.94a1.48,1.48,0,0,1-.17.81c-.39.63-1.39.4-1.95-.09s-1-1.18-1.74-1.35a2,2,0,0,0-2.2,1.62,10,10,0,0,0-.06,3,10,10,0,0,1-.58,3.69c-1,.57-.83,2.25,0,3a6.76,6.76,0,0,0,3.16,1.2,19.83,19.83,0,0,1,10.26,6c2.57,2.84,4.69,6.68,8.45,7.42a3,3,0,0,1,1.71.63c.56.6.37,1.54.32,2.35a5.51,5.51,0,0,0,4.2,5.48,5.46,5.46,0,0,1,2.52.75,4,4,0,0,1,1,2.14,28.3,28.3,0,0,0,3,7.36c.19.32.44.67.81.68a1.06,1.06,0,0,0,.64-.3c1.75-1.51,2.38-4.19,4.44-5.22,1.86-.92,4.06-.11,6.07.43a22.68,22.68,0,0,0,13.8-.63,11.31,11.31,0,0,0,4.92-3.22,13.51,13.51,0,0,0,2.3-5.37c.72-2.91,1.34-5.85,1.86-8.8a24.72,24.72,0,0,0,.51-6.69c-.23-2.4-1.1-4.69-1.55-7.05-.94-4.91,0-9.93,1.14-14.82a2.87,2.87,0,0,1,2.57-2.07,2.32,2.32,0,0,0,2.15-2c.09-1.38-1-2.49-1.84-3.6s-1.32-2.85-.26-3.73c.75-.61,1.84-.42,2.8-.56a5.33,5.33,0,0,0,3.93-3.48,15.71,15.71,0,0,0,.77-5.42l.13-5.15C576.91,429.83,576.94,427.32,575.6,425.4Z"/><path class="cls-6" d="M537.93,572.21c-1,0-2-.06-3-.12a9.06,9.06,0,0,1-3-.59c-2.44-1.07-3.91-4.08-6.56-4.33a5.45,5.45,0,0,0-3.48,1.16c-1,.72-1.94,1.6-3,2.25-1.67,1-3.69,1.51-5.13,2.84a17.79,17.79,0,0,0-2.28,3.08,5.24,5.24,0,0,1-2.94,2.33c-2,.43-3.85-1.07-5.87-1.32-1.47-.19-3.05.29-4.39-.34a5.66,5.66,0,0,1-2.12-2.14c-1.9-2.74-3.58-5.41-5.47-8.15-5,1.72-9.54,4.65-14,7.55-1,.65-2.11,1.45-2.29,2.64-.14.95.28,2.13-.46,2.73-.31.25-.73.3-1,.57a1.81,1.81,0,0,0-.22,1.75l1.54,7a5.74,5.74,0,0,1,.18,2.36,2,2,0,0,1-1.55,1.62,2.7,2.7,0,0,1-.89-.12c-3.09-.85-5.59-3.15-8.61-4.21a11.72,11.72,0,0,1-2.47-1,9.18,9.18,0,0,1-2.26-2.57,24.25,24.25,0,0,0-5.51-5.52c-.45-.31-1-.83-.7-1.3a1.12,1.12,0,0,1,.47-.39,9.55,9.55,0,0,1,2.66-.68c1.18,0,2.36.29,3.55.23a2.37,2.37,0,0,0,1.61-.55,2.84,2.84,0,0,0,.48-2.49,24.63,24.63,0,0,0-2.25-7.25,5.09,5.09,0,0,1-.71-2.11,3.58,3.58,0,0,1,.36-1.47,8.93,8.93,0,0,1,2.17-3,13.5,13.5,0,0,0,1.62-1.49,2.33,2.33,0,0,0,.55-2,2.44,2.44,0,0,0-1.54-1.45c-.67-.28-1.4-.4-2.07-.7a5.78,5.78,0,0,1-3.06-4.18,13.2,13.2,0,0,1,.26-5.34,10.56,10.56,0,0,1,1.16-3.33,8.73,8.73,0,0,0,1.2-2.06c.21-.76.18-1.82-.6-2a15.36,15.36,0,0,0-3.59-3,11.56,11.56,0,0,1-3.43-3.17,4.28,4.28,0,0,1-.26-4.46c.75-1.18,2.27-1.88,2.59-3.24.19-.82-.1-1.76.37-2.46a4.12,4.12,0,0,1,.81-.75,3.36,3.36,0,0,0,1.1-2.8c-.13-1.32-1-2.42-1.62-3.61a8,8,0,0,1-.38-6.07c.35-1,1.06-2.07,2.13-2.18a2.2,2.2,0,0,0,.89-.15,1.34,1.34,0,0,0,.48-1l1-6.08a3.21,3.21,0,0,1,.6-1.66c.39-.44,1-.63,1.43-1.05a4.58,4.58,0,0,0,.82-1.67,8.4,8.4,0,0,1,3.06-4c.9,0,1.47-1,1.71-1.86a4.66,4.66,0,0,1,1-2.44,3.8,3.8,0,0,1,1.57-.67c1.82-.49,3.73-1.31,4.64-3a4,4,0,0,0,2.91-1c.82-1.07.24-2.87,1.25-3.77s2.49-.16,3.66-.62a7.84,7.84,0,0,0,1.71-1.29,1.66,1.66,0,0,1,2-.21c.6.52.38,1.51,0,2.18a4.39,4.39,0,0,0-1,2.12,4.86,4.86,0,0,0,1,2.15,4.6,4.6,0,0,1,.21,3.92c-.44,1-1.27,2.08-.91,3.14a2.69,2.69,0,0,0,2.45,1.42,8.8,8.8,0,0,0,3.49-.41c1.23.79,3-.31,3.63-1.63a7.93,7.93,0,0,0,.4-4.33l-.72-7.49c-.13-1.25.13-3,1.39-3.06.48,0,1,.23,1.41.11.52,2.43,2.44,2.66,4.16,3.05a19.83,19.83,0,0,1,10.26,6c2.57,2.84,4.69,6.68,8.45,7.42a3,3,0,0,1,1.71.63c.56.6.37,1.54.32,2.35a5.51,5.51,0,0,0,4.2,5.48,5.46,5.46,0,0,1,2.52.75,4,4,0,0,1,1,2.14,28.3,28.3,0,0,0,3,7.36c1,1.67,2.19,2.48,3.21,4.12a7.23,7.23,0,0,1,.88,5.45,3.35,3.35,0,0,1-1.26,2.06c-.35.23-.76.36-1.09.61a2.48,2.48,0,0,0-.48,2.75c.34.93,1,1.72,1.4,2.62a1,1,0,0,1,.14.68c-.08.33-.42.51-.68.72-1,.87-1,2.48-.68,3.81,1.07,4.39,4.14,8,5.58,12.34A35.24,35.24,0,0,1,540,552.7a23.79,23.79,0,0,1,0,5.4c-.35,2.31-1.38,4.47-1.84,6.76A29.15,29.15,0,0,0,537.93,572.21Z"/><path class="cls-5" d="M515.13,637.17a12.73,12.73,0,0,1,1.24-7.29c.92-1.82,2.31-3.58,2.21-5.61-.12-2.58-2.54-4.36-4.71-5.75a76.39,76.39,0,0,1-15.12.29,7.17,7.17,0,0,1-3.49-.9c-1.59-1-2.13-3.08-3-4.78-2.38-4.63-7.5-7.11-11-10.93a39.12,39.12,0,0,1-4.28-6,26.11,26.11,0,0,1-2.5-4.77c0,1.09-1.4,1.78-2.44,1.5-3.09-.85-5.59-3.15-8.61-4.21a11.72,11.72,0,0,1-2.47-1,9.18,9.18,0,0,1-2.26-2.57,24.25,24.25,0,0,0-5.51-5.52c-2.29,1.2-2.85,4.09-3.27,6.63s-.48,5.45,1.61,6.76c1.77,1.1,4.47.47,5.74,2.12a4,4,0,0,1,.68,2,14.86,14.86,0,0,1-1,7.74,26.78,26.78,0,0,0-1.82,4.41c-.67,3.08.79,6.19,2.21,9l1.12,2.23c1.34,2.66,2.71,5.73,1.63,8.51-.62,1.59-2,3-1.78,4.7a9.4,9.4,0,0,0,.58,1.77,10.89,10.89,0,0,1,0,5.32l-.87,4.93c-.43,2.43,0,5.06-1.49,7-1,1.32-2.32,2.33-3.41,3.57a5.69,5.69,0,0,0-1.68,4.47c.16,1,.75,1.95.66,3-.07.75-.49,1.57-.07,2.2a1.74,1.74,0,0,0,1.11.64,9.47,9.47,0,0,0,6.27-.56,5.28,5.28,0,0,1,1.69-.61c1.48-.14,2.69,1.28,4.17,1.44a5.54,5.54,0,0,0,2.64-.65A30.68,30.68,0,0,1,481.24,664c1.69.1,2.78-1.44,3.38-3s.8-3.34,1.69-4.78c1.7-2.76,5.24-3.59,8.18-5,3.28-1.53,6.05-3.94,9-6s6.28-3.94,9.9-4c1.23,0,2.93-.22,3-1.46C516.48,638.71,515.26,638.2,515.13,637.17Z"/><path class="cls-5" d="M474.44,591.43a5.74,5.74,0,0,0-.18-2.36l-1.54-7a1.81,1.81,0,0,1,.22-1.75c.28-.27.7-.32,1-.57.74-.6.32-1.78.46-2.73.18-1.19,1.28-2,2.29-2.64,4.45-2.9,9-5.83,14-7.55,1.89,2.74,3.57,5.41,5.47,8.15a5.66,5.66,0,0,0,2.12,2.14c1.34.63,2.92.15,4.39.34,2,.25,3.89,1.75,5.87,1.32a5.24,5.24,0,0,0,2.94-2.33,17.79,17.79,0,0,1,2.28-3.08c1.44-1.33,3.46-1.81,5.13-2.84,1.06-.65,2-1.53,3-2.25a5.45,5.45,0,0,1,3.48-1.16c2.65.25,4.12,3.26,6.56,4.33a9.06,9.06,0,0,0,3,.59c1,.06,2,.1,3,.12a5,5,0,0,1,.29,4.11,19.62,19.62,0,0,0-1.24,4.11,2.8,2.8,0,0,0,.94,2.62c.4.28.91.37,1.34.61,1.14.63,1.54,2.05,1.83,3.32l2.3,10c.43,1.89.83,4-.21,5.66-.48.78-1.28,1.45-1.3,2.36s.93,1.74,1.65,2.45a10.25,10.25,0,0,1,2.73,6.87,30.66,30.66,0,0,1-.92,7.49c-.46,2.18.32,5.34-1,7.11-.53.69-1.25,1.23-1.74,1.94-.8,1.14-1,2.73-2.16,3.53-.83.58-1.95.57-2.88,1s-1.81,1.52-2.89,2c-1.92.84-4.08-.35-5.85-1.48s-4-2.29-5.86-1.38c-1.41.67-2.1,2.25-3.09,3.45s-3,2-4,.92a3,3,0,0,1-.68-1.76,12.73,12.73,0,0,1,1.24-7.29c.92-1.82,2.31-3.58,2.21-5.61-.12-2.58-2.54-4.36-4.71-5.75a76.39,76.39,0,0,1-15.12.29,7.17,7.17,0,0,1-3.49-.9c-1.59-1-2.13-3.08-3-4.78-2.38-4.63-7.5-7.11-11-10.93a39.12,39.12,0,0,1-4.28-6A26.11,26.11,0,0,1,474.44,591.43Z"/><path class="cls-5" d="M233.62,180.91a12.5,12.5,0,0,0-1.16-4.37c-2.91-6.44-7.28-10.75-6-18.42.38-2.34,1.69-5,4-5.21a7.26,7.26,0,0,1,3.23.79c4.56,1.82,9.15,1.76,13.88,2.57,7.38,1.26,16.13,1.15,20.87-4.64,1.11-1.35,2-3,3.62-3.71a7,7,0,0,1,4.28,0c17.18,3.89,31.37,18.12,49,18.91,14,.64,28.63-6.43,33.48-19.62,1.41-3.83,1.76-8.79,5.29-10.84a22.45,22.45,0,0,1,10.11-2.92c2.16,2,4.56,3.49,5.76,6.16,1.48,3.28,1.25,7.06.56,10.58a42.77,42.77,0,0,1-9,19.07,9.19,9.19,0,0,1-2.55,2.31c-2.79,1.51-6.22.18-9.4.33-3.39.17-6.42,2.06-9.28,3.89l-15,9.62a11.64,11.64,0,0,1-4.16,1.94c-2.31.41-4.81-.58-7,.31s-3.52,3.73-5.91,4.38c-1.52.41-3.1-.15-4.66-.39s-3.45,0-4.17,1.42c-.88,1.68.54,3.74.11,5.58s-2.74,2.91-3.54,4.73.12,4,.3,6c.53,6.07-6.24,10.68-12.32,10.43-1.8-.07-3.68-.41-5.31.33a9,9,0,0,0-3.26,3.21c-3.76,5.14-7,11.54-11.86,15.7.63-1.83-2-5.15-3.77-5.88s-3.81-.71-5.68-1.22-3.79-1.87-3.88-3.81c-.06-1.32.72-2.81-.08-3.87-.64-.83-1.87-.83-2.92-.78a36.78,36.78,0,0,1-10.5-1.08,6.86,6.86,0,0,1-3-1.39c-2.05-1.91-1.39-5.4-2.92-7.74-2.19-3.34-7.76-2.39-10.25.73-3.87-2.6-8.11-5.78-8.65-10.41C220.63,193.66,234.15,190.27,233.62,180.91Z"/><path class="cls-5" d="M293.89,219.83c6.08.25,12.85-4.36,12.32-10.43-.18-2-1.12-4.17-.3-6s3.09-2.79,3.54-4.73-1-3.9-.11-5.58c.72-1.4,2.62-1.66,4.17-1.42s3.14.8,4.66.39c2.39-.65,3.62-3.44,5.91-4.38s4.68.1,7-.31a11.64,11.64,0,0,0,4.16-1.94l15-9.62c2.86-1.83,5.89-3.72,9.28-3.89,3.18-.15,6.61,1.18,9.4-.33a9.19,9.19,0,0,0,2.55-2.31,42.77,42.77,0,0,0,9-19.07c.36-1.81-.07-4.08.51-5.78a1.91,1.91,0,0,1,2.13-1.37,2.71,2.71,0,0,1,.9.52l9.92,7.55c2.65,2,.21,4.23-.27,6.94a22.07,22.07,0,0,0,0,9.33c.36,1.37.87,2.82.42,4.16a16,16,0,0,1-.81,1.6,22.38,22.38,0,0,0-1,4,4,4,0,0,1-2.46,3.06c-.79.2-1.66,0-2.43.27a2.83,2.83,0,0,0-1.64,2.32,9,9,0,0,0,.27,3c1.42,7.29,4.32,15.69.18,21.86-.81,1.21-.29,2.84.39,4.12,2.22,4.14,6.1,7.77,6.1,12.46a10.33,10.33,0,0,1-3.24,7.14,21.72,21.72,0,0,1-6.76,4.29,16.22,16.22,0,0,0-3.66,1.94,9.77,9.77,0,0,0-3.25,6c-1.32,7.05,2.29,14.37.8,21.39-.4,1.92-1.36,4.16-1.05,6.1.65,4.06,6,5.4,8.17,8.88a17.31,17.31,0,0,1,1.64,4.81,27.11,27.11,0,0,0,1.27,3.61,52.65,52.65,0,0,0,4.07,7.15l1.33,2.08c-2.39-.39-4.35,2.68-4.95,5a2.65,2.65,0,0,1-.81,1.59,4.19,4.19,0,0,1-1.53.46c-1.72.46-2.68,2.29-3.17,4s-.73,3.58-1.85,5c-1.53,1.9-4.3,2.38-6,4.17s-1.87,4.26-3.19,6.19c-.61.89-1.43,1.63-2,2.56-2.52,4.36,1.82,10.95-1.71,14.54-2.07,2.1-5.61,1.61-8.28.37s-5.19-3.09-8.13-3.34c-1.53-.13-3.08.2-4.62.17a4.75,4.75,0,0,1-4-1.83c-1.72-2.77,1.58-6,1.93-9.24.14-1.27-.17-2.66.48-3.76.44-.75,1.26-1.22,1.69-2,.71-1.21.21-2.78-.59-3.93a32.21,32.21,0,0,1-2.53-3.34c-1.07-2.06-.74-4.55-1.34-6.78-1-3.82-4.61-6.4-6.38-9.93-.74-1.48-1.16-3.1-2-4.54-1.58-2.85-4.49-4.69-7.35-6.25a93.86,93.86,0,0,0-12.5-5.7c-1-.39-.08-2.13,1-2.22s2.42.22,3.17-.6c1.08-1.21-.43-2.94-1.56-4.11a10.08,10.08,0,0,1-1.64-11.27c.53-1,1.25-2.21.71-3.23a3.43,3.43,0,0,0-1.45-1.17,17.91,17.91,0,0,1-7.55-8.13c-.92-2-1.47-4.13-2.62-6-1.76-2.84-4.71-4.67-7-7.07a19.7,19.7,0,0,1-5.4-11.79C290.71,222.9,291.42,220.19,293.89,219.83Z"/><path class="cls-3" d="M313.27,281a93.86,93.86,0,0,1,12.5,5.7c2.86,1.56,5.77,3.4,7.35,6.25.8,1.44,1.22,3.06,2,4.54,1.77,3.53,5.35,6.11,6.38,9.93.6,2.23.27,4.72,1.34,6.78a32.21,32.21,0,0,0,2.53,3.34c.8,1.15,1.3,2.72.59,3.93-.43.74-1.25,1.21-1.69,2-.65,1.1-.34,2.49-.48,3.76-.35,3.24-3.65,6.47-1.93,9.24a4.75,4.75,0,0,0,4,1.83c1.54,0,3.09-.3,4.62-.17a14.14,14.14,0,0,1,6.66,2.12c2.82,1.9,2.84,4.21,2.62,7.35l-.07,1c0,.38-.06.75-.06,1.13,0,2.07.82,4,1,6.08.28,2.57-.53,5.16-1.2,7.6L357.33,371a9.48,9.48,0,0,0-.51,4.46c.25,1.26,1,2.45.87,3.73a9.6,9.6,0,0,1-.6,1.91c-.4,1.2-.43,2.49-.71,3.72-.63,2.77-2.48,5.1-3.47,7.77-1.32,3.57-1,7.53-1.78,11.26a4.32,4.32,0,0,1-.79,2,8.23,8.23,0,0,1-1.62,1.23c-2.93,2.06-3.66,6.07-3.7,9.65s.32,7.36-1.28,10.57c-4.16-1.31-8.51-2.48-12.68-3.79a14.16,14.16,0,0,1-4.94-2.3,11.55,11.55,0,0,1-3-4.46,31.86,31.86,0,0,1-2.27-7.6c-.33-1.89-.66-4.09-2.32-5.05a5.77,5.77,0,0,0-4.08-.15,4.63,4.63,0,0,1-2.92,0c-1.84-.85-1.74-3.6-3.12-5.1-1.12-1.22-3-1.36-4.65-1.31s-3.47.15-4.85-.78c-2.46-1.66-3.63-5.79-6.49-6.57-.89-.25-1.83-.26-2.72-.53a2.59,2.59,0,0,1-1.94-1.78c-.12-.58.08-1.19,0-1.78a3.45,3.45,0,0,0-1.89-2.28c-3.24-1.89-7.41-2.18-10.11-4.79-1.13-1.09-1.94-2.52-3.27-3.33a9.51,9.51,0,0,1-2.43-1.44,4.31,4.31,0,0,1-.76-3,28,28,0,0,1,1.83-9.45,51.2,51.2,0,0,0,2.06-5.45,7.83,7.83,0,0,0-.38-5.68,10.25,10.25,0,0,1-6.21-3.66,8.24,8.24,0,0,1-1.57-6.24,14.8,14.8,0,0,0,.5-3.29c-.13-1.78-1.46-3.23-2.88-4.31a21.78,21.78,0,0,1-4.12-3.38,2.17,2.17,0,0,1-.52-1.09,2.43,2.43,0,0,1,.84-1.74,27.39,27.39,0,0,1,5.44-4.63,5,5,0,0,0,3.85-1.38c.59-.56.9-1.39,1.56-1.87,1.33-1,3.17-.06,4.82-.08,2.58,0,4.46-2.37,6.78-3.49a8,8,0,0,0,1.94-1,5.29,5.29,0,0,0,1.3-2.22l1.31-3.39a5.42,5.42,0,0,1,1-1.83c1.49-1.57,4.06-.86,6.21-1.11,3.53-.41,6.42-3.68,10-3.41,1.42.11,2.63-.73,3.83-1.49a5.87,5.87,0,0,0,2.61-3.26c.34-1.26.1-2.62.37-3.9.36-1.68,1.54-3,2.55-4.43s1.91-3.06,1.58-4.75C313.68,283.38,312.78,282.19,313.27,281Z"/><path class="cls-4" d="M313.27,281a93.86,93.86,0,0,1,12.5,5.7c2.86,1.56,5.77,3.4,7.35,6.25.8,1.44,1.22,3.06,2,4.54,1.77,3.53,5.35,6.11,6.38,9.93.6,2.23.27,4.72,1.34,6.78a32.21,32.21,0,0,0,2.53,3.34c.8,1.15,1.3,2.72.59,3.93-.43.74-1.25,1.21-1.69,2-.65,1.1-.34,2.49-.48,3.76-.35,3.24-3.65,6.47-1.93,9.24a4.75,4.75,0,0,0,4,1.83c1.54,0,3.09-.3,4.62-.17a14.14,14.14,0,0,1,6.66,2.12c2.82,1.9,2.84,4.21,2.62,7.35l-.07,1c0,.38-.06.75-.06,1.13,0,2.07.82,4,1,6.08.28,2.57-.53,5.16-1.2,7.6L357.33,371a9.48,9.48,0,0,0-.51,4.46c.25,1.26,1,2.45.87,3.73a9.6,9.6,0,0,1-.6,1.91c-.4,1.2-.43,2.49-.71,3.72-.63,2.77-2.48,5.1-3.47,7.77-1.32,3.57-1,7.53-1.78,11.26a4.32,4.32,0,0,1-.79,2,8.23,8.23,0,0,1-1.62,1.23c-2.93,2.06-3.66,6.07-3.7,9.65s.32,7.36-1.28,10.57c-4.16-1.31-8.51-2.48-12.68-3.79a14.16,14.16,0,0,1-4.94-2.3,11.55,11.55,0,0,1-3-4.46,31.86,31.86,0,0,1-2.27-7.6c-.33-1.89-.66-4.09-2.32-5.05a5.77,5.77,0,0,0-4.08-.15,4.63,4.63,0,0,1-2.92,0c-1.84-.85-1.74-3.6-3.12-5.1-1.12-1.22-3-1.36-4.65-1.31s-3.47.15-4.85-.78c-2.46-1.66-3.63-5.79-6.49-6.57-.89-.25-1.83-.26-2.72-.53a2.59,2.59,0,0,1-1.94-1.78c-.12-.58.08-1.19,0-1.78a3.45,3.45,0,0,0-1.89-2.28c-3.24-1.89-7.41-2.18-10.11-4.79-1.13-1.09-1.94-2.52-3.27-3.33a9.51,9.51,0,0,1-2.43-1.44,4.31,4.31,0,0,1-.76-3,28,28,0,0,1,1.83-9.45,51.2,51.2,0,0,0,2.06-5.45,7.83,7.83,0,0,0-.38-5.68,10.25,10.25,0,0,1-6.21-3.66,8.24,8.24,0,0,1-1.57-6.24,14.8,14.8,0,0,0,.5-3.29c-.13-1.78-1.46-3.23-2.88-4.31a21.78,21.78,0,0,1-4.12-3.38,2.17,2.17,0,0,1-.52-1.09,2.43,2.43,0,0,1,.84-1.74,27.39,27.39,0,0,1,5.44-4.63,5,5,0,0,0,3.85-1.38c.59-.56.9-1.39,1.56-1.87,1.33-1,3.17-.06,4.82-.08,2.58,0,4.46-2.37,6.78-3.49a8,8,0,0,0,1.94-1,5.29,5.29,0,0,0,1.3-2.22l1.31-3.39a5.42,5.42,0,0,1,1-1.83c1.49-1.57,4.06-.86,6.21-1.11,3.53-.41,6.42-3.68,10-3.41,1.42.11,2.63-.73,3.83-1.49a5.87,5.87,0,0,0,2.61-3.26c.34-1.26.1-2.62.37-3.9.36-1.68,1.54-3,2.55-4.43s1.91-3.06,1.58-4.75C313.68,283.38,312.78,282.19,313.27,281Z"/><path class="cls-3" d="M27.89,344.19c.4-4.29.95-8.64.19-12.87-.6-3.33-2.34-6.34-3.36-9.56a12.5,12.5,0,0,1-.37-7.2l3.35-11.1c1-1.75,2.8-3.44,6.51-4.91,1-.41,2.13-.56,3.11-1.05A2.71,2.71,0,0,0,39,295c-.18-1.46-1.92-2.12-2.77-3.31a4.18,4.18,0,0,1,.26-4.68,12.36,12.36,0,0,1,3.78-3.21l13.6-8.67A10.8,10.8,0,0,1,59,273c2.8-.14,5.19,1.83,7.58,3.28a22.75,22.75,0,0,0,11.69,3.29c4,0,8.05-1,11.86.13,4.75,1.4,8.25,5.91,13.14,6.73a2.14,2.14,0,0,0,1.52-.16,2.36,2.36,0,0,0,.72-.9c5.39-9.74,2.92-21.15,2.45-32.28l-.74-17.59c-.23-5.48.08-12.06,4.78-14.9,3.56-2.15,8.3-1.06,11.69,1.33s5.82,5.89,8.53,9a59.12,59.12,0,0,0,30,18.58c3.08.78,6.5,1.48,8.48,4,2.45,3.07,1.78,7.79,4.14,10.94,3.48,4.63,11.16,2.86,15.27-1.23s6.36-9.78,10.55-13.79a4.92,4.92,0,0,0,1.39-1.76,4.32,4.32,0,0,0-.13-2.41l-3.17-12.66c-1.16-4.63-3.44-10.24-8.2-10.47a34.5,34.5,0,0,1,10.21-32.88c3.24-2.93,7.58-5.32,11.83-4.31,3.18.75,6,3.32,9.26,2.75,3.41-.61,3.39-2.71,6.16-4.41,1.14-.7,4.14-2.42,5.65-2.38.57,9.39-13,12.78-11.83,22.75.54,4.63,4.78,7.81,8.65,10.41,2.49-3.12,8.06-4.07,10.25-.73,1.53,2.34.87,5.83,2.92,7.74a6.86,6.86,0,0,0,3,1.39,36.78,36.78,0,0,0,10.5,1.08c1.05,0,2.28,0,2.92.78.8,1.06,0,2.55.08,3.87.09,1.94,2,3.3,3.88,3.81s3.88.48,5.68,1.22,4.4,4.05,3.77,5.88c4.82-4.16,8.1-10.56,11.86-15.7a9,9,0,0,1,3.26-3.21c1.63-.74,3.51-.4,5.31-.33-2.47.36-3.18,3.07-3,5.56a19.7,19.7,0,0,0,5.4,11.79c2.32,2.4,5.27,4.23,7,7.07,1.15,1.85,1.7,4,2.62,6a17.91,17.91,0,0,0,7.55,8.13,3.43,3.43,0,0,1,1.45,1.17c.54,1-.18,2.2-.71,3.23A10.08,10.08,0,0,0,315.91,274c1.13,1.17,2.64,2.9,1.56,4.11-.75.82-2.07.5-3.17.6s-2.07,1.83-1,2.22c-.49,1.23.41,2.42.66,3.73.33,1.69-.57,3.36-1.58,4.75s-2.19,2.75-2.55,4.43c-.27,1.28,0,2.64-.37,3.9a5.87,5.87,0,0,1-2.61,3.26c-1.2.76-2.41,1.6-3.83,1.49-3.54-.27-6.43,3-10,3.41-2.15.25-4.72-.46-6.21,1.11a5.42,5.42,0,0,0-1,1.83l-1.31,3.39a5.29,5.29,0,0,1-1.3,2.22,8,8,0,0,1-1.94,1c-2.32,1.12-4.2,3.45-6.78,3.49-1.65,0-3.49-.9-4.82.08-.66.48-1,1.31-1.56,1.87a5,5,0,0,1-3.85,1.38,27.39,27.39,0,0,0-5.44,4.63,2.43,2.43,0,0,0-.84,1.74,2.17,2.17,0,0,0,.52,1.09,21.78,21.78,0,0,0,4.12,3.38c1.42,1.08,2.75,2.53,2.88,4.31a14.8,14.8,0,0,1-.5,3.29,8.24,8.24,0,0,0,1.57,6.24,10.25,10.25,0,0,0,6.21,3.66,7.83,7.83,0,0,1,.38,5.68,51.2,51.2,0,0,1-2.06,5.45,28,28,0,0,0-1.83,9.45c0,2.47-3.39,4.26-5.71,5.12a27.73,27.73,0,0,1-7.27,1.22,8.06,8.06,0,0,0-4,1.11c-1,.69-1.66,1.78-2.71,2.37-1.95,1.09-4.38.08-6.3-1.06s-4-2.5-6.22-2c-3.29.72-4.28,4.79-5.46,7.95-1.82,4.87-5.45,8.82-9,12.64a4.3,4.3,0,0,1-1.74,1.32c-1,.29-2-.13-3-.24-3.39-.36-6,2.81-9,4.38-2.87,1.5-6.28,1.55-9.29,2.74-4.54,1.79-7.75,5.95-12.08,8.19-1.3.68-2.94,1.15-4.18.38a4.4,4.4,0,0,1-1.59-2.28c-.81-2.14-1.24-4.5-2.64-6.31s-4.32-2.76-6-1.19c-1.15,1.09-1.45,3.11-3,3.6a32.37,32.37,0,0,1-6.58-5L157,396.67a26.57,26.57,0,0,1-3.6-4.74c-2.69-4.94-2.31-11.69-6.67-15.23a11,11,0,0,0-7.9-2.07,32.21,32.21,0,0,0-8.08,2.11,10.9,10.9,0,0,0-3.62,1.81,18.48,18.48,0,0,1-2.06,1.9,22.48,22.48,0,0,1-2.84,1.08c-3.21,1.43-4,5.67-6.47,8.15-1.9,1.89-4.74,2.66-6.5,4.69a22.2,22.2,0,0,0-2.33,4c-1.44,2.58-3.59,4.7-5.12,7.23-4.13,6.79-3.25,15.49-6.06,22.92a3.6,3.6,0,0,1-1.92,2.39c-1.14.38-2.56-.31-3.53.41-.42.31-.65.82-1.07,1.13-.82.59-2,.16-2.88-.29l-6.09-3c-1.29-.63-2.79-1.57-2.74-3,0-1.07.93-1.89,1.37-2.86a4.76,4.76,0,0,0-.64-4.52,14.28,14.28,0,0,0-3.46-3.25c-2.76-2.05-8.07-.82-11.15-2.33-2.82-1.38-4.33-4.44-5.64-7.29a5.79,5.79,0,0,1-.76-2.84c.2-2.59,3.62-4,3.87-6.59.15-1.6-1-3-1.46-4.54-.74-2.38.12-5-.25-7.43-.42-2.83-2.43-5.18-4.64-7-1.62-1.32-3.55-2.51-5.64-2.4-2.73.14-4.87,2.41-6.22,4.78s-2.29,5-4.16,7a2.07,2.07,0,0,1-1.87.84,6.13,6.13,0,0,1-1.78-3.87,14.34,14.34,0,0,1,.11-1.46,8.74,8.74,0,0,1,.65-2.21,24.66,24.66,0,0,0,.47-12.39c-.92-4.15-3.3-8-5.28-11.78a27.68,27.68,0,0,1-3.15-11.91"/><path class="cls-4" d="M27.89,344.19c.4-4.29.95-8.64.19-12.87-.6-3.33-2.34-6.34-3.36-9.56a12.5,12.5,0,0,1-.37-7.2l3.35-11.1c1-1.75,2.8-3.44,6.51-4.91,1-.41,2.13-.56,3.11-1.05A2.71,2.71,0,0,0,39,295c-.18-1.46-1.92-2.12-2.77-3.31a4.18,4.18,0,0,1,.26-4.68,12.36,12.36,0,0,1,3.78-3.21l13.6-8.67A10.8,10.8,0,0,1,59,273c2.8-.14,5.19,1.83,7.58,3.28a22.75,22.75,0,0,0,11.69,3.29c4,0,8.05-1,11.86.13,4.75,1.4,8.25,5.91,13.14,6.73a2.14,2.14,0,0,0,1.52-.16,2.36,2.36,0,0,0,.72-.9c5.39-9.74,2.92-21.15,2.45-32.28l-.74-17.59c-.23-5.48.08-12.06,4.78-14.9,3.56-2.15,8.3-1.06,11.69,1.33s5.82,5.89,8.53,9a59.12,59.12,0,0,0,30,18.58c3.08.78,6.5,1.48,8.48,4,2.45,3.07,1.78,7.79,4.14,10.94,3.48,4.63,11.16,2.86,15.27-1.23s6.36-9.78,10.55-13.79a4.92,4.92,0,0,0,1.39-1.76,4.32,4.32,0,0,0-.13-2.41l-3.17-12.66c-1.16-4.63-3.44-10.24-8.2-10.47a34.5,34.5,0,0,1,10.21-32.88c3.24-2.93,7.58-5.32,11.83-4.31,3.18.75,6,3.32,9.26,2.75,3.41-.61,3.39-2.71,6.16-4.41,1.14-.7,4.14-2.42,5.65-2.38.57,9.39-13,12.78-11.83,22.75.54,4.63,4.78,7.81,8.65,10.41,2.49-3.12,8.06-4.07,10.25-.73,1.53,2.34.87,5.83,2.92,7.74a6.86,6.86,0,0,0,3,1.39,36.78,36.78,0,0,0,10.5,1.08c1.05,0,2.28,0,2.92.78.8,1.06,0,2.55.08,3.87.09,1.94,2,3.3,3.88,3.81s3.88.48,5.68,1.22,4.4,4.05,3.77,5.88c4.82-4.16,8.1-10.56,11.86-15.7a9,9,0,0,1,3.26-3.21c1.63-.74,3.51-.4,5.31-.33-2.47.36-3.18,3.07-3,5.56a19.7,19.7,0,0,0,5.4,11.79c2.32,2.4,5.27,4.23,7,7.07,1.15,1.85,1.7,4,2.62,6a17.91,17.91,0,0,0,7.55,8.13,3.43,3.43,0,0,1,1.45,1.17c.54,1-.18,2.2-.71,3.23A10.08,10.08,0,0,0,315.91,274c1.13,1.17,2.64,2.9,1.56,4.11-.75.82-2.07.5-3.17.6s-2.07,1.83-1,2.22c-.49,1.23.41,2.42.66,3.73.33,1.69-.57,3.36-1.58,4.75s-2.19,2.75-2.55,4.43c-.27,1.28,0,2.64-.37,3.9a5.87,5.87,0,0,1-2.61,3.26c-1.2.76-2.41,1.6-3.83,1.49-3.54-.27-6.43,3-10,3.41-2.15.25-4.72-.46-6.21,1.11a5.42,5.42,0,0,0-1,1.83l-1.31,3.39a5.29,5.29,0,0,1-1.3,2.22,8,8,0,0,1-1.94,1c-2.32,1.12-4.2,3.45-6.78,3.49-1.65,0-3.49-.9-4.82.08-.66.48-1,1.31-1.56,1.87a5,5,0,0,1-3.85,1.38,27.39,27.39,0,0,0-5.44,4.63,2.43,2.43,0,0,0-.84,1.74,2.17,2.17,0,0,0,.52,1.09,21.78,21.78,0,0,0,4.12,3.38c1.42,1.08,2.75,2.53,2.88,4.31a14.8,14.8,0,0,1-.5,3.29,8.24,8.24,0,0,0,1.57,6.24,10.25,10.25,0,0,0,6.21,3.66,7.83,7.83,0,0,1,.38,5.68,51.2,51.2,0,0,1-2.06,5.45,28,28,0,0,0-1.83,9.45c0,2.47-3.39,4.26-5.71,5.12a27.73,27.73,0,0,1-7.27,1.22,8.06,8.06,0,0,0-4,1.11c-1,.69-1.66,1.78-2.71,2.37-1.95,1.09-4.38.08-6.3-1.06s-4-2.5-6.22-2c-3.29.72-4.28,4.79-5.46,7.95-1.82,4.87-5.45,8.82-9,12.64a4.3,4.3,0,0,1-1.74,1.32c-1,.29-2-.13-3-.24-3.39-.36-6,2.81-9,4.38-2.87,1.5-6.28,1.55-9.29,2.74-4.54,1.79-7.75,5.95-12.08,8.19-1.3.68-2.94,1.15-4.18.38a4.4,4.4,0,0,1-1.59-2.28c-.81-2.14-1.24-4.5-2.64-6.31s-4.32-2.76-6-1.19c-1.15,1.09-1.45,3.11-3,3.6a32.37,32.37,0,0,1-6.58-5L157,396.67a26.57,26.57,0,0,1-3.6-4.74c-2.69-4.94-2.31-11.69-6.67-15.23a11,11,0,0,0-7.9-2.07,32.21,32.21,0,0,0-8.08,2.11,10.9,10.9,0,0,0-3.62,1.81,18.48,18.48,0,0,1-2.06,1.9,22.48,22.48,0,0,1-2.84,1.08c-3.21,1.43-4,5.67-6.47,8.15-1.9,1.89-4.74,2.66-6.5,4.69a22.2,22.2,0,0,0-2.33,4c-1.44,2.58-3.59,4.7-5.12,7.23-4.13,6.79-3.25,15.49-6.06,22.92a3.6,3.6,0,0,1-1.92,2.39c-1.14.38-2.56-.31-3.53.41-.42.31-.65.82-1.07,1.13-.82.59-2,.16-2.88-.29l-6.09-3c-1.29-.63-2.79-1.57-2.74-3,0-1.07.93-1.89,1.37-2.86a4.76,4.76,0,0,0-.64-4.52,14.28,14.28,0,0,0-3.46-3.25c-2.76-2.05-8.07-.82-11.15-2.33-2.82-1.38-4.33-4.44-5.64-7.29a5.79,5.79,0,0,1-.76-2.84c.2-2.59,3.62-4,3.87-6.59.15-1.6-1-3-1.46-4.54-.74-2.38.12-5-.25-7.43-.42-2.83-2.43-5.18-4.64-7-1.62-1.32-3.55-2.51-5.64-2.4-2.73.14-4.87,2.41-6.22,4.78s-2.29,5-4.16,7a2.07,2.07,0,0,1-1.87.84,6.13,6.13,0,0,1-1.78-3.87,14.34,14.34,0,0,1,.11-1.46,8.74,8.74,0,0,1,.65-2.21,24.66,24.66,0,0,0,.47-12.39c-.92-4.15-3.3-8-5.28-11.78a27.68,27.68,0,0,1-3.15-11.91"/><path class="cls-5" d="M435.34,339.24a24.49,24.49,0,0,0-.68-3.43c-.81-2.17-3-3.66-3.56-5.92-.37-1.62,0-3.8-1.5-4.53a3.42,3.42,0,0,0-1.55-.24,19.22,19.22,0,0,1-7.12-1.06,11.25,11.25,0,0,1-5.75-5.21c-1.13-2.19-1.71-5-3.87-6.15-1.85-1-4.41-.56-5.92-2,.17-2.38-.63-5.5-2.53-6.94s-4.34-.88-6.42-1.7-3.41-2.81-4.62-4.68c-2.38-.4-4.35,2.68-4.95,5a2.65,2.65,0,0,1-.81,1.59,4.4,4.4,0,0,1-1.53.47c-1.72.46-2.69,2.28-3.17,4s-.73,3.59-1.86,5c-1.53,1.9-4.3,2.39-6,4.17s-1.88,4.27-3.2,6.2c-.61.89-1.42,1.63-2,2.57-2.52,4.36,1.82,11-1.71,14.55a5.67,5.67,0,0,1-4.81,1.39,2.16,2.16,0,0,0-2.48,2,6,6,0,0,0,.51,3.45c.9,1.48,2.78,2,4.47,2.37l24.12,5.44a14.91,14.91,0,0,1,3.4,1.06c.8.39,1.52.92,2.3,1.35a10.33,10.33,0,0,0,9.55.14c.92-.48,4.4-1.69,4.9-2.59.81-1.48-1.21-4.22-.58-5.78.74-1.82,1.71-1.48,2.82-3.1s1.33-3.38,1.94-5.11,1.84-3.62,3.75-3.93a1.87,1.87,0,0,1,1.25.38c1.22.73,3,1,4.3,2a8.81,8.81,0,0,1,1.77,2.16c2.28,3.46,4.64,7.2,4.59,11.34a1.74,1.74,0,0,0,.09.72,1.16,1.16,0,0,0,1,.58,3.05,3.05,0,0,0,2.52-1.17,8.88,8.88,0,0,0,1.34-2.55l1.5-3.75a11.22,11.22,0,0,0,1.16-5.42A23.55,23.55,0,0,0,435.34,339.24Z"/><g id="punticos"><circle class="cls-7" cx="188.29" cy="320.91" r="4.46"/><circle class="cls-7" cx="312.57" cy="355.26" r="4.46"/><circle class="cls-7" cx="266.48" cy="191.53" r="4.46"/><circle class="cls-7" cx="393.26" cy="337.82" r="4.46"/><circle class="cls-7" cx="342.82" cy="229.77" r="4.46"/><circle class="cls-7" cx="494.92" cy="296.92" r="4.46"/><circle class="cls-7" cx="480.8" cy="633.99" r="4.46"/><circle class="cls-7" cx="520.05" cy="597.51" r="4.46"/><circle class="cls-7" cx="365.46" cy="482.87" r="4.46"/><circle class="cls-7" cx="417.43" cy="549.54" r="4.46"/><circle class="cls-7" cx="148.87" cy="134.7" r="4.46"/><circle class="cls-7" cx="541.06" cy="470.07" r="4.46"/><circle class="cls-7" cx="524.51" cy="405.82" r="4.46"/><circle class="cls-7" cx="496.32" cy="356.39" r="4.46"/><circle class="cls-7" cx="415.34" cy="229.77" r="4.46"/><circle class="cls-7" cx="496.32" cy="180.87" r="4.46"/><circle class="cls-7" cx="435.27" cy="112.57" r="4.46"/></g><g class="cls-8"><circle class="cls-9" cx="528.88" cy="531.43" r="43.48"/><path class="cls-10" d="M528.88,490.21a41.22,41.22,0,1,1-41.21,41.22,41.21,41.21,0,0,1,41.21-41.22m0-4.53a45.75,45.75,0,1,0,45.75,45.75,45.8,45.8,0,0,0-45.75-45.75Z"/></g><g class="cls-11"><path class="cls-12" d="M540.08,540.55c-4.64-2.53-3.37-14.76-3.37-14.76l-7,.45v-.45L529,526l-.75-.22v.45l-6.95-.45S522.59,538,518,540.55s-32.06,3.8-29.11,32.07h80.35C572.15,544.35,544.73,543.09,540.08,540.55Z"/><path class="cls-13" d="M520.35,537.4q8.32-1.24,16.64-2.56a37.06,37.06,0,0,1-.28-9.05l-7,.45v-.45L529,526l-.75-.22v.45l-6.95-.45S522.06,532.9,520.35,537.4Z"/><path class="cls-14" d="M512.25,540.91,530.7,556l-1.07,16.67H486.72S483.44,545.65,512.25,540.91Z"/><polygon class="cls-15" points="528.8 568.58 526.1 556.45 504.54 552.44 530.24 555.33 528.8 568.58"/><path class="cls-16" d="M518,540.55l13.16,15.15-26.88-3.12,5.11-6.93-6.57-2.55S512.42,540,518,540.55Z"/><path class="cls-14" d="M545.51,540.91l-17.32,16,.08,15.7,42.77,0S574.33,545.65,545.51,540.91Z"/><path class="cls-16" d="M540.08,540.55l-11.89,16.37,25.35-4.34-5.11-6.93L555,543.1S545.68,539.83,540.08,540.55Z"/><circle class="cls-15" cx="529.42" cy="558.38" r="0.72"/><circle class="cls-15" cx="529.42" cy="563.28" r="0.72"/><path class="cls-13" d="M515.43,507.88c-1.37-4.24-4.61-3.26-4.91-3.16s-3.66.54-3.09,4.95,3.17,6.86,5.58,6.15C515.5,515.43,516.8,512.15,515.43,507.88Z"/><path class="cls-13" d="M542.73,507.88c1.37-4.24,4.6-3.26,4.91-3.16s3.66.54,3.08,4.95-3.16,6.86-5.58,6.15C542.66,515.43,541.35,512.15,542.73,507.88Z"/><path class="cls-12" d="M512.11,501.45c1.7-18.59,15.83-17.55,17.17-17.41,1.33-.14,15.47-1.18,17.16,17.41s-6.84,29-17.38,28.29C518.52,530.41,510.41,520.16,512.11,501.45Z"/><path class="cls-17" d="M529.63,516.28a6.42,6.42,0,0,1,1.38-1.46,9.26,9.26,0,0,1,1.65-1.06l-.15.34c-.32-3.48-.61-7-.8-10.47.58,3.46,1.07,6.92,1.52,10.39l0,.18-.18.16a9,9,0,0,1-1.58,1.16A6.27,6.27,0,0,1,529.63,516.28Z"/><path class="cls-9" d="M536.48,519.62c-3.36,3.27-8.6,3-12.92.14"/><path class="cls-18" d="M542.61,502.25a18.67,18.67,0,0,0-4.75-1.39,5.69,5.69,0,0,0-2.15.18,10.57,10.57,0,0,0-1.19.36c-.42.14-.82.35-1.33.49a5.79,5.79,0,0,1,.67-1.34,5.28,5.28,0,0,1,1.1-1.06,4.63,4.63,0,0,1,3.08-.82,5.44,5.44,0,0,1,2.88,1.17A5,5,0,0,1,542.61,502.25Z"/><path class="cls-18" d="M526.72,501.89a19.18,19.18,0,0,0-5-1.06,6.08,6.08,0,0,0-2.24.34,10,10,0,0,0-1.21.44c-.42.16-.82.4-1.33.57a5.82,5.82,0,0,1,.63-1.39,5.07,5.07,0,0,1,1.09-1.13,4.75,4.75,0,0,1,3.08-1,5.6,5.6,0,0,1,3,.95A5.2,5.2,0,0,1,526.72,501.89Z"/><path class="cls-19" d="M524.44,509a5.49,5.49,0,0,0-1-2.11,2.42,2.42,0,0,0-1.91-.88,2.13,2.13,0,0,0-1.9.8,4.39,4.39,0,0,0-.77,2.19,3.5,3.5,0,0,1,.34-2.48,2.49,2.49,0,0,1,1-.92,3.1,3.1,0,0,1,1.33-.24,2.73,2.73,0,0,1,2.3,1.22A3.93,3.93,0,0,1,524.44,509Z"/><path class="cls-19" d="M540.26,508.74a5.16,5.16,0,0,0-1-2.11,2.43,2.43,0,0,0-1.91-.89,2.19,2.19,0,0,0-1.9.8,4.42,4.42,0,0,0-.76,2.2,3.47,3.47,0,0,1,.34-2.49,2.35,2.35,0,0,1,1-.91,3.24,3.24,0,0,1,1.33-.25,2.76,2.76,0,0,1,2.3,1.23A4,4,0,0,1,540.26,508.74Z"/><path class="cls-18" d="M520.22,487.38s.89-3,.56-4.5,1.54,3.41,3.32,3S520.22,487.38,520.22,487.38Z"/><path class="cls-18" d="M520.38,487.94a11.28,11.28,0,0,0-1.73-3.54c-.95-.93,2.73,1.75,3.85.61S520.38,487.94,520.38,487.94Z"/><path class="cls-18" d="M543.41,493.47c-.1,2,3.28,17.19,3.28,17.19s1-18.76-3.81-22.59a22.2,22.2,0,0,0-19.86-3.7c-8,2.27-13.09,9-12.47,16.84S512,510.6,512,510.6s2.7-12.34,2.63-16.06a4.43,4.43,0,0,1,.29-1.69,7.83,7.83,0,0,1,5.14-4.87c3.65-1,13.4-.43,17.12-.15C537.21,487.83,543.64,488.89,543.41,493.47Z"/></g><g class="cls-8"><path class="cls-9" d="M439.54,458.31A55.44,55.44,0,1,1,495,402.87,55.5,55.5,0,0,1,439.54,458.31Z"/><path class="cls-10" d="M439.54,350.9a52,52,0,1,1-52,52,52,52,0,0,1,52-52m0-6.93a58.9,58.9,0,1,0,58.9,58.9,59,59,0,0,0-58.9-58.9Z"/></g><g class="cls-20"><path class="cls-21" d="M458.77,321.37l-26.19,45.91a8.48,8.48,0,0,0-1.24,5.94v.06a8.42,8.42,0,0,1-1,5.53L416.5,403.94l3.33,1.83,44.51-81.33Z"/><path class="cls-21" d="M470.43,327.8l-24.85,46.65a8.5,8.5,0,0,1-4.37,4.22l0,0a8.49,8.49,0,0,0-4.15,3.79l-13.85,25.13-3.33-1.84,44.51-81.33Z"/><path class="cls-21" d="M464.34,324.44l-5.57-3.07-26.19,45.91a8.48,8.48,0,0,0-1.24,5.94v.06a8.42,8.42,0,0,1-1,5.53L416.5,403.94l3.33,1.83,3.33,1.84L437,382.48a8.49,8.49,0,0,1,4.15-3.79l0,0a8.5,8.5,0,0,0,4.37-4.22l24.85-46.65Z"/><path class="cls-22" d="M435.33,372.55a4.51,4.51,0,0,1,.68-3.14l24.3-42.57,4.67,2.58-23,43.13a4.64,4.64,0,0,1-2.3,2.36A3.27,3.27,0,0,1,435.33,372.55Z"/><path class="cls-23" d="M428.44,389.24l-29,52.95h0c-2.34-1.29-7.06-6.37-5.77-8.71l20.29-36.8a28.4,28.4,0,0,1,9.52-10.19Z"/><path class="cls-24" d="M403.88,428.27c-1.48-1.3-2.89-3.35-2.73-4l15.47-28a20.29,20.29,0,0,1,6.12-6.81l1.86,1Z"/><path class="cls-25" d="M428.44,389.24l-29,52.95h0c2.34,1.3,8.9,2.44,10.19.09l20.3-36.8A28.42,28.42,0,0,0,433.43,392Z"/><g class="cls-26"><polygon class="cls-22" points="466.16 335.81 447.44 341.22 443.66 347.86 462.67 342.36 466.16 335.81"/></g><g class="cls-26"><polygon class="cls-22" points="461.06 345.38 441.91 350.92 439.29 355.51 458.65 349.92 461.06 345.38"/></g><path class="cls-21" d="M431.07,320.82l-11,49.56a12.08,12.08,0,0,0-.15,5.61v0a11.85,11.85,0,0,1-.06,5.16l-5.73,26.94,2.13.33,18.37-87.08Z"/><path class="cls-21" d="M438.54,322l-10.13,49.7a12.71,12.71,0,0,1-2.16,5.29l0,0a12.47,12.47,0,0,0-2.07,4.84l-5.74,26.94-2.14-.33,18.37-87.08Z"/><path class="cls-21" d="M434.64,321.38l-3.57-.56-11,49.56a12.08,12.08,0,0,0-.15,5.61v0a11.85,11.85,0,0,1-.06,5.16l-5.73,26.94,2.13.33,2.14.33,5.74-26.94a12.47,12.47,0,0,1,2.07-4.84l0,0a12.71,12.71,0,0,0,2.16-5.29L438.54,322Z"/><path class="cls-22" d="M422.2,373.9a6.31,6.31,0,0,1,.1-3l10.2-46,3,.47-9.37,45.94a7,7,0,0,1-1.12,2.91C424,375.63,422.59,375.43,422.2,373.9Z"/><path class="cls-27" d="M419.58,390.9l-11.93,56.72h0c-2.54-.39-8.35-3.4-7.82-5.91l8.4-39.46a28.45,28.45,0,0,1,5.95-12.19Z"/><path class="cls-28" d="M407,434.82a8,8,0,0,1-3.1-2.16l6.81-32a21.25,21.25,0,0,1,3.8-8.3l1.37.22Z"/><path class="cls-29" d="M419.58,390.9l-11.93,56.72h0c2.54.4,8.94-.71,9.47-3.22l8.41-39.47a26.24,26.24,0,0,0-.55-13.19Z"/><g class="cls-26"><polygon class="cls-22" points="436.39 330.46 425.89 342.19 424.31 349.35 434.96 337.43 436.39 330.46"/></g><g class="cls-26"><polygon class="cls-22" points="434.31 340.65 423.57 352.66 422.47 357.62 433.32 345.48 434.31 340.65"/></g><path class="cls-30" d="M477.36,444.94l3.94,14s-1.89.86-2.91.18-6.16-13.69-6.16-13.69Z"/><path class="cls-30" d="M434.2,442.33l-5.59,13.45s1.76,1.08,2.86.52,7.77-12.84,7.77-12.84Z"/><path class="cls-31" d="M428.61,455.78l5.54-13.33s-3.75,14.13-4.42,13.86A9.68,9.68,0,0,1,428.61,455.78Z"/><path class="cls-31" d="M476.52,444.84l4.32,13.78s-1.45.66-2.24.13-5.22-12.57-5.22-12.57Z"/><path class="cls-32" d="M502.85,406.9c0,23.7-21.06,42.71-44.75,42.87-26.61.17-46.78-19.91-46.78-43.61,0-8.37,2.22-22.82,7.65-22.58,21.69,1,22.8,1.34,38.13,1.34,14.25,0,21.42-1,33.85-4.07C499.52,378.71,502.85,397.45,502.85,406.9Z"/><g class="cls-33"><path class="cls-34" d="M408.65,390.39C429,412.15,498,404,506.27,391.59c4.43-6.64,10,24.34,3.11,31.25C488.63,443.58,428.71,445,408,424.29,401.05,417.38,403.21,384.56,408.65,390.39Z"/><g class="cls-35"><path class="cls-36" d="M409.92,426.16a3.48,3.48,0,0,1,1.23-.62,3.59,3.59,0,0,0,1.11-1.47,4.23,4.23,0,0,0-.69-2.25c-.12-.9-.23-1.8-.3-2.72a3.23,3.23,0,0,1,1.21-1.66c.52-.32,1.25-.53,1.27-.65a.71.71,0,0,0-.4-.18c-.09.06,0,.13,0,.14s0-.12,0-.14a4.74,4.74,0,0,0-1.76.85,3.6,3.6,0,0,0-.64,2.31,5.27,5.27,0,0,0,.7,2.75c.17,1,.21,1.22.13,1.44a1.91,1.91,0,0,1-1.44,1.44c-.74.54-.63.45-.65.46a1,1,0,0,0-.16.09s.12.09.18.09"/><path class="cls-36" d="M412.11,427.06a3.81,3.81,0,0,1,1.24-.62,3.42,3.42,0,0,0,1.1-1.47,4.06,4.06,0,0,0-.69-2.25c-.11-.9-.22-1.8-.29-2.72a3.23,3.23,0,0,1,1.21-1.66c.52-.32,1.25-.53,1.27-.65a.71.71,0,0,0-.4-.18c-.09.06,0,.13,0,.14s0-.12,0-.14a4.92,4.92,0,0,0-1.76.85,3.6,3.6,0,0,0-.64,2.31,5.27,5.27,0,0,0,.7,2.75c.17,1,.21,1.22.13,1.44a1.91,1.91,0,0,1-1.44,1.44l-.65.46a1,1,0,0,0-.17.09s.13.09.19.1"/><path class="cls-36" d="M414.23,427.86a3.48,3.48,0,0,1,1.23-.62,3.59,3.59,0,0,0,1.11-1.47,4.23,4.23,0,0,0-.69-2.25c-.12-.91-.23-1.8-.3-2.72a3.23,3.23,0,0,1,1.21-1.66c.52-.32,1.25-.53,1.27-.65a.71.71,0,0,0-.39-.18c-.1.05,0,.13,0,.14s0-.13,0-.14a4.57,4.57,0,0,0-1.76.85,3.59,3.59,0,0,0-.64,2.31,5.39,5.39,0,0,0,.7,2.75c.17,1,.21,1.22.13,1.43a1.9,1.9,0,0,1-1.44,1.45c-.74.54-.63.45-.65.46l-.16.08s.13.09.18.1"/><path class="cls-36" d="M426.91,415.74a2.92,2.92,0,0,1-.36,1.13,1.94,1.94,0,0,0,.29,1.33,3.35,3.35,0,0,0,2,.33c.69.24,1.36.49,2,.77a1.9,1.9,0,0,1,.36,1.49c-.12.49-.45,1.09-.38,1.16a1.11,1.11,0,0,0,.38-.23c0-.09-.09,0-.09-.06s.11,0,.09.06a4.23,4.23,0,0,0,.55-1.58,1.93,1.93,0,0,0-1.16-1.31,4.19,4.19,0,0,0-2.31-.5c-.78-.24-1-.29-1-.43a1.19,1.19,0,0,1-.06-1.57c.11-.74.1-.62.1-.64a.86.86,0,0,0,.05-.15s-.14.06-.18.1"/><path class="cls-36" d="M424.9,417a2.92,2.92,0,0,1-.36,1.13,1.94,1.94,0,0,0,.29,1.33,3.35,3.35,0,0,0,2,.33c.68.25,1.36.49,2,.77a1.85,1.85,0,0,1,.35,1.49c-.11.49-.44,1.09-.37,1.16a1.24,1.24,0,0,0,.38-.22c0-.1-.09-.05-.09-.06s.11,0,.09.05a4.1,4.1,0,0,0,.54-1.58,1.94,1.94,0,0,0-1.15-1.31,4.28,4.28,0,0,0-2.31-.5c-.78-.24-1-.29-1.05-.43a1.19,1.19,0,0,1-.06-1.57c.11-.74.1-.62.1-.64a.86.86,0,0,0,.05-.15s-.14.06-.18.1"/><path class="cls-36" d="M423,418.24a2.92,2.92,0,0,1-.36,1.13,1.94,1.94,0,0,0,.29,1.33,3.35,3.35,0,0,0,2,.33c.69.24,1.36.49,2,.77a1.9,1.9,0,0,1,.36,1.49c-.12.49-.45,1.09-.38,1.16a1.24,1.24,0,0,0,.38-.22c0-.1-.09-.05-.09-.07s.11,0,.09.06a4.23,4.23,0,0,0,.55-1.58,1.93,1.93,0,0,0-1.16-1.31,4.19,4.19,0,0,0-2.31-.5c-.78-.24-1-.29-1.05-.43a1.19,1.19,0,0,1-.06-1.57c.11-.74.1-.62.11-.64a1,1,0,0,0,0-.15s-.14.06-.18.1"/><path class="cls-36" d="M436.49,422.49a3.56,3.56,0,0,1,1.39-.14,3.51,3.51,0,0,0,1.58-1,4.05,4.05,0,0,0,.22-2.36c.23-.9.47-1.78.75-2.67a3.27,3.27,0,0,1,1.76-1.12,11.53,11.53,0,0,0,1.44-.15c0-.12-.19-.24-.31-.32s-.05.13-.06.13,0-.13.06-.12a4.67,4.67,0,0,0-2,.16,3.64,3.64,0,0,0-1.47,1.93,5.32,5.32,0,0,0-.39,2.85c-.22,1-.27,1.22-.43,1.39a1.93,1.93,0,0,1-1.88.84c-.91.23-.77.19-.79.19l-.19,0s.09.13.14.16"/><path class="cls-36" d="M438.2,424.14a3.56,3.56,0,0,1,1.39-.14,3.51,3.51,0,0,0,1.58-1,4.08,4.08,0,0,0,.22-2.37c.23-.89.47-1.77.75-2.66a3.27,3.27,0,0,1,1.76-1.12,11.53,11.53,0,0,0,1.44-.15c0-.12-.19-.24-.31-.32s0,.12-.06.13,0-.13.06-.13a5.06,5.06,0,0,0-2,.16,3.7,3.7,0,0,0-1.47,1.94,5.27,5.27,0,0,0-.39,2.84c-.22,1-.27,1.23-.43,1.4a1.92,1.92,0,0,1-1.89.83l-.78.2-.19,0s.09.13.14.16"/><path class="cls-36" d="M439.87,425.66a3.56,3.56,0,0,1,1.39-.14,3.51,3.51,0,0,0,1.58-1,4.08,4.08,0,0,0,.22-2.37c.23-.89.47-1.77.75-2.66a3.27,3.27,0,0,1,1.76-1.12,14,14,0,0,0,1.44-.15c0-.12-.19-.24-.31-.32s-.05.12-.06.13,0-.13.06-.13a5.06,5.06,0,0,0-2,.16,3.75,3.75,0,0,0-1.47,1.94,5.27,5.27,0,0,0-.39,2.84c-.22,1-.27,1.23-.43,1.4a1.91,1.91,0,0,1-1.88.83l-.79.2-.19,0s.09.13.14.16"/><path class="cls-36" d="M454.67,415.57a4,4,0,0,1,0,1.46,4.1,4.1,0,0,0,.88,1.8,4.45,4.45,0,0,0,2.42.59c.9.39,1.79.77,2.69,1.2a3.83,3.83,0,0,1,1,2,12.82,12.82,0,0,0,0,1.51c.12,0,.26-.16.35-.26s-.12-.07-.13-.09.13,0,.13.08a5.07,5.07,0,0,0,0-2.06A4.22,4.22,0,0,0,460.2,420a5.89,5.89,0,0,0-2.89-.86c-1-.38-1.24-.46-1.41-.65a2.21,2.21,0,0,1-.71-2.09c-.17-1-.13-.82-.13-.84a1.64,1.64,0,0,0,0-.2s-.14.07-.18.11"/><path class="cls-36" d="M452.84,417.08a4,4,0,0,1,0,1.46,4,4,0,0,0,.88,1.8,4.45,4.45,0,0,0,2.42.59c.9.39,1.79.77,2.68,1.2a3.78,3.78,0,0,1,1,2,10.85,10.85,0,0,0,0,1.51c.12,0,.25-.16.35-.26s-.12-.07-.13-.09.13,0,.12.08a4.8,4.8,0,0,0,0-2.06,4.27,4.27,0,0,0-1.88-1.83,5.82,5.82,0,0,0-2.9-.85c-1-.39-1.23-.47-1.4-.66a2.21,2.21,0,0,1-.71-2.09c-.17-1-.13-.82-.14-.84a1.31,1.31,0,0,0,0-.2s-.15.07-.18.12"/><path class="cls-36" d="M451.14,418.57a3.78,3.78,0,0,1,0,1.46,4.21,4.21,0,0,0,.88,1.8,4.45,4.45,0,0,0,2.42.59c.9.39,1.79.77,2.69,1.2a3.83,3.83,0,0,1,1,2,12.82,12.82,0,0,0,0,1.51c.12,0,.26-.16.35-.26s-.12-.07-.13-.09.14,0,.13.08a5.06,5.06,0,0,0,0-2.06,4.22,4.22,0,0,0-1.88-1.83,5.78,5.78,0,0,0-2.89-.85c-1-.38-1.24-.47-1.41-.66a2.21,2.21,0,0,1-.71-2.09c-.17-1-.13-.81-.13-.84a1.72,1.72,0,0,0,0-.2s-.14.07-.17.12"/><path class="cls-36" d="M467.51,423.78a4,4,0,0,1,1.42-.5,4.35,4.35,0,0,0,1.53-1.43,4.62,4.62,0,0,0-.06-2.57c.14-1,.28-2,.46-3a4.16,4.16,0,0,1,1.69-1.63c.62-.27,1.41-.38,1.47-.52s-.22-.2-.35-.26,0,.15-.05.16,0-.14.05-.15a5.09,5.09,0,0,0-2,.66,4.65,4.65,0,0,0-1.3,2.43,6.21,6.21,0,0,0-.07,3.12c-.1,1.12-.13,1.37-.27,1.59a2.39,2.39,0,0,1-1.86,1.36c-.9.48-.76.39-.78.4l-.2.07s.11.12.16.14"/><path class="cls-36" d="M469.47,425.11a4.14,4.14,0,0,1,1.43-.5,4.54,4.54,0,0,0,1.53-1.43,4.75,4.75,0,0,0-.06-2.58c.14-1,.28-2,.46-3a4.16,4.16,0,0,1,1.69-1.63c.62-.27,1.41-.38,1.47-.52s-.22-.2-.35-.26,0,.14-.05.16,0-.15.05-.15a5,5,0,0,0-2,.65,4.69,4.69,0,0,0-1.3,2.43,6.25,6.25,0,0,0-.07,3.13c-.1,1.11-.13,1.36-.27,1.59a2.39,2.39,0,0,1-1.86,1.36l-.79.4a.93.93,0,0,0-.19.07s.11.12.16.13"/><path class="cls-36" d="M471.39,426.31a4,4,0,0,1,1.42-.5,4.44,4.44,0,0,0,1.53-1.43,4.62,4.62,0,0,0-.06-2.57c.14-1,.28-2,.46-3a4.16,4.16,0,0,1,1.69-1.63,12.77,12.77,0,0,0,1.48-.52c-.05-.11-.23-.2-.36-.26s0,.14-.05.16,0-.15.05-.15a5.09,5.09,0,0,0-2,.66,4.68,4.68,0,0,0-1.3,2.43,6.21,6.21,0,0,0-.07,3.12c-.1,1.12-.12,1.37-.27,1.59a2.38,2.38,0,0,1-1.85,1.36l-.79.4-.2.07s.11.12.16.13"/><path class="cls-36" d="M485.11,412.81a3.35,3.35,0,0,1,.11,1.32,3.06,3.06,0,0,0,.91,1.44,3.82,3.82,0,0,0,2.24,0c.84.16,1.68.31,2.52.5a2.81,2.81,0,0,1,1,1.6,10.47,10.47,0,0,0,.12,1.36c.11,0,.22-.2.3-.32s-.11,0-.12,0,.12,0,.12,0a4.4,4.4,0,0,0-.12-1.86,3.08,3.08,0,0,0-1.82-1.25,4.94,4.94,0,0,0-2.69-.14c-1-.12-1.16-.15-1.32-.29a1.66,1.66,0,0,1-.77-1.73c-.21-.85-.17-.72-.17-.74s0-.14,0-.18-.12.1-.15.15"/><path class="cls-36" d="M483.53,414.58a3.55,3.55,0,0,1,.11,1.32,2.9,2.9,0,0,0,.9,1.43,3.76,3.76,0,0,0,2.25,0c.84.16,1.67.31,2.51.5a2.77,2.77,0,0,1,1,1.59,12.5,12.5,0,0,0,.12,1.36c.11,0,.23-.2.31-.31s-.12,0-.13-.05.13,0,.12,0a4.4,4.4,0,0,0-.12-1.86,3,3,0,0,0-1.82-1.25,4.93,4.93,0,0,0-2.69-.14c-.94-.13-1.15-.16-1.31-.29a1.68,1.68,0,0,1-.77-1.74c-.21-.84-.17-.71-.17-.73s0-.14,0-.18-.13.1-.15.14"/><path class="cls-36" d="M482.06,416.3a3.42,3.42,0,0,1,.12,1.32,2.9,2.9,0,0,0,.9,1.43,3.72,3.72,0,0,0,2.24,0c.84.16,1.68.31,2.52.5.57.58,1,1,1,1.59a12.5,12.5,0,0,0,.12,1.36c.11,0,.23-.19.3-.31s-.11,0-.12-.05.13,0,.12,0a4.4,4.4,0,0,0-.12-1.86,3,3,0,0,0-1.82-1.25,4.93,4.93,0,0,0-2.69-.14c-.94-.13-1.16-.15-1.32-.29a1.68,1.68,0,0,1-.76-1.74,7.14,7.14,0,0,1-.18-.73.69.69,0,0,0,0-.18s-.12.1-.15.14"/><path class="cls-36" d="M498,417a3.35,3.35,0,0,1,1.08-.77,3,3,0,0,0,.77-1.52,3.83,3.83,0,0,0-1.13-1.94c-.3-.8-.59-1.6-.86-2.43a2.86,2.86,0,0,1,.84-1.71c.44-.37,1.11-.68,1.11-.8a.94.94,0,0,0-.43-.1c-.08.07,0,.12,0,.14s-.06-.11,0-.13a4.32,4.32,0,0,0-1.54,1.06,3.05,3.05,0,0,0-.15,2.21,5.08,5.08,0,0,0,1.25,2.39c.38.88.46,1.07.42,1.28a1.66,1.66,0,0,1-1.1,1.55,7.05,7.05,0,0,1-.54.53l-.14.1s.14.07.19.06"/><path class="cls-36" d="M500.32,417.43a3.35,3.35,0,0,1,1.08-.77,3,3,0,0,0,.77-1.52A3.83,3.83,0,0,0,501,413.2c-.3-.8-.59-1.6-.86-2.42a2.86,2.86,0,0,1,.84-1.72c.44-.37,1.11-.68,1.11-.8a.94.94,0,0,0-.43-.1c-.08.07,0,.12,0,.14s-.06-.11,0-.13a4.23,4.23,0,0,0-1.54,1.06,3.05,3.05,0,0,0-.15,2.21,5,5,0,0,0,1.25,2.39c.37.88.46,1.08.42,1.29a1.65,1.65,0,0,1-1.1,1.54c-.62.62-.52.52-.54.53a.92.92,0,0,0-.14.11s.14.06.19.06"/><path class="cls-36" d="M502.55,417.81a3.38,3.38,0,0,1,1.07-.77,3.07,3.07,0,0,0,.78-1.52,3.86,3.86,0,0,0-1.14-1.94c-.3-.8-.59-1.6-.85-2.42a2.8,2.8,0,0,1,.84-1.72c.44-.37,1.11-.68,1.11-.8a.94.94,0,0,0-.43-.1c-.08.07,0,.12,0,.14s-.07-.11,0-.13a4.23,4.23,0,0,0-1.54,1.06,3.05,3.05,0,0,0-.15,2.21,4.87,4.87,0,0,0,1.25,2.39c.37.88.46,1.08.42,1.29a1.67,1.67,0,0,1-1.1,1.54,6.37,6.37,0,0,1-.54.53l-.15.11s.15.06.2.06"/><path class="cls-36" d="M499.79,407.88a3.35,3.35,0,0,1,1.08-.77,3,3,0,0,0,.77-1.52,3.83,3.83,0,0,0-1.13-1.94c-.3-.8-.59-1.6-.86-2.43a2.86,2.86,0,0,1,.84-1.71c.44-.37,1.11-.68,1.11-.8a.94.94,0,0,0-.43-.1c-.08.07,0,.12,0,.13s-.06-.1,0-.12a4.23,4.23,0,0,0-1.54,1.06,3,3,0,0,0-.15,2.21,5,5,0,0,0,1.25,2.39c.37.88.46,1.07.42,1.28a1.66,1.66,0,0,1-1.1,1.55,7.05,7.05,0,0,1-.54.53l-.15.1s.15.07.2.06"/><path class="cls-36" d="M502.12,408.34a3.35,3.35,0,0,1,1.08-.77,3,3,0,0,0,.77-1.52,3.79,3.79,0,0,0-1.14-1.94c-.29-.8-.58-1.6-.85-2.42a2.86,2.86,0,0,1,.84-1.72c.44-.37,1.11-.68,1.11-.8a.94.94,0,0,0-.43-.1c-.08.07,0,.12,0,.14s-.06-.11,0-.13a4.23,4.23,0,0,0-1.54,1.06,3.05,3.05,0,0,0-.15,2.21,5,5,0,0,0,1.25,2.39c.37.88.46,1.07.42,1.28a1.66,1.66,0,0,1-1.1,1.55c-.62.62-.52.52-.54.53l-.15.1s.15.07.2.06"/><path class="cls-36" d="M504.35,408.72a3.38,3.38,0,0,1,1.07-.77,3.07,3.07,0,0,0,.78-1.52,3.86,3.86,0,0,0-1.14-1.94c-.3-.8-.59-1.6-.85-2.42a2.75,2.75,0,0,1,.84-1.72c.44-.37,1.11-.68,1.1-.8a.87.87,0,0,0-.42-.1c-.08.07,0,.12,0,.14s-.07-.11,0-.13a4.23,4.23,0,0,0-1.54,1.06,3.05,3.05,0,0,0-.15,2.21,4.93,4.93,0,0,0,1.24,2.39c.38.88.46,1.08.43,1.29a1.67,1.67,0,0,1-1.1,1.54c-.62.62-.53.52-.55.53l-.14.11s.15.06.2.06"/><path class="cls-36" d="M501.59,398.79a3.35,3.35,0,0,1,1.08-.77,3,3,0,0,0,.77-1.52,3.79,3.79,0,0,0-1.14-1.94c-.29-.8-.59-1.6-.85-2.43a2.86,2.86,0,0,1,.84-1.71c.44-.37,1.11-.68,1.11-.8a.94.94,0,0,0-.43-.1c-.08.07,0,.12,0,.13s-.06-.1,0-.12a4.23,4.23,0,0,0-1.54,1.06,3,3,0,0,0-.15,2.21,4.91,4.91,0,0,0,1.25,2.39c.37.88.46,1.07.42,1.28a1.66,1.66,0,0,1-1.1,1.55,7.05,7.05,0,0,1-.54.53l-.15.1s.15.06.2.06"/><path class="cls-36" d="M503.92,399.25a3.38,3.38,0,0,1,1.07-.77,3,3,0,0,0,.78-1.52,3.86,3.86,0,0,0-1.14-1.94c-.29-.8-.59-1.6-.85-2.43a2.86,2.86,0,0,1,.84-1.71c.44-.37,1.11-.68,1.11-.8a.94.94,0,0,0-.43-.1c-.08.07,0,.12,0,.14s-.06-.11,0-.13a4.23,4.23,0,0,0-1.54,1.06,3.05,3.05,0,0,0-.15,2.21,4.91,4.91,0,0,0,1.25,2.39c.37.88.46,1.07.42,1.28a1.66,1.66,0,0,1-1.1,1.55c-.62.62-.53.51-.54.53l-.15.1s.15.07.2.06"/><path class="cls-36" d="M506.15,399.63a3.38,3.38,0,0,1,1.07-.77,3.07,3.07,0,0,0,.78-1.52,3.94,3.94,0,0,0-1.14-1.94c-.3-.8-.59-1.6-.85-2.43a2.75,2.75,0,0,1,.84-1.71c.44-.37,1.11-.68,1.1-.8a.87.87,0,0,0-.42-.1c-.08.07,0,.12,0,.14s-.07-.11,0-.13a4.41,4.41,0,0,0-1.54,1.06,3.11,3.11,0,0,0-.14,2.21,5,5,0,0,0,1.24,2.39c.38.88.46,1.07.43,1.28a1.67,1.67,0,0,1-1.1,1.55c-.62.62-.53.51-.55.53l-.14.1s.14.07.2.06"/><path class="cls-37" d="M427.17,414.13h.19l.08,0,.09,0,.08,0,.08,0,.15-.08.15-.08.14-.1.28-.19.09-.07.11-.1.23-.22.2-.22.1-.12-.91-.54,0,0,0,.05-.15.13-.45.38-.49.39-.21.14-.08,0-.06,0-1,.44-.73.36-.33.18-.27.15,0,0-.05,0-.09.09-.09.1-.08.1-.16.21-.09.11-.08.1-.28.27-.14.13-.15.12L423,416l-.17.1-.16.09-.18.08-.2.06-.21.05-.23,0-.24,0-.24,0h-.51l-.25,0-.25,0h0l0,0-.06.08-.1.13-.19.25-.19.21-.16.17-.07.07-.07.05-.06,0,0,0h-.12l-.55-.15-.28-.07-.28-.08-.26-.1-.13-.05-.13-.07-.12-.07-.13-.07-.11-.09-.12-.1-.08-.19-.09-.17-.1-.16-.11-.14-.12-.13-.12-.12-.13-.11-.13-.09-.14-.08-.15-.07-.16-.06-.15,0-.17,0-.17,0-.17,0h-.71l-.52,0h-.38l-.12,0-.12,0-.12,0-.12,0-.11-.05-.2-.1-.1-.06-.09-.06-.09-.08-.08-.08-.08-.09-.08-.1h0v-.07l0-.17c0-.07.05-.15.08-.24s.07-.2.11-.32l.29-.78.35-.91c.26-.64.52-1.3.75-1.86l.55-1.29q0-.12.09-.3c.05-.12.1-.26.16-.42s.27-.7.45-1.14c.35-.87.79-1.95,1.24-3s.94-2.19,1.34-3.14c.2-.47.39-.9.56-1.27s.3-.67.4-.89l0-.07,0-.07,0-.06v-.07l0-.14v-.39l0,0,0,0,0,0h.07l0,0,.13.19.28.43.72,1.12,1.78,2.86c.62,1,1.27,2.09,1.85,3.06L425,408l.14.26.13.25.23.52.42,1v.27a1.27,1.27,0,0,0,0,.2l0,.2,0,.11,0,.1,0,.09,0,.09,0,.07,0,0,0,0,0,0,0,0,0,0h0l-1.08.41-.26.12L424,412l-.13.07-.11.07-.12.09-.11.08-.12.11-.11.1-.22.22-.22.23-.22.21-.11.11-.12.1-.12.09-.13.08-.14.08-.14.06-.15.06-.16,0-.3.08-.32.09-.31.11-.29.12-.13.06-.07,0h0l0,.06c-.07.16-.13.31-.19.43s-.1.25-.13.34l0,.13,0,.09,0-.1,0-.08,0-.09-.05-.08,0-.08-.06-.07,0-.07-.06-.06-.06-.06-.06-.06-.06-.05-.06-.05-.07,0-.07,0-.14-.07-.5-.21-.51-.2-.51-.18-.51-.17-.53-.15-.53-.13-.55-.12-.55-.09-.18,0-.1,0,0,0,0,0,0,0,0,0h0v-.28l0-.08,0-.08,0-.08.08-.15.09-.16.09-.16c.22-.47.45-.94.68-1.41l.32-.71.16-.36.14-.36.33-1,.31-1,.31-.95.17-.47.18-.47.46-1.17L418,403l.46-1.17.23-.58.25-.57H419l0,0,.07.12.15.23.29.47,3.09,5,1.31,2.23v0h0v.12s0,.07,0,.12l-.06.14-.07.15-.09.17c-.06.11-.14.23-.21.36l-.25.36-.12.17-.13.16-.13.15-.13.13-.12.11-.05,0-.06,0-.1.06-.1,0-.21.09-.21.08-.22.07-.44.14-.22.08-.21.08-.07,0-.08.05-.08,0-.08.07-.08.08-.08.08-.07.08-.08.09-.06.09-.06.1,0,0,0,.09a.94.94,0,0,1,0,.16c0,.1,0,.2-.05.27v.18l-.08-.06-.08-.05-.16-.1-.17-.08-.18-.07-.18-.06-.18-.05-.38-.1-.28-.07-.28-.09-.27-.1-.27-.12-.26-.13-.26-.14-.25-.16-.24-.18,0,0,0,0,0,0,0-.05-.05-.11,0-.11q.15-.36.33-.75c.1-.27.22-.55.33-.84l.68-1.8,1.22-3.45,0,0,0,0,0,0,0,0,0,0,0,0,0,0,0,0,0,0,0,0,.08,0,.07,0h.14v0l0,0,.1.13.22.3.23.34.23.37.48.79c.15.27.3.54.45.79l.39.74.29.59h0l-.05,0-.18.12-.65.34-.86.44-.23.11h0v0l0,.06-.05.11-.09.22-.38.84-.09-.05-.09-.05-.1,0-.1,0-.1,0-.1,0-.22,0-.43-.06-.21,0-.11,0-.1,0,.25-.62.26-.6.67-1.49.65-1.5h.1l0,.05.14.19.27.38.27.38.25.4-.09,0-.08,0-.08,0-.08,0-.14.08-.15.09-.13.1,0,0,0,0h0v0l-.06.15-.24.62-.18,0H419l0,0c0-.14.11-.28.16-.43l.16-.44.09-.22.1-.2,0,0,0,0h.21l-.22-.13-.2.17-.41.34-.06.09-.06.09-.11.2-.09.21-.09.22-.33.87h.09l.17,0,.23-.07.25-.08.27-.1.24-.09.21-.1h0l0,0,.07,0,.1,0,.1-.06.18-.12.35-.27.18-.12.1-.06.09-.06.1-.05.1,0,.11,0,.11,0-.18-.29-.19-.29-.4-.55-.8-1.09-.24-.15-.06,0,0,0h0l-.11.09-.43.36-.25.63-.27.61-.55,1.22-.55,1.22-.26.62-.25.62.13,0,.13,0,.26,0,.27,0,.27.05.12,0,.13,0,.12,0,.12.06.11.07,0,0,.06,0,.05.05.05.05,0,.06,0,.06.06-.05,0,.05.77-.61.18-.39.08-.19,0-.1,0,0v0h0l.38-.21.76-.42.39-.2.2-.09.2-.09.21-.08.22-.06.22-.06.24-.05h0v-.18c-.12-.25-.24-.5-.37-.75l-.38-.73c-.26-.48-.52-1-.8-1.47l-.32-.52-.55-.89-.88-1.4,0-.05,0,0-.05,0,0,0h0l-.05.05,0,.07-.11.16-.12.21a2.68,2.68,0,0,0-.12.24c-.09.17-.18.36-.27.55l-.28.61-.26.62-.23.57-.17.46c-.34.95-.68,1.9-1,2.84l-.54,1.4-.29.69-.3.69v0l.06.05.08.07.1.08.27.19.32.22.35.21.36.21.18.08.16.08.16.07.14.05.11,0,.13,0,.31,0,.36,0h.73l.16,0h.16l.14,0,.12,0h.05l0,0,0,0,0,0,.11-.27.12-.08.07,0,.06,0,.07,0,.08,0,.31-.09.3-.1.08,0,.08,0,.15-.09.15-.09.08,0,.08,0,.63-.2.62-.21.15-.06.14-.06.13-.08.14-.08.12-.09.12-.09.12-.1.11-.11.11-.11.11-.12.1-.12.1-.13.19-.27.18-.29v0l0,0,0,0h.2l.07,0,.07,0,.07,0-.08-.19-.09-.19-.2-.37-.21-.37-.22-.37-.45-.74-.22-.37-.19-.38-2-3.25-1-1.64-.49-.83-.47-.83-.48-.32-.09-.06h0l0,0-.13.1-.12.1,0,.06c-.12.23-.23.47-.34.69l-.32.7-.29.7-.14.36-.13.37c-.11.32-1.68,4.67-2.36,6.56l-.14.36-.15.36-.33.71-.68,1.4-.08.17-.09.15-.09.16,0,.08,0,.08,0,.09v.25l0,0v0l0,0h0l.05,0,0,0,.06,0h.1l.21,0,.24,0,.24,0,.48.1.46.12.45.14,1.79.6.23.08.27.11.62.24.31.1.15,0,.14,0h.35l.05,0,0,0v0h0l0,0h0l0,0,0,0v0l.28-.52.07-.13h.08l.15,0,.31-.05.16,0,.17,0,.56,0,.27,0,.27,0,.26-.05.13,0,.12,0,.12,0,.12-.05.11-.05.11-.06.12-.08.11-.08.1-.09.11-.09.2-.2.2-.2.19-.2.2-.19.11-.1.11-.08.11-.09.11-.07.21-.12.21-.1.21-.1.22-.09.9-.34.1,0,.09-.06.09-.06,0,0,0,0,0,0,0-.05,0-.05,0-.05,0,0,0-.06,0-.06,0-.06v-.05l0-.09-.06-.26-.11-.37-.14-.43c0-.15-.1-.3-.16-.45l-.16-.45-.17-.39-.08-.17c0-.05-.05-.1-.08-.14l-.24-.4-.25-.4-.51-.78-.54-.77-.56-.75-1.12-1.5-.55-.75-.53-.77-.14-.22-.14-.23-.26-.5-.26-.53c-.08-.19-.17-.37-.25-.56-.16-.38-.33-.75-.49-1.11-.08-.18-.16-.35-.23-.52l-.23-.46,0,0,0,0,0,0,0,0-.07-.06-.08-.05-.08,0-.1-.05-.2-.09-.42-.17,0,0h0l0,0-.08.08-.07.07-.06.05-.12.38-.14.38-.15.36-.17.37c-.11.24-.23.48-.35.72l-.36.73c-.17.32-.33.65-.49,1s-.32.65-.47,1l-.43,1-.21.5-.19.51-.15.36-.15.36-.32.7c-.1.24-.2.48-.31.72l-.14.37-.13.38-.18.65c-.06.21-.12.42-.17.63l-.18.62-.1.31-.12.31-.54,1.55-.27.78-.29.77-.08.19-.09.18-.2.34-.21.34-.21.35v.2l0,.08,0,.09,0,.1,0,.1,0,.1.05.1.06.1.05.09.06.08.06.07.06.06,0,0,0,0,0,0h0l.11,0,.11,0,.22,0,.23,0,.23,0h1.43l.22,0,.12,0,.11,0,.11,0,.11,0,.1,0,.11.05.1,0,.1.07.09.07.1.08,0,.05,0,0,.08.1.07.12.07.12.13.24.08.12,0,0,0,.05.11.11.11.1.12.08.13.08.12.06.13.06.13.05.14.05.27.07.28.07.28.06.28.08h.1l.06,0,.08,0,.09,0,.09-.05.22-.12.24-.15.25-.18.27-.19.28-.22.14-.11.06-.06,0,0h0l.31.18.28.15.27.14.23.1.11,0,.09,0,.08,0h.17l2.62-1.6.12-.19.13-.17.13-.16.15-.14.15-.14.16-.13.16-.12.17-.11.17-.11.18-.1.36-.19Z"/><path class="cls-37" d="M439.43,426.45l.08,0,.08,0,.15.09.13.1.13.11.25.24.23.24.08.08.09.11.2.26.17.23.08.13-.77.11-.06-.08-.13-.16-.38-.44-.42-.46-.17-.18-.07-.06-.06,0-.84-.67-.62-.52-.28-.25-.23-.21-.08-.09-.08-.1-.15-.21-.13-.22-.07-.11-.08-.11-.23-.3-.25-.29-.13-.14-.14-.13-.14-.13-.15-.11-.17-.12-.18-.11-.19-.1-.2-.1-.22-.1-.21-.08-.22-.08-.21-.07-.21-.05h0l0,0-.05,0-.09-.07-.18-.12-.17-.1-.15-.08-.07,0-.06,0-.06,0h-.13l-1,.52-.25.15-.24.16-.11.08-.11.09-.11.09-.1.11-.08.15-.08.16-.09.14-.1.13-.11.13-.11.12-.12.11-.12.1-.13.1-.14.09-.14.09-.14.07-.15.08-.16.06-.16.07-.16.05-.24.08-.24.06-.48.13-.24.07-.22.08-.12.05-.1,0-.11.06-.1.07-.18.13-.18.14-.08.07-.08.09-.07.09-.07.09h0v0l0,.05,0,.06.07.16.1.19.27.48.32.56.69,1.12.5.77.09.19c.05.07.09.16.15.25s.25.43.41.7l1.15,1.83,1.22,1.87.52.76.37.52,0,0,0,.05,0,0,0,0v.42l0,0,0,0,0,0h0l0,0,.11-.1.24-.24.62-.62,1.53-1.6,1.58-1.73.7-.78.55-.64.12-.16.11-.15.1-.16.1-.16.18-.32.18-.33h0V429a.81.81,0,0,1,0-.16l0-.16,0-.18,0-.08,0-.07,0-.07,0-.07,0-.05,0,0,0,0-.92-.68-.22-.17-.22-.19-.2-.19-.19-.21-.2-.24-.19-.24-.37-.49-.19-.23-.11-.11-.11-.11-.11-.1-.12-.1-.13-.1-.13-.08-.26-.16-.27-.18-.26-.19-.25-.19-.12-.09,0,0,0,0,0,0a2.85,2.85,0,0,1-.17-.26l-.13-.2,0-.08,0-.06-.07.15-.08.15-.09.13-.1.13-.11.12-.12.1-.12.1-.13.09-.92.58-.47.27-.48.27-.48.25-.48.24-.5.24-.51.22-.16.07-.09,0,0,0,0,0,0,0,0,0,0,0v.18l0,.05,0,.05,0,0,.08.09.08.09,0,0,0,.05.62.82.31.42.14.21.13.22.16.29.14.3.29.6.29.59.15.29.17.29.42.71.4.72.41.72.22.34.23.34,0,0,0,0,.07-.06.12-.14.25-.26.66-.71.67-.69.67-.69.65-.71,1.13-1.28h0v-.1l0-.1,0-.13-.14-.3-.18-.34-.21-.37-.22-.34a.91.91,0,0,0-.11-.16l-.1-.14-.1-.12-.1-.1-.17-.15-.17-.14-.37-.26-.38-.26-.36-.26-.07-.06-.06-.06-.14-.15-.13-.17-.13-.19-.11-.18,0-.05,0-.05,0-.11,0-.09,0-.09v-.12L433,425l-.15.12-.16.11-.16.09-.33.19-.34.17-.26.13-.26.14-.25.15-.25.16-.24.17-.23.17-.23.19-.22.2,0,0,0,0,0,0,0,0-.08.18.31.45.31.5c.1.18.2.36.31.54l.31.57,1.13,2.12v0l0,0,0,0,0,0,0,0h.28l.08,0h.08l.09-.07.19-.16.19-.19.21-.2.4-.45.39-.46.33-.43c.1-.13.19-.25.26-.36h0l0,0-.16-.15-.55-.48-.73-.63-.19-.16-.19-.25c-.12-.18-.23-.34-.35-.5l-.08.06-.08.06-.09.06-.09.05-.19.1-.19.09-.4.16-.19.09-.19.09.22.37.24.37.62.87.6.89.06,0h0l0,0,.12-.1.23-.2.23-.21.21-.22-.14-.09-.13-.11-.13-.11-.12-.12L433,429l0,0h0v0l-.06-.09-.22-.37-.16.07-.11.05.08.13.07.13.15.28.08.12.09.13,0,0h0l.05,0,.06,0h.06l-.19,0-.18-.07-.37-.13-.06-.05-.06-.05-.05,0,0-.06L432,429l-.09-.13-.14-.27-.16-.27h.24l.44,0h.47l.19,0h0l0,0h.06l.17.14.15.16.31.32.15.16.16.16.08.07.09.06.09.07.09.06-.15.16-.16.16-.34.29-.35.28-.34.29-.21,0h-.1l-.1,0-.4-.13-.23-.38-.24-.37-.51-.71-.51-.72-.24-.37-.23-.38.24-.11.24-.11.49-.2.12-.06.11-.06.11-.07.11-.08.1-.08.1-.09.09-.09.09-.11h.05l0,0,.71.22.16.22.08.12,0,.06h0l0,0,.33.29.64.58.33.28.34.27.18.13.19.13.19.12.2.11h0v.1h0l-.16.23-.16.23-.33.43c-.23.28-.45.57-.68.86l-.1.11-.18.19-.48.49-.48.49-.27.29,0,0h-.12l0,0-.05,0-.1-.08-.11-.12-.12-.13c-.07-.1-.16-.21-.25-.32l-.25-.37-.24-.37-.21-.34-.16-.28-.93-1.75-.24-.43-.25-.42-.27-.42-.28-.41h0l0,0,.05-.06.17-.16.24-.21.29-.24.32-.25.33-.25.31-.22.15-.09.13-.07.1-.05.12-.06.28-.11.33-.11.34-.11.33-.09.29-.07.13,0h.26l.1.17.1.1.12.1.05,0,.07.05.26.17.26.18.07,0,.07.06.12.11.13.12.07.06.07.05,1.06.74.12.09.12.1.12.1.11.11.21.22.2.24.18.25.17.26.16.28.15.28,0,0v0l0,0,0,0h0l0,0,.05,0,.06,0h.18l-.07.12-.08.11-.08.12-.09.11-.18.21-.19.21-.39.41-.18.21-.09.12-.08.11-1.76,1.82-.86.92-.42.47-.41.48-.41.09h-.14l-.12,0-.11,0,0,0-.31-.4-.3-.41-.13-.2-.14-.22-.12-.22-.12-.22c-.1-.2-1.55-2.88-2.17-4l-.13-.23-.14-.21-.3-.42-.63-.82-.07-.09-.09-.09-.08-.08,0-.05,0,0,0,0v-.22l0,0,0,0,0,0,0,0,0,0,.1,0,.19-.06.44-.19.44-.21.42-.21.41-.23,1.65-.93,1-.62.29-.16.13-.07.13-.06.12-.05.11,0h.17v0h0l0,0h.05v0l.26.29.07.07h0l0,0,.13.07.27.15.28.14.47.21.47.22.22.12.21.14.1.07.1.07.1.08.09.09.19.2.18.21.34.44.34.43.18.21.19.2.17.16.18.15.37.29.76.56.09.07.08.08.08.08.06.09.06.09.06.1,0,.1,0,.11h0v.08l-.06.19-.1.24-.12.29-.13.29-.15.29-.14.25-.07.1-.07.08-.2.23-.21.22-.22.22-.23.21-.46.41-.48.39-1,.78-.47.39-.46.41-.12.12-.11.13-.12.15-.11.15c-.07.11-.15.21-.22.33l-.22.34-.42.69c-.07.11-.13.22-.2.32l-.2.28v0h0l0,0h0l-.07,0h-.77l-.07,0-.06,0-.06,0-.11-.23-.13-.23-.14-.23-.15-.21-.32-.42-.34-.42-.45-.56-.42-.57-.21-.29-.19-.29-.19-.3-.18-.31L429,432l-.14-.21-.29-.42-.14-.21-.14-.22-.13-.22-.12-.24-.17-.41-.16-.41-.17-.39-.09-.2-.1-.19-.26-.48-.25-.48-.25-.47-.26-.48-.07-.11-.09-.1-.09-.1-.09-.1-.19-.18-.19-.19v0h0v-.11l0-.06,0-.07,0-.08.08-.17.09-.17.11-.16,0-.06.05-.06.05-.05.05,0,.2-.11.21-.09.21-.08.21-.08.88-.26.21-.07.22-.08.21-.08.2-.1.2-.11.19-.12.09-.07.1-.07.08-.08.09-.09.08-.09.07-.1.13-.21.13-.21.06-.1.08-.1.1-.11.11-.1.1-.1.12-.08.11-.09.12-.07.25-.15,1-.51h.39l.2,0,.22.05.23.05.25.07.25.07.13.05.06,0h.07l.25,0,.25,0h.59l.07,0,.06,0,.05,0h0l0,0,2.22,2.11.1.18.11.17.12.17.12.16.13.16.13.15.28.29.3.28.31.27Z"/><path class="cls-37" d="M455.05,414.34l.15-.07.15-.08.15-.09.13-.1.26-.22.26-.22.09-.08.1-.1.22-.23.28-.33-.71-.11-.07.07-.14.14-.42.41-.46.42-.18.17-.13.1-.89.61-.66.48-.29.23-.24.19-.1.08-.08.1-.17.19-.15.2-.17.2-.26.28-.27.27-.15.12-.14.12-.15.12-.16.11-.17.1-.19.1-.19.09-.21.1-.21.08-.22.08-.21.07-.21.06-.21.05-.2.07-.18.07-.17.05-.08,0H448l-.88-.73-.21-.19-.2-.21-.18-.21-.09-.11-.09-.12-.05-.16-.05-.16-.07-.15-.07-.15-.09-.14-.08-.13-.1-.14-.1-.12-.11-.12-.11-.12-.12-.11-.13-.11-.13-.1-.14-.1-.28-.19-.22-.13-.21-.12-.44-.23-.2-.13-.2-.13-.2-.14-.09-.08-.08-.09-.16-.16-.14-.17-.06-.09-.07-.1-.05-.1-.06-.1h0v0l0,0,0-.05.09-.12.12-.15.31-.37.38-.42.79-.84.57-.57.11-.14.17-.2.47-.52,1.32-1.36,1.39-1.38.58-.56.42-.38,0,0,0,0,0,0,0,0,0,0v-.37l0,0,0,0,0,0,0,0,.09.09.2.22.49.58,1.23,1.51,1.27,1.62.54.73.44.61.09.14.09.14.07.15.07.15.13.3.12.31v0h0V412l0,.14c0,.05,0,.1,0,.16l-.06.16,0,.07,0,.07,0,.07,0,.06,0,0,0,0,0,0-1,.62-.23.16-.22.17-.22.18-.21.19-.22.22-.21.22-.41.45-.22.21-.23.21-.12.09-.13.09-.13.08-.14.08-.27.15-.27.16-.28.17-.25.18-.12.08-.06,0,0,0,0,0-.19.19a1.79,1.79,0,0,0-.14.15l0,.06,0,.05,0-.16-.06-.15-.07-.15-.08-.14-.08-.13-.1-.12-.1-.13L448,416l-.78-.75-.81-.72-.41-.36-.43-.34-.43-.34-.44-.33-.15-.1-.08-.06-.07-.06,0,0,0,0,0,0v-.18l0,0,0,0,0,0,.08-.06.09-.06,0,0,.05,0,.69-.58.33-.3.16-.16.15-.16.19-.23.18-.23.34-.46.35-.47.19-.22.19-.22.48-.54.48-.55.48-.54.25-.25.26-.25.39.49.53.66.54.65.54.65.52.66.89,1.2h0v.09l0,.09-.06.12c0,.08-.11.17-.17.28l-.22.32-.24.33-.25.32-.25.27-.11.11a.41.41,0,0,1-.1.09l-.18.14-.18.13-.39.24-.38.23-.39.25-.06,0-.07.06-.15.14-.15.16-.14.17-.13.17,0,0,0,0-.05.09,0,.08,0,.07,0,.06v.05l-.12-.15-.12-.14-.13-.14-.14-.13-.29-.25-.29-.24-.23-.19-.22-.19-.21-.2-.21-.2-.2-.21-.2-.22-.19-.22-.18-.24,0,0,0,0,0-.09,0-.17.17-.16.17-.17.36-.38.36-.41.37-.43,1.33-1.64,0,0h0l0,0h.25l.06,0,.07,0,0,0h0v0l.08.06.15.15.16.17.17.2.32.41.3.44.26.4.11.18.08.16h0l-.05,0-.16.14-.58.44-.78.57-.2.15-.2.19-.4.36-.06-.08-.07-.07-.16-.15-.16-.13L448,413l-.35-.25-.17-.12-.16-.14.26-.28.13-.13.14-.13.69-.64.68-.65,0,0,0,0,0,0,.1.09.2.19.18.2.18.21-.15.08-.14.1-.13.1-.13.11-.13.11,0,0,0,0-.07.07-.25.28-.14-.11-.1-.07.09-.1.09-.1.18-.21.09-.09.1-.09,0,0h0l.05,0,.06,0,.06,0-.18,0h-.18l-.36,0-.06,0-.06,0-.06,0-.05,0-.1.09-.09.1-.18.2-.08.11-.09.1h0l0,0,.15.06.41.13.43.13.18,0h.07l.05,0,.17-.14.17-.14.33-.3.17-.14.17-.14.18-.13.09-.06.1-.05-.13-.16-.13-.14-.28-.28-.29-.26-.29-.27-.19,0h-.19l-.39,0-.26.28-.28.27-.57.52-.57.53-.27.27-.26.28.2.16.22.16.42.31.2.17.1.09.09.09.08.1.08.1.07.12.07.11h.05l0,0,.69,0,.36-.32.34-.27.69-.53.35-.26.36-.25.38-.23.19-.11.2-.1h0v-.08h0l-.12-.22-.12-.21-.25-.4-.53-.81-.08-.11-.14-.17-.38-.46-.39-.46-.22-.28h-.21l0,0-.06,0-.11.07-.13.1-.14.1-.14.12-.28.27-.28.27-.24.26-.18.21-1.1,1.35-.28.32-.3.32-.3.31-.32.3v0l0,.06.14.18.44.55.27.31.27.31.26.27.23.22.2.15.25.17.29.19.3.18.29.17.27.13.12,0,.1,0,.08,0H449l.11-.12.11-.09.12-.09.06-.05.07,0,.27-.16L450,415l.07,0,.07-.05.14-.11.13-.11.07-.05.08,0,1.1-.67.25-.18.25-.19.22-.2.22-.22.2-.23.2-.24.19-.25.18-.27,0,0,0,0,.05,0,.05,0h.22l0-.11-.05-.11-.07-.11-.06-.1-.15-.2-.15-.19-.31-.39-.14-.2-.07-.11-.06-.1-1.41-1.71-.7-.86-.33-.45-.32-.45-.38-.08-.06,0h-.29l0,0-.34.28-.33.3-.16.15-.15.16-.15.17-.14.17-2.56,3.1-.15.17-.16.16-.17.15-.16.15-.7.58,0,0,0,0-.09.06-.09.06,0,0,0,0,0,0v.15l0,.05,0,0,0,0,0,0,0,0,0,0,.08.06.17.11.39.28.38.3.36.3.36.31,1.41,1.25.87.83.25.21.23.19.1.07.1.05,0,0,0,0h.1v0h.06l.28-.2.07,0h.07l.13-.07.27-.14.28-.12.48-.2.47-.2.22-.11.22-.12.21-.13.1-.08.1-.07.21-.18.19-.2.38-.4.38-.4.2-.2.2-.18.19-.14.19-.14.39-.27.79-.51.09-.07.08-.07.09-.07.07-.08.07-.08.06-.09.06-.1,0-.1h0v-.08s0-.1,0-.17,0-.14-.06-.23l-.07-.26-.09-.28c0-.09-.07-.18-.1-.26l-.05-.13a1.17,1.17,0,0,1-.05-.11l-.05-.09,0-.08-.17-.22-.17-.21-.17-.2-.19-.2-.38-.38-.39-.37-.81-.73-.39-.37-.38-.39-.09-.11-.09-.13-.09-.13-.09-.14-.17-.31-.15-.32c-.1-.22-.21-.44-.3-.65s-.1-.2-.15-.29l-.15-.27h0l0,0h0l-.05,0h-.78l-.07,0h-.12l-.14.19-.15.17-.16.17-.17.16-.35.3-.37.28-.5.4-.47.4-.23.21-.22.22-.22.22-.21.24-.15.16-.16.16-.33.3-.16.16-.16.16-.15.17-.14.18-.22.33-.2.33-.21.31-.11.15-.12.15-.31.37-.29.37-.3.37-.31.36-.08.08-.09.07-.1.07-.1.06-.2.12-.21.13h0v.23l0,.08a1.54,1.54,0,0,0,.05.17l.06.17.08.17,0,.08,0,.06.05.06,0,0,.17.15.18.13.18.13.19.12.78.46.38.24.19.13.18.14.17.14.16.17.15.17.08.09.07.1.06.11.05.1.1.23.08.22.05.11.06.1.08.13.09.12.08.11.1.11.19.2.21.19.88.72,0,0,0,0,.06,0,.07,0,.15,0,.19,0,.21,0h1l.24,0,.23,0h.62l.06,0,.05,0h0l0,0,2.38-1.93.12-.17.12-.16L453,416l.14-.15.14-.15.15-.14.31-.27.31-.25.33-.25Z"/><path class="cls-37" d="M471.07,427.2l.09,0,.08,0,.08,0,.08,0,.15.07.15.09.14.09.14.09.28.2.09.07.11.1.23.22.21.2.1.11-.76.27-.07-.07-.15-.13-.46-.38-.49-.38-.2-.14-.08-.06-.06,0-.94-.52-.71-.4-.32-.19-.26-.17-.1-.08-.09-.08-.09-.1-.09-.09-.17-.2-.09-.09-.09-.09-.28-.26-.29-.25-.15-.11-.16-.11-.16-.1-.17-.09-.19-.08-.2-.07-.21-.07-.22-.06-.22-.05-.23-.05-.23,0-.23,0h-.24l0,0-.05,0-.11-.06-.2-.11-.18-.08-.17-.06-.07,0h-.26l-.94.65-.22.17-.21.19-.11.1-.09.1-.1.11-.09.12,0,.17-.06.16-.07.16-.08.14-.09.14-.09.14-.1.12-.11.12-.12.12-.12.11-.13.1-.13.1-.14.09-.15.08-.15.08-.15.08-.23.1-.24.1-.46.18-.23.09-.21.11-.11.07-.1.06-.1.07-.09.08-.16.15-.08.08-.08.09-.07.08-.06.1-.06.1-.06.1h0v0l0,0,0,.06.09.15c0,.06.09.12.13.19l.35.46.41.53.87,1.08.62.73.12.18.18.24.53.67,1.43,1.74,1.53,1.78.63.72c.19.2.35.37.46.5l0,0,0,0,0,0,0,.05,0,0,0,.05v.37l0,0,0,0h0v0l0,0,.09-.13.21-.29.53-.74c.37-.57.82-1.24,1.28-1.93l1.33-2.07c.2-.33.4-.64.57-.93s.33-.54.46-.76l.1-.18.08-.18.08-.18.08-.18.13-.36.12-.37V430l0-.16c0-.05,0-.1-.05-.16l-.07-.17,0-.08,0-.07,0-.06-.05-.06-.05,0,0,0h0l-1-.51-.25-.13-.24-.15-.24-.15L468,428l-.24-.2-.22-.21-.45-.42-.23-.19-.12-.1-.13-.08-.13-.09-.13-.07-.15-.07-.14-.06-.29-.11-.3-.13-.29-.14-.28-.14-.13-.07-.06,0,0,0,0,0-.21-.25-.15-.19-.06-.08,0-.05,0,.16-.06.16-.08.14-.08.14-.09.14-.1.12-.11.11-.12.11-.84.69-.43.33-.43.32-.45.31-.45.31-.47.29-.47.29-.16.08-.08.05,0,0,0,0,0,0,0,0,0,0v.18l0,.05,0,.05,0,0,.1.08.09.08.05,0,0,.05.76.77.37.39.17.2.17.21.2.29.2.28.38.58.38.57.2.29.21.27.53.68.52.7.53.68.27.33.29.32,0,0,0,0,.05-.08.11-.16.2-.31.55-.85.57-.84.57-.83.55-.85.93-1.52h0v-.05l0,0,0-.1-.07-.12-.08-.13-.1-.14-.23-.32-.27-.33-.27-.3-.13-.14-.13-.12-.12-.1-.11-.08-.19-.12-.2-.11-.41-.19-.42-.18-.21-.1-.2-.1-.07,0-.07,0-.16-.13-.16-.15-.16-.16-.13-.16,0,0,0-.06-.05-.1,0-.1,0-.08,0-.07v-.06l-.12.15-.14.13-.14.13-.14.12-.31.22-.32.21-.24.17-.24.17-.23.18-.22.19-.21.2-.21.2-.21.22-.19.22,0,0,0,0,0,0v0l-.05.19.38.43.39.48.4.52.4.54,1.46,2.05,0,0,0,0h0l0,0h0l0,0h.19l.07,0,.08,0h.05l0,0,.08-.08.16-.2.17-.23a2.2,2.2,0,0,0,.17-.25l.34-.53.32-.54.27-.51c.08-.15.14-.29.2-.41h0l0,0-.18-.12-.63-.38-.83-.49-.21-.12h0v0l0,0-.06-.06-.11-.13-.43-.47-.07.08-.07.07-.08.07-.09.06-.17.12-.18.11-.38.21L463,430l-.17.12.28.36.3.34.76.83.74.84.05,0h0l0,0,.1-.13.2-.25.2-.25.18-.27-.16-.06-.15-.08-.14-.09-.14-.09-.14-.1,0,0h0v0l-.07-.09-.28-.36-.16.09-.1.07.1.12.1.13.19.26.1.12.11.12,0,0h0l0,0h.13l-.19.07-.2-.05-.39-.09-.06,0-.07-.05-.06-.05-.06-.05-.1-.12-.11-.12-.19-.26-.19-.26h.08l.15,0,.45-.08.24,0,.23,0h.23l0,0,.05,0,.19.11.18.13.36.27.18.13.18.12.09.05.1.06.1,0,.11,0-.13.2-.14.19-.3.36-.31.36-.3.36-.2.07-.05,0H465l-.1,0-.42-.1-.29-.36-.31-.35-.62-.68-.62-.68-.3-.35-.29-.36.22-.14.23-.13.23-.13.23-.14.11-.07.11-.08.1-.08.09-.08.1-.1.08-.1.08-.11.06-.12h.06l0,0,.75.15.19.22.1.1.05.06h0l0,0,.37.22.73.46.38.22.38.21.2.1.21.09.21.08.21.08h0v.12l-.12.27-.12.26-.27.5-.55,1-.08.13-.15.23-.41.59-.4.59-.23.35v0l0,0h-.15l-.05,0-.11-.08-.13-.1-.14-.13-.3-.3-.31-.34-.3-.35-.26-.33-.21-.27c-.4-.57-.81-1.13-1.21-1.69l-.31-.41-.32-.41-.33-.39-.34-.39v0l0,0,0-.06.14-.18c.06-.07.14-.15.21-.24l.26-.28.29-.3.29-.29.28-.25.13-.11.12-.09.1-.06.11-.07.27-.15.31-.15.32-.15.32-.13.29-.1.12,0,.11,0h.15l.13.16.12.08.13.08.06,0,.07,0,.3.13.28.13.08,0,.07,0,.15.09.14.1.08,0,.08,0,1.18.53.14.07.13.08.14.08.12.09.25.18.23.2.22.22.21.23.21.24.19.26,0,0,0,0,0,0h0l0,0h.25l.07,0-.06.14-.06.13-.06.13-.07.13-.15.25-.16.25-.33.5-.15.25-.06.13-.07.13-1.48,2.19-.73,1.11L466,436l-.33.57-.4.17-.07,0h-.07l-.13,0-.12,0,0,0-.37-.37-.36-.39-.18-.19-.16-.21-.16-.21-.16-.22c-.13-.19-2-2.77-2.81-3.89l-.16-.21-.18-.2-.36-.4-.76-.76-.09-.09-.1-.08-.09-.08,0-.05,0,0,0-.06V429l0-.05,0,0,0,0,0,0,0,0,.1-.05.17-.09.42-.25.41-.25.39-.27.38-.27,1.51-1.14c.21-.16.59-.46.94-.75l.26-.19.13-.09.12-.07.11-.06.1-.05h.2v0h.07l.3.27.08.07h.07l.14.05.29.1.3.09.51.12.26.06.24.07.24.08.24.09.11.05.11.06.11.06.11.07.11.08.11.08.21.18.41.37.41.38.21.18.22.16.2.12.2.12.42.22.85.42.1.06.09.06.09.06.08.08.07.08.07.09.06.09.05.11h0v.09c0,.05,0,.11,0,.19s0,.17-.06.27-.05.2-.08.31l-.09.33c0,.11-.07.21-.1.31l-.1.28-.06.12-.05.1-.17.27-.18.27-.38.52-.4.51-.42.49-.84,1-.41.49-.4.51-.1.14-.1.16-.09.17-.09.18-.18.37-.16.39c-.11.27-.21.53-.31.79s-.11.24-.16.36l-.15.32v0l0,0,0,0h0l-.06,0-.06,0-.07,0-.08,0-.18,0-.36.06h-.08l-.08,0-.07,0h-.06l-.15-.23-.16-.22-.18-.22-.18-.2-.39-.39-.4-.39-.55-.53-.51-.53-.25-.27-.25-.28-.23-.29-.23-.29-.17-.21-.17-.21-.36-.39-.18-.2-.17-.21-.17-.21-.15-.23-.24-.4-.22-.4-.23-.39-.12-.19-.14-.18-.33-.46-.32-.46-.33-.46-.34-.46-.09-.1-.1-.1-.11-.09-.1-.09-.23-.17-.22-.17v0h0v-.25l0-.09,0-.18.07-.18,0-.09,0-.08.05-.08,0-.06.05-.06,0,0,0,0,.19-.12.19-.12.2-.11.2-.1.84-.36.21-.1.2-.1.2-.11.19-.12.18-.13.18-.15.08-.08.08-.09.08-.09.07-.09.07-.11.06-.11.09-.22.1-.23.05-.12.06-.1.09-.13.09-.11.09-.11.1-.1.1-.1.11-.09.22-.18.95-.63h0l0,0h.5l.23,0,.24,0,.26,0,.27.05.13,0,.07,0h.06l.26-.08.24-.08.23-.06.2,0,.09,0h.21l.06,0h0l2.55,1.69.13.17.14.15.14.15.15.14.15.13.16.13.33.24.34.22.34.21Z"/><path class="cls-37" d="M485.29,411.53l.07,0,.07-.05.14-.1.13-.11.12-.12.22-.25.22-.26.08-.09.08-.12.18-.26.16-.24.08-.13h-.74l-.06.08a1.42,1.42,0,0,0-.11.16c-.1.13-.23.29-.36.47l-.38.48-.16.19-.12.12-.78.74-.58.57-.26.27-.21.22-.08.1-.07.11-.13.22-.13.22-.13.22-.22.32-.22.3-.12.15-.13.14-.13.13-.15.13-.15.13-.17.13-.18.12-.19.12-.2.12-.2.1-.2.1-.21.09-.19.08h0l0,0,0,0-.09.05-.18.1-.16.09-.07,0-.07,0-.07,0-.06,0h-.18l-1-.57-.24-.15-.23-.17-.22-.18-.11-.09-.1-.1-.08-.16-.08-.14-.09-.14-.1-.13-.1-.13-.11-.12-.12-.11-.12-.11-.13-.1L476,414l-.14-.09-.14-.09-.15-.08-.15-.07-.31-.14-.24-.08-.23-.08-.47-.16-.23-.08-.22-.1-.11-.05-.1-.06-.11-.06-.1-.07-.17-.13-.17-.15-.08-.08-.08-.08-.07-.09-.07-.09h0V412l0-.06.07-.14.09-.17c.08-.12.16-.27.26-.42s.2-.32.3-.49l.65-1,.48-.68s.05-.09.08-.16l.14-.23.38-.61,1.09-1.6,1.16-1.65.48-.66c.15-.18.27-.34.36-.46l0,0,0,0v0l0,0v-.36l0,0v0l0,0,0,0h0l0,0,.11.08.23.19.59.52,1.48,1.33,1.53,1.45.66.65.54.55.12.13.1.13.1.14.1.14.18.28.17.29v0h0v.16a.76.76,0,0,0,0,.15s0,.11,0,.16l0,.17,0,.08,0,.08,0,.07,0,.06,0,.05,0,0,0,0-.86.76-.2.19-.2.2-.19.21-.18.22-.18.25-.17.25-.34.51-.19.25-.19.23-.11.11-.11.11-.12.1-.13.1-.24.18-.25.21-.24.21-.23.2-.11.1-.05.05,0,0,0,0-.16.22-.12.18,0,.07,0,.06-.07-.15-.09-.14-.09-.14-.1-.12-.1-.12-.12-.11-.12-.1-.13-.09-.9-.61-.92-.57-.47-.27-.48-.27-.48-.25-.5-.25-.16-.07-.08-.05-.08,0,0,0,0,0,0,0,0,0v-.18l0,0,0,0,.07-.07.08-.08,0,0,0,0,.6-.71.28-.36.13-.19.13-.19.15-.26.14-.27.26-.53.27-.52.15-.26.16-.26.39-.62.38-.64.39-.63.21-.3.22-.3.47.43.63.59.65.58.65.58.63.59L482.6,409h0v.09l0,.1,0,.12-.12.3c-.05.11-.11.23-.16.35s-.13.25-.19.37-.14.24-.2.36a1.4,1.4,0,0,0-.1.16l-.1.15-.1.12-.08.11-.16.16-.17.15-.34.3-.35.28-.34.3-.06.06-.06.06-.12.16-.13.18-.11.19-.1.19,0,.05,0,.05,0,.09,0,.09,0,.08v.11l-.14-.13-.15-.12-.15-.11-.16-.1-.33-.2-.33-.18-.25-.15-.25-.15-.25-.16-.24-.16-.23-.18-.23-.18-.23-.19-.22-.2,0,0,0,0-.05-.08-.07-.17.14-.19.15-.2.29-.44.29-.48.3-.5c.37-.68.76-1.35,1.05-1.89l0,0,0,0v0h0l0,0h.27l.07,0h.08l.09.06.17.13.19.15.2.17.39.37.37.39.33.37.13.16.11.15h0v0l0,0-.14.16-.51.53-.68.68-.18.17-.17.23-.33.44-.08-.07-.08-.06-.18-.12-.18-.1-.19-.1-.39-.18-.19-.1-.18-.1.21-.33.11-.16.12-.15.58-.77.57-.78.06,0h0l0,0,.12.08.22.16.22.17.21.18-.14.11-.12.11-.12.12-.11.13-.11.13,0,0,0,0v0l0,.08-.21.33-.16-.08-.1-.06.07-.11.07-.12.14-.24.08-.11.08-.11,0,0h0l.05,0,.05,0,.06,0H479l-.18.05-.36.09-.05,0-.06,0,0,.05-.05.05-.08.11-.08.11-.14.24-.07.12-.07.11h0l.05,0,.15,0,.43.06.45,0h.31l.15-.16.15-.17.28-.34.14-.17.15-.16.15-.16.09-.07.09-.07-.15-.13-.16-.13-.33-.24-.33-.22-.33-.23h-.29l-.1,0-.38.09-.22.33-.23.32-.48.63-.48.63-.23.32-.21.33.23.13.24.11.47.23.23.13.11.07.1.08.11.08.09.09.09.1.08.11h.06l0,0L479,412l.3-.39.31-.31.59-.63.31-.31.32-.3.34-.28.18-.14.18-.13h0v-.08h0l-.15-.2-.16-.19-.32-.37-.66-.74-.09-.09-.17-.16-.46-.41-.46-.4-.27-.25h-.13l0,0-.05,0,0,0-.05,0-.11.1-.11.12-.11.13-.12.14-.24.32-.23.32-.2.31-.15.24-.87,1.55-.23.38-.24.38-.25.36-.26.36h0l0,0,.05.06.16.16.53.46.32.26.32.26.3.22.27.18.22.11.27.13.32.13.33.13.32.11.29.08.12,0,.11,0h.14l.1-.15.1-.11.1-.11.06,0,.05,0,.25-.2.24-.2.07-.06.06-.06.11-.13.12-.12.06-.07.07-.05,1-.83.23-.21.21-.23.19-.23.18-.25.17-.26.16-.27.14-.28.14-.29,0,0,0,0,0,0,0,0,0,0,.06,0h.11l-.07-.11-.07-.1-.08-.1-.08-.09-.18-.18-.19-.17-.37-.35-.17-.18-.09-.1-.07-.09-1.7-1.51-.83-.77-.41-.4-.39-.41-.39,0h-.14l-.11,0-.11,0,0,0-.3.35-.28.35-.13.19-.12.18-.12.2-.11.2-2,3.57-.12.2-.13.19-.14.18-.14.18-.6.71,0,0,0,0-.08.08-.07.07,0,0,0,.05v.22l0,0,0,0,0,0,0,0,.05,0,.1,0,.18.08.43.21.42.23.42.23.4.24,1.61,1,1,.66.28.17.26.14.11.05.11,0,0,0h.15v0h.06l.24-.25.06-.07h0l0,0,.13-.09.24-.17.26-.17.45-.26.43-.26.21-.15.2-.15.19-.16.09-.09.08-.09.18-.21.17-.22.31-.46.31-.45.16-.22.18-.22.16-.17.17-.16.35-.32.7-.63.08-.07.08-.08.07-.09.06-.09.06-.1,0-.09,0-.11,0-.1v0l0-.05-.06-.17-.09-.22a1.42,1.42,0,0,0-.12-.25l-.13-.27-.14-.25-.14-.22-.07-.09-.06-.07-.2-.19-.21-.19-.21-.18-.21-.17-.45-.33-.45-.31-.92-.62-.46-.32-.44-.34-.11-.1-.11-.11-.11-.12-.11-.13-.22-.28-.21-.3-.41-.61-.19-.27-.2-.25h-.33l-.17,0-.34.05h-.07l-.07,0-.06,0-.06,0-.1.21-.12.2-.13.19-.15.19-.3.37-.32.36-.43.48-.41.5-.19.25-.18.26-.18.26-.17.27-.13.19-.13.19-.28.36-.13.19-.14.19-.12.2-.11.21-.16.37-.14.36-.16.35-.09.18-.09.17-.25.42-.23.42-.23.43-.25.41-.07.1-.08.09-.09.09-.08.08-.19.15-.18.17h0v.17l0,.07,0,.08.08.16.1.16c0,.06.07.11.1.16l0,.06.06.06.05,0,.05,0,.19.11.2.1.21.09.2.09.85.31.42.17.21.09.2.11.19.12.19.13.18.14.09.08.08.09.08.09.07.1.13.2.13.21.06.1.08.09.1.11.1.11.11.09.11.09.23.17.24.15,1,.56,0,0h.53l.21,0,.23,0,.23-.05.25-.05.12,0,.06,0h.54l.21,0,.19,0,.08,0,.08,0,.06,0,.06,0,.05,0,0,0h0l2.06-2.27.09-.19.1-.18.11-.17.11-.17.12-.16.12-.16.27-.31.27-.3.29-.29Z"/><path class="cls-37" d="M502.55,419l.09,0,.09,0h.35l.16,0,.17,0,.17,0,.33.08.11,0,.13,0,.3.13.27.12.14.07-.64.74h0l-.06,0-.19-.06-.55-.19-.6-.18-.24-.06h-.17l-1.07-.08-.82-.08-.37,0-.3-.05h-.06l-.06,0-.12,0-.12-.06-.11-.06-.23-.13L499,419l-.12,0-.36-.15-.18-.07-.18-.06-.19-.05-.18,0-.19,0h-.4l-.21,0-.23,0-.23.05-.23.06-.24.08-.23.09-.22.09-.22.11h0l0,0-.07,0-.14-.07-.27-.12-.23-.09-.21-.07-.09,0-.07,0h-.2v0l-.43.37-.22.19-.21.2-.2.2-.09.11-.09.11-.08.11-.08.13-.07.12-.06.14v.19l0,.19,0,.18,0,.17-.05.17-.07.15-.07.15-.08.14-.1.13-.1.13-.11.12-.13.11-.12.11-.14.1-.14.09-.16.09-.23.13-.23.11-.47.21-.22.12-.11.06-.1.07-.1.07-.09.08-.09.08-.08.09-.14.18-.06.09-.06.1-.05.11,0,.1,0,.12,0,.12h0l0,0,0,.06.06.06.16.17.21.22.54.52.65.61,1.33,1.21,1,.84.2.2.29.28.81.75,2.21,2,2.32,2,.95.81.68.57.05,0,.05.05,0,0,0,.05.07.1.06.11,0,0v.05l0,.06v.2l0,0h0v0l0-.19.11-.46.24-1.17.58-3c.19-1.08.39-2.18.57-3.18q.13-.75.24-1.41c.07-.43.13-.82.18-1.15l0-.26,0-.26,0-.51v-1.11l0-.07,0-.07-.08-.16-.1-.17-.06-.08-.06-.08-.06-.07-.07-.06-.06-.06-.06,0h-.12l-1.14,0-.29,0-.28,0-.14,0-.14,0-.14,0-.13,0-.29-.11-.29-.12-.57-.25-.14-.05-.15-.05-.14,0-.15,0-.15,0-.16,0h-.32l-.31,0-.33,0H496l0,0-.33-.28-.24-.22-.08-.08-.05-.07v.37l0,.09v.08l0,.09,0,.08-.06.15-.08.14-.08.13-.1.13-.36.41-.37.39-.38.39-.39.38-.4.37-.42.35-.43.35-.45.33-.15.11-.07.06,0,0,0,0,0,0,0,0v.19l0,.06.05.06.06.05.06.05.13.09.14.09.13.1,1.11.87.54.44.27.23.26.24.32.32.32.33.62.66.63.65.32.32.33.31.82.78.82.78.82.78.43.38.43.36,0,0h0v0l0-.13,0-.24.09-.49q.49-2.61,1-5.2c.13-.77.25-1.53.38-2.31h0v0l0,0,0,0-.07-.08-.1-.1-.13-.11-.14-.12-.33-.24-.36-.23-.19-.11-.18-.1-.17-.09-.17-.07-.14,0-.07,0h-.07l-.22,0h-.68l-.46,0h-.54l-.09,0-.09,0-.1,0-.1,0-.11,0-.2-.11-.1-.05-.09-.06,0,0-.05-.07-.1-.12-.08-.1-.06-.1,0-.08,0,0v0l-.09.17-.11.15-.12.15-.13.14-.13.13-.14.13-.3.25-.22.2-.21.2-.2.21-.19.22-.18.23-.17.24-.16.25-.15.26,0,0v.36l.57.49.6.54,1.26,1.21,2.33,2.33,0,0,0,0,0,0,0,0,0,0h.25l.08,0,.07,0,0,0h0v0l0-.14.09-.33.09-.36c0-.12.05-.25.08-.38s.09-.55.14-.82l.12-.82c0-.26.06-.51.09-.74l.05-.59h-.08l-.21,0-.72-.1-1-.11-.25,0h0l0,0,0,0-.09-.07-.16-.14-.65-.54-.05.09-.06.08-.07.08-.08.08-.07.07-.09.07-.17.13-.35.25-.17.13-.09.06-.07.07.43.41.46.39,1.13.94,1.12.95.06,0h0l0,0,.05-.2.11-.41.1-.41.09-.41h-.34l-.17,0-.16,0-.17,0H498l0,0-.1-.1-.44-.4-.14.1-.06.05,0,0,.31.29.3.29.16.14.16.13,0,0,0,0h0l.06,0,.06,0,.06,0-.16.19-.24-.06-.47-.1-.09,0-.09-.06-.17-.11-.16-.13-.15-.15-.31-.29-.3-.29h0l.05,0,.17,0,.47-.1.27,0,.25,0,.21,0h0l0,0,0-.06h.11l.11,0,.22,0,.42.12.22.06.21,0h.45l-.06.3-.07.3-.16.59-.34,1.18-.16.2-.05.05,0,0h0l-.13,0-.51-.1-.45-.41-.46-.39-.93-.77-.93-.77-.45-.4-.45-.41.1-.08.11-.08.21-.16.22-.15.22-.16.1-.09.09-.09.09-.09.08-.11.08-.11.06-.11,0-.07,0-.06,0-.07,0-.07h.07l0,0,.9.16.3.24.14.12.07.06,0,0h.05l.43.06.85.13.44.05.22,0h.66l.23,0,.24,0h0v0h0v.13l-.06.76-.08.74c-.07.49-.13,1-.19,1.49a1.69,1.69,0,0,0,0,.21c0,.09,0,.21-.07.34s-.12.59-.19.92l-.29,1.47v.05l0,.05,0,0v0h0l-.06,0-.07,0-.16-.09-.18-.12-.2-.14-.44-.34-.46-.39-.46-.4-.4-.37-.32-.31-1.93-1.91-1-.93-.5-.45-.52-.44v0l0-.08a1.9,1.9,0,0,0,.11-.21l.16-.28.2-.33.23-.34.24-.34.23-.29.12-.13.1-.11.09-.07.1-.08.26-.18.3-.18.32-.17.32-.16.15-.06.15-.06.13,0,.11,0h.17l.19.17.15,0h.3l.32,0h.49l.17,0,.17,0h.18l.65,0h1l.15,0,.15,0,.15,0,.15,0,.14,0,.15.06.14.06.14.07.28.16.28.17.27.19,0,0h.24l.06,0,.05,0,.06-.05v.37l0,.38-.06.38-.07.38-.14.77-.06.38,0,.38-.68,3.41-.32,1.7-.14.86-.13.85-.33.43-.05.07h-.08l-.15,0-.15,0-.05,0-.55-.42-.54-.44-.51-.45-.25-.24-.25-.25-4.48-4.42-.26-.24-.26-.24-.54-.44-1.11-.87-.14-.1-.14-.09-.13-.09-.06-.05,0-.05-.06-.07,0,0v0l0,0v-.18l0,0,0,0,0,0,0,0,.08-.06.18-.1.39-.29.38-.3.36-.32.34-.32,1.34-1.33.17-.17.2-.21.45-.5.24-.23.11-.1.11-.08.11-.07.06,0,.05,0,0,0h.16v0h.08l.44.3.11.08H496l.15,0,.31-.05.16,0,.16,0,.53-.14.26-.07.26-.06.26,0h.63l.12,0,.14,0,.13,0,.26.09.26.1.26.11.25.12.26.1.26.09.14,0,.13,0,.23,0,.24,0,.47,0,.95,0h.11l.11,0,.11,0,.1,0,.1.05.05,0,.05,0,0,0,0,0,.05.05,0,.05h0v0l0,.08c0,.07,0,.15,0,.25s0,.22,0,.35,0,.26,0,.4,0,.29,0,.44v.43c0,.14,0,.27,0,.39v.16l0,.15-.07.42-.08.41-.19.83-.21.81-.23.81-.48,1.62-.23.82-.2.82L502,431l0,.24,0,.25,0,.26c0,.17,0,.35,0,.53s0,.37,0,.56c0,.37,0,.74,0,1.09,0,.18,0,.35,0,.51l0,.47V435l-.05.07-.05.07-.06.07-.07.07-.16.14-.32.27,0,0h0l-.1,0-.08,0-.08,0-.24-.26-.26-.25-.27-.24-.28-.23-.57-.45-.59-.44-.78-.59-.77-.61-.74-.62-.36-.33-.36-.33-.26-.24-.26-.23-.54-.45-.53-.46-.26-.24-.25-.26-.4-.46-.39-.45-.38-.45-.21-.21-.21-.21-.53-.52-.52-.53-.52-.52-.53-.52-.14-.12-.15-.11-.15-.1-.15-.1-.31-.19-.31-.2h0v0l0,0v0l0-.07,0-.08v-.71l0-.09,0-.09,0-.08,0-.06,0,0,0,0,.08-.07.09-.08.18-.13L489,423l.2-.12.83-.43.21-.12.19-.12.19-.13.18-.14.09-.07.08-.08.07-.09.07-.09.07-.09.07-.1.05-.11.06-.11,0-.06,0-.06,0-.12,0-.14v-.13l0-.26,0-.13,0-.13.06-.14.06-.14.07-.12.08-.12.09-.12.09-.1.1-.11.1-.1.21-.19.22-.18.22-.18.21-.19,0,0h0l.05,0h.06l.08,0H494l.29,0,.31,0,.31.05.17,0,.08,0h.07l.21-.25.21-.22.19-.19.18-.16.08-.06.08-.06.07,0,.06,0h.1l3,.57.17.12.19.11.18.09.19.08.19.07.19.06.2.06.2,0,.4.07.4.05Z"/></g></g><path class="cls-38" d="M496.84,383.17c1.32,2-18.48,2.29-40.12,2.29s-42.3.4-39.79-1.22c3.24-2.09,21.74-7.76,43.38-7.76S494.17,379.22,496.84,383.17Z"/><path class="cls-31" d="M420.92,385.26c3.67-6.73,39.39-8.78,39.39-8.78-21.64,0-40,5.56-43.38,7.76,0,0-.43.23-.07.43A16,16,0,0,0,420.92,385.26Z"/><path class="cls-31" d="M496.84,383.17s3,2.09-27.21,2.31a92.28,92.28,0,0,0,22.68-.11C492.8,385.3,497.77,384.54,496.84,383.17Z"/><path class="cls-39" d="M424.64,426.74c3.46,2.26.51-19.68,15.15-31.4a2.2,2.2,0,0,0-1.15-3.92,88.25,88.25,0,0,0-12.42-.11,5.17,5.17,0,0,0-4.68,3.56C419.12,402.35,414.65,420.21,424.64,426.74Z"/><path class="cls-39" d="M492.1,394.16c-3.1-3-3.28,21.65-19.43,32.45-1.7,1.15-1.34,4,.58,4.49a79.66,79.66,0,0,0,12.3,1.92,5.15,5.15,0,0,0,5.13-3.24C494.14,421.87,501.07,402.82,492.1,394.16Z"/></g></g></g></g></svg>