<svg xmlns="http://www.w3.org/2000/svg" xmlns:xlink="http://www.w3.org/1999/xlink" viewBox="0 0 295.97 802.7"><defs><style>.cls-1{fill:none;}.cls-2{isolation:isolate;}.cls-3{fill:#dfc570;}.cls-3,.cls-4{stroke:#fff;stroke-linecap:round;stroke-linejoin:round;stroke-width:1.5px;}.cls-4,.cls-8{fill:#ffce33;}.cls-5{fill:#3d3d3d;}.cls-6{opacity:0.55;}.cls-22,.cls-7{fill:#fff;}.cls-9{clip-path:url(#clip-path);}.cls-10{fill:#3f92a3;}.cls-11{fill:#ddbd3f;}.cls-12{fill:#ca9e67;}.cls-13{fill:#b17f4a;}.cls-14{fill:#901c1c;opacity:0.1;}.cls-15{fill:#575756;}.cls-16{fill:#eddfb4;}.cls-17{fill:#c3bdab;}.cls-18{fill:#dadada;}.cls-19{fill:#99b0ad;}.cls-20{fill:#e6dfca;}.cls-21{fill:#0593a1;}.cls-22{opacity:0.8;}.cls-23{fill:#df4937;}.cls-24{fill:#f89f26;}.cls-25{clip-path:url(#clip-path-2);}.cls-26{fill:url(#Áåçûìÿííûé_ãðàäèåíò_2);}.cls-27{fill:#485919;}.cls-28{fill:url(#Áåçûìÿííûé_ãðàäèåíò_54);}.cls-29,.cls-31{fill:#68004f;}.cls-29{opacity:0.21;}.cls-29,.cls-31,.cls-38,.cls-40{mix-blend-mode:multiply;}.cls-30{fill:url(#Áåçûìÿííûé_ãðàäèåíò_7);}.cls-31{opacity:0.3;}.cls-32{fill:url(#Áåçûìÿííûé_ãðàäèåíò_32);}.cls-33{fill:url(#Áåçûìÿííûé_ãðàäèåíò_32-2);}.cls-34{fill:url(#Áåçûìÿííûé_ãðàäèåíò_32-3);}.cls-35{fill:url(#Áåçûìÿííûé_ãðàäèåíò_32-4);}.cls-36{fill:url(#Áåçûìÿííûé_ãðàäèåíò_7-2);}.cls-37{fill:url(#Áåçûìÿííûé_ãðàäèåíò_7-3);}.cls-38{fill:#6b7f22;opacity:0.37;}.cls-39{fill:#ffd58a;}.cls-40{fill:#894374;opacity:0.35;}.cls-41{fill:url(#Áåçûìÿííûé_ãðàäèåíò_54-2);}.cls-42{fill:url(#Áåçûìÿííûé_ãðàäèåíò_7-4);}.cls-43{fill:url(#Áåçûìÿííûé_ãðàäèåíò_32-5);}.cls-44{fill:url(#Áåçûìÿííûé_ãðàäèåíò_32-6);}.cls-45{fill:url(#Áåçûìÿííûé_ãðàäèåíò_32-7);}.cls-46{fill:url(#Áåçûìÿííûé_ãðàäèåíò_32-8);}.cls-47{fill:url(#Áåçûìÿííûé_ãðàäèåíò_7-5);}.cls-48{fill:url(#Áåçûìÿííûé_ãðàäèåíò_7-6);}.cls-49{fill:url(#Áåçûìÿííûé_ãðàäèåíò_12);}</style><clipPath id="clip-path" transform="translate(0 -14.44)"><path id="SVGID" class="cls-1" d="M185.54,56.07a37.5,37.5,0,0,1-75,0c0-20.71-39.28-46.82,36.12-55.5C197.48-5.28,185.54,35.36,185.54,56.07Z"/></clipPath><clipPath id="clip-path-2" transform="translate(0 -14.44)"><path id="SVGID-2" data-name="SVGID" class="cls-1" d="M133.69,161.86a50.09,50.09,0,0,1-100.18,0c0-27.66-7.86-74.41,51.4-74.44C149.22,87.39,133.69,134.2,133.69,161.86Z"/></clipPath><linearGradient id="Áåçûìÿííûé_ãðàäèåíò_2" x1="86.11" y1="178.92" x2="84.87" y2="226.4" gradientUnits="userSpaceOnUse"><stop offset="0" stop-color="#79c2fc"/><stop offset="0.28" stop-color="#4f96e3"/><stop offset="0.6" stop-color="#2469c9"/><stop offset="0.85" stop-color="#0a4db9"/><stop offset="1" stop-color="#0043b3"/></linearGradient><linearGradient id="Áåçûìÿííûé_ãðàäèåíò_54" x1="-1258.58" y1="177.64" x2="-1177" y2="140.6" gradientTransform="translate(1320.81)" gradientUnits="userSpaceOnUse"><stop offset="0" stop-color="#8645bf"/><stop offset="0.16" stop-color="#9a55aa"/><stop offset="0.54" stop-color="#c7767d"/><stop offset="0.83" stop-color="#e28b61"/><stop offset="1" stop-color="#ec9357"/></linearGradient><linearGradient id="Áåçûìÿííûé_ãðàäèåíò_7" x1="-1197.1" y1="129.1" x2="-1210.2" y2="137.03" gradientTransform="translate(1320.81 -14.44)" gradientUnits="userSpaceOnUse"><stop offset="0" stop-color="#e6e443"/><stop offset="0.33" stop-color="#ccdb4c"/><stop offset="0.75" stop-color="#b0d255"/><stop offset="1" stop-color="#a6ce58"/></linearGradient><linearGradient id="Áåçûìÿííûé_ãðàäèåíò_32" x1="-1226.18" y1="142.01" x2="-1223.85" y2="127.77" gradientTransform="translate(1320.81)" gradientUnits="userSpaceOnUse"><stop offset="0" stop-color="#b8b733"/><stop offset="0.27" stop-color="#a5ae38"/><stop offset="0.73" stop-color="#89a23f"/><stop offset="1" stop-color="#7f9d42"/></linearGradient><linearGradient id="Áåçûìÿííûé_ãðàäèåíò_32-2" x1="-1193.66" y1="124" x2="-1221.04" y2="136.87" xlink:href="#Áåçûìÿííûé_ãðàäèåíò_32"/><linearGradient id="Áåçûìÿííûé_ãðàäèåíò_32-3" x1="-1186.99" y1="123.23" x2="-1225.34" y2="141.26" gradientTransform="translate(1320.81 -14.44)" xlink:href="#Áåçûìÿííûé_ãðàäèåíò_32"/><linearGradient id="Áåçûìÿííûé_ãðàäèåíò_32-4" x1="-1192.66" y1="116.22" x2="-1227.89" y2="132.78" xlink:href="#Áåçûìÿííûé_ãðàäèåíò_32"/><linearGradient id="Áåçûìÿííûé_ãðàäèåíò_7-2" x1="-1198.75" y1="124.8" x2="-1217.65" y2="136.25" xlink:href="#Áåçûìÿííûé_ãðàäèåíò_7"/><linearGradient id="Áåçûìÿííûé_ãðàäèåíò_7-3" x1="-1192.43" y1="123.44" x2="-1223.34" y2="142.15" xlink:href="#Áåçûìÿííûé_ãðàäèåíò_7"/><linearGradient id="Áåçûìÿííûé_ãðàäèåíò_54-2" x1="8199.86" y1="171.81" x2="8302.51" y2="125.2" gradientTransform="matrix(-1, 0, 0, 1, 8324.68, 0)" xlink:href="#Áåçûìÿííûé_ãðàäèåíò_54"/><linearGradient id="Áåçûìÿííûé_ãðàäèåíò_7-4" x1="8277.22" y1="110.72" x2="8260.73" y2="120.7" gradientTransform="matrix(-1, 0, 0, 1, 8324.68, -14.44)" xlink:href="#Áåçûìÿííûé_ãðàäèåíò_7"/><linearGradient id="Áåçûìÿííûé_ãðàäèåíò_32-5" x1="8240.63" y1="126.98" x2="8243.56" y2="109.05" gradientTransform="matrix(-1, 0, 0, 1, 8324.68, 0)" xlink:href="#Áåçûìÿííûé_ãðàäèåíò_32"/><linearGradient id="Áåçûìÿííûé_ãðàäèåíò_32-6" x1="8281.55" y1="104.31" x2="8247.1" y2="120.51" gradientTransform="matrix(-1, 0, 0, 1, 8324.68, 0)" xlink:href="#Áåçûìÿííûé_ãðàäèåíò_32"/><linearGradient id="Áåçûìÿííûé_ãðàäèåíò_32-7" x1="8289.94" y1="103.35" x2="8241.68" y2="126.03" gradientTransform="matrix(-1, 0, 0, 1, 8324.68, -14.44)" xlink:href="#Áåçûìÿííûé_ãðàäèåíò_32"/><linearGradient id="Áåçûìÿííûé_ãðàäèåíò_32-8" x1="8282.81" y1="94.52" x2="8238.47" y2="115.36" gradientTransform="matrix(-1, 0, 0, 1, 8324.68, 0)" xlink:href="#Áåçûìÿííûé_ãðàäèåíò_32"/><linearGradient id="Áåçûìÿííûé_ãðàäèåíò_7-5" x1="8275.15" y1="105.32" x2="8251.36" y2="119.73" gradientTransform="matrix(-1, 0, 0, 1, 8324.68, -14.44)" xlink:href="#Áåçûìÿííûé_ãðàäèåíò_7"/><linearGradient id="Áåçûìÿííûé_ãðàäèåíò_7-6" x1="8283.09" y1="103.6" x2="8244.21" y2="127.15" gradientTransform="matrix(-1, 0, 0, 1, 8324.68, -14.44)" xlink:href="#Áåçûìÿííûé_ãðàäèåíò_7"/><linearGradient id="Áåçûìÿííûé_ãðàäèåíò_12" x1="8246.83" y1="191.53" x2="8248.08" y2="239.43" gradientTransform="matrix(-1, 0, 0, 1, 8324.68, -14.44)" gradientUnits="userSpaceOnUse"><stop offset="0" stop-color="#c2bf14"/><stop offset="0.37" stop-color="#a2b41e"/><stop offset="0.77" stop-color="#86ab26"/><stop offset="1" stop-color="#7ca729"/></linearGradient></defs><g class="cls-2"><g id="Capa_2" data-name="Capa 2"><g id="MAPA"><g id="MAPA-2" data-name="MAPA"><path class="cls-3" d="M64.64,623.85c-2.09.29-3.59-3.4-5.74-2.84-1.12.3-1.6,1.59-2,2.69a27.32,27.32,0,0,1-2.81,5.81c-.2.32-.47.67-.85.68s-.66-.3-.94-.54c-1.53-1.34-3.86-1-5.81-.43a5.32,5.32,0,0,0-3.14,1.83c-.68,1-.32,2.78.89,3a5.59,5.59,0,0,0,1.8-.25c.6-.08,1.36.15,1.46.75a1.22,1.22,0,0,1-.18.74c-.84,1.56-2.9,2.44-3.11,4.2a6.91,6.91,0,0,0,.43,2.35c.54,2.2-.06,4.49-.37,6.74a1.6,1.6,0,0,0,0,.87c.26.63,1.11.74,1.56,1.25.65.72.22,1.87.49,2.81a2.92,2.92,0,0,0,2.77,1.77c1.17.07,2.33-.24,3.5-.22a1.37,1.37,0,0,1,.87.25.55.55,0,0,1,.06.8c.22,2.54-1,5.66-3.14,7-.87.54-1.86.88-2.75,1.38a3.88,3.88,0,0,0-2,2.24,1.92,1.92,0,0,0,1.33,2.39c1.26.2,2.25-1.21,3.52-1.33A2.57,2.57,0,0,1,53,669.65a9.58,9.58,0,0,1,.33,3.25,5.37,5.37,0,0,0,.75,3.14,2.16,2.16,0,0,0,2.86.72,3.62,3.62,0,0,0,1-1.92,6,6,0,0,1,2.34-3.53c1.24-.75,3.15-.49,3.74.83s-.32,2.74-1.24,3.81-2,2.29-1.77,3.69a4.61,4.61,0,0,0,2.12,2.66,22.54,22.54,0,0,0,6.51,0,9.86,9.86,0,0,1,2.91-.24,3.59,3.59,0,0,1,3.14,3.08,2.73,2.73,0,0,1-3,2.86c-1.09-.21-2-1.18-3.08-1.16a3.64,3.64,0,0,0-2.47,1.72,12.43,12.43,0,0,0-2.8,4.85,10.3,10.3,0,0,0,2.21,8.16c.62.66,1.64,1.18,2.4.69a2.55,2.55,0,0,0,.66-.76,12.61,12.61,0,0,1,2.55-2.76c.48-.38,1.12-.74,1.67-.46a1.67,1.67,0,0,1,.57.61l3.64,5.46a3.1,3.1,0,0,1,.65,1.5,4.44,4.44,0,0,1-.18,1.14c-.32,1.7.42,3.4,1.14,5,.34.73.85,1.58,1.66,1.56s1.14-.66,1.71-1a2.44,2.44,0,0,1,3.59,1.88c.06,2.16-1.25,4-1.06,6.19.07.69.27,1.49.92,1.75a1.43,1.43,0,0,0,1.39-.3,4.42,4.42,0,0,0,1.28-2.25,6,6,0,0,1,1.12-2.34,1.84,1.84,0,0,1,2.35-.41,3.71,3.71,0,0,1,.92,1.82,4.79,4.79,0,0,0,1.9,2.38c1.47.95,3.4,1.06,4.78,2.14a4.22,4.22,0,0,1,.61,5.77.77.77,0,0,1-.44.32c-.32.06-.6-.23-.75-.53-.38-.74-.41-1.61-.72-2.39S97.9,725,97.1,725.25l.32,4.52a1.87,1.87,0,0,1-.07.91,2.25,2.25,0,0,1-.88.93,9.28,9.28,0,0,0-2.75,3.4c-.47,1-.7,2.3.07,3.08.93.94,2.52.39,3.7-.21l3.05-1.56a2.15,2.15,0,0,1,1.14-.33c1,.08,1.35,1.38,1.29,2.38-.08,1.35-.58,2.87-1.84,3.37-1.11.45-2.35-.09-3.47-.5a5.79,5.79,0,0,0-2.59-.44A2.45,2.45,0,0,0,93,742.25a2.61,2.61,0,0,0,.79,2.66,10,10,0,0,0,2.46,1.57,22.52,22.52,0,0,1,4.16,2.88c.75.66,1.53,1.58,1.26,2.54a2.4,2.4,0,0,1-2.28,1.42,8.83,8.83,0,0,0-2.82.3c-.48.2-.82,1-.31,1.12,0,.87.77,1.24,1.59,1.51s1.77.54,2.16,1.31c.49,1-.34,2.22-1.33,2.76s-2.16.71-3.09,1.34-1.55,2-.81,2.87a4.76,4.76,0,0,0,1.26.78,3.46,3.46,0,0,1,1.59,2,1.32,1.32,0,0,1,0,1.05c-.4.71-1.52.5-2.16,1a1.81,1.81,0,0,0-.31,2.07,20.8,20.8,0,0,1,1,2c.3,1.07-.06,2.21,0,3.32a5.37,5.37,0,0,0,2.56,4.29,6.88,6.88,0,0,0,5,.79,4.28,4.28,0,0,1,1.41-.19,1.09,1.09,0,0,1,1,.85,1.46,1.46,0,0,1-.19.76c-.79,1.72-1.78,3.5-1.5,5.36.36,2.4,2.67,3.94,4.76,5.17a3.31,3.31,0,0,0,1.36.53c.74,0,1.49-.41,2.2-.21a1.29,1.29,0,0,1,.49,2.07,2.77,2.77,0,0,0-.87,2.53,2,2,0,0,0,2,1.29c.47,1.29-.91,2.72-.46,4a4.32,4.32,0,0,0,1.11,1.42,3.63,3.63,0,0,1,.77,4c-.33.66-.93,1.21-1,2-.14,1.33,1.42,2.12,2.7,2.52l6.74,2.11a1.54,1.54,0,0,0,.51.1c.92-.06.87-1.42,1.3-2.23.62-1.12,2.32-1,3.4-.35a2.37,2.37,0,0,0,1.07.49,4.43,4.43,0,0,0,1.21-.32c1.12-.26,2.2.69,3.35.67s2.05-1,2.89-1.75a33,33,0,0,1,7.32-4.76l2.21-1.17a.91.91,0,0,1,.65-.16c.24.06.39.3.51.52l1.12,2a2.51,2.51,0,0,0,2.64-1c.17-.28.32-.62.64-.72.58-.19,1,.55,1.38,1,.83,1,2.33.87,3.52,1.33a14.42,14.42,0,0,1,2,1.13c3.39,1.93,7.61.92,11.47.38a3.49,3.49,0,0,1,1.9.1,9.15,9.15,0,0,1,1.2.87c1.43,1,3.42.58,5,1.3s2.63,2.56,4.35,2.94a1.37,1.37,0,0,0,1.29-.26c.55-.56.16-1.53.41-2.27a1.83,1.83,0,0,1,1.52-1.11,5.25,5.25,0,0,1,2,.2,5.39,5.39,0,0,0-.27-3.84,16,16,0,0,0-2-3.36l-2-2.77a1.78,1.78,0,0,0-.61-.61,2.37,2.37,0,0,0-1.59.08l-.3.05c-1.4.17-2.9-1.05-4.12-.35s-.85,2.88-1.68,4.18a2.28,2.28,0,0,1-2.42,1c.36-1.21-.49-2.43-1.36-3.34s-1.89-1.87-2-3.12a6,6,0,0,1,.25-1.78,28.91,28.91,0,0,0,.13-9.1L170,779.68c-.16-1.77-2-3.48-1.68-5.24a17.09,17.09,0,0,1,1.37-3.29,15,15,0,0,0,.79-4.76l.3-5.46a10,10,0,0,0-.37-4.22,4.22,4.22,0,0,1-.45-1.45c0-.74.51-1.55.08-2.16-.27-.39-.84-.49-1.14-.86-.49-.62-.09-1.73-.74-2.17a2.61,2.61,0,0,0-1-.23c-1-.23-1.52-1.41-1.84-2.43a2.53,2.53,0,0,1-.12-1.75c.22-.54.79-.87,1-1.38.47-.94-.2-2-.84-2.86l-2.79-3.64c.49-2.76.67-5.79,1.16-8.55s.83-5.68-.9-7.72c-.81-.94-2-1.54-2.69-2.56-.84-1.2-.9-2.8-1.65-4.06-1-1.64-2.9-2.46-4.08-3.95a1.37,1.37,0,0,1-.35-1.41,1.41,1.41,0,0,1,.65-.55c1.35-.71,3-1.33,3.42-2.8.29-1.08-.25-2.28.15-3.32a5.2,5.2,0,0,1,1.86-1.93,2.37,2.37,0,0,0,1.12-2.3c-.06-.21-.18-.41-.23-.64a2.43,2.43,0,0,1,.17-1.21,12,12,0,0,0,.23-6,24.56,24.56,0,0,0-2.55-5.69,13.23,13.23,0,0,1-1.52-5.74c-.32-1.68-2-2.56-3.66-2.64a17.19,17.19,0,0,0-4.25.62,7,7,0,0,1-4.23-.17c-.34-.15-.7-.43-.68-.8a3.52,3.52,0,0,1,.22-.62c.23-.85-.93-1.36-1.8-1.49-.6-.09-1.32-.12-1.67.36s0,1.44-.3,2.07a1.33,1.33,0,0,1-1.38.57,4.28,4.28,0,0,1-1.44-.66c-2-1.2-4.38-2.16-6.54-1.35-1.28.49-2.38,1.59-3.76,1.6-1.65,0-2.84-1.48-3.87-2.78s-2.55-2.62-4.12-2.13a5.43,5.43,0,0,0-1.89,1.35c-3.68,3.26-9,3.49-14,3.56a15.81,15.81,0,0,1-5.7-.62c-1.73-.64-3.2-1.66-5-2-2.74-.57-5.77.39-8.3-.81a4.94,4.94,0,0,0-2.1-.81c-1.11,0-2,1.08-3.13,1a3.08,3.08,0,0,1-1.78-.92A30.79,30.79,0,0,1,73.63,668c-.35-.46-.7-1.08-.41-1.58.16-.26.47-.43.54-.73s-.21-.66-.34-1c-.62-1.6,2.45-3,1.73-4.52-.2-.44-.69-.74-.79-1.21-.25-1.18,2-1.8,1.71-3a1.68,1.68,0,0,0-.4-.68,16.44,16.44,0,0,0-4-3.41c-.69-.41-1.5-.94-1.49-1.74,0-.37.2-.72.22-1.08a2,2,0,0,0-.64-1.35A29,29,0,0,0,66,645.05c-1.23-.92-2.31-2.36-2-3.88a9.57,9.57,0,0,0,.3-1.39c0-.47-.27-1-.74-1.06s-.68.24-1,.43a2.3,2.3,0,0,1-3.19-1.31c-.62-2.17,2.13-4,2.13-6.24a8.24,8.24,0,0,0-.81-2.73c-.31-.9,3.58-4.35,4.27-5" transform="translate(0 -14.44)"/><path class="cls-3" d="M88.6,586.65a1.37,1.37,0,0,1,1.51.89c.16.7-.42,1.45-.16,2.11.46,1.16,2.56.44,3.26,1.48.49.71-.08,1.66,0,2.52,0,1,1,2.08.42,3a3,3,0,0,0-.38.58,1.5,1.5,0,0,0,.15.92c.35,1.14,0,2.36,0,3.55.11,3.14,3.13,5.7,3,8.84a1.32,1.32,0,0,1-.4,1,2.92,2.92,0,0,1-.63.27,1.67,1.67,0,0,0-.62,2.46c.66.83-.8,2.11-1.85,2.1s-2.12-.47-3.15-.22a13.6,13.6,0,0,0-1.57.69,7.37,7.37,0,0,1-4.4-.15c-.06,1.38,1.55,2.13,2.47,3.17a3.72,3.72,0,0,1,.7,3.62.63.63,0,0,1-.35.45.72.72,0,0,1-.56-.14l-2.45-1.4a1.52,1.52,0,0,0-.7-.25c-.71,0-1,.92-.94,1.63s.21,1.52-.3,2-1.74.13-2.45-.45a6.45,6.45,0,0,1-1.41-1.54c-.47-.79-.63-1.73-1.08-2.53a2,2,0,0,0-2.25-1.15c-.53.2-.89.73-1.43.9-1.5.47-2.44-2-4-2.07-1.22,0-3.84,4.57-4.38,5.13-.15.24-4.36,3.68-4,4.83a8.24,8.24,0,0,1,.81,2.73c0,2.25-2.75,4.07-2.13,6.24a2.3,2.3,0,0,0,3.19,1.31c.33-.19.64-.46,1-.43s.75.59.74,1.06a9.57,9.57,0,0,1-.3,1.39c-.27,1.52.81,3,2,3.88a29,29,0,0,1,3.75,2.69,2,2,0,0,1,.64,1.35c0,.36-.21.71-.22,1.08,0,.8.8,1.33,1.49,1.74a16.44,16.44,0,0,1,4,3.41,1.68,1.68,0,0,1,.4.68c.25,1.18-2,1.8-1.71,3,.1.47.59.77.79,1.21.72,1.55-2.35,2.92-1.73,4.52.13.33.42.64.34,1s-.38.47-.54.73c-.29.5.06,1.12.41,1.58a30.79,30.79,0,0,0,4.44,4.69,3.08,3.08,0,0,0,1.78.92c1.11,0,2-1,3.13-1a4.94,4.94,0,0,1,2.1.81c2.53,1.2,5.56.24,8.3.81,1.81.38,3.28,1.4,5,2a15.81,15.81,0,0,0,5.7.62c4.91-.07,10.28-.3,14-3.56a5.43,5.43,0,0,1,1.89-1.35c1.57-.49,3.09.84,4.12,2.13s2.22,2.8,3.87,2.78c1.38,0,2.48-1.11,3.76-1.6,2.16-.81,4.57.15,6.54,1.35a4.28,4.28,0,0,0,1.44.66,1.33,1.33,0,0,0,1.38-.57c.32-.63-.11-1.5.3-2.07s1.07-.45,1.67-.36c.87.13,2,.64,1.8,1.49a3.52,3.52,0,0,0-.22.62c0,.37.34.65.68.8a7,7,0,0,0,4.23.17,17.19,17.19,0,0,1,4.25-.62c1.62.08,2.59,1.09,3.67,2.65a23.08,23.08,0,0,0,.09-6.21,39,39,0,0,0-1.62-4.62c-.5-1.55-.59-3.41.45-4.66-.64-1.3-2.85-1.34-3.23-2.74-.17-.63.13-1.32-.07-1.94-.31-1-1.57-1.2-2.6-1.27s-2.29-.33-2.54-1.33a4.09,4.09,0,0,1,0-1.05c0-1.45-1.13-2.62-2.07-3.72s-1.83-2.56-1.34-3.92c2.14.22,4.11-1.22,5.84-2.5a26.5,26.5,0,0,0,4.46-4.64,6.9,6.9,0,0,0,1.6-2.7c.51-2.22-1.21-4.5-.72-6.72a12.92,12.92,0,0,1,1.18-2.6c1.32-2.87.73-6.21,1.15-9.34a5,5,0,0,1,1.05-2.73,16.42,16.42,0,0,0,1.19-1.17c.92-1.23.38-3,.61-4.51a4.49,4.49,0,0,1,3.35-3.62,2.4,2.4,0,0,0,1-.37,1.89,1.89,0,0,0,.41-1.63,38.45,38.45,0,0,0-.65-5.67,9.29,9.29,0,0,1-.41-2.9,7.8,7.8,0,0,1,1.25-3.05L168,590c-1.31-1-2.8-2.59-2.85-4.25,0-1.39.93-2.61,1.11-4a3.68,3.68,0,0,0-1.45-3.37,2.92,2.92,0,0,1-.48-.37c-.19-.2-.3-.46-.48-.66s-.34-.14-.5.08a24,24,0,0,1-5,4.85,2,2,0,0,1-.76.38,2.14,2.14,0,0,1-1.07-.21c-1.07-.43-2.32-1.06-2.44-2.21a9.13,9.13,0,0,0,0-1.48c-.18-.7-.95-1.09-1.26-1.74a5.19,5.19,0,0,1-.27-1.76c-.08-.59-.44-1.25-1-1.29-.8,0-1.2,1-2,1.31s-1.79-.48-2.31-1.29-1.1-1.78-2-1.86a10.29,10.29,0,0,0-1.54.25c-.93.09-1.81-.48-2.74-.45-1.88.07-3.08,2.46-5,2.43-2.22,0-3.12-3.31-5.3-3.73-.71-.14-1.7-.11-1.84-.82s.48-1.46-.09-1.69a.61.61,0,0,0-.33,0c-1.67.17-2.94,1.6-4.57,2-1.83.47-3.7-.44-5.57-.72-2.8-.42-5.6.59-8.25,1.58-5.64-.95-11.19,1-16.79,2.21-3.77.79-7.72,1.27-11,3.27-1,.59-2,1.68-1.5,2.71s2.19,1.11,2.73,2.17c.29.57.24,1.41.83,1.65s1-.14,1.43-.12c.91,0,1.36,1.22,1.06,2.07a7.4,7.4,0,0,1-1.65,2.14c-.4.44-.68,1.25-.16,1.54.34.19.76,0,1.06-.28a9.21,9.21,0,0,1,2-1.59A2.09,2.09,0,0,1,88.6,586.65Z" transform="translate(0 -14.44)"/><path class="cls-3" d="M103.56,213.38l5.63,1.12a3,3,0,0,1,1.13.37c.69.42,1.07,1.34,1.87,1.5,1.09.21,1.77-1.12,2-2.2s.81-2.43,1.92-2.37c.46,0,.9.32,1.35.21.67-.17.84-1.11,1.44-1.45.83-.49,1.89.42,2.83.19.45-.11.8-.47,1.24-.62,1.53-.52,2.59,1.5,4,2.37,1.89,1.23,4.53,0,5.86-1.82.22.81,1.57.65,1.95-.1a3.59,3.59,0,0,0,0-2.46c-.42-1.81-.49-3.91.74-5.31,1.08-1.24,2.83-1.56,4.36-2.16a22.36,22.36,0,0,0,6.05-4.14,4.05,4.05,0,0,0,1.12-1.25,4.87,4.87,0,0,0,.33-1.86c.17-2.86,1.46-6.08,4.22-6.83.82-.23,1.69-.2,2.51-.45a2.05,2.05,0,0,0,1.59-1.76,6.37,6.37,0,0,0-.26-1.13,3.52,3.52,0,0,1,1.06-3,8.35,8.35,0,0,1,5.78-2.38,24.8,24.8,0,0,1,6.34.83l13.13,2.88a2.64,2.64,0,0,0-1.57,2.28l1.3-.12.05,1.23c1.1.51,2.31-1.22,3.43-.74.9.39.72,1.67.8,2.65.1,1.36,1.58,2.72,2.75,2,.87-.5,1-1.73,1.62-2.5a3.25,3.25,0,0,1,2.08-1,6.83,6.83,0,0,1,6.59,3.06,2.75,2.75,0,0,0,2.58-1.14,3.16,3.16,0,0,0,.1-3,7.57,7.57,0,0,0-2.86-2.44,4.15,4.15,0,0,1-2.24-2.89c-.12-1.66,1.51-3.28.85-4.8a1.21,1.21,0,0,1-.21-.72,1.39,1.39,0,0,1,.37-.51c.74-.91,0-2.31.3-3.44.16-.54.55-1,.7-1.54a4.76,4.76,0,0,0-.37-2.5,2.18,2.18,0,0,1,.44-2.43c.48.55,1.48.25,2.1-.18a8.86,8.86,0,0,0,1.56-1.78c1.38-1.61,3.76-2.48,4.34-4.52.13-.48.23-1.08.7-1.24a1.22,1.22,0,0,1,1,.22l1.11.59c.65.35,1.39.85,1.38,1.59A1.6,1.6,0,0,1,209.4,159a15.29,15.29,0,0,0-1.76.62,1.37,1.37,0,0,0-.75,1.54c.18.44-.07.61.89,1,1.22,2.86.48,3.05-1.26,4.31-1.1.79-2.58.74-3.85,1.19s-2.43,2-1.61,3.09c.49-.32,1.12.25,1.26.82a5.75,5.75,0,0,0,.39,1.72c.49.77,1.59.76,2.48,1,2.58.63,3.75,3.55,4.53,6.08a2.24,2.24,0,0,1,0,2c-.37.48-1.07.58-1.5,1a2.57,2.57,0,0,0-.56,1.46,23.22,23.22,0,0,0,1.83,12.84c.52,1.14,1.15,2.43.67,3.6a7.52,7.52,0,0,0-.69,1.43,4,4,0,0,0,.36,1.77c1,3.55-2.55,6.81-2.88,10.49-.16,1.77.44,3.56.17,5.32-.32,2-1.73,4-.86,5.83a10,10,0,0,0,1.87,2.1,5.6,5.6,0,0,1-1.59,8.38,5.37,5.37,0,0,0-1.71,1,3.17,3.17,0,0,0-.66,1.9,12.72,12.72,0,0,0,2.63,9,5.48,5.48,0,0,1,1,1.47c.54,1.49-.56,3.07-.56,4.65,0,1.23,1.47,2.17,1.27,3.37a2.63,2.63,0,0,1-.28.72c-.65,1.34-.57,2.51-1.4,4.45a5.47,5.47,0,0,1-.89.91,4,4,0,0,0-.89,2.76,8.68,8.68,0,0,1-.3,2.93,2.16,2.16,0,0,1-2.15,1.52c-1.06-.16-1.38-.4-1.77.71-.33.92-1.42,1-1.95,1.71a9,9,0,0,0-1.23,3c-.11.4-.27.85-.66,1s-.95-.22-1.44-.17a1.71,1.71,0,0,0-.87.5l-3.28,2.89a5,5,0,0,0-1.21,1.38c-.24.46-.32,1-.54,1.46a3.74,3.74,0,0,1-2.71,1.92,11.27,11.27,0,0,1-3.43,0,4.76,4.76,0,0,0,.35,2.71l-4.07-.52a2,2,0,0,0-.9,0c-1.33.45-.5,2.7-1.46,3.72-.66.72-2,.62-2.43,1.51-.56,1.24,1.54,2.51,1,3.75-.44,1.05-2.11.7-3,1.44-1,.89-.32,2.66-1,3.84a3,3,0,0,1-2.57,1.23,10.34,10.34,0,0,0-2.95.26c-.65.23-1.21.66-1.86.9-2.15.79-5-.58-6.65,1-.67.66-1.14,1.82-2.09,1.75-.62-.05-1-.66-1.62-.91-1-.43-2.14.42-2.87,1.26s-1.56,1.86-2.68,1.84c-.6,0-1.29-.3-1.76.07s-.36,1.6-1.05,1.87a2.47,2.47,0,0,1-.94,0,3.91,3.91,0,0,0-1.81.77,12.44,12.44,0,0,1-4,.89,5.69,5.69,0,0,0-3.35,1.93c-.82.87-2.33.38-3.19-.46s-1.48-2-2.55-2.5a4.15,4.15,0,0,0-3.36.1,32.07,32.07,0,0,0-3,1.71,14,14,0,0,1-10,1.41,1.18,1.18,0,0,0-.83,0c-.76.43.25,1.76-.29,2.45s-2.08-.37-2.76.33a1.56,1.56,0,0,0-.28.66L108,325a2.32,2.32,0,0,1-.31.82,1.67,1.67,0,0,1-1.93.4,13.36,13.36,0,0,1-1.84-1,5.27,5.27,0,0,0-6.48,1.35c-.71.91-1.53,2.25-2.63,1.88-.37-.13-.66-.44-1-.48-.78-.1-1.2.91-1.25,1.69a9.3,9.3,0,0,0,.42,3.4A2,2,0,0,1,93,334.6c-.52.81-1.78.31-2.73.49-1.21.23-1.81,1.6-2.06,2.81-.91,4.44.13,9,1.31,13.4a8.44,8.44,0,0,0,.89,2.33c.25.39,1.78,1.68,1,2.15-.51.3-1.17-.08-1.64.41a3.09,3.09,0,0,0-.6,1.69c-.17,1.17,0,2.34-.07,3.51l-.48,6.08a2.21,2.21,0,0,0,.17,1.3,2.47,2.47,0,0,0,.65.64A7,7,0,0,1,92,374a2.06,2.06,0,0,0-2.55,1.87,3,3,0,0,1,0,1.08c-.19.5-.83.74-1,1.25-.27.74.53,1.59.18,2.3-.17.33-.56.51-.72.85-.34.66.33,1.35.81,1.91a1.37,1.37,0,0,1,.34,1.43c-.37.68-1.54.31-.86,1.41a3.15,3.15,0,0,0,1.6,1.56c.66.18,1.57-.34,1.41-1.1A4.81,4.81,0,0,1,91,386c-.07-.66.79-.44,1.13-.25,1.25.72,3.07,1.73,3.78,3a3.11,3.11,0,0,1-.54,3.64c-.14.14-.31.3-.29.49a.57.57,0,0,0,.29.36l3.71,2.65a2,2,0,0,0,.19,4c.09-.5.08-1.93.61-2.2s1.76,1.1,2.36,1.38,2.42.87,2.86.35a6.45,6.45,0,0,0-1.38,2.87,1.08,1.08,0,0,0,.16,1c.65.66,1.65-.69,2.56-.51.41.08.68.46,1,.68a2.72,2.72,0,0,0,1.08.33l6.51,1.08a4.06,4.06,0,0,1,3.56,2.63,2.33,2.33,0,0,1,.4.93,3.35,3.35,0,0,1-.28,1.31,4.17,4.17,0,0,0,1.64,4.53c.32.22.72.45.78.84a2.08,2.08,0,0,1-.12.68c-.18.91.53,1.73,1.15,2.43a4.63,4.63,0,0,1,1.33,2.93,2.3,2.3,0,0,0,1.19,2.13,11.6,11.6,0,0,0,2.4.93,17.23,17.23,0,0,1,5.79,3.52,1.68,1.68,0,0,0-.41,1.68,9.07,9.07,0,0,0,.92,1.63c.95,1.69.81,3.94,2.14,5.35.42.45,1,.9,1,1.52-.07.79-1.23,1.3-1,2.07.16.57,1,.68,1.31,1.17a1.92,1.92,0,0,1,.23,1,15.09,15.09,0,0,0,3.35,8.64c.34.41.71.91.54,1.4a1.41,1.41,0,0,1-.59.62,12.31,12.31,0,0,1-2,1.13,3.13,3.13,0,0,1-2.42.26c-.77-.32-1.18-1.48-.54-2l-5.05,3.49a.66.66,0,0,1-.27.12.59.59,0,0,1-.35-.14,4.48,4.48,0,0,0-6,1.27,7.83,7.83,0,0,0-5-2.68v2.19a8.28,8.28,0,0,1-1.79-.72,1.26,1.26,0,0,0-1.33.21c-.26.26-.3.78-.61,1s-1.05-.13-1.17.29c0,.1,0,.21,0,.32s-.37.27-.59.21a1.53,1.53,0,0,1-.88-.74,4.82,4.82,0,0,1-.42-1.09c-1-3.45-1.95-6.89-2.79-10.37-1-4.1-1.85-8.23-2.58-12.39a5.75,5.75,0,0,0-.7-2.19,9.07,9.07,0,0,0-1.34-1.36,16.94,16.94,0,0,1-2.87-4.46,49.85,49.85,0,0,0-12-14.88c-2.08-1.75-4.54-3.4-7.25-3.26-1.32.07-2.63.57-3.93.34a19.8,19.8,0,0,1-2.22-.72c-3.66-1.06-7.52,1.8-11.24,1-2.23-.48-3.75-2.73-5.79-3.77a14.72,14.72,0,0,1-2.77-1.61c-1.65-1.34-2.85-3.65-5-3.74-2.44-.1-4.18,2.9-6.62,2.79a5.61,5.61,0,0,1-3.31-1.86L38,396.19a3.27,3.27,0,0,1-1.21-1.78c-.19-1.31,1.18-2.32,1.47-3.62a3.48,3.48,0,0,0-1.6-3.3c-1-.78-2.27-1.24-3.33-2-2.8-1.94-4-5.47-6.18-8.05s-5.27-4.11-6.8-7c-.69-1.28-1-2.76-1.92-3.9s-2.16-1.85-2.47-3.17a10.71,10.71,0,0,0-.32-2.21,3.37,3.37,0,0,0-1-1.06l-13.35-11a7.92,7.92,0,0,0,.22-6.07,12.11,12.11,0,0,1-.76-2.32,2,2,0,0,1,1-2.08c1.14-.48,2.22.67,3.28,1.3a5.1,5.1,0,0,0,4.83,0,8.68,8.68,0,0,0,3.52-3.51c.72-1.24,1.37-2.72,2.72-3.23a25.23,25.23,0,0,1,2.65-.41,6.35,6.35,0,0,0,2.41-1.47l5.09-4.27a19.77,19.77,0,0,0,3.79-3.8,20,20,0,0,0,2.19-4.77l2-5.63a6.47,6.47,0,0,0,.52-2.36c-.07-1.8-1.62-3.52-1-5.21.71-2,3.83-2.32,4.28-4.35.24-1.07-.4-2.11-.65-3.18a8.89,8.89,0,0,1,.53-4.43l1.44-4.87c.53-1.81,1.12-3.71,2.52-5a10.45,10.45,0,0,1,5.08-2.06c5-1.06,7.66-7.31,8.38-12.38a8.72,8.72,0,0,0,0-3.18A14.92,14.92,0,0,0,54,263,23.21,23.21,0,0,1,52,256.21c-.57-4.35.38-8.83-.58-13.1A29.43,29.43,0,0,0,49,236.92L45.75,230a20.92,20.92,0,0,1-2-9.64c.13-2,.89-4.4,2.83-5a5.29,5.29,0,0,1,3.57.39,5.68,5.68,0,0,1,2,1.24,2.33,2.33,0,0,1,.64,2.22c-.23.77-1,1.31-1.18,2.09a10.76,10.76,0,0,0-.06,1.8c-.06.6-.52,1.27-1.11,1.17a1.69,1.69,0,0,1-.81-.52,5.21,5.21,0,0,0-2.33-1.26l2.21,10.6a6.4,6.4,0,0,0,1.4,3.32,1.65,1.65,0,0,0,2.33.11,2.66,2.66,0,0,0,1.2-2.14A1.91,1.91,0,0,0,53,232.52a7,7,0,0,0-.46-5.14,1.79,1.79,0,0,1,1.57,1.33c.26.7.3,1.46.62,2.12.62,1.29,2.24,2.21,2.09,3.63-.08.79-.73,1.57-.41,2.3.15.36.5.59.73.91a1.5,1.5,0,0,1-.29,2c.54.68,1.61.35,2.41,0s1.9-.6,2.37.13a1.36,1.36,0,0,1-.59,1.74,7.67,7.67,0,0,1-1.89.71,2,2,0,0,0-1.41,1.33c-.08.46.08,1-.21,1.34-.58.71-1.75-.38-2.61-.06-.61.22-.75,1-.8,1.63l-.44,6.14a2.39,2.39,0,0,0,1,2.59l2.31,2c.49.42,1,1.2.5,1.61-1,0-1.82,1.34-1.54,2.34a2.55,2.55,0,0,0,1.16,1.35c2.32,1.42,5.42.58,7.57-1.07,1.44-1.11,2.69-2.85,2.29-4.62-.19-.8-.69-1.49-.86-2.29s.21-1.84,1-1.92a1.57,1.57,0,0,1,.89.24A3.9,3.9,0,0,1,70,256c0,.44,0,1,.49,1.14a.91.91,0,0,0,.75-.3c1.07-.9,2-1.93,3.19-2.74a10.64,10.64,0,0,1,9.44-1.36c.63.21,1.35.68,1.25,1.33a1.38,1.38,0,0,1-.63.82c-3,2.16-7.9,1-10.27,3.83-1.09,1.33-1.4,3.31-2.85,4.23-.53.34-1.16.5-1.68.86a1.35,1.35,0,0,0-.62,1.61,1.22,1.22,0,0,0,1.61.35A3.82,3.82,0,0,0,72,264.53a23.89,23.89,0,0,1,5.07-5c.7-.51,1.8-.92,2.3-.22a1.87,1.87,0,0,1,.2,1.17,9.88,9.88,0,0,0,.81,4.25,1.14,1.14,0,0,0,.44.59.93.93,0,0,0,1.1-.34c.27-.32.41-.73.65-1.07a2.9,2.9,0,0,1,2.63-1.05,8.63,8.63,0,0,1,2.81.9c-2.49,1.77-5,3.48-7.59,5.12A7.12,7.12,0,0,1,78,270a4.81,4.81,0,0,0-1.15.26.89.89,0,0,0-.54,1,1,1,0,0,0,.4.47c1.85,1.31,4.5-.35,6.66.33a1.22,1.22,0,0,1,.74.52,1.35,1.35,0,0,1,.13.6l.37,4.42a1.67,1.67,0,0,1-.09.89c-.32.66-1.34.6-1.91.13a12.83,12.83,0,0,1-1.35-1.74,4.58,4.58,0,0,0-4.92-1,2.19,2.19,0,0,0-1.1.73,1,1,0,0,0,0,1.24,1.74,1.74,0,0,0,.65.33,24.81,24.81,0,0,1,5.17,2.41,4.57,4.57,0,0,1,2,2,1.78,1.78,0,0,1-1,2.38c-.59.13-1.21-.17-1.81-.11a4.73,4.73,0,0,0-1.57.71,1.55,1.55,0,0,1-1.64.06c-.32-.26-.43-.7-.69-1a1.36,1.36,0,0,0-2.17.25c-1-.84,0-2.53-.57-3.65a3.79,3.79,0,0,0-1.06-1c-1-.8-1.64-2-2.7-2.65-2.11-1.37-4.92-.41-7.11.83a6.25,6.25,0,0,0-2.11,1.66,2.51,2.51,0,0,0-.35,2.54A7.19,7.19,0,0,0,61.49,284a1.54,1.54,0,0,1,.43,1.63,2.12,2.12,0,0,1-1,.81,8.83,8.83,0,0,0-2.09,1.54.84.84,0,0,0-.31.5.93.93,0,0,0,.32.68l1.5,1.71a78.2,78.2,0,0,1-2.09,9.43,16.05,16.05,0,0,0-.61,3.22,14.78,14.78,0,0,0,1.28,5.7A9.53,9.53,0,0,0,60.34,312a8.09,8.09,0,0,0,2.29,1.77c6.18,3.45,13.55,3.76,20.62,4A65.78,65.78,0,0,0,100,316c3.06-.69,6.18-1.71,8.46-3.87s3.46-5.74,2.07-8.55a2.77,2.77,0,0,1-.44-1.25,2,2,0,0,1,.48-1.12,27.26,27.26,0,0,0,2.82-3.82c1.2-2.46.74-5.42-.19-8a5.14,5.14,0,0,1-.51-3,9.68,9.68,0,0,1,.78-1.54,4.75,4.75,0,0,0-.27-4.63,5.42,5.42,0,0,0,5.27-4.1,12.3,12.3,0,0,0-.38-5.83,8.91,8.91,0,0,0-1.2-3,3.42,3.42,0,0,0-2.75-1.56,1.65,1.65,0,0,0-1.24.53,2.05,2.05,0,0,0-.39,1.08c-.25,2,.45,4.26-.65,6a7.54,7.54,0,0,1-1.56-8,14.24,14.24,0,0,0,1.07-2.6,2.15,2.15,0,0,0-1-2.41c-.28-.12-.6-.15-.87-.29a2.4,2.4,0,0,1-1-1.52,5.59,5.59,0,0,1-.36-3.52,7.65,7.65,0,0,1,1.48-2.15,10.86,10.86,0,0,0,2.37-6.65,18.39,18.39,0,0,0-1-5.73,24.76,24.76,0,0,1-1.21-4.08c-.14-1.07,0-2.16-.11-3.23a26.45,26.45,0,0,0-.75-3.81c-1-4.35-1.16-9.27-4.25-12.49a5.13,5.13,0,0,1-1.08-1.3,3.43,3.43,0,0,1-.21-1.77" transform="translate(0 -14.44)"/><path class="cls-3" d="M131,369.3a8.43,8.43,0,0,0-8,1.32c-.73.61-1.7,1.41-2.52.91-.55-.33-.67-1.1-1.13-1.55-.64-.62-1.68-.46-2.55-.66a5.09,5.09,0,0,1-2.39-1.56c-1.65-1.67-3.22-3.78-5.54-4.1-1.15-.17-2.34.15-3.48-.09a10.58,10.58,0,0,1-2-.77c-2.26-.94-4.79-1.05-7-2a9.91,9.91,0,0,1-5-5c-.51.26-1.14-.09-1.6.39a3.09,3.09,0,0,0-.6,1.69c-.17,1.17,0,2.34-.07,3.51l-.48,6.08a2.21,2.21,0,0,0,.17,1.3,2.47,2.47,0,0,0,.65.64A7,7,0,0,1,92,374a2.06,2.06,0,0,0-2.55,1.87,3,3,0,0,1,0,1.08c-.19.5-.83.74-1,1.25-.27.74.53,1.59.18,2.3-.17.33-.56.51-.72.85-.34.66.33,1.35.81,1.91a1.37,1.37,0,0,1,.34,1.43c-.37.68-1.54.31-.86,1.41a3.15,3.15,0,0,0,1.6,1.56c.66.18,1.57-.34,1.41-1.1A4.81,4.81,0,0,1,91,386c-.07-.66.79-.44,1.13-.25,1.25.72,3.07,1.73,3.78,3a3.11,3.11,0,0,1-.54,3.64c-.14.14-.31.3-.29.49a.57.57,0,0,0,.29.36l3.71,2.65a2,2,0,0,0,.19,4c.09-.5.08-1.93.61-2.2s1.76,1.1,2.36,1.38,2.42.87,2.86.35a6.45,6.45,0,0,0-1.38,2.87,1.08,1.08,0,0,0,.16,1c.65.66,1.65-.69,2.56-.51.41.08.68.46,1,.68a2.72,2.72,0,0,0,1.08.33l6.51,1.08a4.06,4.06,0,0,1,3.56,2.63,2.33,2.33,0,0,1,.4.93,3.35,3.35,0,0,1-.28,1.31,4.17,4.17,0,0,0,1.64,4.53c.32.22.72.45.78.84a2.08,2.08,0,0,1-.12.68c-.18.91.53,1.73,1.15,2.43a4.63,4.63,0,0,1,1.33,2.93,2.3,2.3,0,0,0,1.19,2.13,11.6,11.6,0,0,0,2.4.93,17.23,17.23,0,0,1,5.79,3.52,1.68,1.68,0,0,0-.41,1.68,9.07,9.07,0,0,0,.92,1.63c1.16,2.06.69,5,3.27,6.15,1,0,2-.65,2.79,0a2.06,2.06,0,0,1,.55.88l1.19,2.85a1.38,1.38,0,0,0,.52.74c.53.3,1.19-.18,1.79-.09.83.11,1.23,1.21,2.06,1.35a2.28,2.28,0,0,0,1-.19,13.22,13.22,0,0,1,4.59-.69,3.89,3.89,0,0,0,1.7-.16c1.3-.55,1.46-2.39,2.53-3.31a14.58,14.58,0,0,1,1.41-.89,1.55,1.55,0,0,0,.79-1.37,7.36,7.36,0,0,0-.43-1.06,2.34,2.34,0,0,1,.91-2.15,5,5,0,0,0,1.55-1.86c.12-.38.12-.78.24-1.16a5.69,5.69,0,0,1,.66-1.21c1.62-2.64,1.39-6,1.1-9.05.84.27,2,.44,2.42-.32.15-.26.17-.58.34-.83.67-1,2.44.27,3.4-.45.49-.36.53-1.06.74-1.63a2.66,2.66,0,0,1,3.25-1.53c.12-.31-.21-.81.08-.94s.51.58.9.62a.59.59,0,0,0,.44-.23L175,412.7c-2.48-2.76-.17-5.78-1.61-8.9a2,2,0,0,1-.33-1.22,1.7,1.7,0,0,1,.38-.68,101.33,101.33,0,0,1,7.27-7.82,9.78,9.78,0,0,0-.67-3.7,3.14,3.14,0,0,1-.35-1.39,3.07,3.07,0,0,1,.61-1.32,13.36,13.36,0,0,0,2-8c-.15-2.06-.76-4.23,0-6.14.27-.63.69-1.29.47-1.94-.3-.87-1.48-1-2.4-.9-1.14.1-2,1.33-2.3-.84-1.74-1.87-4.4-2.33-6.88-2.72-1.18-.18-2.67-.23-3.27.81a.77.77,0,0,1-.19.28.65.65,0,0,1-.55,0,17.77,17.77,0,0,1-2.47-1.14,3,3,0,0,0-2.63-.13c-1,.54-1.42,1.88-2.5,2.14a3.19,3.19,0,0,1-1.49-.17c-2.88-.79-6.22-1-8.6.85a1.62,1.62,0,0,0-.7,1c-.06.43.21.88.11,1.31-.14.61-.91.82-1.54.81a2.82,2.82,0,0,0-1.83.26,3.63,3.63,0,0,0-.78,1.25c-.24.43-.72.83-1.18.65a6.27,6.27,0,0,1-.35-2.5c-.09-.84-.79-1.8-1.6-1.54-.53.17-.84.81-1.39.92-.29.05-.61-.06-.87.07-.7.36-.41,2-1.19,2,0,0,.17-.15.13-.15-2.12.06-3.55-2-5.21-3.32A7.72,7.72,0,0,0,131,369.3Z" transform="translate(0 -14.44)"/><path class="cls-3" d="M88.08,344.78a20.63,20.63,0,0,1,.11-6.88c.25-1.21.85-2.58,2.06-2.81,1-.18,2.21.32,2.73-.49A2,2,0,0,0,92.9,333a9.3,9.3,0,0,1-.42-3.4c0-.78.47-1.79,1.25-1.69.38,0,.67.35,1,.48,1.1.37,1.92-1,2.63-1.88a5.27,5.27,0,0,1,6.48-1.35,13.36,13.36,0,0,0,1.84,1,1.67,1.67,0,0,0,1.93-.4l.17-.22c.77,0,1.33.7,1.76,1.34l2.52,3.77a6.06,6.06,0,0,1,1,2c.27,1.27-.29,2.71.35,3.85.37.64,1.07,1.05,1.45,1.69s.07,1.76-.67,1.68a1.22,1.22,0,0,0,.7,1.3,7.65,7.65,0,0,0,1.52.46c1.47.43,2.61,1.6,4,2.34,1.56.86,3.42,1.14,4.93,2.08.92.57,1.68,1.37,2.57,2,2,1.32,5.24,1.12,6.36,3.21.27.49,1,0,1.31-.45l1.64-2.51a1.53,1.53,0,0,1,.35-.41c.77-.53,1.61.69,2.54.81,1.16.14,2-1.49,3.16-1.25a1.71,1.71,0,0,1,1.11,1.71,11.53,11.53,0,0,0,0,2.2c.17.71.9,1.38,1.58,1.12a7.43,7.43,0,0,0,.82-.56,2.67,2.67,0,0,1,2.11.19,26.15,26.15,0,0,0,7.49,1c0-.27.43-.32.63-.15a1.28,1.28,0,0,1,.34.71,4,4,0,0,0,5.13,2.52,2,2,0,0,0,1.09-.87,8,8,0,0,0,.29-1.72c.45-1.86,3.13-2.16,4.15-3.77.42-.68.79-1.72,1.58-1.6.22,0,.45.16.63,0a.52.52,0,0,0,.2-.3l3.14-8.83a4,4,0,0,0,.31-1.39,8.48,8.48,0,0,0-.47-1.76,3.83,3.83,0,0,1,.79-3.41,3.08,3.08,0,0,0,.67-.87c.28-.71-.19-1.48-.21-2.25-.05-1.28,1.17-2.26,2.38-2.71,3.86-1.45,8.15.25,11.91,1.84-.69,1.57-.61,3.38-.81,5.09s-.91,3.82-2.6,4.53a8.19,8.19,0,0,0-1.82.71,2.21,2.21,0,0,0-.69,2.39,3.61,3.61,0,0,0,1.68,2c.33,2.7-1.28,5-1.55,7.72-.19,2,.39,4.05.16,6.06-.51,4.57-5.43,7.76-5.46,12.52-1.73-1.64-4.24-2.07-6.59-2.44-1.18-.18-2.67-.23-3.27.81a.77.77,0,0,1-.19.28.65.65,0,0,1-.55,0,17.77,17.77,0,0,1-2.47-1.14,3,3,0,0,0-2.63-.13c-1,.54-1.42,1.88-2.5,2.14a3.19,3.19,0,0,1-1.49-.17c-2.88-.79-6.22-1-8.6.85a1.62,1.62,0,0,0-.7,1c-.06.43.21.88.11,1.31-.14.61-.91.82-1.54.81a2.82,2.82,0,0,0-1.83.26,3.63,3.63,0,0,0-.78,1.25c-.24.43-.72.83-1.18.65a6.27,6.27,0,0,1-.35-2.5c-.09-.84-.79-1.8-1.6-1.54-.53.17-.84.81-1.39.92-.29.05-.61-.06-.87.07-.7.36-.41,2-1.19,2,0,0,.17-.15.13-.15-2.12.06-3.55-2-5.21-3.32a8.36,8.36,0,0,0-10.18.13c-.73.61-1.7,1.41-2.52.91-.55-.33-.67-1.1-1.13-1.55-.64-.62-1.68-.46-2.55-.66a5.09,5.09,0,0,1-2.39-1.56c-1.65-1.67-3.22-3.78-5.54-4.1-1.15-.17-2.34.15-3.48-.09a10.58,10.58,0,0,1-2-.77c-2.26-.94-4.79-1.05-7-2a9.91,9.91,0,0,1-5-5c.87-.45-.7-1.77-1-2.17a8.44,8.44,0,0,1-.89-2.33A51.89,51.89,0,0,1,88.08,344.78Z" transform="translate(0 -14.44)"/><path class="cls-3" d="M265.1,536.89a3.06,3.06,0,0,1-1.59.24c-.78-.19-1.24-1-2-1.3-.57-.19-1.26,0-1.74-.38-.26-.19-.41-.5-.67-.69a1.9,1.9,0,0,0-.85-.28c-3.4-.57-6.95-1.13-10.23-.07a12.32,12.32,0,0,1-3.58,1,9.67,9.67,0,0,1-3.14-.79,18.85,18.85,0,0,0-7.92-.9,5.84,5.84,0,0,1-2,0c-1.67-.45-2.34-2.41-2.75-4.09a1,1,0,0,0-1,.12,4.64,4.64,0,0,0-2.75-1.49,2.48,2.48,0,0,1-.89-.22,3.23,3.23,0,0,1-.65-.63c-.93-1-2.42-1.1-3.77-1.16L214.8,526a7.48,7.48,0,0,1-4.21-1,11.2,11.2,0,0,0-1.4-1.09,5.47,5.47,0,0,0-3-.18,22.32,22.32,0,0,1-7.36-1.1,1.2,1.2,0,0,0,.2,1.34,5.9,5.9,0,0,1,.86,1.16c.32.82-.13,1.72-.14,2.6,0,1.78,1.69,3.08,2.26,4.77a1.84,1.84,0,0,1-.75,2.29,4,4,0,0,1-6.41-2.92,13.29,13.29,0,0,0-2.82,3.07,1.88,1.88,0,0,0-.4,1c0,.26.08.51.09.77a1.77,1.77,0,0,1-1.81,1.67,3.84,3.84,0,0,1-2.46-1.08,17.67,17.67,0,0,0-2.12-1.76c-1.72-1-3.88-.82-5.87-.57a4,4,0,0,0-.91-2.29c.29-2.18-.79-4.27-1.51-6.35-1.41-4-1.93-8.28-3.49-12.22a19.14,19.14,0,0,0-1.64-3.3,10.41,10.41,0,0,1-1.07-1.93c-.4-1.11-.29-2.35-.63-3.48-1.16-3.82-6.51-4.41-9-7.53-1.78-2.21-2-5.59-4.32-7.22a1.65,1.65,0,0,0-.72-.31,3.08,3.08,0,0,0-1.07.18c-1.85.45-3.66-.87-4.93-2.3-.48-.55-1.09-1.18-1.8-1a7.4,7.4,0,0,0-.87.38c-1.75.64-2.89-2.1-4.69-2.57a5.7,5.7,0,0,0,.44-1.95c-1.07-.69-2,1.45-3.23,1.53a2.07,2.07,0,0,1-1-.29c-8-3.85-14.25-11-22.66-13.77-1.49-4.21-2.74-8.6-4-12.93l.77.22c.22.06.53,0,.59-.21s0-.22,0-.32c.12-.42.86-.09,1.17-.29s.35-.72.61-1a1.26,1.26,0,0,1,1.33-.21,8.28,8.28,0,0,0,1.79.72v-2.19a7.83,7.83,0,0,1,5,2.68,4.48,4.48,0,0,1,6-1.27.59.59,0,0,0,.35.14.66.66,0,0,0,.27-.12l5.05-3.49c-.64.54-.23,1.7.54,2a3.13,3.13,0,0,0,2.42-.26,12.31,12.31,0,0,0,2-1.13,1.41,1.41,0,0,0,.59-.62c.17-.49-.2-1-.54-1.4a15.09,15.09,0,0,1-3.35-8.64,1.92,1.92,0,0,0-.23-1c-.34-.49-1.15-.6-1.31-1.17-.21-.77.95-1.28,1-2.07l.07-.73c1,0,2.11-.66,2.88,0a2.06,2.06,0,0,1,.55.88l1.19,2.85a1.38,1.38,0,0,0,.52.74c.53.3,1.19-.18,1.79-.09.83.11,1.23,1.21,2.06,1.35a2.28,2.28,0,0,0,1-.19,13.22,13.22,0,0,1,4.59-.69,3.89,3.89,0,0,0,1.7-.16c1.3-.55,1.46-2.39,2.53-3.31a14.58,14.58,0,0,1,1.41-.89,1.55,1.55,0,0,0,.79-1.37,7.36,7.36,0,0,0-.43-1.06,2.34,2.34,0,0,1,.91-2.15,5,5,0,0,0,1.55-1.86c.12-.38.12-.78.24-1.16a5.69,5.69,0,0,1,.66-1.21c1.62-2.64,1.39-6,1.1-9.05.84.27,2,.44,2.42-.32.15-.26.17-.58.34-.83.67-1,2.44.27,3.4-.45.49-.36.53-1.06.74-1.63a2.66,2.66,0,0,1,3.25-1.53c.12-.31-.21-.81.08-.94s.51.58.9.62a.59.59,0,0,0,.44-.23l1.83-1.81c1.84,2.93,1.14,1.49,1.72,2.5a15.78,15.78,0,0,0,1.13,2.34c.63.74,1.68,1,2.27,1.79s.64,1.79,1.42,2.22a5,5,0,0,0,1.16.32c1.75.5,2.37,2.59,3.3,4.15,1.23,2.05,3.3,3.41,5,5.05a3.64,3.64,0,0,1,1.19,1.74c.31,1.32-.71,2.81,0,4a4.89,4.89,0,0,0,1.38,1.21,1.55,1.55,0,0,1,.71,1.58,5.35,5.35,0,0,1,1.7,3.22,5.83,5.83,0,0,0,.48,1.48,4.72,4.72,0,0,0,1.11,1.12,10.81,10.81,0,0,1,3.57,6.12c.36,1.81.33,3.89,1.66,5.17,1.16,1.11,2.94,1.19,4.36,1.92a10.59,10.59,0,0,1,2.58,2.14c3.07,3.16,6.17,6.38,8.22,10.28a11.81,11.81,0,0,1,1.37,4.64,16.42,16.42,0,0,0,.38,3.64c.88,2.73,4,3.91,6.57,5.2,6,3,10.45,8.2,15.82,12.16,1.43,1.06,2.93,2,4.42,3l6.47,4.18a19.13,19.13,0,0,0,4.77,7.63c2.2,2.12,4.66,3.95,6.93,6,4.41,4,8.17,8.81,13.32,11.77a73.52,73.52,0,0,0,7.57,3.41,4.31,4.31,0,0,0,1.29.41,4.07,4.07,0,0,0,1.1-.11,31.18,31.18,0,0,0,5.44-1.61c.61-.24,1.51-.39,1.76.22-1,1.71-2,3.81-3,5.53-.47.8-1.07,1.67-2,1.81a3.19,3.19,0,0,1-2-.58l-3.61-2c-.62-.35-1.48-.67-2-.15s-.25,1.15-.6,1.62c-.52.7-1.65.35-2.46.68s-1.19,1.41-1.95,1.93c-1.2.83-2.82,0-4.29,0a11.08,11.08,0,0,1-2.23,0c-2.15-.49-3.08-3.8-5.29-3.65A3.35,3.35,0,0,0,265.1,536.89Z" transform="translate(0 -14.44)"/><path class="cls-3" d="M200.75,272.32a8.36,8.36,0,0,1,.28,1.61c-.11,1.42-2,2.09-2.31,3.48-.21,1,.48,1.95.95,2.86a7.47,7.47,0,0,1,.74,4.55,2.55,2.55,0,0,0-.06.91c.31,1.68,3.68,1.29,3.79,3,.33,4.77-1,9.55-1,14.34,0,1.47,0,3.09-1,4.2-.61.7-1.53,1.09-2,1.87-1.31,2,.94,4.77,0,7-.61,1.44-2.3,2-3.54,3-1.82,1.39-2.71,3.65-4.2,5.4-1.16,1.36-2.7,2.44-3.42,4.1-3.77-1.59-8.05-3.29-11.91-1.84-1.21.45-2.43,1.43-2.38,2.71,0,.77.49,1.54.21,2.25a3.08,3.08,0,0,1-.67.87,3.83,3.83,0,0,0-.79,3.41,8.48,8.48,0,0,1,.47,1.76,4,4,0,0,1-.31,1.39L170.45,348a.52.52,0,0,1-.2.3c-.18.12-.41,0-.63,0-.79-.12-1.16.92-1.58,1.6-1,1.61-3.7,1.91-4.15,3.77a8,8,0,0,1-.29,1.72,2,2,0,0,1-1.09.87,4,4,0,0,1-5.13-2.52A1.28,1.28,0,0,0,157,353c-.2-.17-.6-.12-.63.15a26.15,26.15,0,0,1-7.49-1,2.67,2.67,0,0,0-2.11-.19,7.43,7.43,0,0,1-.82.56c-.68.26-1.41-.41-1.58-1.12a11.53,11.53,0,0,1,0-2.2,1.71,1.71,0,0,0-1.11-1.71c-1.14-.24-2,1.39-3.16,1.25-.93-.12-1.77-1.34-2.54-.81a1.53,1.53,0,0,0-.35.41l-1.64,2.51c-.31.47-1,.94-1.31.45-1.12-2.09-4.39-1.89-6.36-3.21-.89-.59-1.65-1.39-2.57-2-1.51-.94-3.37-1.22-4.93-2.08-1.35-.74-2.49-1.91-4-2.34a7.65,7.65,0,0,1-1.52-.46,1.22,1.22,0,0,1-.7-1.3c.74.08,1-1,.67-1.68s-1.08-1.05-1.45-1.69c-.64-1.14-.08-2.58-.35-3.85a6.06,6.06,0,0,0-1-2l-2.52-3.77c-.43-.64-1-1.35-1.76-1.34l1.62-6.87a1.56,1.56,0,0,1,.28-.66c.68-.7,2.16.44,2.76-.33s-.47-2,.29-2.45a1.18,1.18,0,0,1,.83,0,14,14,0,0,0,10-1.41,32.07,32.07,0,0,1,3-1.71A4.15,4.15,0,0,1,130,312c1.07.53,1.69,1.66,2.55,2.5s2.37,1.33,3.19.46a5.69,5.69,0,0,1,3.35-1.93,12.44,12.44,0,0,0,4-.89,3.91,3.91,0,0,1,1.81-.77,2.47,2.47,0,0,0,.94,0c.69-.27.47-1.41,1.05-1.87s1.16-.07,1.76-.07c1.12,0,1.94-1,2.68-1.84s1.83-1.69,2.87-1.26c.58.25,1,.86,1.62.91.95.07,1.42-1.09,2.09-1.75,1.63-1.62,4.5-.25,6.65-1,.65-.24,1.21-.67,1.86-.9a10.34,10.34,0,0,1,2.95-.26,3,3,0,0,0,2.57-1.23c.66-1.18,0-2.95,1-3.84.86-.74,2.53-.39,3-1.44.54-1.24-1.56-2.51-1-3.75.39-.89,1.77-.79,2.43-1.51,1-1,.13-3.27,1.46-3.72a2,2,0,0,1,.9,0l4.07.52a4.76,4.76,0,0,1-.35-2.71,11.27,11.27,0,0,0,3.43,0,3.74,3.74,0,0,0,2.71-1.92c.22-.47.3-1,.54-1.46a5,5,0,0,1,1.21-1.38l3.28-2.89a1.71,1.71,0,0,1,.87-.5c.49-.05,1,.33,1.44.17s.55-.59.66-1a9,9,0,0,1,1.23-3c.53-.74,1.62-.79,1.95-1.71" transform="translate(0 -14.44)"/><path class="cls-3" d="M230.68,156.84a13.6,13.6,0,0,1-1.33,6.73,2.61,2.61,0,0,1-1.12,1.34,2.75,2.75,0,0,1-2-.09,16.38,16.38,0,0,1-4.73-2.54A7.53,7.53,0,0,0,219.6,161c-1.63-.63-3.41.19-5.12.52a23.83,23.83,0,0,1-5.73.43c-.43,0-.83-.12-1.26-.1.92,2.29.65,3.43-1,4.6-1.1.79-2.58.74-3.85,1.19s-2.43,2-1.61,3.09c.49-.32,1.12.25,1.26.82a5.75,5.75,0,0,0,.39,1.72c.49.77,1.59.76,2.48,1,2.58.63,3.75,3.55,4.53,6.08a2.24,2.24,0,0,1,0,2c-.37.48-1.07.58-1.5,1a2.57,2.57,0,0,0-.56,1.46,23.22,23.22,0,0,0,1.83,12.84c.52,1.14,1.15,2.43.67,3.6a7.52,7.52,0,0,0-.69,1.43,4,4,0,0,0,.36,1.77c1,3.55-2.55,6.81-2.88,10.49-.16,1.77.44,3.56.17,5.32-.32,2-1.73,4-.86,5.83a10,10,0,0,0,1.87,2.1,5.6,5.6,0,0,1-1.59,8.38,5.37,5.37,0,0,0-1.71,1,3.17,3.17,0,0,0-.66,1.9,12.72,12.72,0,0,0,2.63,9,5.48,5.48,0,0,1,1,1.47c.54,1.49-.56,3.07-.56,4.65,0,1.23,1.47,2.17,1.27,3.37a2.63,2.63,0,0,1-.28.72c-.65,1.34-.57,2.52-1.41,4.46a5.43,5.43,0,0,0,1.82-.27c1.55-.49,3.82-.19,4.88-1.68a4.23,4.23,0,0,0,.6-1.68,67.41,67.41,0,0,0,1.19-11.07l2.75,2.21a1.43,1.43,0,0,0,.81.41,1.54,1.54,0,0,0,.85-.34,18.27,18.27,0,0,0,3.46-2.78,6.08,6.08,0,0,0,1.69-4c0-1.76-1-3.32-1.87-4.87a24.87,24.87,0,0,1-1.73-4.13,1.78,1.78,0,0,1,.51-1.94,4.29,4.29,0,0,0,3.47-2.07,12.46,12.46,0,0,0,1.51-3.91l1.66-6.33c.38-1.46.88-3.09,2.21-3.82a9.14,9.14,0,0,0,1.2-.63c.77-.63.8-1.77,1.05-2.73.71-2.66,3.51-4.71,3.26-7.45a4.29,4.29,0,0,1-.06-2.16,2.63,2.63,0,0,1,.56-.74l3.5-3.66a10.42,10.42,0,0,0,1.41-1.71c.37-.6.61-1.26,1-1.87a10.61,10.61,0,0,1,2.69-2.82,47,47,0,0,1,4.07-2.91,3,3,0,0,1,1.32-.56,12,12,0,0,1,1.32.12,3.47,3.47,0,0,0,1.59-.43c3.62-1.73,6.26-5.13,9.94-6.73,1.7-.73,3.78-1.3,5.44-2.14.48-1.35-.49-2.79-1.61-3.69-.52-.41-1.15-1-.89-1.59a2.13,2.13,0,0,1,.36-.49,2.26,2.26,0,0,0-.15-2.54,7.86,7.86,0,0,0-2-1.76,12.4,12.4,0,0,1-4-4.14,6,6,0,0,1-.24-5.55c.43-.8,1.08-1.46,1.54-2.24a10.38,10.38,0,0,0,1.05-5.09,75.89,75.89,0,0,0,.06-7.69,13.1,13.1,0,0,1-3-2.26,8.42,8.42,0,0,1-2.71-5.87l-1.7-.54c-.29-.66.29-1.4.94-1.73a8.32,8.32,0,0,0,1.94-.95c1.09-1,.67-2.78.16-4.17s-1.45-3-2.89-2.81c-.64.1-1.34.56-1.87.18s-.46-1.44-1.12-1.55c-.46-.08-.78.42-1.06.78a3.16,3.16,0,0,1-4,.74c-.19-.13-.4-.32-.35-.55s.51-.32.82-.4c.77-.19,1.05-1.09,1.2-1.88a59,59,0,0,0-7.62-2.81c.26,2.57-1.41,4.94-3.32,6.68s-4.15,3.17-5.64,5.27-2,5.24-.28,7.15a6.22,6.22,0,0,1,1.13,1.28,1.11,1.11,0,0,1-.28,1.5c-.23.12-.51.11-.73.25-.67.42-.1,1.42.32,2.1a4.25,4.25,0,0,1-.35,4.88,18.13,18.13,0,0,0-1.34,1.44c-.85,1.27-.53,2.95-.44,4.48" transform="translate(0 -14.44)"/><path class="cls-4" d="M151.13,103.19c.54-1.16,1.24-2.36,1.07-3.57-.18-1.36-1.43-2.48-1.31-3.84.06-.72.48-1.55,0-2.07s-1.51,0-2.31.1a1.56,1.56,0,0,1-.43,0,2.07,2.07,0,0,1-1.9-2.13,3.28,3.28,0,0,0-.29-1.34c-.41-.79-1.1-1.5-1.11-2.4s.62-1.74.2-2.48.45-.51-1.53-2.5c1.57,2.69-.44,4.3-2.82,4.31,1.9,2.46,3.94,5.4,1.33,8.73a8.28,8.28,0,0,1-2.47,2c-8.33,4.63-17.84,6.32-27.19,8-7.4,1.29-14.71,3.55-22.22,3.88-3.87.18-7.51,2.24-11.38,2.19-1.5,0-3-.35-4.48-.34a5.1,5.1,0,0,0-4,1.59A2.27,2.27,0,0,0,69.7,115c.17,1.1,1.36,1.76,1.72,2.8a3.69,3.69,0,0,1-1,3.23c-3.09,4.11-7.74,6.68-12.08,9.45-1.28.82-2.71,2-2.48,3.51a4.13,4.13,0,0,0,.72,1.53,15,15,0,0,0,2.53,3.17A4.91,4.91,0,0,0,62.89,140a7.13,7.13,0,0,0-2.1-2.46,7.41,7.41,0,0,1-1.38-1.1,1.5,1.5,0,0,1-.28-1.63,1.52,1.52,0,0,1,1.28-.65c1.63-.08,2.94,1.3,3.84,2.66s1.71,2.92,3.19,3.62a11.65,11.65,0,0,0,3.45.65c3.21.47,5.93,2.52,8.9,3.83,1.51.67,3.11,1.16,4.55,2,2.49,1.41,4.33,3.69,6.12,5.91.92,1.15,1.94,2.91,2.83,4.08,1.65,2.2,3.38,4.6,3.46,7.35a9.88,9.88,0,0,0,.18,3.22c.5,1.35,1.9,2.1,3.08,2.92a15.41,15.41,0,0,1,6.5,14,22.62,22.62,0,0,0-.31,3.48,17.42,17.42,0,0,0,.82,3.59c.73,2.65.56,5.52.51,8.33a18.6,18.6,0,0,1-2.11,7.61,10.09,10.09,0,0,0-1.86,6l5.63,1.12a3,3,0,0,1,1.13.37c.69.42,1.07,1.34,1.87,1.5,1.09.21,1.77-1.12,2-2.2s.81-2.43,1.92-2.37c.46,0,.9.32,1.35.21.67-.17.84-1.11,1.44-1.45.83-.49,1.89.42,2.83.19.45-.11.8-.47,1.24-.62,1.53-.52,2.59,1.5,4,2.37,1.89,1.23,4.53,0,5.86-1.82.22.81,1.57.65,1.95-.1a3.59,3.59,0,0,0,0-2.46c-.42-1.81-.49-3.91.74-5.31,1.08-1.24,2.83-1.56,4.36-2.16a22.36,22.36,0,0,0,6.05-4.14,4.05,4.05,0,0,0,1.12-1.25,4.87,4.87,0,0,0,.33-1.86c.17-2.86,1.46-6.08,4.22-6.83.82-.23,1.69-.2,2.51-.45a2.05,2.05,0,0,0,1.59-1.76,6.37,6.37,0,0,0-.26-1.13,3.52,3.52,0,0,1,1.06-3,8.35,8.35,0,0,1,5.78-2.38,24.8,24.8,0,0,1,6.34.83l13.13,2.88a2.64,2.64,0,0,0-1.57,2.28l1.3-.12.05,1.23c1.1.51,2.31-1.22,3.43-.74.9.39.72,1.67.8,2.65.1,1.36,1.58,2.72,2.75,2,.87-.5,1-1.73,1.62-2.5a3.25,3.25,0,0,1,2.08-1,6.83,6.83,0,0,1,6.59,3.06,2.75,2.75,0,0,0,2.58-1.14,3.16,3.16,0,0,0,.1-3,7.57,7.57,0,0,0-2.86-2.44,4.15,4.15,0,0,1-2.24-2.89c-.12-1.66,1.51-3.28.85-4.8a1.21,1.21,0,0,1-.21-.72,1.39,1.39,0,0,1,.37-.51c.74-.91,0-2.31.3-3.44.16-.54.55-1,.7-1.54a4.76,4.76,0,0,0-.37-2.5,2.2,2.2,0,0,1,.43-2.42,2.83,2.83,0,0,0-4.66.19,2.68,2.68,0,0,1-.49.79,2.59,2.59,0,0,1-1.1.39c-1.42.38-2.26,1.82-3.39,2.78a1.38,1.38,0,0,1-.78.39c-1,.05-1.1-1.37-1-2.34a7.47,7.47,0,0,0-1.77-5.21c-.67-.78-1.58-1.72-1.19-2.67.15-.35.45-.62.63-1,.63-1.22-.67-2.67-.39-4,.12-.54.47-1,.55-1.54.23-1.54-1.67-2.37-3-3.25-2.82-1.93-4-6.24-7.33-6.89a2.29,2.29,0,0,1-1.11-.37c-.46-.41-.38-1.12-.51-1.71a4.38,4.38,0,0,0-1.73-2.18c.47-.8-.09-1.72-.64-2.47a4.45,4.45,0,0,0-2.32-1.48,6.5,6.5,0,0,1-2.61-1c-.45-.41-.72-1-1.18-1.38-.78-.67-2.1-.87-2.35-1.87-.17-.68.26-1.49-.16-2a4.58,4.58,0,0,0-.75-.56c-.7-.59-.55-1.68-.34-2.56.53-2.17,1.21-4.58,3.14-5.71-1.58-.72-2.28.44-3.59-.7a2.48,2.48,0,0,1-.86-1.67,6.56,6.56,0,0,1,1.39-4l-7.71-3a4.19,4.19,0,0,1-2.38-1.68A3.44,3.44,0,0,1,151.13,103.19Z" transform="translate(0 -14.44)"/><path class="cls-3" d="M198.39,163a2.83,2.83,0,0,0-4.66.19,2.68,2.68,0,0,1-.49.79,2.59,2.59,0,0,1-1.1.39c-1.42.38-2.26,1.82-3.39,2.78a1.38,1.38,0,0,1-.78.39c-1,.05-1.1-1.37-1-2.34a7.47,7.47,0,0,0-1.77-5.21c-.67-.78-1.58-1.72-1.19-2.67.15-.35.45-.62.63-1,.63-1.22-.67-2.67-.39-4,.12-.54.47-1,.55-1.54.23-1.54-1.67-2.37-3-3.25-2.82-1.93-4-6.24-7.33-6.89a2.29,2.29,0,0,1-1.11-.37c-.46-.41-.38-1.12-.51-1.71a4.38,4.38,0,0,0-1.73-2.18c.47-.8-.09-1.72-.64-2.47a4.45,4.45,0,0,0-2.32-1.48,6.5,6.5,0,0,1-2.61-1c-.45-.41-.72-1-1.18-1.38-.78-.67-2.1-.87-2.35-1.87-.17-.68.26-1.49-.16-2a4.58,4.58,0,0,0-.75-.56c-.7-.59-.55-1.68-.34-2.56.53-2.17,1.21-4.58,3.14-5.71.45.2,2.26,1,2.73,1.1,1.49.44,2.85-1,3.77-2.22s2.23-2.68,3.74-2.3c.38.1.86.28,1.09,0s0-.59,0-.89c0-.64.64-1,1-1.57.8-1.13.26-2.7.56-4,.4-1.86,2.28-3,4-3.72s3.69-1.46,4.68-3.08c.29-.48.48-1,.8-1.47.92-1.34,2.79-1.94,3.35-3.47.13-.36.25-.81.62-.89s.71.41,1.07.67a1.47,1.47,0,0,0,1.91-.44,4.52,4.52,0,0,0,.72-2.16c.17-1,.28-2.73.45-3.75a2.41,2.41,0,0,1,2.82-1.92,2.12,2.12,0,0,0,1,.17c.84-.2.66-1.44,1-2.26.18-.48.58-.85.8-1.31.76-1.53-.53-3.23-1.74-4.44a5,5,0,0,0-3.05-1.86c-1.05-.07-2.1.52-3.12.27a3.43,3.43,0,0,1-1.67-1.2,11.71,11.71,0,0,1-2.28-4.11,3.23,3.23,0,0,1-.17-1.76,2.24,2.24,0,0,1,3.11-1.23,3.09,3.09,0,0,1,1.42,3.28,1.55,1.55,0,0,0,0,.64c.17.84,1.54.55,2-.19s.62-1.72,1.37-2.13a3.76,3.76,0,0,1,2-.14c.65,0,1.46-.24,1.57-.89s-.53-1.16-1.1-1.5l-1.57-1-7.8-4.69a4.07,4.07,0,0,1-.79-.57,3.41,3.41,0,0,1-.5-.79l-2.42-4.6c6.27-4.44,8.2-5.85,14.8-9.28,2-1,3.83-2,5.15-3.78a38.71,38.71,0,0,0,5.76,7.12,1.66,1.66,0,0,1,.64,1.07,2.49,2.49,0,0,1-.18.75c-.31,1.13.47,2.25.67,3.41s-.18,2.32.12,3.43a6.12,6.12,0,0,0,1.15,1.95l2.33,3a2,2,0,0,1,.46.86c.14,1-1.06,1.47-1.94,1.91A5.23,5.23,0,0,0,211.42,71a13.25,13.25,0,0,1-.33,2,1.68,1.68,0,0,1-1.43,1.26c-.4,0-.83-.2-1.19,0-.74.38-.1,1.44.16,2.23.36,1-.17,2.16-.56,3.19s-.58,2.37.24,3.1,1.91.53,2.59,1.21a10.51,10.51,0,0,1,.75,1.2c1.09,1.52,3.53,1,5.09,2a5.81,5.81,0,0,1,2,3.48,61.77,61.77,0,0,1,2.4,10.62c.23,2.12.28,4.4,1.55,6.11a10,10,0,0,0,3,2.41c.82.5,2.06.9,2.56.09a4.63,4.63,0,0,0,.3-.81,1.36,1.36,0,0,1,2.42.18c.15.55.34.15.88,0s1.09-.54,1.63-.35c.69.24.88,1.27,1.59,1.45,1,.25,1.38-1.38,2.21-2,1.14-.93,2.73.22,3.95,1a9.14,9.14,0,0,0,3.86,1.43,1.84,1.84,0,0,1,1.3.47,1.44,1.44,0,0,1-.19,1.67,4.7,4.7,0,0,0-1,1.51c-.28,1.18.93,2.17,2,2.69s2.42,1.09,2.68,2.28a3.42,3.42,0,0,1-.05,1.35c-.21,1.27-.75,2.5-1,3.77a59,59,0,0,0-7.3-2.67c.26,2.57-1.41,4.94-3.32,6.68s-4.15,3.17-5.64,5.27-2,5.24-.28,7.15a6.22,6.22,0,0,1,1.13,1.28,1.11,1.11,0,0,1-.28,1.5c-.23.12-.51.11-.73.25-.67.42-.1,1.42.32,2.1a4.25,4.25,0,0,1-.35,4.88,18.13,18.13,0,0,0-1.34,1.44c-.85,1.27-.53,2.95-.44,4.48a13.6,13.6,0,0,1-1.33,6.73,2.61,2.61,0,0,1-1.12,1.34,2.75,2.75,0,0,1-2-.09,16.38,16.38,0,0,1-4.73-2.54A7.53,7.53,0,0,0,219.6,161c-1.63-.63-3.41.19-5.12.52a23.83,23.83,0,0,1-5.73.43,9.32,9.32,0,0,0-1.4-.09,5.27,5.27,0,0,1-.46-.7,1.37,1.37,0,0,1,.75-1.54,15.29,15.29,0,0,1,1.76-.62,1.6,1.6,0,0,0,1.14-1.33c0-.74-.73-1.24-1.38-1.59l-1.11-.59a1.22,1.22,0,0,0-1-.22c-.47.16-.57.76-.7,1.24-.58,2-3,2.91-4.34,4.52a8.86,8.86,0,0,1-1.56,1.78c-.65.45-1.71.75-2.16.1" transform="translate(0 -14.44)"/><path class="cls-4" d="M168.83,117.9a2.46,2.46,0,0,1-2.19.53,13.54,13.54,0,0,1-1.32-.66c-1.58-.72-3.69,0-5-1.14a3,3,0,0,1-.78-2.87,8.63,8.63,0,0,1,1.31-2.8l-7.71-3a4.19,4.19,0,0,1-2.38-1.68c-1.06-2.09,1.76-4.33,1.44-6.65-.18-1.36-1.43-2.48-1.31-3.84.06-.72.48-1.55,0-2.07s-1.51,0-2.31.1a2.45,2.45,0,0,1-.81,0,2.07,2.07,0,0,1-1.54-2.24,2.35,2.35,0,0,0-.27-1.2c-.41-.79-1.1-1.5-1.11-2.4s.62-1.74.2-2.48.36-.53-1.24-2.21a1.25,1.25,0,0,1,.29-1.78,1.27,1.27,0,0,1,.69-.21c1.78-.12,3.79.59,5.2-.5.49-.38.82-.93,1.33-1.28a6.06,6.06,0,0,1,2-.66l7.77-1.76c4.28-.84,7.53-4.1,11.16-6.47,2-1.31,4-2.77,5.1-4.92A34.13,34.13,0,0,1,179,61.83c.68-1,5.19-4.33,6.19-5l2.47,4.69a3.41,3.41,0,0,0,.5.79,4.07,4.07,0,0,0,.79.57l7.8,4.69,1.57,1c.57.34,1.22.84,1.1,1.5s-.92.91-1.57.89a3.76,3.76,0,0,0-2,.14c-.75.41-.91,1.4-1.37,2.13s-1.82,1-2,.19a1.55,1.55,0,0,1,0-.64,3.09,3.09,0,0,0-1.42-3.28A2.24,2.24,0,0,0,188,70.64a3.23,3.23,0,0,0,.17,1.76,11.71,11.71,0,0,0,2.28,4.11,3.43,3.43,0,0,0,1.67,1.2c1,.25,2.07-.34,3.12-.27a5,5,0,0,1,3.05,1.86c1.21,1.21,2.5,2.91,1.74,4.44-.22.46-.62.83-.8,1.31-.3.82-.12,2.06-1,2.26a2.12,2.12,0,0,1-1-.17,2.41,2.41,0,0,0-2.82,1.92c-.17,1-.28,2.72-.45,3.75a4.52,4.52,0,0,1-.72,2.16,1.47,1.47,0,0,1-1.91.44c-.36-.26-.64-.76-1.07-.67s-.49.53-.62.89c-.56,1.53-2.43,2.13-3.35,3.47-.32.46-.51,1-.8,1.47-1,1.62-2.94,2.33-4.68,3.08s-3.63,1.86-4,3.72c-.3,1.35.24,2.92-.56,4-.36.52-1,.93-1,1.57,0,.3.14.64,0,.89s-.71.13-1.09,0c-1.51-.38-2.82,1-3.74,2.3A8.18,8.18,0,0,1,168.83,117.9Z" transform="translate(0 -14.44)"/></g><g id="punticos"><circle class="cls-5" cx="109.84" cy="337.16" r="4.2"/></g><g id="punticos-2" data-name="punticos"><circle class="cls-5" cx="156.01" cy="234.77" r="4.2"/></g><g id="punticos-3" data-name="punticos"><circle class="cls-5" cx="139.53" cy="384.91" r="4.2"/></g><g class="cls-6"><circle class="cls-7" cx="148.04" cy="41.63" r="39.57"/><path class="cls-8" d="M148,18.57a37.5,37.5,0,1,1-37.5,37.5A37.5,37.5,0,0,1,148,18.57m0-4.13a41.63,41.63,0,1,0,41.63,41.63A41.68,41.68,0,0,0,148,14.44Z" transform="translate(0 -14.44)"/></g><g class="cls-9"><rect class="cls-7" x="119.68" y="7.36" width="47.09" height="60.23"/><path class="cls-10" d="M120.14,54.16l.13.19a.36.36,0,0,1-.41,0c1.48,1.51,3.64.84,5.09-.45a.94.94,0,0,0,1-.85,1,1,0,0,0-.72-1.18,1.14,1.14,0,0,1-.3-.23,7,7,0,0,0-2.35-2.11l.52.54a2,2,0,0,0-.82-.35c0,.11.05.21.08.32a1.91,1.91,0,0,0-2.92.37,2.61,2.61,0,0,0,.27,3.34Z" transform="translate(0 -14.44)"/><path class="cls-10" d="M121.63,57.57c-.53-.42-1-.85-1.55-1.3l-.09-.2,0,.87,0-.06a3.5,3.5,0,0,1,2.2-1.06l.28-.11a.8.8,0,0,0-.19-1.36l-.4-.11a2.17,2.17,0,0,0-3.22.71,3,3,0,0,0-.07,1.16,1,1,0,0,0,.75,1.18,1,1,0,0,0,1-.89l.25.14-.22.19c.18-.49.65-.57,1-.81l.52-.1-.18-1.36-.28.15a1.27,1.27,0,0,0,0,.15,8.34,8.34,0,0,1-1.61.86l-.73.43a.71.71,0,0,0,0,.87l.29.32a2.14,2.14,0,0,1-.13-.19c.69.36,1.42.6,2.1,1a.22.22,0,0,0,.32-.1A.27.27,0,0,0,121.63,57.57Z" transform="translate(0 -14.44)"/><path class="cls-10" d="M119.11,57.55c-.11-.11-.21-.23-.38-.21l-.08.1c.06.06.13.16.21.25S119.1,57.74,119.11,57.55Z" transform="translate(0 -14.44)"/><path class="cls-10" d="M118.65,57.44l-.09-.11.06.14h0Z" transform="translate(0 -14.44)"/><path class="cls-10" d="M149.94,57.35c2.18.46,4.38.82,6.58,1.13a.14.14,0,0,0,.15-.13.13.13,0,0,0-.11-.16c-2.2-.32-4.39-.68-6.57-1.14a.15.15,0,0,0-.05.3Z" transform="translate(0 -14.44)"/><path class="cls-10" d="M165.81,66.89a.15.15,0,0,0,0,.21.12.12,0,0,0,.18,0,.18.18,0,0,0,0-.21A.12.12,0,0,0,165.81,66.89Z" transform="translate(0 -14.44)"/><path class="cls-10" d="M164.84,73.37a2.74,2.74,0,0,0-.9.42.12.12,0,0,1-.15,0,.29.29,0,0,1-.17.3,32.76,32.76,0,0,1-7.05,1.63,1.11,1.11,0,0,1-.12.3.77.77,0,0,1-.86.39l-.24-.1c-1-.28-2-.51-3-.8a1.47,1.47,0,0,1-.73.24,25.28,25.28,0,0,1-2.75.91.6.6,0,0,1,.07.33.49.49,0,0,1-.51.46H148c.35.09.7.19,1,.3a.35.35,0,0,1,.14.06,11.31,11.31,0,0,0,1.17.07A34.31,34.31,0,0,0,160.55,76a.12.12,0,0,1,.18,0,.18.18,0,0,1,0,.2c-2.15,1.29-4.06,3.06-6.43,3.83a62.9,62.9,0,0,1-8.48,2.19,50,50,0,0,0-8.74.55,76.22,76.22,0,0,1-11.9,0,2.81,2.81,0,0,1-2.83-2.91,3.45,3.45,0,0,1,1-2.61l-.36,0-.56-.24a2.47,2.47,0,0,1-1.21-1.31l-.34-.74c-.43-1.4-1.21-2.61-1.54-4.06l.14-.53-.09-.16a2.9,2.9,0,0,1-.54-1.5l.08-.65A7.07,7.07,0,0,1,119.6,66a2.58,2.58,0,0,1,.15-.79,3.63,3.63,0,0,1,0-2.14.49.49,0,0,1,.1-.63.4.4,0,0,1,.2-.09h0a4.12,4.12,0,0,0-.17-.42,1.72,1.72,0,0,1-.21-.12c-.37-.14-.37-.14-.68-.28a2.18,2.18,0,0,1-.41-.57c-.22-1.19-.22-1.19-.13-1.68l.07-.14a2.69,2.69,0,0,1-.31-.26,1.08,1.08,0,0,1-.1-.2c0-.27,0-.27,0-.37s0-.2,0-.2c.16-.29.16-.29.17-.37a.81.81,0,0,1,.09-.14l.26-.12.29.72L119,58l.06.33,0-.3.16.19L119,57.9c.4.14.4.14.57.14a.65.65,0,0,0,.34,0c0-.09,0-.16,0-.16.44.15.44.15.85.31a.72.72,0,0,1,.09.2.18.18,0,0,1,.22-.09l.22.07,0,0v0l.2-.12,0,0h0l.86-.53a1.4,1.4,0,0,1,.37.17l-.1-.15c-.06-.09,0-.35,0-.37A12.23,12.23,0,0,0,119.82,56a.35.35,0,0,1-.35-.36.37.37,0,0,1,.32-.41,6.43,6.43,0,0,1,6.68.42c.54.17,1.09.33,1.64.48,0,0-.05-.08-.07-.13l.42.23h0l-.29-.49-.22-.16a19.27,19.27,0,0,1-3.61-1.67,18.12,18.12,0,0,1-1.81-1.18.35.35,0,0,1-.23-.41.31.31,0,0,1,.36-.26,7.39,7.39,0,0,1,6.12,2.05,1.58,1.58,0,0,1,1,.52h0c-.07-.13-.13-.27-.2-.41.28.12.41.46.66.61l-.06-.54c1.41.45,3,.41,4.23,1.29a.47.47,0,0,1,.15.06,4,4,0,0,1,1.88-.65l-.67-.22a3.27,3.27,0,0,1,1.53-.25A4.58,4.58,0,0,1,141,57.08c2.77,0,5.54.12,8.32,0,.14,0,.26.11.28.27a.31.31,0,0,1-.25.31,41.54,41.54,0,0,1-6.06.64,40.27,40.27,0,0,0,5,1l.66,0a1.64,1.64,0,0,1,.65.13,34.59,34.59,0,0,0,6.53.2c1.94-.19,3.64-.43,5.58-.78a30.85,30.85,0,0,1,7.86-.81.69.69,0,0,1,.67.71.74.74,0,0,1-.63.78c-5.61.83-11.13,1.94-16.87,1.3l-1.84-.22a.49.49,0,0,1,0,.17,1.12,1.12,0,0,1-.2.58q1,.16,2.07.42a17,17,0,0,1,6-.23,20.25,20.25,0,0,1,3.94,1.4c1.69-.13,3.37-.32,5.07-.41a.13.13,0,0,1,.16.11.17.17,0,0,1-.1.18,28.93,28.93,0,0,1-3.63.95,1.42,1.42,0,0,1,.21,1,1.44,1.44,0,0,1-.45.91l.81.09a.32.32,0,0,1,.27.36.32.32,0,0,1-.33.32l-3.3-.33c-1.35.1-2.68.17-4,.22a2.1,2.1,0,0,1,.32.92h0l.61,0a36.07,36.07,0,0,1,11.58-.53.14.14,0,0,1,.12.16c0,.09-.07.16-.13.15a29.43,29.43,0,0,0-3.5-.26h0a.15.15,0,0,1,0,.21.13.13,0,0,1-.18,0,.17.17,0,0,1,0-.21,37.46,37.46,0,0,0-6.51.53,45.13,45.13,0,0,1,5.91.48c.22-.09.44-.19.67-.27.06,0,.13,0,.15.12a.16.16,0,0,1-.1.17l-.19.07a.78.78,0,0,1,.59.88.76.76,0,0,1-.79.73c-1,0-2.08,0-3.11-.08l-.34.05-.36.19c1.6.3,3.18.63,4.76,1a.26.26,0,0,1,.23.3.27.27,0,0,1-.26.27,71.2,71.2,0,0,1-8.61.7c-1,.61-2,1.23-3,1.83l.37,0c3.1.23,5.88-1.5,8.92-1.67.08,0,.14.06.14.14a.14.14,0,0,1-.13.15,34.71,34.71,0,0,0-4.37,1.06,31.24,31.24,0,0,0-3.57,1c2.31,0,4.57-.69,6.86-.89a.23.23,0,0,1,.26.11.17.17,0,0,1,.06-.11,3.67,3.67,0,0,1,.95-.43c.07,0,.14,0,.16.09A.16.16,0,0,1,164.84,73.37ZM125.7,61l0-.1.18.18.24.66S125.88,61.37,125.7,61ZM122,63.09h0l-.13-.37C121.93,62.87,122,63,122,63.09Zm22.83-3.87a11.43,11.43,0,0,1-3.55-.85l.88,0C143.06,58.6,144,58.89,144.84,59.22Zm-21.31-.83a5.72,5.72,0,0,1,.71,1.23,1.43,1.43,0,0,1,.65,0,13.84,13.84,0,0,1,1.72.38c-.06-.23.08-.19.15-.22l.22,0c-.6-.21-1.19-.44-1.79-.67A12,12,0,0,1,123.53,58.39Zm-4.3.54,0-.08.14-.33S119.28,58.69,119.23,58.93Zm-.23.56.09,0C119.05,59.67,119,59.62,119,59.49Zm.77.49a1,1,0,0,0-.1-.19Zm-.2,10L120,68.3l-.46,1.6Z" transform="translate(0 -14.44)"/><path class="cls-11" d="M132.38,31.32a14.71,14.71,0,0,1,2.33-2.08c.41-.31.84-.56,1.26-.82.22-.14.44-.25.65-.36l.6-.3A16.81,16.81,0,0,1,142,26.35,16.19,16.19,0,0,1,151.76,28a16.51,16.51,0,0,1,7.18,7.47,16.86,16.86,0,0,1,1.36,10.94,18.23,18.23,0,0,1-3.76,7,18.64,18.64,0,0,1-5.85,4.51,15,15,0,0,1-12.53.55,13.68,13.68,0,0,1-7.24-8.54,18.29,18.29,0,0,1-.79-5.77c0-.54,0-.94.06-1.34s.06-.8.1-1.18c.08-.77.18-1.51.29-2.21.36-1.35.26-2.54-.26-2.84s-1.22.32-1.6,1.63a21.27,21.27,0,0,0-1.4,4.69,15.56,15.56,0,0,0-.2,1.68c-.05.61-.07,1.21-.06,1.82A17.52,17.52,0,0,0,127.5,50a16.36,16.36,0,0,0,3.2,6.68,14.32,14.32,0,0,0,6,4.44,14.75,14.75,0,0,0,2.7.73,18.64,18.64,0,0,0,4.11.38,20.41,20.41,0,0,0,3.93-.78,18.56,18.56,0,0,0,7.18-3.85,19.6,19.6,0,0,0,5.13-7,18.34,18.34,0,0,0,1.46-8.52,18.54,18.54,0,0,0-2.49-8A16.54,16.54,0,0,0,146.49,26a17.57,17.57,0,0,0-7.18.62c-.57.18-1.14.38-1.7.61l-.78.36a9.6,9.6,0,0,0-1,.5,16.46,16.46,0,0,0-3.55,2.72,2.62,2.62,0,0,0-.69,1C131.69,31.93,132,31.73,132.38,31.32Z" transform="translate(0 -14.44)"/><path class="cls-11" d="M135.24,33.88a12,12,0,0,1,3.68-2.67,13,13,0,0,1,3.78-1.08,12.31,12.31,0,0,1,7.67,1.51,13.12,13.12,0,0,1,6.11,14.27,14.53,14.53,0,0,1-7.21,8.32A11.53,11.53,0,0,1,140,55a9.7,9.7,0,0,1-5.42-6.46,14.3,14.3,0,0,1-.55-4.33,30,30,0,0,1,.37-4c.33-1.22.23-2.41-.29-2.71s-1.22.34-1.58,1.56a20.13,20.13,0,0,0-1.33,4.16,15.23,15.23,0,0,0,0,5.71,12.93,12.93,0,0,0,2.48,5.37,10.64,10.64,0,0,0,4.88,3.46,11.54,11.54,0,0,0,2.19.47,15,15,0,0,0,3.25.15,15.75,15.75,0,0,0,3-.78,15.13,15.13,0,0,0,9.25-8.42,14.46,14.46,0,0,0,1.17-6.43,15,15,0,0,0-1.75-6.15,12.86,12.86,0,0,0-9.4-6.71,13.58,13.58,0,0,0-5.71.4,12.9,12.9,0,0,0-1.36.48,6.18,6.18,0,0,0-.64.28c-.24.12-.48.23-.72.37a12.48,12.48,0,0,0-2.71,2.05,1.5,1.5,0,0,0-.49.8C134.7,34.32,135,34.18,135.24,33.88Z" transform="translate(0 -14.44)"/><path class="cls-11" d="M138.11,36.45a8.09,8.09,0,0,1,2.51-1.79,9.14,9.14,0,0,1,2.81-.75A8.49,8.49,0,0,1,149,35.26a9.32,9.32,0,0,1,3.7,10.13,10.58,10.58,0,0,1-1,1.72c-.37.51-.75,1-1.13,1.45a10.4,10.4,0,0,1-2.66,2.2,7.41,7.41,0,0,1-6.17.78,6.29,6.29,0,0,1-3.57-4.37,10,10,0,0,1-.35-2.89,23.69,23.69,0,0,1,.29-3.33c.31-1.11.2-2.29-.32-2.59s-1.22.35-1.57,1.49A18.35,18.35,0,0,0,135,43.49a11.38,11.38,0,0,0-.14,4.25,9.07,9.07,0,0,0,1.76,4,6.94,6.94,0,0,0,3.71,2.49,7.28,7.28,0,0,0,1.67.21,12.17,12.17,0,0,0,2.4-.07,14.84,14.84,0,0,0,2.16-.78,11.34,11.34,0,0,0,6.19-6,10.51,10.51,0,0,0-.15-8.66,9,9,0,0,0-6.53-5.23,9.64,9.64,0,0,0-4.24.18,9.18,9.18,0,0,0-2,.8A8.56,8.56,0,0,0,138,36.06a.78.78,0,0,0-.29.57C137.72,36.71,137.91,36.64,138.11,36.45Z" transform="translate(0 -14.44)"/><path class="cls-11" d="M141,39a4.32,4.32,0,0,1,1.34-.9,5.65,5.65,0,0,1,1.83-.45,5.37,5.37,0,0,1,3.53,1A5.92,5.92,0,0,1,149.83,45a6.13,6.13,0,0,1-3,3,4,4,0,0,1-3.29.1,3.47,3.47,0,0,1-1.69-2.3,6.75,6.75,0,0,1-.19-1.43c0-.07,0-.29,0-.5l0-.66c0-.46.1-.95.17-1.47.28-1,.18-2.17-.34-2.46s-1.23.37-1.56,1.42a16.89,16.89,0,0,0-1.16,3.11,7.09,7.09,0,0,0-.26,2.79,5.57,5.57,0,0,0,1.08,2.68,4.12,4.12,0,0,0,2.47,1.57,5.17,5.17,0,0,0,1.11.06,8.18,8.18,0,0,0,1.55-.1,10.69,10.69,0,0,0,1.36-.58,7.28,7.28,0,0,0,3.78-3.84,6.78,6.78,0,0,0,0-5.39,5.81,5.81,0,0,0-4.08-3.52,6.36,6.36,0,0,0-2.78,0c-.22.06-.45.13-.67.21l-.33.14a2.59,2.59,0,0,0-.29.14,4.81,4.81,0,0,0-1,.69.28.28,0,0,0-.09.34A.23.23,0,0,0,141,39Z" transform="translate(0 -14.44)"/><path class="cls-11" d="M143.75,41.49l.11.11h0s0,0,.14,0a2.62,2.62,0,0,1,.85-.17,2.34,2.34,0,0,1,1.56.5,2.38,2.38,0,0,1,.73,2.76,1.42,1.42,0,0,1-1.4.55.52.52,0,0,1-.4-.58c0-.19.17-.25.19-.23s0,0,0,0,0,.09,0,0V44.2l0-.48q0-.53.12-1.23c.25-.86.15-2-.37-2.33s-1.23.38-1.54,1.36a18.61,18.61,0,0,0-1.09,2.57,1.9,1.9,0,0,1-.14.36,1.54,1.54,0,0,0-.11.3,2.39,2.39,0,0,0-.09.66,1.89,1.89,0,0,0,1.61,2,1.59,1.59,0,0,0,.53,0c.24,0,.43.06.69,0s.42-.26.61-.32a3,3,0,0,0,1.73-1.69,3.27,3.27,0,0,0,0-2.46,2.68,2.68,0,0,0-1.87-1.7,3.09,3.09,0,0,0-1.32,0l-.32.08-.18.07h-.07a.42.42,0,0,1-.18,0s0,0,.1.11Z" transform="translate(0 -14.44)"/><path class="cls-12" d="M112.92,15.14V87.51h59.42V15.14ZM163.78,79h-42.3V23.7h42.3Z" transform="translate(0 -14.44)"/><path class="cls-13" d="M165.29,80.6H120V22.05h45.32Zm-43.18-2.14h41V24.19h-41Z" transform="translate(0 -14.44)"/><polygon class="cls-14" points="122.11 64.02 112.92 73.06 112.92 0.7 122.11 9.74 122.11 64.02"/><polygon class="cls-14" points="163.15 9.74 172.34 0.7 172.34 73.06 163.15 64.02 163.15 9.74"/><path class="cls-15" d="M171.69,80.47a4.62,4.62,0,0,1-.56,1.42A4.38,4.38,0,0,1,167.47,84h-.22a4,4,0,0,1-1.09-.2c-.2-.1-.43-.17-.62-.29a6,6,0,0,1-.57-.42,3.69,3.69,0,0,1-1.24-2.6,2.73,2.73,0,0,1,.07-.73,2.48,2.48,0,0,1,.1-.39l.15-.35a1.17,1.17,0,0,1,.2-.34c.08-.1.14-.21.23-.31a3.19,3.19,0,0,1,2-1h.3a2.66,2.66,0,0,1,1.2.39,2.34,2.34,0,0,1,1,1.17,3.12,3.12,0,0,1,.18.73V80c0,.12-.06.26-.09.39a1.94,1.94,0,0,1-.9,1.12,2,2,0,0,1-1.36.2,1.54,1.54,0,0,1-1.09-2,1.28,1.28,0,0,1,.83-.73l.26,0a1,1,0,0,1,.25,0,1,1,0,0,1,.81,1,.79.79,0,0,1-.35.63.78.78,0,0,1-.56.1.62.62,0,0,1-.35-.23.58.58,0,0,1-.11-.32.72.72,0,0,0,.13.31.62.62,0,0,0,.34.19.72.72,0,0,0,.49-.13.64.64,0,0,0,.27-.56.81.81,0,0,0-.33-.63.71.71,0,0,0-.36-.15.74.74,0,0,0-.21,0l-.21,0a1.07,1.07,0,0,0-.65.6,2.25,2.25,0,0,0-.05.22,1.13,1.13,0,0,0,0,.26c0,.08,0,.16.05.24a1.6,1.6,0,0,0,.1.23,1.25,1.25,0,0,0,.82.61,1.58,1.58,0,0,0,1.77-1.09,2.14,2.14,0,0,0,.06-.27v-.32a2.51,2.51,0,0,0-.15-.6,1.93,1.93,0,0,0-.8-.94,2.08,2.08,0,0,0-1.21-.3,2.69,2.69,0,0,0-1.22.44,2.79,2.79,0,0,0-.49.42,1.79,1.79,0,0,0-.2.26,1.31,1.31,0,0,0-.17.28l-.14.29c0,.1-.05.2-.08.3a2.41,2.41,0,0,0-.07.68,3.28,3.28,0,0,0,1.06,2.26,6.13,6.13,0,0,0,.51.38,5.44,5.44,0,0,0,.54.27,3.53,3.53,0,0,0,1.18.22,4,4,0,0,0,2.12-.57A4.41,4.41,0,0,0,171,81.79a4.78,4.78,0,0,0,.62-1.34,5.69,5.69,0,0,0,.14-1v-.35s0,.12,0,.35A4.09,4.09,0,0,1,171.69,80.47Z" transform="translate(0 -14.44)"/><path class="cls-16" d="M182.92,62.44l-.39,4.42-.66,7.46-.43,4.89v.08a.53.53,0,0,1,0,.13s0,0,0,.08a4.22,4.22,0,0,1-.08,1,4.62,4.62,0,0,1-.56,1.42,4.15,4.15,0,0,1-1.38,1.43,4.61,4.61,0,0,1-1.34.58l-.94,0-.9,0-1.71.1-2.8-4.77-.43-4.93-.66-7.46-.39-4.42Z" transform="translate(0 -14.44)"/><path class="cls-17" d="M175.86,83.81A3.87,3.87,0,0,0,177,84h-9.7a4,4,0,0,1-1.09-.2c-.2-.1-.43-.17-.62-.29a6,6,0,0,1-.57-.42,3.69,3.69,0,0,1-1.24-2.6,2.73,2.73,0,0,1,.07-.73,2.48,2.48,0,0,1,.1-.39l.15-.35a1.17,1.17,0,0,1,.2-.34c.08-.1.14-.21.23-.31a3.19,3.19,0,0,1,2-1h9.7a3.2,3.2,0,0,0-1.46.51,3.13,3.13,0,0,0-.59.5,3,3,0,0,0-.22.31,1.17,1.17,0,0,0-.2.34l-.16.35a2.48,2.48,0,0,0-.1.39,2.7,2.7,0,0,0-.06.73,3.68,3.68,0,0,0,1.23,2.6c.18.16.38.28.57.42S175.65,83.71,175.86,83.81Z" transform="translate(0 -14.44)"/><path class="cls-18" d="M177.16,77.37h-.94a2.82,2.82,0,0,1,.94.14Z" transform="translate(0 -14.44)"/><path class="cls-19" d="M181.38,80.47a4.84,4.84,0,0,1-.55,1.42,4.28,4.28,0,0,1-1.39,1.43,4.9,4.9,0,0,1-1.34.58,4.1,4.1,0,0,1-.94.11,3.2,3.2,0,0,1-.9-.09l-.4-.11c-.21-.1-.43-.17-.63-.29s-.39-.26-.57-.42a3.68,3.68,0,0,1-1.23-2.6,2.7,2.7,0,0,1,.06-.73,2.48,2.48,0,0,1,.1-.39l.16-.35a1.17,1.17,0,0,1,.2-.34,3,3,0,0,1,.22-.31,3.13,3.13,0,0,1,.59-.5,3.2,3.2,0,0,1,1.46-.51,2.82,2.82,0,0,1,.94.14,2.18,2.18,0,0,1,.56.25,2.44,2.44,0,0,1,1,1.17,3.12,3.12,0,0,1,.18.73V80c0,.12-.06.26-.09.39a2,2,0,0,1-.91,1.12,2.34,2.34,0,0,1-.69.23,1.83,1.83,0,0,1-.66,0,1.54,1.54,0,0,1-1.1-2,1.28,1.28,0,0,1,.83-.73l.26,0a1.09,1.09,0,0,1,.26,0,.92.92,0,0,1,.41.19l0,0a1,1,0,0,1,.35.79.77.77,0,0,1-.35.63l0,0a.76.76,0,0,1-.52.08.62.62,0,0,1-.35-.23.71.71,0,0,1-.11-.32.72.72,0,0,0,.13.31.66.66,0,0,0,.34.19.73.73,0,0,0,.5-.13v0a.67.67,0,0,0,.26-.54.86.86,0,0,0-.26-.56l-.08-.07a.68.68,0,0,0-.35-.15.83.83,0,0,0-.22,0l-.21,0a1.05,1.05,0,0,0-.64.6c0,.08,0,.15-.06.22v.26c0,.08,0,.16.05.24s.07.16.11.23a1.23,1.23,0,0,0,.81.61,1.31,1.31,0,0,0,.59,0,1.62,1.62,0,0,0,1.19-1.09c0-.09,0-.17.06-.27v-.32a2.11,2.11,0,0,0-.15-.6,1.91,1.91,0,0,0-.79-.94,2.22,2.22,0,0,0-1.22-.3,2.65,2.65,0,0,0-1.21.44,2.53,2.53,0,0,0-.5.42,1.79,1.79,0,0,0-.2.26,1.31,1.31,0,0,0-.17.28l-.13.29a1.11,1.11,0,0,0-.08.3,2.41,2.41,0,0,0-.07.68A3.24,3.24,0,0,0,175,82.78a6,6,0,0,0,.5.38,5.6,5.6,0,0,0,.55.27,3.42,3.42,0,0,0,1.16.22h0a3.93,3.93,0,0,0,2.12-.57,4.19,4.19,0,0,0,1.31-1.31,3.56,3.56,0,0,0,.53-1.52c.09-.41.29-.53.3-.75a1.7,1.7,0,0,1,0-.25v0a.53.53,0,0,1,0,.13s0,0,0,.08A4.22,4.22,0,0,1,181.38,80.47Z" transform="translate(0 -14.44)"/><path class="cls-19" d="M170.27,62.44h13.06C181.22,58.64,171.68,59.23,170.27,62.44Z" transform="translate(0 -14.44)"/><rect class="cls-20" x="174.38" y="44.46" width="4.86" height="1.14"/><polygon class="cls-21" points="179.23 36.81 174.38 36.81 173.38 44.46 180.23 44.46 179.23 36.81"/><polygon class="cls-21" points="182.53 52.42 181.87 59.88 171.32 59.88 170.66 52.42 182.53 52.42"/><polygon class="cls-22" points="172.29 62.45 171.21 48.55 173.38 48.55 172.29 62.45"/><path class="cls-19" d="M181.43,80.11a2.94,2.94,0,0,1-.5,1.26l2-18.93h.41Z" transform="translate(0 -14.44)"/><path class="cls-15" d="M151.46,89a3.86,3.86,0,0,1-.46,1.16,3.61,3.61,0,0,1-3,1.74h-.18a3.25,3.25,0,0,1-.89-.17,3.38,3.38,0,0,1-.51-.24,5.09,5.09,0,0,1-.47-.34,3.06,3.06,0,0,1-1-2.13,2.6,2.6,0,0,1,.05-.6c0-.1,0-.22.09-.32l.12-.29a1.11,1.11,0,0,1,.17-.27,2.27,2.27,0,0,1,.18-.25,2.79,2.79,0,0,1,.49-.42,2.61,2.61,0,0,1,1.19-.41h.24a2,2,0,0,1,1,.32,1.93,1.93,0,0,1,.79,1,2.51,2.51,0,0,1,.15.6v.3c0,.1,0,.21-.07.31a1.63,1.63,0,0,1-.74.92,1.56,1.56,0,0,1-1.11.17,1.27,1.27,0,0,1-.9-1.66,1.06,1.06,0,0,1,.68-.6l.22,0a1.36,1.36,0,0,1,.2,0,.84.84,0,0,1,.37.17.79.79,0,0,1,.29.65.64.64,0,0,1-.28.51.62.62,0,0,1-.46.09.59.59,0,0,1-.29-.19.61.61,0,0,1-.09-.27.62.62,0,0,0,.11.26.5.5,0,0,0,.28.15.56.56,0,0,0,.62-.56.69.69,0,0,0-.27-.52.7.7,0,0,0-.3-.12.49.49,0,0,0-.17,0l-.17,0a.85.85,0,0,0-.53.5.59.59,0,0,0,0,.17,1.77,1.77,0,0,0,0,.22c0,.06,0,.13.05.2s0,.13.08.19a1,1,0,0,0,.67.49,1.3,1.3,0,0,0,1.45-.89,1.42,1.42,0,0,0,.05-.22v-.26a2,2,0,0,0-.13-.49,1.48,1.48,0,0,0-.65-.77,1.76,1.76,0,0,0-1-.25,2.24,2.24,0,0,0-1,.36,2.64,2.64,0,0,0-.41.34c-.06.07-.1.15-.15.22a1.07,1.07,0,0,0-.15.22l-.11.24c0,.09,0,.17-.06.25a1.89,1.89,0,0,0-.06.55,2.68,2.68,0,0,0,.87,1.86c.12.12.28.2.41.31s.3.14.45.22a2.73,2.73,0,0,0,1,.18,3.31,3.31,0,0,0,1.73-.46,3.51,3.51,0,0,0,1.13-1.06,3.55,3.55,0,0,0,.51-1.1,4.26,4.26,0,0,0,.12-.78v-.28s0,.09,0,.28A3.67,3.67,0,0,1,151.46,89Z" transform="translate(0 -14.44)"/><path class="cls-16" d="M160.56,71.16l-.12,3.6-.11,3.06-.26,3.06-.27,3.05-.36,4V88a.31.31,0,0,1,0,.1v.07a3.67,3.67,0,0,1-.06.8,3.72,3.72,0,0,1-.45,1.16,3.51,3.51,0,0,1-1.14,1.17,4.07,4.07,0,0,1-1.1.48l-.76,0-.74,0-1.4.08L151.51,88l-.35-4-.23-3.05-.46-6.12-.27-3.6Z" transform="translate(0 -14.44)"/><path class="cls-17" d="M154.87,91.7a3.25,3.25,0,0,0,.89.17h-7.94a3.25,3.25,0,0,1-.89-.17,3.38,3.38,0,0,1-.51-.24,5.09,5.09,0,0,1-.47-.34,3.06,3.06,0,0,1-1-2.13,2.6,2.6,0,0,1,.05-.6c0-.1,0-.22.09-.32l.12-.29a1.11,1.11,0,0,1,.17-.27,2.27,2.27,0,0,1,.18-.25,2.79,2.79,0,0,1,.49-.42,2.61,2.61,0,0,1,1.19-.41h7.94a2.69,2.69,0,0,0-1.2.41,3.14,3.14,0,0,0-.48.42,2.27,2.27,0,0,0-.18.25,1.11,1.11,0,0,0-.17.27l-.13.29c0,.1,0,.22-.07.32a2.18,2.18,0,0,0-.06.6,3.06,3.06,0,0,0,1,2.13c.15.13.32.23.47.34A3.38,3.38,0,0,0,154.87,91.7Z" transform="translate(0 -14.44)"/><path class="cls-18" d="M155.94,86.43h-.77a2.08,2.08,0,0,1,.77.11Z" transform="translate(0 -14.44)"/><path class="cls-19" d="M159.4,89a4.15,4.15,0,0,1-.46,1.16,3.51,3.51,0,0,1-1.14,1.17,3.82,3.82,0,0,1-1.09.47,3.25,3.25,0,0,1-.77.1,2.79,2.79,0,0,1-.74-.08l-.33-.09a3.38,3.38,0,0,1-.51-.24c-.15-.11-.32-.21-.47-.34a3.06,3.06,0,0,1-1-2.13,2.18,2.18,0,0,1,.06-.6c0-.1,0-.22.07-.32l.13-.29a1.11,1.11,0,0,1,.17-.27,2.27,2.27,0,0,1,.18-.25,3.14,3.14,0,0,1,.48-.42,2.69,2.69,0,0,1,1.2-.41,2.28,2.28,0,0,1,.77.11,1.69,1.69,0,0,1,.45.21,1.93,1.93,0,0,1,.79,1,2.51,2.51,0,0,1,.15.6v.3c0,.1,0,.21-.07.31a1.61,1.61,0,0,1-.75.92,1.55,1.55,0,0,1-.56.19,1.39,1.39,0,0,1-.54,0,1.27,1.27,0,0,1-.9-1.66,1.06,1.06,0,0,1,.68-.6l.21,0a1.36,1.36,0,0,1,.21,0,.75.75,0,0,1,.34.15l0,0a.79.79,0,0,1,.29.65.6.6,0,0,1-.29.51l0,0a.61.61,0,0,1-.43.07.6.6,0,0,1-.28-.19.48.48,0,0,1-.09-.27.49.49,0,0,0,.11.26.51.51,0,0,0,.27.15.54.54,0,0,0,.41-.11h0a.55.55,0,0,0,.21-.44.7.7,0,0,0-.21-.46l-.06-.06a.66.66,0,0,0-.3-.12.49.49,0,0,0-.17,0l-.18,0a.86.86,0,0,0-.52.5,1.54,1.54,0,0,0-.05.17v.22a1.18,1.18,0,0,1,0,.2l.09.19a1,1,0,0,0,.66.49,1,1,0,0,0,.49,0,1.31,1.31,0,0,0,1-.89c0-.07,0-.14.05-.22v-.26a1.6,1.6,0,0,0-.12-.49,1.58,1.58,0,0,0-.65-.77,1.42,1.42,0,0,0-.25-.12,1.65,1.65,0,0,0-.74-.13,2.24,2.24,0,0,0-1,.36,2.64,2.64,0,0,0-.41.34c-.06.07-.11.15-.16.22a1,1,0,0,0-.14.22l-.11.24c0,.09,0,.17-.07.25a2.34,2.34,0,0,0-.05.55,2.72,2.72,0,0,0,.87,1.86c.13.12.28.2.41.31s.3.14.45.22a2.68,2.68,0,0,0,.95.18h0a3.31,3.31,0,0,0,1.73-.46A3.58,3.58,0,0,0,158.76,90a2.92,2.92,0,0,0,.43-1.25c.08-.33.24-.42.25-.61v-.23s0,0,0,.06v.1s0,0,0,.07A3.67,3.67,0,0,1,159.4,89Z" transform="translate(0 -14.44)"/><path class="cls-19" d="M150.21,71.16H160.9C159.17,68,151.36,68.53,150.21,71.16Z" transform="translate(0 -14.44)"/><rect class="cls-20" x="153.57" y="53.82" width="3.98" height="0.93"/><polygon class="cls-23" points="157.54 47.55 153.57 47.55 152.75 53.81 158.36 53.81 157.54 47.55"/><polygon class="cls-23" points="160.44 60.32 160.33 63.38 160.06 66.43 150.93 66.43 150.47 60.32 160.44 60.32"/><path class="cls-19" d="M159.44,88.67a2.51,2.51,0,0,1-.41,1l1.53-18.54h.34Z" transform="translate(0 -14.44)"/><polygon class="cls-22" points="151.86 68.77 150.97 57.38 152.75 57.38 151.86 68.77"/><path class="cls-15" d="M170.94,87.29a4,4,0,0,0,.47,1.2,3.67,3.67,0,0,0,1.17,1.19,3.56,3.56,0,0,0,1.9.58h.19a3.31,3.31,0,0,0,.9-.17,4.27,4.27,0,0,0,.53-.24c.16-.12.33-.22.48-.35a3.09,3.09,0,0,0,1-2.18,2.25,2.25,0,0,0-.05-.62c0-.1,0-.22-.08-.32l-.13-.3a2.09,2.09,0,0,0-.17-.28c-.07-.08-.12-.18-.19-.26a2.23,2.23,0,0,0-.5-.42,2.63,2.63,0,0,0-1.22-.43H175a2.24,2.24,0,0,0-1,.33,2,2,0,0,0-.81,1,2.59,2.59,0,0,0-.15.61v.31c0,.1.05.21.07.32a1.66,1.66,0,0,0,.76.94,1.63,1.63,0,0,0,1.14.17,1.31,1.31,0,0,0,.92-1.7,1.14,1.14,0,0,0-.7-.61L175,86a1.36,1.36,0,0,0-.21,0,.9.9,0,0,0-.38.18.87.87,0,0,0-.3.66.69.69,0,0,0,.29.53.66.66,0,0,0,.48.09.54.54,0,0,0,.29-.2.46.46,0,0,0,.09-.27.58.58,0,0,1-.11.26.46.46,0,0,1-.28.16.57.57,0,0,1-.42-.11.54.54,0,0,1-.22-.46.68.68,0,0,1,.27-.53.61.61,0,0,1,.31-.13s.13,0,.18,0l.17,0a.88.88,0,0,1,.54.51,1.21,1.21,0,0,1,0,.18.81.81,0,0,1,0,.22c0,.07,0,.14,0,.2a1.21,1.21,0,0,1-.09.2,1.06,1.06,0,0,1-.68.51,1.34,1.34,0,0,1-1.49-.92,1.32,1.32,0,0,1-.05-.23v-.26a2.17,2.17,0,0,1,.13-.5,1.52,1.52,0,0,1,.67-.79,1.73,1.73,0,0,1,1-.25,2.17,2.17,0,0,1,1,.37,2,2,0,0,1,.42.35,1.66,1.66,0,0,1,.16.21.87.87,0,0,1,.15.24l.11.24c0,.09,0,.17.07.26a1.92,1.92,0,0,1,.06.56,2.77,2.77,0,0,1-.89,1.9c-.13.12-.29.21-.42.32a4.81,4.81,0,0,1-.46.22,3,3,0,0,1-1,.19,3.37,3.37,0,0,1-1.77-.48,3.57,3.57,0,0,1-1.16-1.08,3.94,3.94,0,0,1-.52-1.12,4.55,4.55,0,0,1-.12-.8v-.29s0,.1,0,.29A3.75,3.75,0,0,0,170.94,87.29Z" transform="translate(0 -14.44)"/><path class="cls-16" d="M161.53,72.18l.33,3.7.55,6.26.36,4.1v.06a.37.37,0,0,0,0,.11s0,0,0,.07a3.9,3.9,0,0,0,.07.81,3.62,3.62,0,0,0,1.63,2.39,4,4,0,0,0,1.12.49l.78,0,.76,0,1.43.09,2.35-4,.36-4.13.56-6.26.32-3.7Z" transform="translate(0 -14.44)"/><path class="cls-17" d="M167.45,90.09a3.45,3.45,0,0,1-.91.17h8.13a3.31,3.31,0,0,0,.9-.17,4.27,4.27,0,0,0,.53-.24c.16-.12.33-.22.48-.35a3.09,3.09,0,0,0,1-2.18,2.25,2.25,0,0,0-.05-.62c0-.1,0-.22-.08-.32l-.13-.3a2.09,2.09,0,0,0-.17-.28c-.07-.08-.12-.18-.19-.26a2.23,2.23,0,0,0-.5-.42,2.63,2.63,0,0,0-1.22-.43h-8.13a2.71,2.71,0,0,1,1.23.43,2.43,2.43,0,0,1,.49.42c.07.08.13.18.19.26a2.09,2.09,0,0,1,.17.28l.13.3a1.87,1.87,0,0,1,.08.32,1.92,1.92,0,0,1,0,.62,3.06,3.06,0,0,1-1,2.18c-.15.13-.32.23-.48.35A4.9,4.9,0,0,1,167.45,90.09Z" transform="translate(0 -14.44)"/><path class="cls-18" d="M166.35,84.69h.79a2.2,2.2,0,0,0-.79.12Z" transform="translate(0 -14.44)"/><path class="cls-19" d="M162.81,87.29a4,4,0,0,0,.47,1.2,3.67,3.67,0,0,0,1.17,1.19,3.8,3.8,0,0,0,1.12.49,3.33,3.33,0,0,0,.78.09,2.24,2.24,0,0,0,.76-.08,2.14,2.14,0,0,0,.34-.09,4.9,4.9,0,0,0,.52-.24c.16-.12.33-.22.48-.35a3.06,3.06,0,0,0,1-2.18,1.92,1.92,0,0,0,0-.62,1.87,1.87,0,0,0-.08-.32l-.13-.3a2.09,2.09,0,0,0-.17-.28c-.06-.08-.12-.18-.19-.26a2.43,2.43,0,0,0-.49-.42,2.71,2.71,0,0,0-1.23-.43,2.2,2.2,0,0,0-.79.12,1.92,1.92,0,0,0-.46.21,2,2,0,0,0-.81,1,2.59,2.59,0,0,0-.15.61v.31c0,.1.05.21.07.32a1.64,1.64,0,0,0,.77.94,1.67,1.67,0,0,0,.57.19,1.5,1.5,0,0,0,.56,0,1.3,1.3,0,0,0,.92-1.7,1.12,1.12,0,0,0-.69-.61l-.23,0a1.36,1.36,0,0,0-.21,0,.94.94,0,0,0-.35.16l0,0a.82.82,0,0,0-.29.66.64.64,0,0,0,.29.53l0,0a.64.64,0,0,0,.44.07.54.54,0,0,0,.29-.2.39.39,0,0,0,.09-.27.39.39,0,0,1-.11.26.46.46,0,0,1-.28.16.57.57,0,0,1-.42-.11h0a.56.56,0,0,1-.21-.45.77.77,0,0,1,.21-.48s0,0,.07,0a.58.58,0,0,1,.3-.13s.14,0,.18,0l.18,0a.89.89,0,0,1,.53.51,1.21,1.21,0,0,1,0,.18.81.81,0,0,1,0,.22c0,.07,0,.14,0,.2a1.21,1.21,0,0,1-.09.2,1,1,0,0,1-1.18.5,1.36,1.36,0,0,1-1-.91c0-.07,0-.14-.05-.23v-.26a2.17,2.17,0,0,1,.13-.5,1.57,1.57,0,0,1,.67-.79l.25-.13a1.92,1.92,0,0,1,.77-.12,2.17,2.17,0,0,1,1,.37,1.78,1.78,0,0,1,.42.35,1.73,1.73,0,0,1,.17.21,1.16,1.16,0,0,1,.14.24l.11.24a1.25,1.25,0,0,1,.07.26,1.92,1.92,0,0,1,.06.56,2.77,2.77,0,0,1-.89,1.9c-.13.12-.29.21-.42.32a4.81,4.81,0,0,1-.46.22,2.85,2.85,0,0,1-1,.19h0a3.41,3.41,0,0,1-1.78-.48,3.49,3.49,0,0,1-1.1-1.1,2.89,2.89,0,0,1-.44-1.27c-.08-.34-.25-.44-.26-.63v-.24s0,0,0,.06v.11s0,0,0,.07A3.75,3.75,0,0,0,162.81,87.29Z" transform="translate(0 -14.44)"/><path class="cls-19" d="M172.13,72.18H161.18C163,69,171,69.48,172.13,72.18Z" transform="translate(0 -14.44)"/><rect class="cls-20" x="164.62" y="54.76" width="4.07" height="0.95"/><polygon class="cls-24" points="164.62 48.35 168.69 48.35 169.52 54.77 163.78 54.77 164.62 48.35"/><polygon class="cls-24" points="161.86 61.44 162.41 67.69 171.25 67.69 171.81 61.44 161.86 61.44"/><polygon class="cls-22" points="163.19 69.96 162.28 58.3 164.11 58.3 163.19 69.96"/><path class="cls-19" d="M162.77,87a2.54,2.54,0,0,0,.42,1.05l-1.66-15.86h-.35Z" transform="translate(0 -14.44)"/></g><g class="cls-6"><path class="cls-7" d="M83.6,214.71a52.85,52.85,0,1,1,52.84-52.85A52.91,52.91,0,0,1,83.6,214.71Z" transform="translate(0 -14.44)"/><path class="cls-8" d="M83.6,111.78a50.09,50.09,0,1,1-50.09,50.08A50.09,50.09,0,0,1,83.6,111.78m0-5.51a55.6,55.6,0,1,0,55.6,55.59,55.66,55.66,0,0,0-55.6-55.59Z" transform="translate(0 -14.44)"/></g><g class="cls-25"><path class="cls-26" d="M24.85,182.2s37-5.19,49.73-3.07S94.94,182.6,117,181s30.06,7.12,30.06,7.12l-18.88,20.26-103.65-7Z" transform="translate(0 -14.44)"/><polygon class="cls-27" points="99.28 115.13 97.39 118.6 98.33 121.58 103.52 118.1 103.05 120.59 104.47 125.05 104.94 122.57 104.94 125.55 111.55 128.53 109.19 122.57 111.08 125.55 114.38 126.54 112.49 116.61 120.79 120.19 117.69 114.13 106.86 108.02 99.28 110.16 99.28 115.13"/><path class="cls-28" d="M107.77,123.61l-.76,2.48c-.88,2.89-2.41,8-4,13.63-1.54,5.4-3.12,11.28-4.25,16.16,0,.1,0,.2-.07.3-.6,2.59-1.05,4.88-1.29,6.65-.12.86-.21,1.81-.29,2.82,0,.34-.06.68-.08,1s0,.68-.07,1c0,.76-.07,1.54-.1,2.35-.19,5.65,0,12.22.13,17.35,0,.13,0,.26,0,.39l0,1c.06,1.23.1,2.35.15,3.33,0,.76.07,1.42.1,2s0,.82.06,1.11l-2.79.67c0-.32,0-1.17-.08-2.41v-.05c0-1.07-.06-2.44-.08-4,0-.38,0-.77,0-1.17,0-5.22.06-12.32.68-18.93.06-.65.12-1.3.19-1.94l.15-1.25c0-.28.08-.57.11-.85.14-1,.29-2,.46-3,.35-2,.84-4.19,1.42-6.56l.13-.5c1.29-5.17,3-11,4.64-16.16,1.7-5.45,3.33-10.26,4.28-13l.86-2.48Z" transform="translate(0 -14.44)"/><path class="cls-29" d="M96.85,170.07l-1.79-.71c.06-.65.12-1.3.19-1.94l1.7.3C96.92,168.48,96.88,169.26,96.85,170.07Z" transform="translate(0 -14.44)"/><path class="cls-29" d="M97,187.81l-2.62.48.18-.14,2.42-.73C97,187.55,97,187.68,97,187.81Z" transform="translate(0 -14.44)"/><path class="cls-29" d="M97,166.69l-1.62-.52.1-.86h0l1.59.33C97.07,166,97,166.33,97,166.69Z" transform="translate(0 -14.44)"/><path class="cls-29" d="M97.18,192.17l-2.71,1.3c0-1.07-.06-2.44-.08-4l2.64-.62C97.09,190.07,97.13,191.19,97.18,192.17Z" transform="translate(0 -14.44)"/><path class="cls-29" d="M98.75,155.88c0,.1,0,.2-.07.3l-1.29-.41.13-.5Z" transform="translate(0 -14.44)"/><polygon class="cls-30" points="122.41 121.02 118.11 119.36 116.99 113.14 118.89 114.94 122.41 121.02"/><path class="cls-31" d="M107,126.09c-.88,2.89-2.41,8-4,13.63l-.84-.61c1.7-5.45,3.33-10.26,4.28-13Z" transform="translate(0 -14.44)"/><path class="cls-32" d="M104.47,122.62s-5.67-2.48-6.14-2.48-9.91,5.46-9.91,5.46l3.3-.5-1.88,1.49,2.83-.5,1.89-2.48-1.42,4h3.78l9.21-1.47Z" transform="translate(0 -14.44)"/><path class="cls-33" d="M122.4,135.46l-4.29-1.66-.38-.15-.58-2.44v2.14L116,133v-3l-.52,2.49-.06.26-.46-.18-.48-.18-2-.78L109,130.29l.29-4-.87,3.67-2.91-3.67s2-2.44,2.91-2.75a1.27,1.27,0,0,1,.39,0h.4a16.41,16.41,0,0,1,2,.25l.38.07c.51.08,1,.18,1.31.25l.45.09,1.57,1.48,1,1,1,.94,1.9,1.8Z" transform="translate(0 -14.44)"/><polygon class="cls-34" points="116.27 124.19 116.17 131.07 116.16 131.35 112.99 128.28 113.29 126.61 112.67 127.97 109.27 123.4 110.15 117.98 108.94 122.68 107.9 121.38 109.56 116.56 106.57 118.98 102.11 109.67 107.8 106.76 107.81 106.77 111.62 109.39 111.62 109.39 112.02 109.67 112.03 109.68 113.35 114.14 114.47 117.93 114.47 117.94 115.11 120.1 115.25 120.58 115.99 123.08 114.94 121.79 116.27 124.19"/><path class="cls-35" d="M106,126.59l-1.6,2.23-2.82,3.93-.32-2.46-.15,2.53-.62.15L96,134.07l-.66-4.92-.21,5.55-3.68,1,1.08-2.67L91,135.81l-4.68.69,5.82-6.38,4.4-2.54h0l3.32-1.92,1.58-.91a7.68,7.68,0,0,1,1-.29C106,123.59,106,126.59,106,126.59Z" transform="translate(0 -14.44)"/><polygon class="cls-36" points="114.95 111.22 115.98 112.2 115.15 116.97 114.95 118.12 114.47 117.94 114.47 117.93 114.64 115.54 114.95 111.22"/><polygon class="cls-37" points="114.94 121.79 116.27 124.19 116.17 131.07 112.48 117.28 112.43 117.16 108.91 109.25 108.83 109.07 107.81 106.77 111.62 109.39 111.62 109.39 112.02 109.67 112.03 109.68 111.24 109.32 111.23 109.32 108.72 108.17 109.23 109.08 110.13 110.66 113.35 114.14 114.64 115.54 114.76 115.68 115.15 116.97 115.15 116.97 115.47 118.03 116.3 120.81 115.11 120.1 113.44 119.1 115.25 120.58 115.99 123.08 114.94 121.79"/><polygon class="cls-38" points="102.39 110.01 104.37 114.38 101.55 118.31 101.23 115.85 101.08 118.38 100.46 118.53 99.86 111.22 96.54 113.14 93.64 113.14 96.44 107.68 98.33 106.69 104.54 108.67 102.32 109.85 102.39 110.01"/><polygon class="cls-39" points="128.17 177.48 86.52 176.83 78.2 178.7 69.29 176.83 34.19 187.31 31.22 189.19 53.19 191.69 83.61 183.92 83.67 183.92 120.63 186.23 128.17 177.48"/><path class="cls-40" d="M31.22,203.63l26.58,6.1,31.77-14a488.17,488.17,0,0,1-55.38,6Z" transform="translate(0 -14.44)"/><polygon class="cls-40" points="69.29 176.83 80.64 179.54 84.15 180.38 95.43 183.08 86.52 176.83 84.25 177.34 80.71 178.14 78.2 178.7 69.29 176.83"/><polygon class="cls-27" points="78.2 96.87 80.58 101.25 79.39 104.99 72.86 100.62 73.45 103.74 71.67 109.37 71.08 106.24 71.08 109.99 62.76 113.74 65.73 106.24 63.35 109.99 59.2 111.24 61.57 98.75 51.13 103.25 55.04 95.62 68.66 87.93 78.2 90.63 78.2 96.87"/><path class="cls-41" d="M67.51,103.82l1,3.12c1.11,3.64,3,10.06,5,17.15,1.93,6.79,3.93,14.2,5.35,20.33l.09.38c.74,3.27,1.31,6.14,1.62,8.37.15,1.09.27,2.27.37,3.55,0,.42.07.86.09,1.3s.06.86.08,1.3c0,1,.1,1.94.13,3,.24,7.11.07,15.38-.16,21.83,0,.17,0,.33,0,.49,0,.44,0,.87,0,1.3-.06,1.55-.12,3-.18,4.19,0,.95-.09,1.79-.13,2.49s0,1-.07,1.4l3.51.85c0-.41.06-1.48.1-3v-.07c0-1.35.08-3.06.11-5,0-.48,0-1,0-1.48,0-6.56-.09-15.5-.86-23.82-.08-.82-.16-1.63-.25-2.43l-.18-1.57c0-.36-.1-.73-.14-1.08-.18-1.29-.37-2.54-.58-3.76-.43-2.48-1-5.27-1.79-8.25l-.15-.63c-1.63-6.51-3.79-13.8-5.84-20.34-2.15-6.86-4.19-12.9-5.39-16.38-.68-2-1.09-3.12-1.09-3.12Z" transform="translate(0 -14.44)"/><path class="cls-29" d="M81.25,162.28l2.26-.9c-.08-.82-.16-1.63-.25-2.43l-2.14.37C81.17,160.28,81.22,161.26,81.25,162.28Z" transform="translate(0 -14.44)"/><path class="cls-29" d="M81.07,184.6l3.3.6-.23-.17-3-.92C81.08,184.28,81.08,184.44,81.07,184.6Z" transform="translate(0 -14.44)"/><path class="cls-29" d="M81,158l2-.64L83,156.29h0l-2,.42C81,157.14,81,157.58,81,158Z" transform="translate(0 -14.44)"/><path class="cls-29" d="M80.84,190.09l3.41,1.63c0-1.35.08-3.06.11-5L81,185.9C81,187.45,80.9,188.86,80.84,190.09Z" transform="translate(0 -14.44)"/><path class="cls-29" d="M78.87,144.42l.09.38,1.61-.51-.15-.63Z" transform="translate(0 -14.44)"/><polygon class="cls-42" points="49.1 104.29 54.5 102.2 55.92 94.37 53.52 96.64 49.1 104.29"/><path class="cls-31" d="M68.47,106.94c1.11,3.64,3,10.06,5,17.15l1.06-.77c-2.15-6.86-4.19-12.9-5.39-16.38Z" transform="translate(0 -14.44)"/><path class="cls-43" d="M71.67,102.57s7.13-3.12,7.72-3.12,12.47,6.87,12.47,6.87l-4.15-.63,2.37,1.88-3.56-.63-2.38-3.12,1.78,5H81.17L69.58,107Z" transform="translate(0 -14.44)"/><path class="cls-44" d="M49.1,118.73l5.4-2.09.48-.18.73-3.08v2.7l1.46-.39v-3.84l.66,3.13.07.33.58-.23.61-.23,2.56-1,4.29-1.64-.36-5,1.09,4.62,3.66-4.62s-2.56-3.07-3.66-3.46a1.88,1.88,0,0,0-.48-.07,2.93,2.93,0,0,0-.51,0,19.59,19.59,0,0,0-2.53.3l-.48.09c-.65.11-1.24.23-1.65.32l-.56.12-2,1.86-1.3,1.23-1.26,1.19-2.4,2.26Z" transform="translate(0 -14.44)"/><polygon class="cls-45" points="56.82 108.28 56.95 116.94 56.96 117.29 60.94 113.42 60.57 111.32 61.35 113.03 65.62 107.29 64.52 100.46 66.04 106.37 67.35 104.74 65.27 98.68 69.02 101.73 74.64 90 67.47 86.35 67.47 86.35 62.67 89.66 62.66 89.66 62.16 90 62.16 90.03 60.5 95.64 59.09 100.4 59.09 100.41 58.28 103.13 58.1 103.74 57.17 106.89 58.49 105.26 56.82 108.28"/><path class="cls-46" d="M69.77,107.57l2,2.8,3.55,4.95.41-3.09.18,3.18.79.19,5.6,1.38.82-6.19.27,7L88,119.08l-1.35-3.35,1.94,3.44,5.89.87-7.33-8-5.53-3.2h0l-4.17-2.42-2-1.15a10.67,10.67,0,0,0-1.2-.37C69.76,103.8,69.77,107.57,69.77,107.57Z" transform="translate(0 -14.44)"/><polygon class="cls-47" points="58.48 91.96 57.18 93.19 58.23 99.19 58.48 100.64 59.09 100.41 59.09 100.4 58.88 97.4 58.48 91.96"/><polygon class="cls-48" points="58.49 105.26 56.82 108.28 56.95 116.94 61.58 99.58 61.65 99.43 66.08 89.48 66.19 89.26 67.47 86.35 62.67 89.66 62.66 89.66 62.16 90 62.16 90.03 63.15 89.57 63.16 89.57 66.32 88.13 65.68 89.26 64.54 91.25 60.5 95.64 58.88 97.4 58.71 97.57 58.23 99.19 58.23 99.2 57.83 100.53 56.78 104.03 58.28 103.13 60.38 101.87 58.1 103.74 57.17 106.89 58.49 105.26"/><polygon class="cls-38" points="74.28 90.44 71.79 95.93 75.34 100.88 75.75 97.78 75.93 100.96 76.72 101.16 77.47 91.96 81.64 94.37 85.29 94.37 81.77 87.5 79.39 86.25 71.57 88.75 74.37 90.24 74.28 90.44"/><polyline class="cls-49" points="116.39 199.5 128.17 178.6 84.1 180.13 27.16 189.98 58.82 195.87 84.91 205.84"/></g></g></g></g></svg>