<svg xmlns="http://www.w3.org/2000/svg" xmlns:xlink="http://www.w3.org/1999/xlink" viewBox="0 0 673.17 673.96"><defs><style>.cls-1,.cls-15,.cls-34,.cls-4,.cls-41{fill:none;}.cls-2{fill:#d9ab73;}.cls-2,.cls-4{stroke:#fff;stroke-linecap:round;stroke-linejoin:round;stroke-width:1.5px;}.cls-3{fill:#8c4303;}.cls-5{fill:#3d3d3d;}.cls-6{opacity:0.55;}.cls-7{fill:#fff;}.cls-8{clip-path:url(#clip-path);}.cls-9{fill:#f1b591;}.cls-10{fill:#dfa584;}.cls-11{fill:#99acda;}.cls-12{fill:#c6b9ae;}.cls-13{fill:#616790;}.cls-14,.cls-19{fill:#d6cdc8;}.cls-14,.cls-18{opacity:0.58;}.cls-15,.cls-16{stroke:#765e69;stroke-miterlimit:10;stroke-width:0.79px;}.cls-16{fill:#a9c7db;}.cls-17{fill:#a06653;}.cls-20{fill:#352c38;}.cls-21{clip-path:url(#clip-path-2);}.cls-22{fill:#d4ac79;}.cls-23{fill:#c79961;}.cls-24{fill:#ebcda0;}.cls-25{fill:#deba85;}.cls-26{fill:#1d1d1b;opacity:0.1;}.cls-27{fill:#ededed;}.cls-28,.cls-30,.cls-37{opacity:0.9;}.cls-29{fill:#ece2ff;}.cls-30{fill:#ccb4ff;}.cls-31{fill:#d7c3ff;}.cls-32{fill:#e2d4ff;}.cls-33{fill:#f4eeff;}.cls-34{stroke:#e0d0ff;}.cls-34,.cls-41{stroke-width:0;}.cls-35{fill:#fbfaff;}.cls-36{fill:#fed0d9;}.cls-37{fill:#fd839a;}.cls-38{fill:#fd9daf;}.cls-39{fill:#feb8c5;}.cls-40{fill:#ffe3e8;}.cls-41{stroke:#feb2c0;}.cls-42{fill:#fff6f8;}.cls-43{fill:#deaa78;}.cls-44{fill:#e6b07c;}.cls-45{fill:#f5c08c;}.cls-46{fill:#3c3c3b;}.cls-47{fill:#575756;}.cls-48{fill:#ffcb86;}.cls-49{fill:#c6c6c6;}.cls-50{fill:#f6f6f6;opacity:0.75;}.cls-51{fill:#ffcf9f;}.cls-52{fill:#962267;}</style><clipPath id="clip-path"><path id="SVGID" class="cls-1" d="M570.65,492a43.95,43.95,0,1,1-87.89,0c0-24.27,19.68-61.61,44-61.61S570.65,467.74,570.65,492Z"/></clipPath><clipPath id="clip-path-2"><path id="SVGID-2" data-name="SVGID" class="cls-1" d="M462.58,300.38a41.21,41.21,0,0,1-82.42,0c0-22.76-1.68-62.3,32.42-56.28C503.23,260.1,455,265.94,461,289A46.55,46.55,0,0,1,462.58,300.38Z"/></clipPath></defs><g id="Capa_2" data-name="Capa 2"><g id="MAPA"><path class="cls-2" d="M456.19,466.54c-2.68.64-5.36,1.31-8,1.94a6.07,6.07,0,0,1-6.26-1.75c-2.87-3-4-7.24-5.86-10.84-.61-1.16-1.69-3.32-3.34-3.22s-2.23,2-3.77,0c-2.1-2.78-1.18-6.78-3.43-9.48-1.14-1.37-3-2-4-3.41-1.22-1.65-1-3.95-.43-5.93s1.43-3.93,1.32-6c-.12-2.35-1.49-4.44-2-6.75a10.57,10.57,0,0,1,.46-4.57,1.51,1.51,0,0,0-1.5-1.79c-.89,0-1.15.17-2.6,1.38A24.48,24.48,0,0,0,409,427.22c-1.75,5.35-4.77,9.74-7.29,14.6,3.21,1.9,3.06,5.76,3.4,8.42,1.59-.25,3.24.55,3.39,2.16.1,1.07,0,1.78,1,2.67s1.79.78,2.95.71c4.76-.28,10.31,2.2,13.71,5.43,1.55,1.47,2.94,3.43,2.73,5.56a18.06,18.06,0,0,1-1.18,3.65c-.82,2.54-.36,5.31-.58,8-.33,4-2.22,8.1-1,12,.71,2.34,2.48,4.26,3.13,6.62.58,2.12.21,4.4.7,6.54a14.17,14.17,0,0,0,9.3,9.66c4.81,1.23,7,7.28,11.74,8.84a33.2,33.2,0,0,0-.66-4.86,3.64,3.64,0,0,1,1.79-3.78c.77-.47,1.52-1,2.3-1.49a6.09,6.09,0,0,0,3-4.37c.13-1.37-.32-2.63.75-3.73,2-2,1.6-3.25,1.35-6s.87-4.75,1.71-7.1-.78-3.37-.69-5.6c.07-1.56,1.89-2.59,2-4.15.11-1.2-.8-2.2-1.45-3.21-2.22-3.52.8-7.7-1.18-11.06C459.22,465.4,457.38,466.26,456.19,466.54Z"/><path class="cls-2" d="M317,55.52c-2.75,2.9-5.39,5.91-8,8.91a15.23,15.23,0,0,1-4.57,4c-.84.4-1.87.78-2.07,1.69C302,71.51,304,72.52,304,74c-.06,1.79-3.12,2.41-3,4.2,1.73,1.33,2.83,3.32,4.37,4.88s3.91,2.72,5.88,1.77c1.31-.62,2.29-2,3.92-1.28s1.5,3,2.17,4.38A14.48,14.48,0,0,0,320.76,92c2.47,2.26,5.56,4.18,6.78,7.46.84,2.25.59,4.75.86,7.14.31,2.72,1.3,5.32,1.6,8a10.65,10.65,0,0,1-1.12,5.61,26.43,26.43,0,0,0-2.48,10.52c4,.65,8.35,1.41,11.35,4.2a19.07,19.07,0,0,0,3,2.79c2.66,1.56,4.4-2.39,6.21-.74a4.69,4.69,0,0,1,1.15,2.35,15.38,15.38,0,0,0,3.77,6,18.4,18.4,0,0,0,3,2.53c.63.42,3.24,1.24,3.52,1.78,2,3.83,2.37,8.51,0,12.23a4.35,4.35,0,0,0-.81,2.59c.16,2.32,1.6,3.28-.66,5.62a17.51,17.51,0,0,0-2.56,2.75c-1,1.66,1.15,4.57.44,5.29-.28.3-.81.33-1,.7a1.4,1.4,0,0,0,0,.76c.27,1.92-1.84,3.16-3,4.78a20.45,20.45,0,0,1-6,5.77,27.51,27.51,0,0,0-9,7.53c-1.93,2.48-3.38,3.22-6.32,1.83-1.5-.71-7.17-1.78-7.52.91-.39,2.93,1.31,6.43,1.06,9.59-.19,2.25-.77,4.46-.83,6.71-.18,7.48,13.36,11.35,6.15,20-1,1.19-1.45,2-.36,3.42,2.88,3.75,5.3,7.18,6.21,11.94.46,2.41,3.4,1.81,5.29,3.37s1.62,5,1.14,7.08a7.45,7.45,0,0,0,.25,4.05c.89,2.56,1,3.12.43,5.85-.88,4,1.81,9.28,3.36,12.87,1.25,2.89-.37,6.23.87,9,.86,1.93,3.47,3,3.44,5.15s-1.86,3.68-1.12,5.86c.87,2.52,3.59,3.8,5.08,5.93a4.21,4.21,0,0,1,.8,3.74c-.6,2.12-4.17,1.36-5.72,2.56-2.7,2.09-3.76,5.75-6.24,8.09a16.52,16.52,0,0,1-7.27,4c-2.92.72-5.89-.84-8.7.1-1.7.57-2.52.86-4.2-.25a12.59,12.59,0,0,0-2.6-1.57c-1.23-.43-3.11,0-3.53,1.39s1.12,2.68,1.87,4c1.34,2.42.16,3.75-1.81,5.11-1.41,1-4.4,4.13-5.93,3.83a9.54,9.54,0,0,1-2.92-1.54c-5.49-3.24-5.31,7.29-6.41,9.76a7.69,7.69,0,0,1-5.3,4.34c-3,.66-5.13-3-7.43-4.84a11.72,11.72,0,0,0-7.08-2.37c-2.68-.11-4.59,2.56-5.57,5.06s-1.7,5.36-3.93,6.85c-2,1.35-4.72,1.13-7,.34s-4.4-2.08-6.73-2.8c-3.12-1-7-1.12-8.71-3.88a10.18,10.18,0,0,1-1.11-4.71,62.22,62.22,0,0,0-2.75-13.91,6.5,6.5,0,0,0-1.76-2.66c-4.33-4.25-6.72-10.74-8.7-16.47-1.38-4-2.77-8.17-1.92-12.29.56-2.7,2.06-5.52,1-8.05s-4.54-3.73-5.21-6.45c-.51-2.06.8-4.08,1.47-6.09a10.65,10.65,0,0,0-1.26-9.21c-.59-.88-1.36-1.81-1.17-2.86s1.5-1.79,2.23-2.73c1.61-2.06.11-5.26-2.14-6.57-1.55-.89-3.56-1.41-4.27-3-1.42-3.26,3.8-6.9,2-10a4.89,4.89,0,0,0-4.94-2.38,6.81,6.81,0,0,1-2.26.4c-1.56-.21-2.17-2.08-2.68-3.57a16.35,16.35,0,0,0-5.46-7.59,4.16,4.16,0,0,0-2.17-1c-1.86-.12-3.28,1.88-5.14,2-2.24.1-3.58-2.48-5.59-3.48-3.22-1.6-6.84,1.2-9.21,3.91s-5.46,5.84-9,4.95c-1.38-.35-2.52-1.3-3.82-1.87a14.62,14.62,0,0,0-4.78-.9c-9-.66-18.22-1-26.76,1.78a53,53,0,0,1-7.31,2.32,43.7,43.7,0,0,1-8.33.18,51.15,51.15,0,0,0-20.47,4,3.76,3.76,0,0,0-1.88,1.32c-.78,1.29.12,2.91.11,4.41,0,3.19-3.85,4.71-7,5.41-4,.89-7.43,1.29-10.94-1-2.65-1.73-3.94-.34-6.67-.05-1.82.19-4.52-.45-5.71-2s-.33-2.61-.18-4.44a15.2,15.2,0,0,0-1.87-7.54,30,30,0,0,0-3.31-5c-1.38-1.8-2.29-4-3.85-5.62-2.08-2.21-3.19-1.83-5.9-1.52-3,.34-6.12-2.22-8.71-.76-2.85,1.61-1.78,6.1-3.54,8.85a4.66,4.66,0,0,1-1.93,1.67,3,3,0,0,1-4-2c-.45-1.68-.81-3.41-2-4.71-1.85-1.92-4-3.94-4.22-6.6-.29-3.44,1.25-7.2,1.39-10.7a95.17,95.17,0,0,0-.59-12.29l-1.94-21.61c-.34-3.75-4.21-7.37-3.56-11.07.44-2.49,2-4.63,2.9-7,1.27-3.17,1.48-6.64,1.67-10l.64-11.55c.17-3,.32-6.12-.78-8.92a9,9,0,0,1-1-3.06c0-1.88,1.3-3.5-.44-5-.77-.69-1.77-1.19-2.26-2.12-.62-1.19-.28-2.92-1.38-3.7a5,5,0,0,0-1.62-.53c-2.41-.64-3.36-3.06-4-5.21a5.49,5.49,0,0,1-.26-3.71c.48-1.13,1.67-1.82,2.22-2.92,1-2-.42-4.28-1.77-6l-5.89-7.69c1-5.84,1.41-12.24,2.44-18.08,1-5.58,1.77-12-1.9-16.32-1.7-2-4.18-3.26-5.68-5.4-1.77-2.55-1.91-5.92-3.49-8.6C8.15,42.22,1.43,39.93.77,35.71c-.51-3.28,7.72-4.64,8.72-8.34.61-2.28-.52-4.81.31-7,.68-1.79,2.45-2.86,3.94-4.06,1.25-1,1.06-2,3-1.28,3.06,1.13,5.35-5.95,6.43-7.85,1.39-2.42,3.57-4.74,6.35-4.88,2.13-.11,4.1,1.1,5.75,2.45C37.52,6.59,39.57,9,40,11.87c.38,2.52-.5,5.16.26,7.58.49,1.57,1.64,3,1.49,4.64-.26,2.64-3.75,4.08-4,6.72a6,6,0,0,0,.78,2.89c1.34,2.91,2.88,6,5.75,7.44,3.15,1.54,8.57.29,11.38,2.38a14.53,14.53,0,0,1,3.52,3.29,6.21,6.21,0,0,1,.35,5.34c-1.07,2.37-1.47,3.74,1.72,5.3l6.2,3c.94.46,2.11.9,3,.29.43-.31.66-.84,1.08-1.15,1-.74,2.44,0,3.61-.42a3.71,3.71,0,0,0,2-2.43c2.86-7.59,2-16.47,6.18-23.4C84.83,30.8,87,28.64,88.49,26a22.75,22.75,0,0,1,2.38-4.09c1.79-2.07,4.69-2.86,6.64-4.79,2.54-2.52,3.32-6.84,6.6-8.31a19,19,0,0,0,5-3c2.8-2.42,8.34-3.7,11.94-4a11.26,11.26,0,0,1,8.06,2.11c4.44,3.62,4.06,10.5,6.8,15.54a26.88,26.88,0,0,0,3.68,4.84l6.77,7.64A33.29,33.29,0,0,0,153.06,37c1.53-.5,1.84-2.56,3-3.67,1.7-1.61,4.67-.63,6.1,1.21s1.87,4.26,2.7,6.44c1,2.74,3.24,3.31,5.88,1.94,4.43-2.29,7.7-6.54,12.33-8.36,3.07-1.21,6.55-1.27,9.48-2.79s5.72-4.84,9.17-4.47c1,.11,2,.53,3,.24a4.38,4.38,0,0,0,1.78-1.34c3.61-3.9,7.31-7.93,9.17-12.9,1.2-3.23,2.21-7.38,5.57-8.11,2.23-.49,4.38.88,6.34,2.06s4.44,2.2,6.43,1.08c1.56-.87,2.37-2.3,4.06-3,3.3-1.32,6.91-.58,10.22-1.81C249.88,3,251.26.78,253,.75c2.76,0,5.89,3.73,7.74,5.51,2.75,2.66,7,3,10.31,4.89,2.56,1.5.94,4.36,3.19,5.65,2,1.16,3.91.58,5.73,2.31,3.16,3,3.58,6.11,8.63,6.05,1.92,0,4.17-.06,5.59,1.45,2,2.1,1.17,5.78,5.22,5.22,4.76-.65,6.51.22,7.34,5.25a31.84,31.84,0,0,0,2.12,7.22,12.63,12.63,0,0,0,3.26,5c1.17,1,8.33,2.67,6.73,4.29C318.23,54.22,317.6,54.87,317,55.52Z"/><path class="cls-2" d="M448.83,260.14c2.16-.16-1.22-6.91-1.6-7.66-1.72-3.43-4.27-7.46-3.39-11.46a26.52,26.52,0,0,1,1.85-4.49c1.06-2.52,2.06-6.75.68-9.34-1.26-2.38-4.2-1.48-6.18-2.72s-2.05-4.41-1.64-6.89.9-5.05,2.79-6.39c-.6.41-2.87-1.32-3.4-1.6-1.58-.84-3.39-1.75-5.23-1.56-2.39.25-3.7,2.39-5.33,3.87-2.53,2.31-6.34,2.28-9.69,3-3.08.63-6.41,1.1-8.71,3.23-1.56,1.45-2.43,3.46-3.45,5.32s-2.34,3.73-4.32,4.48a9.59,9.59,0,0,1-2.43.47c-2.26.25-5.16.91-7.39.25-2.63-.78-4.45-3.56-6.43-5.28a9.34,9.34,0,0,0-4.78-2.44,4.57,4.57,0,0,1-3.84-1.74c-1.46-1.71-2.16-5.21-4.95-4.28-1.73.59-8.2,2-6.72-1.78.6-1.51.16-2.39-.9-3.51l-5-5.36c-2.24-2.39-4.6-5.06-4.82-8.32a16.21,16.21,0,0,0-.16-2.88c-.32-1.32-1.88-3-2.84-4.6-.54-.92-1.38-1.54-2.24-.91-3.61,2.67-8.95,6.48-12.72,10.26-2.22,2.22-3.38,3.22-6.32,1.83-1.5-.71-7.17-1.78-7.52.91-.39,2.93,1.31,6.43,1.06,9.59-.19,2.25-.77,4.46-.83,6.71-.18,7.48,13.36,11.35,6.15,20-1,1.19-1.45,2-.36,3.42,2.88,3.75,5.3,7.18,6.21,11.94.46,2.41,3.4,1.81,5.29,3.37s1.63,5,1.15,7.07a7.42,7.42,0,0,0,.25,4.07c.88,2.55,1,3.11.42,5.84-.88,4,1.81,9.28,3.36,12.87,1.25,2.89-.37,6.23.87,9,.86,1.93,3.47,3,3.44,5.15s-1.86,3.69-1.12,5.86c.51,1.47,1.78,2.38,2.91,3.35a12.13,12.13,0,0,1,2.58,3.32c1.68,2.62,5-1.46,7-1.42,2.73.07,4,.25,6.27-1.42,2.83-2.06,6-4.68,5.89-8.18,0-1.85-1.62-5.73,1-6.62,1.31-.45,2.39.07,3.66-.73,2.9-1.83,1.81-6.32,4.84-8,1.73-1,4-.12,5.32,1.39.73.86,1.62,2.35,2.83,2.58,1.88.35,2.12-1.5,3-2.67,1.43-1.82,4.24-1.44,6.49-.87l1.67-6.63c.86-3.43,5.53-4.43,6.9-8a43.51,43.51,0,0,0,1.17-5.44,11,11,0,0,1,4-6.39c4.24-3.06,10.12-1.78,15.06-.07,2.72.94,5.69,2,8.4,1,1.65-.59,3-1.87,4.67-2.41a5.57,5.57,0,0,1,4.14.39C446.5,258.91,448,260.19,448.83,260.14Z"/><path class="cls-3" d="M440,299.91a45.73,45.73,0,0,1-.51-5.82,6.92,6.92,0,0,1,1.9-4.61,27.67,27.67,0,0,0,5.4-11.3l.88-5c.58-3.25-1.36-6.47-.09-9.64s1.43-3.46-1.67-4.91a5.57,5.57,0,0,0-4.14-.39c-1.67.54-3,1.82-4.67,2.41-2.71,1-5.68-.08-8.4-1-4.94-1.71-10.82-3-15.06.07a11,11,0,0,0-4,6.39,43.51,43.51,0,0,1-1.17,5.44c-1.37,3.57-6,4.57-6.9,8l-1.67,6.63c-2.25-.57-5.06-.95-6.49.87-.91,1.17-1.15,3-3,2.67-1.21-.23-2.1-1.72-2.83-2.58-1.29-1.51-3.59-2.36-5.32-1.39-3,1.7-1.94,6.19-4.84,8-1.27.8-2.35.28-3.66.73-2.61.89-1,4.77-1,6.62.07,3.5-3.06,6.12-5.89,8.18-2.29,1.67-3.54,1.49-6.27,1.42-1.8.87-3.67,1.56-5.41,2.53-3.29,1.82-1,4.12,1,5.74,2.33,2,3.58,4.92,5.46,7.32s5.08,4.36,7.89,3.17c4.1-1.75,8.17,2.36,12.49,2.78,1.89.19,4,.18,5.32,1.57a9.51,9.51,0,0,1,2.1,6.74c-.11,2.61-1.3,5.07-1.65,7.66-.4,3.07.4,6.16,1.17,9.16.4,1.59.71,3.52-.47,4.65s-3.43,1.11-3.8,2.66a3.07,3.07,0,0,0,.49,2c1.83,3.6,3.76,7.32,7,9.76a10.94,10.94,0,0,0,11.43.39c1.74-1.12,3.25-1.78,5,.26,2.58,2.95,5,6.4,8.63,7.76,2.61,1,5.59.73,8,2,1.22.63,2.23,1.59,3.43,2.25,2.26,1.25,3.74.52,5.44-1.17s4.45-2.26,7.09-2.29a5.2,5.2,0,0,0,4.33-2.41c1.28-2,2.57-3.9,3.84-6,2.21-3.7,4.49-7.6,4.73-11.9a15.8,15.8,0,0,0-2.9-9.63c-1.32-1.93-3-3.62-4-5.72-1.25-2.57-1.43-5.56-2.75-8.1-1.56-3-4.55-5-6.48-7.84a13.61,13.61,0,0,1-.33-14.63c1.32-2.1,1.49-4.57,2.12-6.91.46-1.72,1.58-3.23,1.95-5C442.28,304.61,440.37,302.78,440,299.91Z"/><path class="cls-4" d="M440,299.91a45.73,45.73,0,0,1-.51-5.82,6.92,6.92,0,0,1,1.9-4.61,27.67,27.67,0,0,0,5.4-11.3l.88-5c.58-3.25-1.36-6.47-.09-9.64s1.43-3.46-1.67-4.91a5.57,5.57,0,0,0-4.14-.39c-1.67.54-3,1.82-4.67,2.41-2.71,1-5.68-.08-8.4-1-4.94-1.71-10.82-3-15.06.07a11,11,0,0,0-4,6.39,43.51,43.51,0,0,1-1.17,5.44c-1.37,3.57-6,4.57-6.9,8l-1.67,6.63c-2.25-.57-5.06-.95-6.49.87-.91,1.17-1.15,3-3,2.67-1.21-.23-2.1-1.72-2.83-2.58-1.29-1.51-3.59-2.36-5.32-1.39-3,1.7-1.94,6.19-4.84,8-1.27.8-2.35.28-3.66.73-2.61.89-1,4.77-1,6.62.07,3.5-3.06,6.12-5.89,8.18-2.29,1.67-3.54,1.49-6.27,1.42-1.8.87-3.67,1.56-5.41,2.53-3.29,1.82-1,4.12,1,5.74,2.33,2,3.58,4.92,5.46,7.32s5.08,4.36,7.89,3.17c4.1-1.75,8.17,2.36,12.49,2.78,1.89.19,4,.18,5.32,1.57a9.51,9.51,0,0,1,2.1,6.74c-.11,2.61-1.3,5.07-1.65,7.66-.4,3.07.4,6.16,1.17,9.16.4,1.59.71,3.52-.47,4.65s-3.43,1.11-3.8,2.66a3.07,3.07,0,0,0,.49,2c1.83,3.6,3.76,7.32,7,9.76a10.94,10.94,0,0,0,11.43.39c1.74-1.12,3.25-1.78,5,.26,2.58,2.95,5,6.4,8.63,7.76,2.61,1,5.59.73,8,2,1.22.63,2.23,1.59,3.43,2.25,2.26,1.25,3.74.52,5.44-1.17s4.45-2.26,7.09-2.29a5.2,5.2,0,0,0,4.33-2.41c1.28-2,2.57-3.9,3.84-6,2.21-3.7,4.49-7.6,4.73-11.9a15.8,15.8,0,0,0-2.9-9.63c-1.32-1.93-3-3.62-4-5.72-1.25-2.57-1.43-5.56-2.75-8.1-1.56-3-4.55-5-6.48-7.84a13.61,13.61,0,0,1-.33-14.63c1.32-2.1,1.49-4.57,2.12-6.91.46-1.72,1.58-3.23,1.95-5C442.28,304.61,440.37,302.78,440,299.91Z"/><path class="cls-2" d="M452.67,354.82a2.67,2.67,0,0,1-2.9-1,22.83,22.83,0,0,1-2.63-3.84c-1.25-2.57-1.43-5.56-2.75-8.1-1.56-3-4.55-5-6.48-7.84a13.61,13.61,0,0,1-.33-14.63c1.32-2.1,1.49-4.57,2.12-6.91.46-1.72,1.58-3.23,1.95-5,.5-2.3-.6-3.93-1.29-5.95A1.45,1.45,0,0,1,442,299.7c1.91.58,4.75-.19,6.12-.81,3.26-1.5,5.61,1.84,9.18-.06a18,18,0,0,1,10.77-2.12,6.21,6.21,0,0,0,6.24-4.25,13.92,13.92,0,0,1,1.32-3.61c1.74-2.82,5.34-3.66,8.34-5.06a39.57,39.57,0,0,0,6.83-4.44c1.52-1.14,2,1,2.29,2,.57,2,1.66,3.81,2.2,5.82,1.27,4.64-.25,10.26,2.89,13.91,1.77,2.07,4.74,3,6,5.42,1.11,2.1.58,4.65.21,7s-.4,5.08,1.34,6.7a33.35,33.35,0,0,0,2.83,1.83c1.72,1.28,2.49,3.44,3.17,5.48a16,16,0,0,1,1.14,5.47,5.42,5.42,0,0,1-2.57,4.71,18.48,18.48,0,0,1-3.39.94c-3.36,1-5.41,4.31-7.15,7.36a75,75,0,0,0-4.61,9,14.21,14.21,0,0,1-1.88,3.73c-1.84,2.27-5.06,2.87-8,2.73a11.8,11.8,0,0,1-7.5-2.68c-1.67-1.53-2.87-2.56-5.07-1.35a25.56,25.56,0,0,1-6.89,2.76,6,6,0,0,1-4-.21c-1.52-.78-2.22-2.55-3.46-3.72A6,6,0,0,0,452.67,354.82Z"/><path class="cls-2" d="M441.94,386.08c-1.95-.62-6.49.49-7.85,1.84-3.43,3.39-5.6.62-8.88-1.08-2.46-1.27-5.44-1-8-2-3.67-1.36-6.05-4.81-8.63-7.76-1.79-2-3.3-1.38-5-.26a10.94,10.94,0,0,1-11.43-.39c-3.24-2.44-5.17-6.16-7-9.76a3.07,3.07,0,0,1-.49-2c.37-1.55,2.65-1.55,3.8-2.66s.87-3.06.47-4.65c-.77-3-1.57-6.09-1.17-9.16.35-2.59,1.54-5.05,1.65-7.66a9.51,9.51,0,0,0-2.1-6.74c-1.29-1.39-3.43-1.38-5.32-1.57-4.32-.42-8.39-4.53-12.49-2.78-2.81,1.19-6-.77-7.89-3.17-2.94-3.75-4.32-8.83-10.73-9.43a5.91,5.91,0,0,0-2.61.82c-2.7,2.09-3.76,5.75-6.24,8.09a16.52,16.52,0,0,1-7.27,4c-2.92.72-5.89-.84-8.7.1-2.65.89-9.18-4.23-10.33-.43-.44,1.47,1.12,2.68,1.87,4,1.24,2.24.05,3.83-1.81,5.11-1.41,1-4.4,4.13-5.93,3.83a9.54,9.54,0,0,1-2.92-1.54c-5.49-3.24-5.31,7.29-6.41,9.76-1.17,2.65-4.89,3.08-5.6,5.84-.9,3.47,2.35,7.68,5.12,9.3a19.43,19.43,0,0,0,6.14,2.14c1.9.36,5.47-.56,6.29,1.77,1.1,3.12-3.53,7.07-2.41,10.56.92,2.89,4,4.47,6.77,5.61,3.78,1.52,2.69,5,2.17,8.26-.58,3.58.84,7,4.5,8.4,2.86,1.09,5.31,0,7.9,2,3.1,2.34,8,5.25,9.49,9,.63,1.53,1.95,3.11,3.59,2.87s2.19-2.14,3.43-3.11c2.81-2.18,8.22-2.36,11.35-1,3.73,1.64,6.7,4.58,10.14,6.69,2.52,1.55,11.38-6.42,12.6-8.43.72-1.19,1.88-2.4,3.26-2.2,2.09.31,2.36,3.21,2,5.29-.81,4.33-2,9,0,12.95.78,1.57,2.06,3,2.18,4.74.26,4.09,2.67,7.1,6.24,9.14a7.24,7.24,0,0,0,6.67.56c1.84-3.46,3.9-6.71,5.5-10.29,2.34-5.25,4.56-10.83,9-14.51,1.53-1.28,3.24-.94,5.05-1.58,2.12-.76,3.25-2.41,4.75-4,2.57-2.7,6.72-2.09,6.93-6.07.16-3,3.28-4.61,5.34-6.25a8.27,8.27,0,0,0,2.8-3.27c.56-1.48,2-3.59,1.92-5.19C443.38,388.55,443.32,386.52,441.94,386.08Z"/><path class="cls-2" d="M307.68,493.69c.15,1.87,1.65,2.4,4,3.36a48.86,48.86,0,0,0,7.89,2.29,32.26,32.26,0,0,1,8.71,3.4c2.37,1.37,4.68,4.11,7.42,4.63,3.49.67,6.57-2.27,9.08-4.24,4.72-3.72,10.87-4.05,15.56-7.35,2.51-1.77,3.74-4.72,5.9-6.83,3.75-3.67,9.57-4.87,13.15-8.9,2-2.28,2.93-4.09,6.09-4.95,5.61-1.54,10.84,0,15.12-5,3.64-4.25,5.6-8.05,4.86-13.84-.39-3-.56-15.27-5.16-14.76a8,8,0,0,1-4.79-1.1c-3.17-1.82-5.43-4.39-6.08-7.81a20.83,20.83,0,0,0-2.24-5.87c-2.11-4-.88-8.75-.06-13.15.39-2.08.12-5-2-5.29-1.38-.2-2.54,1-3.26,2.2-1.22,2-10.08,10-12.6,8.43-3.44-2.11-6.41-5.05-10.14-6.69-3.13-1.37-8.54-1.19-11.35,1-1.24,1-1.66,2.84-3.43,3.11s-3-1.34-3.59-2.87c-1.52-3.74-6.39-6.65-9.49-9-2.59-2-5-.86-7.9-2-2.41-.91-7.93-2.14-8.82,1.74-.33,1.47.79,2.81,1.55,4.1,2.31,3.89,1.69,8.79,1,13.26-1.47,9.43-11.59,3.71-15.75,9.94-2.09,3.12-1.67,7.16-3.77,10.37S292.4,448,291.37,452a10.82,10.82,0,0,0,3.78,11c1.83,1.41,4.08,2.2,5.84,3.69a8.91,8.91,0,0,1,3.07,7.19c-.12,3.22-2.43,5.18-2.94,8.12-.63,3.7,3.29,5.12,5.22,7.47A7,7,0,0,1,307.68,493.69Z"/><path class="cls-2" d="M549.53,306c.88-.79.84-2.56.28-3.6l-2.11-4a5.46,5.46,0,0,1-1-3.48c.37-1.81,1.89-3.45,2.56-5.19.32-.84.71-1.3.47-2.22A6.52,6.52,0,0,1,550,285a5.22,5.22,0,0,0-1.37-3.72c-.6-.79-2.3-2-2.25-3.06,0-.78.75-1.2,1-1.89.35-1-.68-1.78-.86-2.72s.51-2,.46-3c-.08-1.48-.87-2.71-1.12-4.18a9.73,9.73,0,0,1-.11-2.95c.18-1.34,1.16-2.55-.14-3.61-2.06-1.67.27-4.62-.18-6.7A12.12,12.12,0,0,0,544,250.1c-.63-1.15-1.26-2.3-1.88-3.45-.73-1.34-1.64-2.82-3.13-3.13-.75-.16-2-.66-2.37.32-.29.72.12,1.6.15,2.34a30.83,30.83,0,0,1-.93,7.63c-.47,2.23.32,5.44-1.05,7.25a18.08,18.08,0,0,0-2.21,2.73c-.49,1-.81,2.17-1.76,2.84s-2.15.61-3.15,1.13-1.69,1.46-2.73,1.92c-2,.86-4.16-.36-6-1.51s-4-2.33-6-1.41c-2.09,1-2.64,3.66-4.76,4.67-1.71.81-3,2.05-5,2.1-3.43.09-6.61,1.71-9.45,3.65s.87,7.59,1.51,10c1.27,4.64-.25,10.26,2.89,13.91,1.77,2.07,4.74,3,6,5.42,1.11,2.1.58,4.65.21,7-.33,2.13,1.07,5.91,3.69,4,2.79-2.09,6.93-1.74,9.57-4,.81-.7,1.86-1.63,3-1.49s2.12,1.64,3,2.48c1.47,1.46,5.19,3.34,6.55.84l1.66-3c1.16-2.12,2.42-3.21,4.9-3.18l3.93,0a13.16,13.16,0,0,0,3.71-.13A11.75,11.75,0,0,0,549.53,306Z"/><path class="cls-2" d="M552.7,358.93a21.66,21.66,0,0,1,2.63-5.19c1-1.36,4-2.37,3.09-4.34-1.36-3-4.32-5.35-6-8.26a19.05,19.05,0,0,0-2.8-4.21c-1.36-1.39-3.2-2.26-4.43-3.75-.68-.83-1.15-2-.56-2.94.72-1.11,2.38-.88,3.68-.57,3.54.86,2.36-2.6,2.85-4.6.6-2.43,2.92-2.79,1.72-5.75-.48-1.21-1.27-2.28-1.65-3.52-.6-1.92-.17-4.09-1-5.9-.33-.71-.79-2.1-1.64-2.39-1.24-.43-2.45.77-3.52,1.17-2.77,1-5.62.37-8.46.75-3.47.47-4.84,3-6.38,5.8-1.36,2.49-5.08.62-6.55-.84-2.19-2.17-3.27-3.34-6-1s-6.77,1.94-9.57,4c-.68.51-2.14.68-2.48,1.56-.6,1.58,2.13,2.62,3.06,3.29,2.74,2,4.31,7.43,4.21,10.67-.12,4-2.76,4.69-6,5.65-3.36,1-5.41,4.31-7.15,7.36a75,75,0,0,0-4.61,9c-.35.87-2.2,3.47-1.36,4.41,1,1.14,4.33-.45,5.46-.79,1.89-.56,3.28-1.58,5.81-.84,1.61.48,2.86-.85,4.48,0,4.33,2.29,7.18,6.13,11,9.07a14.7,14.7,0,0,0,7.89,2.73,41.81,41.81,0,0,0,8.43-.46c3.51-.44,4.92-2.31,7.43-4.49a10.82,10.82,0,0,1,5-2.45C551.22,361.75,552.07,360.44,552.7,358.93Z"/><path class="cls-2" d="M489.55,429.19c.53.08,1.1-.21,1.76-1.13a13.29,13.29,0,0,0,1.95-3.73,6.87,6.87,0,0,0-.65-5.92c-1.31-1.86-3.76-2.79-4.72-4.85s1.08-4,2.53-5.17a18.75,18.75,0,0,1,3.76-2.17c1.19-.56,2.47-.68,3.54-1.52s1.93-2.08,2.95-3.06,2.07-1.93,3.11-2.89a5.47,5.47,0,0,1,2.66-1.84c2-.38,4.62,1.53,6.32,2.41,3.91,2,10,3.21,14.08.83a23.2,23.2,0,0,1,2.7-1.82c1.56-.65,3.36-.43,4.89-1.15s1.85-2.15,2-3.59c.23-1.83.19-2.48,1.58-3.82a3.76,3.76,0,0,0,1.09-3.18c-.11-1.18-.88-2.3-.24-3.43a15.67,15.67,0,0,1,3.29-3.7c1-.86,2.51-1.81,2.73-3.21a2.68,2.68,0,0,0-2.23-2.94c-1.68-.17-3.35,1.33-4.92.72-1.36-.54-1.51-1.85-1.33-3.14.15-1.11.17-1.24-1.29-1.32-2.57-.14-4.85.16-7.42-.14a19.49,19.49,0,0,1-9-4.24c-3-2.63-5.53-5.59-9.12-7.49-1.62-.85-2.87.48-4.48,0-2.52-.74-3.91.27-5.8.84a15.83,15.83,0,0,1-3.64.93,13.29,13.29,0,0,0-2.82,0c-1.19.35-2.25,1-3.42,1.42-3.64,1.19-8.73.4-11.59-2.23-1.67-1.53-2.87-2.56-5.07-1.35a25.56,25.56,0,0,1-6.89,2.76,6.17,6.17,0,0,1-4.18-.44c-1.52-.82-2.06-2.36-3.26-3.49a5.93,5.93,0,0,0-6-1.29,1.35,1.35,0,0,0-.57,1.95,15.47,15.47,0,0,1,2.17,8.48c-.23,4.12-2.09,7.95-4.24,11.41-1,1.63-2.15,3.17-3.19,4.78-.87,1.35-1.68,3-3.27,3.61-2.09.8-.25,2.76-.09,4.16.24,2.05-1,3.91-1.74,5.74,1.09,1.46,2.54,1.8,4.33,2.18,3.3.7,6.69,1.62,9.31,3.77a41.86,41.86,0,0,1,5.86,6.6,64.61,64.61,0,0,0,6.31,6.61,49.86,49.86,0,0,0,6.72,5.43c2.59,1.7,5.45,2.77,8.11,4.3,1.34.77,2.74,1.41,4,2.3S488.37,429,489.55,429.19Z"/><path class="cls-2" d="M586,374.33c-.58-.62-2-.63-2.82-1.06a22.62,22.62,0,0,1-4.75-3.17c-2-1.75-3.75-3.87-6-5.39s-5.14-2.38-7.58-1.26c-1,.48,0,1.75-1.5,1.88a8.28,8.28,0,0,1-6.87-2.76,15.08,15.08,0,0,0-1.64-1.84,5.46,5.46,0,0,0-1.41-.63c-1.68-.67-2.57,1.7-4.13,2a10.82,10.82,0,0,0-5,2.45,36.85,36.85,0,0,1-3.69,3.14,9.93,9.93,0,0,1-2.93,1.17c-1.13.3-1.15,1-1.3,2-.18,1.29,0,2.6,1.33,3.14,1.57.61,3.24-.89,4.92-.72a2.68,2.68,0,0,1,2.23,2.94c-.22,1.4-1.76,2.35-2.73,3.21a15.67,15.67,0,0,0-3.29,3.7c-.6,1.06,0,2.33.14,3.43a3.46,3.46,0,0,1-1,3.18c-2.08,2-.85,6.1-3.62,7.41a20.89,20.89,0,0,1-4,.88c-1.47.36-2.35,1.35-3.61,2.09-4.06,2.38-10.17,1.19-14.08-.83-1.7-.88-4.32-2.79-6.32-2.41-1.18.22-2,1.19-2.79,2-1,.91-2,1.89-3,2.87a35.68,35.68,0,0,1-2.72,2.78,9.28,9.28,0,0,1-2.77,1.31,17.27,17.27,0,0,0-4.74,2.56c-1.45,1.15-3.48,3.14-2.53,5.17.84,1.8,2.63,2.82,4,4.19a6.3,6.3,0,0,1,1.37,6.58,8.92,8.92,0,0,1-1.32,2.93c-.5.64-1.58,1.15-1.4,2.11a4,4,0,0,0,2.09,2.42,26.38,26.38,0,0,0,5.13,2.48,18.28,18.28,0,0,0,2.84.76c.71.13,2.17,0,2.48.82.39,1.1.34,2.16,1,3.19a11.51,11.51,0,0,0,2.5,2.71c1.89,1.56,4.07,2.81,5.55,4.75,1.86,2.43,2.38,5.65,4.09,8.18A10.79,10.79,0,0,0,522.8,459c.92.17,1.86-.13,2.77.07s1.82,1.1,2.79,1.5c2.49,1,5.32.78,7.8,1.87,2.18,1,3.9,2.7,5.87,4a63.25,63.25,0,0,0,7,3.66c2.89,1.47,5.79,3.47,6.94,6.51.53,1.4.92,2.76,2.64,2.92a9.82,9.82,0,0,0,2.36-.19c1.52-.24,3.1.06,3.8,1.59s.67,3.54,2.08,4.6a8,8,0,0,1,2.09,1.74c.76,1.12.36,2.58.32,3.83a17.33,17.33,0,0,0,6.17,13.67,5.51,5.51,0,0,0,3.52,1.52,5,5,0,0,0,3.24-1.65,6.4,6.4,0,0,0,2-3.52c.33-2.33-1.19-4.47-1.78-6.75-1.35-5.3,2.43-11.09.51-16.21a31.14,31.14,0,0,1-1.27-3.05c-.67-2.62.78-5.28,2.27-7.54s3.17-4.69,3-7.39c-.29-4.21-3.88-7.61-5.75-11.4-1-1.93-1.94-4-1.76-6.15.3-3.44,3.44-6,4.19-9.4.61-2.73-.44-5.52-1.21-8.22A41.27,41.27,0,0,1,580.8,415c-.15-4.76.44-9.9-2.12-13.92-.92-1.44-2.19-2.63-3.15-4.05a5.56,5.56,0,0,1-1-4.85c.74-2,2.1-3.31,2.39-5.49.25-1.88-.8-3.72,1.43-4.57a16.38,16.38,0,0,0,5-3C584.24,378.28,587.44,375.85,586,374.33Z"/><path class="cls-2" d="M497.83,435.44c-.12-.9-3.33-2.93-4-3.25a26.32,26.32,0,0,1-5.4-3.77,39.54,39.54,0,0,0-6.34-4.57c-2.65-1.4-5.48-2.58-8-4.24a49.86,49.86,0,0,1-6.72-5.43,64.61,64.61,0,0,1-6.31-6.61,41.86,41.86,0,0,0-5.86-6.6c-2.79-2.29-6.37-3.09-9.8-3.94-1.32-.33-2.67-1-4-.67s-2.55,1.72-3.68,2.61c-1.84,1.46-4.12,3-4.26,5.57-.21,4-4.36,3.37-6.93,6.07a23,23,0,0,1-3.08,2.86,7.31,7.31,0,0,0-3,4.18,8.26,8.26,0,0,0,0,3.43c.47,2.31,1.84,4.4,2,6.75.11,2.05-.76,4-1.32,6s-.79,4.28.43,5.93c.93,1.28,2.53,1.89,3.66,3,1.52,1.5,1.95,3.58,2.45,5.58.34,1.4.45,3.12,1.35,4.31,1.54,2.06,2,.14,3.77,0A3.08,3.08,0,0,1,435,454.2c2.07,2.9,2.85,6.52,4.62,9.6s5.28,5.77,8.67,4.68c1.24-.4,2.79-.69,4.13-1,1.56-.4,4-.81,5.49-1.36,2.11-.77,3.74-1,4.37-3.14.38-1.31.78-2.36,2.68-2.22,3.66.28,6.87,1.52,10.62.74,2.92-.61,3.06-6.12,3.62-8.49s3.61-2.31,5.63-3a22.72,22.72,0,0,0,8.29-4.5C496.4,442.6,498.37,439.77,497.83,435.44Z"/><path class="cls-2" d="M429.27,497c-.65-2.36-2.42-4.28-3.13-6.62-1.19-3.87.7-7.94,1-12,.22-2.66-.24-5.43.58-8a18.06,18.06,0,0,0,1.18-3.65c.21-2.13-1.18-4.09-2.73-5.56-3.4-3.23-8.95-5.71-13.71-5.43-1.16.07-1.95.18-2.95-.71s-.9-1.6-1-2.67c-.15-1.61-1.8-2.41-3.39-2.16.16,2,.07,4,.33,6,.74,5.79-1.22,9.59-4.86,13.84-4.28,5-9.51,3.45-15.12,5-3.16.86-4.07,2.67-6.09,4.95-1.13,1.27.09,3.63,1.71,4.17a9.68,9.68,0,0,1,2.64.8,4.23,4.23,0,0,1,1.45,3,16.51,16.51,0,0,0,.6,4.05c1.17,2.87,4.45,5.63,6.71,7.67a21,21,0,0,1,3.06,3.05c.63.87,1.08,1.86,1.73,2.72a3.3,3.3,0,0,0,4.12,1.28c2.73-1.21,4.07-4.36,6.59-6a2.52,2.52,0,0,1,3.55.63c1.37,1.65,1.82,4.2,3.79,5,1,.41,1.71-.83,2.32-1.69,1.12-1.56,2.65-3.36,4.74-3.39a12.3,12.3,0,0,1,2.24.36,4.84,4.84,0,0,0,3.46-.52C429.49,500.33,429.71,498.57,429.27,497Z"/><path class="cls-2" d="M415.05,506.63c-.93-1.92-2.7-5-4.84-5.81s-4,1.24-5.35,3-3.31,3.75-5.37,3a5.23,5.23,0,0,1-1.8-1.41l-8.94-9.47c-1.45-1.53-2.95-3.18-3.35-5.24-.36-1.89.11-4.23-1.39-5.42-1-.76-2.26-.76-3.31-1.34s-1.59-1.57-2.84-1.62-2.95,1.07-4,1.61a29.61,29.61,0,0,0-8.2,6.11c-1.92,2-3.56,4.34-5.8,6-4.18,3.08-9.86,3.46-14.16,6.38-3,2.05-5.73,5.43-9.36,5.06-2.22-.23-4-1.87-5.81-3.18-4.18-3-9.24-4.51-14.18-6l-8-2.36a2.56,2.56,0,0,0-1.61-.1,2.34,2.34,0,0,0-1,1.13c-1.17,2.1-1.7,5.31.43,6.42,1.71.9,3.85-.36,5.71.15s2.78,2.6,2.55,4.45a8.71,8.71,0,0,1-2.72,4.78,4.74,4.74,0,0,0-1.21,1.58c-.62,1.72,1,3.3,2,4.84,3.41,5.4-2.32,10.13-5.68,13.67-4.48,4.72-10.16,9-6.3,15.28,2,3.28,8.57,6.08,10.39,10.42,1.23,2.93,5.72,3.39,8.53,5.1,2.39,1.46,4.95,3.63,7.88,3.74,5.22.19,7.24-8.56,12.46-8.48,1.6,0,3,.94,4.52,1.51s3.43.71,4.48-.51c.78-.91.78-2.29,1.45-3.3,1.1-1.67,3.5-1.73,5.51-1.62,3.12.17,2-3.6,1.13-5.33-.46-.93-1.47-1.44-1.86-2.38-1.05-2.54,6.07-4,7.65-4.62,2.92-1.23,5.58-3.06,8.64-3.94,1.2-.35,2.74-.77,3.93-.24,1.4.62,2,2.4,3.33,3.11,3.24,1.68,7.59-3.28,10.4-.94.94.78,1.21,2.11,1.94,3.09a3.93,3.93,0,0,0,4.67,1.16c1-.48,2-1.52,3.2-1.81,1.59-.4,3.12.42,4.71.37,4.54-.14,6.15-6.4,10.19-8.46,2.3-1.17,5.07-.81,7.57-1.47s4.9-3.45,3.53-5.64-4.86-1.43-6.85-3c-2.28-1.81-1.45-5.35-1.1-8.24A18.09,18.09,0,0,0,415.05,506.63Z"/><path class="cls-2" d="M372.8,654.5c2.57,1.12,4.07,4.24,7,2.74a11,11,0,0,1,13.28,2.85c1,1.28,1.75,2.81,3,3.84s3.22,1.48,4.84,2.19c2.17.94,2.76,2.34,4.1,4.13a7.31,7.31,0,0,0,6,2.59,8.42,8.42,0,0,0,6-2.11c1.45-1.4.05-3.91.64-5.84.48-1.52,1.89-2.39,2.78-3.65,1.3-1.85-.27-2.38-.16-4.19a22,22,0,0,1,.71-2.65c.21-1.16-.3-1.94-.43-3.06-.57-4.82,6.52-5.21,7.81-9.18.85-2.63.57-5.55.34-8.26-.48-5.85-2.66-12,.43-17-.48-3.62-5.72-4.91-6.53-8.47-.43-1.88.54-3.76,1.08-5.61,1.8-6.18-1.18-13.08.95-19.16,1.1-3.12,3.62-3.48,6.58-2.81,6.92,1.55,13.8,3,20.54,5.25a2.55,2.55,0,0,0,3-1,7.25,7.25,0,0,0,.79-3.35c0-2,.2-4.51,2.06-5.26,1.25-.52,2.65,0,3.88-.43a5,5,0,0,0,2.25-2.43,15.26,15.26,0,0,0,2.43-7.08c.06-2.91-2.12-4.7-2.47-7.47-.74-5.76-4.21-10.77-7.74-15.38a7.94,7.94,0,0,1-1.53-2.65c-.52-1.95.53-4,.6-6,.19-4.64-4.62-8.44-4-13-4.71-1.56-6.93-7.61-11.74-8.84a14.17,14.17,0,0,1-9.3-9.66l-.7-3-1.15.77a4.84,4.84,0,0,1-3.46.52,12.3,12.3,0,0,0-2.24-.36c-2.09,0-3.62,1.83-4.74,3.39a5,5,0,0,1-1.24,1.5c-.59.37-.71.95-.79,1.74-.13,1.33.45,2.2.75,3.5a14.84,14.84,0,0,1,.35,5.1c-.35,2.89-1.18,6.43,1.1,8.24,2,1.6,5.49.87,6.85,3s-1,5-3.53,5.64-5.27.3-7.57,1.47c-4,2.06-5.65,8.32-10.19,8.46-1.59,0-3.12-.77-4.71-.37-1.17.29-2.2,1.33-3.2,1.81a3.93,3.93,0,0,1-4.67-1.16c-.73-1-1-2.31-1.94-3.09-2.81-2.34-7.16,2.62-10.4.94-1.37-.71-1.93-2.49-3.33-3.11-1.19-.53-2.73-.11-3.93.24-3.06.88-5.72,2.71-8.64,3.94-1.58.66-8.7,2.08-7.65,4.62.39.94,1.4,1.45,1.86,2.38.87,1.73,2,5.5-1.13,5.33-2-.11-4.41,0-5.51,1.62-.67,1-.67,2.39-1.45,3.3-1,1.22-3,1.08-4.48.51s-2.92-1.48-4.52-1.51c-4.74-.07-7.45,4.86-10.87,7.35-2.73,2,2,3.4,3.34,4.29a10.4,10.4,0,0,1,4.39,4.94,9.25,9.25,0,0,0,.84,2.35,6.16,6.16,0,0,0,3.15,1.87,20.25,20.25,0,0,1,7.17,4.73,5.83,5.83,0,0,1,1.9,3.54c.08,1.88-1.33,3.52-1.63,5.33-.32,2-.05,4.34-.74,6.25s-3.05,4-2.82,6.38c.14,1.37,1.24,2.53,1.72,3.81a15.81,15.81,0,0,1,1,5.22c.06,2.64-1.85,6-.5,8.43,1.13,2,3.74,3,4.37,5.38.73,2.72-.4,4.77,2,6.8,1.59,1.32,3.74,2.16,4.71,4.11s.29,4.22.77,6.3c.79,3.49,4.47,5.46,7.89,6.49A56.49,56.49,0,0,1,372.8,654.5Z"/><path class="cls-2" d="M513.19,621c1.59-1.56-4.19-6.93-5.08-8-2.51-3-5.47-6.32-9.4-6.6a4.37,4.37,0,0,1-2.52-.55c-1.9-1.56.39-4.23.64-6,.19-1.41-.23-3,.43-4.32,2.16-4.29,6.22-5.5,4.29-11.29a11.17,11.17,0,0,0-7.76-7c-2.08-.55-3.12.05-5,.65-1.68.54-2.1,1.09-3.39-.23s-2-4.34-2.8-6a6.7,6.7,0,0,0-2.2-3c-1.84-1.15-4.21-.27-6.32.28s-6.48-2-7.45-1c-1.85,1.8-1.92,4.65-3.5,6.61s-3.46,1-5.54,1.87c-1.86.75-2,3.25-2.06,5.32a4.17,4.17,0,0,1-5.47,3.77c-6.2-1.92-12.52-3.3-18.87-4.72-3-.67-5.48-.31-6.58,2.81-2.13,6.08.85,13-.95,19.16-.54,1.85-1.51,3.73-1.08,5.61.76,3.37,5.5,4.71,6.41,7.91a1.47,1.47,0,0,1-.17,1.06c-2.66,4.9-.6,10.85-.14,16.51.23,2.71.51,5.63-.34,8.26-1.29,4-8.38,4.36-7.81,9.18.13,1.12.64,1.9.43,3.06a22,22,0,0,0-.71,2.65c-.11,1.81,1.46,2.34.16,4.19-.89,1.26-2.3,2.13-2.78,3.65-.59,1.93.81,4.44-.64,5.84.47,1.95,3.46,3,5.28,2.18a19.66,19.66,0,0,0,9.45-9.73c2.29-5.21,6.22-8.35,9.2-1.46a4.82,4.82,0,0,0,5.1,2.91c1.05-.16,1.56-.13,2.08.42,2.83,3,7.88,1.2,9-2.74a7.3,7.3,0,0,1,.52-1.37c1.33-2.61,4.42-3.74,7.28-4.39,6.14-1.4,3.63-5.37,7-9,2-2.2,6.23-1.6,7.74-4.18s2-5,5.78-4.55a10.8,10.8,0,0,1,5.12,2.37c3.06,2.29,2.16-2,1.85-3.31-.61-2.63-.22-5,2.68-6.12,3.47-1.4,7.43.73,11-.38C510.09,630.1,512.46,624.79,513.19,621Z"/><path class="cls-2" d="M634.3,440.73a1.38,1.38,0,0,0,2.3-.11c2.56-4.21,10.13-1.81,13.57.59,4.81,3.34,9.16-1.89,13.63-3.18,2-.58,4-.58,4.08-3.16a8.3,8.3,0,0,0-2.5-5.55c-2.74-2.81-1.2-9.81,1-12.66,1.28-1.63,3.58-2.41,4.8-4.21a7.29,7.29,0,0,0,.5-7.09c-1-1.91-3.71-4-4.44-6.31a1.7,1.7,0,0,0-2.1-1.15c-3.66.94-8.52-2.91-10.06-5.72-1.18-2.18-3-4.76-2.91-6.86a1.69,1.69,0,0,0-1.85-2c-3.41.3-7.82.49-11.06-.88a6.44,6.44,0,0,1-2.58-1.82c-.92-1.14-.89-2.28-2.65-2.47s-2.56-1-4.12-1.52c-2.51-.79-4.78,1.9-7.36,1.3-2.16-.49-2.9-2.64-3.89-4.41-1.64-2.88-3.16-2.4-5.94-3.52-1.27-.52-1.75-1.77-2.65-2.68a6.14,6.14,0,0,0-4.12-1.71c-2.11-.16-6.24,0-6.59-3.08-.26-2.23,2.35-4.31-.69-6.87-3-.11-4.17,3.25-4.52,5.61-.55,3.66-.4,5.91,1.73,9a50,50,0,0,0,5.57,6.89c2.06,2.05,4.47,3.54,6.54,5.62a65.71,65.71,0,0,1,11.06,15.06,69.09,69.09,0,0,1,4.27,9.64c2.14,6,2.46,11.8,3.33,18C627.48,431.06,631.11,436.29,634.3,440.73Z"/><path class="cls-2" d="M621.9,522.93c-.23-2.47.87-4.83,1.8-7.13,1.2-2.93.51-6.07.66-9.14s1.69-5.74,2.34-8.7a30.48,30.48,0,0,0,.1-14.15c-1-3.91-3.33-13.62.43-16.68,2-1.62,5.65-2.18,5.73-5.43,0-1.35-.45-2.66-.35-4,.2-2.63,1.49-5.08,2.17-7.6a27.58,27.58,0,0,0,.67-3.93c.16-1.37.53-2.68-.07-4-1.23-2.69-3.57-4.83-5.09-7.37a25.12,25.12,0,0,1-3.59-9.3c-.87-6.23-1.19-12-3.33-18a69.09,69.09,0,0,0-4.27-9.64A65.71,65.71,0,0,0,608,382.77c-2.07-2.08-4.48-3.57-6.54-5.62a29.07,29.07,0,0,1-4-4.84c-.78-1.21-1.6-4.16-3.32-4.27-.68,0-1.07.5-1.53.9-1.37,1.2-2.74,2.4-4.16,3.54a5.15,5.15,0,0,0-2.05,2.24,9.54,9.54,0,0,1-2.7,4.26,17.63,17.63,0,0,1-5.33,3.11c-2.23.85-1.18,2.69-1.43,4.57-.29,2.18-1.65,3.53-2.39,5.5-1.32,3.55,2.47,6.27,4.13,8.89,2.18,3.42,2.27,7.64,2.27,11.56a54.16,54.16,0,0,0,.64,9.08c.65,3.7,2.82,7.76,2,11.56-.75,3.38-3.89,6-4.19,9.4-.18,2.15.8,4.22,1.76,6.15,1.87,3.79,5.46,7.19,5.75,11.4.18,2.7-1.49,5.13-3,7.39s-2.94,4.92-2.27,7.54c.29,1.14,1.21,2.05,2.32,1.68,1.32-.44,1.63-2.16,2.59-3.17,1.72-1.85,4.45-1,6.45-.2a9,9,0,0,1,4.28,3.06c.89,1.22,1.47,2.6,2.41,3.79a23,23,0,0,0,4.86,4.1c1.94,1.42,2,3.78,2.09,6a20.11,20.11,0,0,0,1.89,7.55,41.55,41.55,0,0,1,2.41,7.61c.54,2.62,1.32,5.37,3.31,7.16,1.53,1.38,1.73,2.58,1.3,4.59-.5,2.34-.79,4.87.15,7.08s3.47,3.91,5.75,3.15C624,526.63,622.06,524.59,621.9,522.93Z"/><path class="cls-2" d="M615.71,524.34c-1.15-3.66,1.55-8.8-1.59-11.77-2.67-2.51-3.17-6.42-4-9.79-1-4.09-2.91-7.91-3.43-12.14-.28-2.26-.09-4.74-2.15-6.25a23,23,0,0,1-4.86-4.1c-2.14-2.7-3.2-5.46-6.69-6.85-1.68-.67-4-1.49-5.71-.42-2,1.25-4.32,4.38-3.94,6.86.72,4.68-2.16,9.79-1,14.51.59,2.28,2.11,4.42,1.78,6.75a6.4,6.4,0,0,1-2,3.52c-1.07,1-2.93,1.1-3.72,2.47-.93,1.59,1.2,3.05,2,4.21a8.69,8.69,0,0,1,1.64,5.11,12.11,12.11,0,0,1-1.62,5.46c-.8,1.5-2.34,3-1.48,4.76.62,1.3,2,2.05,2.81,3.27,1.85,3,2.81,6.58,4.11,9.8s.19,5.27-1.31,8.16c-1.17,2.24-2.84,7.5.34,9.1,1.59.8,3.47-.15,5-1.1a16,16,0,0,0,5-4.25c1-1.51.55-2.87,0-4.49a8.69,8.69,0,0,1,.48-6.88c1.79-3.39,1.85-4.74.4-8.3-1.14-2.79-1.68-7.17-.66-10.05,1.77-4.94,9.67-1,12.2,1.32,1.61,1.44,3.18,3.21,5.31,3.87s4,0,3.17-2.48Z"/><path class="cls-2" d="M595,552.67c-1.75.16-3.24,1.57-4.55,2.69-2.15,1.85-5.95,3.22-7.13-.37-.73-2.23.27-5.1,1.3-7.09,1.5-2.89,2.64-4.86,1.31-8.16s-2.26-6.84-4.11-9.8c-.76-1.22-2.19-2-2.81-3.27-.86-1.81.68-3.26,1.48-4.76a12.11,12.11,0,0,0,1.62-5.46,8.69,8.69,0,0,0-1.64-5.11c-1.18-1.7-1.71-3.59-3.32-5s-4.4-4-6.8-3.18c-3.08,1.06-2.39,6.53-4.06,9-2.15,3.15-5.56,5.2-7.67,8.38-2.73,4.12-2.77,9.46-2.05,14.35a62.83,62.83,0,0,1,.88,6.83,40.24,40.24,0,0,1-.36,5.8l-.92,8.19c-.28,2.54-.72,4.55-.11,7.06,1.14,4.7,3.9,10,2.46,14.89-.82,2.81-3,5-4.55,7.45-2.65,4.18-4.24,9.35-5.88,14-.71,2-2.29,5-.78,6.92s4.15,2.58,4.76,5c.31,1.29-.1,2.89,1.27,3.69,1,.6,2.3.09,3.31.7s1.24,1.89,1.87,2.77a4.66,4.66,0,0,0,4.17,1.64,13.89,13.89,0,0,0,4.44-1.42l12.79-5.76c1.36-.62,2.91.27,4.33-.1,1.7-.43,3-2.33,4-3.62a31,31,0,0,1,9.32-7.76c2.19-1.2,4.61-2.18,6.2-4.12a10,10,0,0,0,2-5.17,15.65,15.65,0,0,0-.74-7.09c-.78-2.25-2.06-4.32-2.62-6.63A11.31,11.31,0,0,1,608,565.87c1.5-.79,3.9-1.56,4.08-3.57.21-2.2-2.38-2.92-4.07-3.35a25.88,25.88,0,0,1-6.94-2.71c-1.67-1-3-3-4.92-3.48A3.41,3.41,0,0,0,595,552.67Z"/><path class="cls-2" d="M547,607.77a1.65,1.65,0,0,1,1.45-.66c1.42.17,3.23,2.64,3.55,3.92s-.1,2.89,1.27,3.69c1,.6,2.35.13,3.36.76s1.19,1.82,1.82,2.71a4.66,4.66,0,0,0,4.17,1.64c2.69-.22,5.09-2,7.52-2.6l9.48-4.46c1.41-.84,3.06.17,4.56-.22,1.7-.43,3-2.33,4-3.62a31,31,0,0,1,9.32-7.76c2.19-1.2,4.61-2.18,6.2-4.12,1.81-.5,2.71-.09,3,1,1.12,3.93-.81,8.17-.27,12.17.44,3.26,2.31,6.21,2.75,9.48.49,3.63-.71,7.19-.49,10.81.21,3.37,1.77,6.52,2.83,9.68,1.72,5.08,2,13.13-5.33,13.06A28.36,28.36,0,0,1,595.61,651c-3.19-1.36-6.35-4.32-10-4.14-1.81.08-3.42.92-5.18,1.25-2,.39-3.44-.13-5.31-.88a32.74,32.74,0,0,0-22.21-.75c-4,1.3-6.92,1.89-11,.32-5.83-2.24-11.68-5.43-14.91-10.78-3.11-5.18,4.91-2.57,6.8-3.28,1.42-.53,2.11-2.1,2.65-3.51,1.43-3.72,2.5-7.62,4.49-11.09,1.05-1.83,2.58-3.32,3.65-5.12C545.21,611.91,545.86,609.07,547,607.77Z"/><path class="cls-2" d="M553.37,478.69c1.3-.5,2.65-.79,3.79.26a2.35,2.35,0,0,0,1.42.6,9.82,9.82,0,0,0,2.36-.19c1.52-.24,3.1.06,3.8,1.59s.67,3.54,2.08,4.6a8,8,0,0,1,2.09,1.74c.76,1.12.36,2.58.32,3.83a17.81,17.81,0,0,0,.73,5.23c.43,1.55,1.33,3,1.51,4.64a2.08,2.08,0,0,1-1.15,2.15c-3.08,1.06-2.39,6.53-4.06,9-2.15,3.15-5.56,5.2-7.67,8.38-2.73,4.12-2.77,9.46-2.05,14.35a48.61,48.61,0,0,1,.52,12.63l-.9,8c-.28,2.41-.71,4.84-.13,7.24,1.14,4.7,3.9,10,2.46,14.89-.82,2.81-3,5-4.55,7.45-2.65,4.18-4.24,9.35-5.88,14-.66,1.9-1.88,4.19-1.06,6.23.22.55,1,1.19.67,1.83s-.92,1.19-1.31,1.84c-.75,1.26-1,2.75-1.78,4-1.07,1.8-2.6,3.29-3.65,5.12-2.21,3.85-3.28,8.23-5,12.3a4.2,4.2,0,0,1-2.51,2.42c-2.66.85-5.72.16-8.34-.92a25.8,25.8,0,0,1-6.8-4.53,25.07,25.07,0,0,1-2.93-3c-.75-.92-2.43-2.51-2-3.72.52-1.45-1.52-3.5-2.36-4.48s-2-2-2.91-3.15a23.43,23.43,0,0,0-5.13-5,10.87,10.87,0,0,0-3.31-1.45c-1.09-.26-2.58,0-3.48-.74-1.27-1-.61-2.66-.1-3.91.83-2,.22-4.51,1.17-6.41,2.08-4.14,5.94-5.41,4.47-10.7a10.9,10.9,0,0,0-6.21-6.94c-3.35-1.46-4.4-.72-6.72,0-1.68.54-2.1,1.09-3.39-.23s-2-4.34-2.8-6c-.63-1.34-1.46-2.79-2.92-3.33-1.79-.67-3.85.16-5.6.61-1.31.33-2.88-.31-4.12-.68a20.75,20.75,0,0,0-2.6-.44c-2.37-.38,2.86-2.81,3.06-3,1.36-1,1.72-2.83,1.66-4.49s-.42-3.35,0-5c.54-2.42,2.6-4.23,4.83-5.3a73.44,73.44,0,0,1,7-2.4,24.83,24.83,0,0,0,13.78-12.48,15.87,15.87,0,0,1,1.93-3.5c1.28-1.53,2.65-1.63,4.46-1.22a1.91,1.91,0,0,0,2.26-1.88,25.48,25.48,0,0,0-.12-2.76,7.65,7.65,0,0,1,3.11-5.61,52.3,52.3,0,0,1,5.61-3.52,27.72,27.72,0,0,0,9.25-9.46,57,57,0,0,1,3.27-5.61c3.17-4.25,8.35-6.37,13.37-8.2a3,3,0,0,0,1.89-2.82,12.1,12.1,0,0,1,2.2-5.8,11.76,11.76,0,0,1,3.85-4.3,32.33,32.33,0,0,1,4.51-1.89Z"/><path class="cls-3" d="M555.94,476.63c.26-2.64-5.13-5.59-6.94-6.51a63.25,63.25,0,0,1-7-3.66c-2-1.33-3.69-3.07-5.87-4-2.48-1.09-5.31-.83-7.8-1.87a21.17,21.17,0,0,0-3.14-1.46c-3.74-.92-6.64-.89-9-4.42-1.71-2.53-2.23-5.75-4.09-8.18-1.48-1.94-3.66-3.19-5.55-4.75-2.3-1.9-2.06-3.69-3.58-5.83-1-1.36-3.84-1.14-5.35-1.7,1.1,5-.92,8.12-4.47,11.3a22.72,22.72,0,0,1-8.29,4.5c-2,.64-5.05.51-5.63,3s-.7,7.88-3.62,8.49c-3.75.78-7-.46-10.61-.74-2.67-.2-2.64,3-4,4.54-.52.59-.81.68-1,1.44,2,3.36-1,7.54,1.18,11.05.62,1,1.59,2.16,1.4,3.52s-1.91,2.28-2,3.85c-.08,2.16,1,3.94.53,6.13s-1.78,4.08-1.55,6.57c.35,3.86-1.77,6.08-2.1,9.7-.39,4.42-8,5.23-7.11,9.64A33.2,33.2,0,0,1,451,522c-.61,4.6,4.2,8.4,4,13-.07,2-1.12,4-.6,6a7.94,7.94,0,0,0,1.53,2.65c3.53,4.61,7,9.62,7.74,15.38.22,1.76,1.56,3.82,2.42,5.68a3,3,0,0,0,5.46-.15c1.18-3-.21-6.1.47-9.1.54-2.42,2.6-4.23,4.83-5.3a73.44,73.44,0,0,1,7-2.4,24.83,24.83,0,0,0,13.78-12.48,15.87,15.87,0,0,1,1.93-3.5c1.75-2.09,5.3-.12,6.39-2.16a4.78,4.78,0,0,0,.29-2.71,7.43,7.43,0,0,1,3-6.6,52.3,52.3,0,0,1,5.61-3.52,27.72,27.72,0,0,0,9.25-9.46,57,57,0,0,1,3.27-5.61c2.38-3.19,5.91-5.16,9.51-6.71,1.72-.74,3.87-1.35,5-2.94,1.46-2,1.56-4.94,2.93-7.17a11.67,11.67,0,0,1,3.85-4.3C550.46,479.65,555.66,479,555.94,476.63Z"/><path class="cls-4" d="M555.94,476.63c.26-2.64-5.13-5.59-6.94-6.51a63.25,63.25,0,0,1-7-3.66c-2-1.33-3.69-3.07-5.87-4-2.48-1.09-5.31-.83-7.8-1.87a21.17,21.17,0,0,0-3.14-1.46c-3.74-.92-6.64-.89-9-4.42-1.71-2.53-2.23-5.75-4.09-8.18-1.48-1.94-3.66-3.19-5.55-4.75-2.3-1.9-2.06-3.69-3.58-5.83-1-1.36-3.84-1.14-5.35-1.7,1.1,5-.92,8.12-4.47,11.3a22.72,22.72,0,0,1-8.29,4.5c-2,.64-5.05.51-5.63,3s-.7,7.88-3.62,8.49c-3.75.78-7-.46-10.61-.74-2.67-.2-2.64,3-4,4.54-.52.59-.81.68-1,1.44,2,3.36-1,7.54,1.18,11.05.62,1,1.59,2.16,1.4,3.52s-1.91,2.28-2,3.85c-.08,2.16,1,3.94.53,6.13s-1.78,4.08-1.55,6.57c.35,3.86-1.77,6.08-2.1,9.7-.39,4.42-8,5.23-7.11,9.64A33.2,33.2,0,0,1,451,522c-.61,4.6,4.2,8.4,4,13-.07,2-1.12,4-.6,6a7.94,7.94,0,0,0,1.53,2.65c3.53,4.61,7,9.62,7.74,15.38.22,1.76,1.56,3.82,2.42,5.68a3,3,0,0,0,5.46-.15c1.18-3-.21-6.1.47-9.1.54-2.42,2.6-4.23,4.83-5.3a73.44,73.44,0,0,1,7-2.4,24.83,24.83,0,0,0,13.78-12.48,15.87,15.87,0,0,1,1.93-3.5c1.75-2.09,5.3-.12,6.39-2.16a4.78,4.78,0,0,0,.29-2.71,7.43,7.43,0,0,1,3-6.6,52.3,52.3,0,0,1,5.61-3.52,27.72,27.72,0,0,0,9.25-9.46,57,57,0,0,1,3.27-5.61c2.38-3.19,5.91-5.16,9.51-6.71,1.72-.74,3.87-1.35,5-2.94,1.46-2,1.56-4.94,2.93-7.17a11.67,11.67,0,0,1,3.85-4.3C550.46,479.65,555.66,479,555.94,476.63Z"/><g id="punticos"><circle class="cls-5" cx="373.27" cy="257.83" r="4.2"/><circle class="cls-5" cx="439.53" cy="482.08" r="4.2"/><circle class="cls-5" cx="352.54" cy="372.24" r="4.2"/><circle class="cls-5" cx="181.91" cy="153.4" r="4.2"/><circle class="cls-5" cx="344.15" cy="452.06" r="4.2"/><circle class="cls-5" cx="405.95" cy="482.29" r="4.2"/><circle class="cls-5" cx="353.45" cy="522.02" r="4.2"/><circle class="cls-5" cx="390.01" cy="590.85" r="4.2"/><circle class="cls-5" cx="461.97" cy="615.65" r="4.2"/><circle class="cls-5" cx="523.31" cy="559.92" r="4.2"/><circle class="cls-5" cx="578.21" cy="579.37" r="4.2"/><circle class="cls-5" cx="582.4" cy="633.2" r="4.2"/><circle class="cls-5" cx="594.49" cy="502.97" r="4.2"/><circle class="cls-5" cx="605" cy="434.22" r="4.2"/><circle class="cls-5" cx="639.91" cy="410.53" r="4.2"/><circle class="cls-5" cx="540.75" cy="425" r="4.2"/><circle class="cls-5" cx="454.09" cy="434.22" r="4.2"/><circle class="cls-5" cx="478.46" cy="387.68" r="4.2"/><circle class="cls-5" cx="474.27" cy="327.97" r="4.2"/><circle class="cls-5" cx="530.3" cy="342.69" r="4.2"/><circle class="cls-5" cx="521.47" cy="293.48" r="4.2"/></g><g class="cls-6"><circle class="cls-7" cx="526.71" cy="492.01" r="46.36" transform="translate(-43.32 933.11) rotate(-80.78)"/><path class="cls-3" d="M526.71,448.07a43.95,43.95,0,1,1-44,43.94,43.95,43.95,0,0,1,44-43.94m0-4.83A48.78,48.78,0,1,0,575.48,492a48.83,48.83,0,0,0-48.77-48.77Z"/></g><g class="cls-8"><path class="cls-9" d="M538.65,500.83c-4.95-2.7-3.6-15.75-3.6-15.75l-7.41.48v-.48l-.79.24-.8-.24v.48l-7.4-.48s1.34,13.05-3.6,15.75-34.18,4-31,34.18h85.66C572.83,504.87,543.59,503.52,538.65,500.83Z"/><path class="cls-10" d="M517.61,497.46q8.88-1.32,17.74-2.73a39.65,39.65,0,0,1-.3-9.65l-7.41.48v-.48l-.79.24-.8-.24v.48l-7.4-.48S519.43,492.66,517.61,497.46Z"/><path class="cls-11" d="M509,501.21l19.66,16.05L527.5,535H481.76S478.26,506.26,509,501.21Z"/><path class="cls-11" d="M544.43,501.21,526,518.27l.08,16.74,45.6,0S575.15,506.26,544.43,501.21Z"/><path class="cls-12" d="M507.14,519.37a33,33,0,0,0,1.12-18c1.46-.18,2.83-.33,4-.46.05,4.93.28,9.95,2.18,14.57a22.44,22.44,0,0,0,2.33,4.29l22,.37a23.71,23.71,0,0,0,2.3-4.24c1.9-4.62,2.13-9.64,2.18-14.57,1.21.13,2.57.27,4,.46a33.09,33.09,0,0,0,1.11,18l10.46,15.38-60.66-.23Z"/><path class="cls-13" d="M510.53,513.45l13.85.12-9.2-13.6a34.37,34.37,0,0,0-4.88,1.11C509.66,501.48,510.53,513.45,510.53,513.45Z"/><path class="cls-13" d="M545.44,514.16,531,513.47l9.78-12.87s4.48.4,5.11.8S545.44,514.16,545.44,514.16Z"/><path class="cls-10" d="M512.36,466c-1.46-4.52-4.91-3.48-5.23-3.37s-3.91.57-3.29,5.28,3.37,7.31,6,6.56C512.44,474,513.83,470.54,512.36,466Z"/><path class="cls-10" d="M541.47,466c1.45-4.52,4.91-3.48,5.23-3.37s3.91.57,3.29,5.28-3.37,7.31-6,6.56C541.39,474,540,470.54,541.47,466Z"/><path class="cls-9" d="M509,458.88c1.36-19.86,16.64-18.1,18.29-18.57,1.78.5,16.21-1.23,18.3,18.57,2.67,25.26-7.29,30.87-18.53,30.15C515.78,489.75,507.14,485.07,509,458.88Z"/><path class="cls-14" d="M508.67,468.44c-2.07-27.43,12.94-28,18.39-28.22,4.69-.12,20.29.91,18.93,28.1l-1.84-.78s3.42-24.28-16.43-24.31c-19.43,0-17.54,24.38-17.54,24.38Z"/><path class="cls-15" d="M508.73,461.45l4.74,3.74,11.9.38s3.06-4.41,5.62,0h12.27L547,462"/><ellipse class="cls-16" cx="519.24" cy="465.57" rx="6.13" ry="6.28"/><ellipse class="cls-16" cx="537.13" cy="465.57" rx="6.13" ry="6.28"/><path class="cls-17" d="M527.51,474.94a7,7,0,0,1,1.46-1.55,9.58,9.58,0,0,1,1.76-1.13l-.16.36-.47-5.57c-.13-1.86-.28-3.72-.38-5.59.32,1.84.58,3.69.86,5.53l.76,5.55,0,.18-.19.18a10.71,10.71,0,0,1-1.68,1.24A7.09,7.09,0,0,1,527.51,474.94Z"/><path class="cls-7" d="M534.81,478.5c-3.59,3.49-9.18,3.26-13.78.15"/><g class="cls-18"><path class="cls-19" d="M541.34,460a19.89,19.89,0,0,0-5.06-1.49,6.54,6.54,0,0,0-2.3.2,12.58,12.58,0,0,0-1.26.38c-.45.15-.87.38-1.42.52a5.9,5.9,0,0,1,.71-1.42,5.08,5.08,0,0,1,1.18-1.13,4.78,4.78,0,0,1,3.28-.87,5.68,5.68,0,0,1,3.07,1.24A5.24,5.24,0,0,1,541.34,460Z"/></g><g class="cls-18"><path class="cls-19" d="M524.4,459.61a20.8,20.8,0,0,0-5.34-1.14,6.91,6.91,0,0,0-2.39.36c-.43.09-.82.32-1.29.47s-.87.44-1.42.61a6,6,0,0,1,.68-1.48,5.07,5.07,0,0,1,1.15-1.21,5.13,5.13,0,0,1,3.29-1.08,6,6,0,0,1,3.23,1A5.55,5.55,0,0,1,524.4,459.61Z"/></g><path class="cls-20" d="M522,467.18a5.79,5.79,0,0,0-1.11-2.25,2.62,2.62,0,0,0-2-.95,2.34,2.34,0,0,0-2,.85,4.89,4.89,0,0,0-.81,2.35,3.75,3.75,0,0,1,.36-2.65,2.62,2.62,0,0,1,1.08-1,3.5,3.5,0,0,1,1.42-.26,2.94,2.94,0,0,1,2.45,1.31A4.22,4.22,0,0,1,522,467.18Z"/><path class="cls-20" d="M538.84,466.91a5.7,5.7,0,0,0-1.11-2.26,2.61,2.61,0,0,0-2-.94,2.35,2.35,0,0,0-2,.85,4.89,4.89,0,0,0-.81,2.35,3.7,3.7,0,0,1,.37-2.65,2.54,2.54,0,0,1,1.07-1,3.37,3.37,0,0,1,1.42-.26,2.94,2.94,0,0,1,2.45,1.3A4.25,4.25,0,0,1,538.84,466.91Z"/></g><g class="cls-6"><path class="cls-7" d="M421.37,343.85a43.47,43.47,0,1,1,43.48-43.47A43.52,43.52,0,0,1,421.37,343.85Z"/><path class="cls-3" d="M421.37,259.17a41.21,41.21,0,1,1-41.21,41.21,41.21,41.21,0,0,1,41.21-41.21m0-4.53a45.74,45.74,0,1,0,45.74,45.74,45.79,45.79,0,0,0-45.74-45.74Z"/></g><g class="cls-21"><rect class="cls-22" x="416.56" y="258.76" width="3.68" height="102.35"/><rect class="cls-23" x="397.62" y="330.06" width="40.85" height="3.71"/><polygon class="cls-22" points="413.91 270.97 394.35 361.1 398.04 361.1 417.59 270.97 413.91 270.97"/><polygon class="cls-22" points="422.89 270.97 419.21 270.97 438.77 361.1 442.45 361.1 422.89 270.97"/><rect class="cls-24" x="385.12" y="263.8" width="66.56" height="48.85"/><rect class="cls-25" x="410.36" y="309.93" width="15.7" height="2.71"/><rect class="cls-26" x="437.59" y="295.68" width="10.18" height="12.79"/><polygon class="cls-7" points="442.45 308.48 389.62 308.48 389.62 267.09 447.77 267.09 447.77 296.41 442.45 308.48"/><path class="cls-27" d="M447.77,296.41,440,304.33c2.91-.07,3.3,2.24,2.46,4.15Z"/><g class="cls-28"><g class="cls-28"><path class="cls-29" d="M431.59,271.2c-.54-1-3.55-.31-4-.4-1-.12-2.87.89-4.44,2s-2.89,2.18-3,1.95c-.21-.72-3-3.21-3.72-3.06a4.61,4.61,0,0,0-2.24,1.11,6.31,6.31,0,0,0-1.45,2.17c-.37.77-.29,1.12-.61,1.17a8.41,8.41,0,0,1-.2,2.39c-.29.69-1.06,1-1.25,1.68-.55,1.13-2.84,3.69-3.49,4.7a8.39,8.39,0,0,1-3.44,3.67,4.39,4.39,0,0,0-1.47,1.11,12,12,0,0,1-1.24,1.39,31.29,31.29,0,0,0-2.37,3,8.94,8.94,0,0,0-1.34,1.49,8.62,8.62,0,0,0-1.08,1.77,1.15,1.15,0,0,0,0,.58c.06.18-.14.5-.18.69-.73.95-1.72,1.76-2,2.94-.07.32.08.86.4.85a12.17,12.17,0,0,0,4.23-1,5.64,5.64,0,0,0,2.32-2.27c1.06-1.18,3.11-1.11,5-.57,1.45.43,3.34,1.47,3.87.66a9.83,9.83,0,0,0,.64-1.73,2.07,2.07,0,0,1,1.31-1.27,15,15,0,0,0,2.74-.69,3.33,3.33,0,0,0,.85-.22c.77-.74,2-1,1.91-2.56.8-1,1.6-.88,2-2.19.51-1.67,1-3.62,2.33-4.58a5.4,5.4,0,0,1,2.38-1.13,7.49,7.49,0,0,1,2.3.95c.85.47,1.51-.34,1.89-1.1a8.69,8.69,0,0,1,2.28-3.29c.39-.21.88,0,1.35-.16,1.05-.5,1.6-1.6,2.47-2.31a11.22,11.22,0,0,0,2.79-1.74c.31-.33.18-.45.27-.42.38-.11.72.59,1.22.62a2.19,2.19,0,0,0,1.52-1.16c1-1.43,2.32-3,4.07-2.62-.13-.14-.21-.35-.32-.35-2.43-.44-4.65-1.75-7.06-1a3,3,0,0,1-.74.51,9.09,9.09,0,0,0-1.39.51C433.92,273.49,432.07,272.1,431.59,271.2Z"/><path class="cls-30" d="M401,299a5.73,5.73,0,0,1-2.33,2.27,12.17,12.17,0,0,1-4.23,1c-.32,0-.47-.53-.39-.86.24-1.17,1.24-2,2-2.93,0-.2.24-.52.18-.7a1.15,1.15,0,0,1,0-.58,8.13,8.13,0,0,1,1.08-1.76,8.22,8.22,0,0,1,1.34-1.49,33.1,33.1,0,0,1,2.37-3,11.36,11.36,0,0,0,1.25-1.39,4.67,4.67,0,0,1,1.47-1.11,8.31,8.31,0,0,0,3.44-3.66c.66-1,2.95-3.58,3.5-4.71.2-.72,1-1,1.26-1.68,0,0,.66.26,1.95.64-.54.8-1,1.65-1.52,2.5s-.94,1.68-1.38,2.52a45.55,45.55,0,0,0-2.19,5.16A32.48,32.48,0,0,0,401,299Z"/><path class="cls-31" d="M412.66,279.59a6.19,6.19,0,0,1,.44-.68,9.36,9.36,0,0,1,1.09-1.27c.85-.81,1.83-1.26,2.28.17,0,0,0,2.07-.18,4.25a23.94,23.94,0,0,1-.42,3.13,3.27,3.27,0,0,1-.95,2,14.63,14.63,0,0,0-1.95,1.62,3.63,3.63,0,0,0-1.1.17,3.41,3.41,0,0,0-1,.46,3.15,3.15,0,0,0-.81,1l-.67.91c-.42.52-.88,1.29-1.39,2s-1,1.46-1.42,2-.82.85-1.09.79c0,0-.49.46-1.12.95-.31.24-.68.49-1,.7a2.46,2.46,0,0,1-.87.44,4.93,4.93,0,0,0-1.23.1,3.05,3.05,0,0,0-.95.36,1.34,1.34,0,0,0-.57.77s-.91.68-1.77,1.2-1.56.86-1.36-.28a4.43,4.43,0,0,1,0-.78,9,9,0,0,1,.2-1.29l.21-.37a8.52,8.52,0,0,1,.59-.94l.93-1.27a11,11,0,0,1,1.14-1.39c1.6-1.88,3.61-3.37,4-3.36,0,0,.13-.1.37-.25s.59-.38,1-.68.87-.65,1.37-1.06a19.75,19.75,0,0,0,1.61-1.31c.27-.25.53-.51.8-.78s.55-.53.81-.81a11.13,11.13,0,0,0,1.43-1.87A8.5,8.5,0,0,0,412.66,279.59Z"/><path class="cls-32" d="M412.39,278.8a6.91,6.91,0,0,1,.88-2c.62-.92,1.6-1.76,2.89-1a14.18,14.18,0,0,1,2.74.5c1.33.39,2.52,1.1,2.25,2.21a46.57,46.57,0,0,1-1.44,4.58c-.87,2.47-2,5.15-3.65,6.48a.69.69,0,0,0-.21.29,3,3,0,0,0-.27,1.32,4.42,4.42,0,0,1-.75,1,1.91,1.91,0,0,1-2,.57,13.21,13.21,0,0,0-1.76.23,3.34,3.34,0,0,0-2.24,1.16,3.26,3.26,0,0,0-.79,0c-.42.07-.83.27-.84.72l.11-.29a5.32,5.32,0,0,1,.36-.74,21.26,21.26,0,0,1,1.33-2.24,15.5,15.5,0,0,1,1.82-2.09c.64-.51,1.21-.79,1.6-.64a2.33,2.33,0,0,0,.56-.18,4.53,4.53,0,0,0,1.22-.84c.93-.83,1.8-2.52,2.15-5.65a7,7,0,0,0-.83-1.93A2.86,2.86,0,0,0,412.39,278.8Z"/><path class="cls-33" d="M412.77,274a15.56,15.56,0,0,1,.86-2.27c.23-.31.73-.47,1.06-.72a2.54,2.54,0,0,1,1.5-.25c2,.36,4.51-.54,6.38.4a1.21,1.21,0,0,0,.72.05c0-.09.25-.28.29-.36a18.44,18.44,0,0,0,2-.78,3.94,3.94,0,0,1,3.45,0,19.8,19.8,0,0,0,2.09.35c1.2.19,1.74,1.88,2.81,1.87,1.74.19,2.87-1.31,4.59-1.26a11.28,11.28,0,0,1,2.87.54c.75.4,1.52.57,2.29.89a2.08,2.08,0,0,1,.71.77c0,.22-.44.17-.65.32-.59.4-1.07-.38-1.56-.64s-1.26.07-1.95.11a2.59,2.59,0,0,1-.86-.39c-.45-.33-.91.09-1.4.35-.58.43-1.4,0-2.07.21-.9.23-1.41,1.29-2.26,1.13.74.19-2.69.9-2.06.51-.05.08-.33-.17-.44-.38s-.13-.34-.08-.42c.34-.64.06-1.48,0-2.21a8.73,8.73,0,0,1-2.8,0,3.46,3.46,0,0,0-2-.56c-.16.1-.14.47-.3.57a21.9,21.9,0,0,0-2.32,2.34c-1,1.15-2.07,2.27-2.38,2.28s-1-.35-1-.71c-.32-1-1.07-1.12-1.62-1.79-.13-.19-.1-.5-.23-.69-.42-.48-1.05-1-1.5-.91a3.1,3.1,0,0,0-2.19.69C414,273.35,413.41,273.7,412.77,274Z"/><path class="cls-34" d="M410.25,298.32a2.6,2.6,0,0,1,.37-1.17A2.7,2.7,0,0,1,413,296s.45-.09.9-.22a2.17,2.17,0,0,0,1-.44c.2,0,.38-.06.59-.07a6,6,0,0,0,1-.78,2.13,2.13,0,0,0,.83-1.72s.84-1,1.13-.95a1.48,1.48,0,0,0,.49-.48,5.15,5.15,0,0,0,.71-2.06"/><path class="cls-35" d="M426.39,269.13a14.87,14.87,0,0,1,4.3.66,39.89,39.89,0,0,1,3.88,1.92.3.3,0,0,0,.35-.09c.51-.73,1.42-.53,2-1,.26-.18.45-.49.76-.52a8.88,8.88,0,0,1,4.84,1.13,22.22,22.22,0,0,1,1.9,1.35c.13.14.33.27.35.47s-.22.11-.34.19-.35-.25-.59-.34c-.44-.21-.93-.14-1.34-.41a12.64,12.64,0,0,0-1.31-.7,2.85,2.85,0,0,0-.91-.09,8.92,8.92,0,0,0-3.27.32c-.3.62-1,.4-1.53.49a2.27,2.27,0,0,1-.52-.09c-.47.05-.89.37-1.29.1a11.12,11.12,0,0,0-2.58-1.64,16.81,16.81,0,0,0-4.49-.78c-1,0-1.78.66-2.71.79C423.79,270.94,424,269.44,426.39,269.13Z"/></g></g><g class="cls-28"><g class="cls-28"><path class="cls-36" d="M402.93,302.65c.35.58,2.75.09,3.11.21a12.61,12.61,0,0,0,3.84-.88,10.22,10.22,0,0,1,2.83-.77c0,.43,1.45,2.35,2,2.39a5.35,5.35,0,0,0,3.7-1.12c.54-.34.6-.56.85-.52s.32-.81,1-1.29c.48-.3,1.15-.26,1.58-.61.86-.52,3.69-1.25,4.66-1.65a10.67,10.67,0,0,1,4.3-1,13.44,13.44,0,0,0,3.21-.64,23.34,23.34,0,0,0,3.23-1.2,9.52,9.52,0,0,0,1.69-.69c.27-.15.55-.3.82-.47s.52-.39.79-.61a1.56,1.56,0,0,0,.3-.42c0-.15.31-.38.42-.53s.45-.34.68-.5l.64-.54a4.77,4.77,0,0,0,.6-.59,4,4,0,0,0,.43-.73c.14-.29.2-.77,0-.77a6.43,6.43,0,0,0-1.52.24c-.25.06-.48.14-.72.21l-.75.21a2.82,2.82,0,0,0-.61.27,4.3,4.3,0,0,0-.59.34,11.39,11.39,0,0,1-1.18.76,3.31,3.31,0,0,1-3.55-.66c-.36-.31-.74-.74-1.12-1a1.2,1.2,0,0,0-1.22-.32c-1,.48-2,1.4-3.38,1.26a18.38,18.38,0,0,0-2.76-.32,6.13,6.13,0,0,0-.91-.11c-1.09.26-2.47.09-3.19,1-1.26.4-2,.13-3,.78a12.16,12.16,0,0,1-4.14,2.17,9.5,9.5,0,0,1-2.64.28,9.23,9.23,0,0,1-1.9-.83c-.68-.39-1.62.06-2.21.48a13.17,13.17,0,0,1-3,1.95c-.43.13-.87,0-1.36.1a13.9,13.9,0,0,0-2.74,1.64,9.56,9.56,0,0,0-2.76,1.55c-.28.27-.17.32-.25.32-.35.16-.68-.23-1.16-.09a2.72,2.72,0,0,0-1.36,1.18,8.23,8.23,0,0,1-3,3.32c.13,0,.24.09.33,0,2-.94,3.88-.86,5.77-1.79a3.61,3.61,0,0,1,.6-.45c.41-.17.78-.35,1.15-.52A2.88,2.88,0,0,1,402.93,302.65Z"/><path class="cls-37" d="M438.23,291.77a10.41,10.41,0,0,0,1.18-.76,4.42,4.42,0,0,1,.6-.34,2.82,2.82,0,0,1,.61-.27,12.75,12.75,0,0,1,3-.65c.21,0,.15.48,0,.77a4,4,0,0,1-.43.73,4.85,4.85,0,0,1-.61.59c-.21.19-.42.37-.64.54s-.46.32-.68.49-.38.39-.42.54a1.7,1.7,0,0,1-.3.41c-.27.22-.53.43-.8.62s-.54.32-.82.46a8.57,8.57,0,0,1-1.69.69,23.34,23.34,0,0,1-3.23,1.2,13.92,13.92,0,0,1-3.22.64,10.47,10.47,0,0,0-4.3,1c-1,.4-3.8,1.13-4.65,1.66-.43.34-1.11.3-1.59.6a13.3,13.3,0,0,0-1.26-.79c2.86-1.38,5.77-2.75,8.49-4.3a41.64,41.64,0,0,0,5.74-1.32A15.72,15.72,0,0,0,438.23,291.77Z"/><path class="cls-38" d="M420.13,299.91s-3.83,2-3.59.17a22,22,0,0,1,1.66-2.35c1-1.2,2.23-2.43,3.33-2.58,0,0,1.6-.21,2.41-.41a4.74,4.74,0,0,0,3.17-.13s1.62-.51,3.22-1.06,3.11-1.17,3.42-.95l.4-.08c.23-.06.55-.14.91-.21a8.85,8.85,0,0,1,1.83-.3,3.34,3.34,0,0,0,.85.18,1.87,1.87,0,0,0,1.51-.53l.52-.23c.3-.14.74-.29,1.07-.48.7-.35,1.33-.57.78.34a4.4,4.4,0,0,1-.31.64c-.21.34-.48.74-.68,1a2.21,2.21,0,0,1-.31.24l-.85.59c-.35.23-.8.45-1.26.71s-1,.43-1.51.65a12.87,12.87,0,0,1-4.58.92s-2.28.18-4.9.61S421.6,297.92,420.13,299.91Z"/><path class="cls-39" d="M420,300.41s-2.41,2.2-3.94.92a14.9,14.9,0,0,1-2-.78c-.92-.45-1.73-1.05-1.17-1.65a21.91,21.91,0,0,1,2.73-2.42,14.52,14.52,0,0,1,6-2.86,2.52,2.52,0,0,0,1.23-.79,6.65,6.65,0,0,1,1.22-.38,2.64,2.64,0,0,1,2,.19s.72.2,1.59.34a5,5,0,0,0,2.43-.05,2.6,2.6,0,0,0,.62.19,1.21,1.21,0,0,0,1-.18s-.36.2-1,.46a22.78,22.78,0,0,1-2.27.88c-1.75.56-3.68,1-4.16.59a5.27,5.27,0,0,0-2,.1,7.84,7.84,0,0,0-4.22,2.66A2.06,2.06,0,0,0,420,300.41Z"/><path class="cls-40" d="M418.08,303a13.79,13.79,0,0,1-1.32,1.08,6.59,6.59,0,0,1-1,.22,2.5,2.5,0,0,1-1.15-.14c-1.38-.61-3.44-.4-4.66-1.17a1.14,1.14,0,0,0-.54-.11c-.05.05-.24.14-.29.19a14.28,14.28,0,0,0-1.68.32,4.28,4.28,0,0,1-2.64-.14,10.45,10.45,0,0,0-1.6-.17c-.91-.06-1.29-1.09-2.16-1a4,4,0,0,0-1.87.69,6.75,6.75,0,0,1-1.76.88c-.41.08-.76.21-1.13.3s-.75.18-1.14.27a8.48,8.48,0,0,0-1.91.44,1.39,1.39,0,0,1-.73-.08c0-.14.3-.31.42-.51.36-.53.93-.29,1.36-.33a9.81,9.81,0,0,0,1.54-.79,2.26,2.26,0,0,1,.74,0c.39.06.74-.28,1.13-.57s1.17-.28,1.71-.54c.74-.3,1.24-1,2-1-.63-.06,2.42-.74,1.83-.45,0-.05.27.1.34.22s.07.21,0,.26c-.36.4-.2.91-.24,1.36a7.23,7.23,0,0,1,2.25,0,3.11,3.11,0,0,0,1.54.43c.14-.05.18-.28.33-.33s1.2-.65,2.3-1.21a9.9,9.9,0,0,1,2.5-1.06c.31.08.71.34.65.56,0,.62.54.83.78,1.31.05.13-.06.31,0,.44a1.42,1.42,0,0,0,.88.78,3.22,3.22,0,0,0,1.82,0Z"/><path class="cls-41" d="M431.59,290.15a3.59,3.59,0,0,1-1,.58,4.87,4.87,0,0,1-1.19.26,4.34,4.34,0,0,1-1.48-.19,10.68,10.68,0,0,0-2.07-.13l-.58-.11s-.65.06-1.39.19-1.51.37-1.73.74a5.41,5.41,0,0,1-1.54.29,3.93,3.93,0,0,0-2.35,1.16"/><path class="cls-42" d="M406.74,303.93a24.27,24.27,0,0,1-3.2-.45l-1.48-.47-1.51-.43a.33.33,0,0,0-.28.09c-.4.54-1.11.56-1.53.93-.18.16-.3.39-.53.47a17.55,17.55,0,0,1-3.77.79c-.55.08-1.11.05-1.73.12-.14,0-.33,0-.39-.09s.13-.16.21-.27.33,0,.53-.1c.4-.09.73-.38,1.12-.38s.75,0,1.14-.1a6,6,0,0,0,.71-.25c.88-.33,1.73-.63,2.56-1,.22-.43.83-.43,1.23-.57a1.55,1.55,0,0,1,.44,0c.38-.09.73-.35,1.06-.21a12.13,12.13,0,0,0,2,.85,30.81,30.81,0,0,0,3.41.5c.76,0,1.47-.27,2.21-.3C409,303,408.54,303.88,406.74,303.93Z"/></g></g><path class="cls-43" d="M440.38,288.48l1.93-3.25a3.07,3.07,0,0,0-.84-4.09l-.05,0a2.71,2.71,0,0,0-3.85,1l-1.93,3.25C434.08,288.19,438.08,291.35,440.38,288.48Z"/><path class="cls-43" d="M443.62,291.72l1.43-2.68a2.61,2.61,0,0,0-1-3.39l0,0a2.29,2.29,0,0,0-3.26.79l-1.42,2.69C437.82,291.72,441.82,294.44,443.62,291.72Z"/><path class="cls-44" d="M436.61,284.65l2.72-5c.83-1.4.57-2.22-.73-3.08l-.16-1.05a2.72,2.72,0,0,0-3.85,1l-2.73,5C430.3,284.36,434.31,287.52,436.61,284.65Z"/><path class="cls-45" d="M449.87,274.75l-9-3.52a5.75,5.75,0,0,0-5,.4L430,275.07c-3.68,2.45-.67,7.15,2.79,5,.38-.18,5.81-3.51,8.31-5l2.75,3Z"/><path class="cls-46" d="M425.57,278a6.32,6.32,0,0,0-5.24-.55,9.59,9.59,0,0,0-4.38,3.11,11.54,11.54,0,0,1-1.18,1.34,4.14,4.14,0,0,1-4.34.64,5.56,5.56,0,0,0,3.46,2.05,13.41,13.41,0,0,0,4.1,0,13,13,0,0,0,5.23-1.39,5.29,5.29,0,0,0,2.84-4.37,1.07,1.07,0,0,0-.1-.5A1,1,0,0,0,425.57,278Z"/><path class="cls-47" d="M424.27,278.6l-.46-.14a4.3,4.3,0,0,0-1.27-.18c-.27,0-.56.05-.87.08a7.5,7.5,0,0,0-.94.27,7.29,7.29,0,0,0-.93.46,7.7,7.7,0,0,0-.89.6c-1.14.86-2,1.94-2.79,2.61a3.43,3.43,0,0,1-.55.4,1.2,1.2,0,0,1-.48.2c-.14.05-.25,0-.33,0h-.13l.12,0c.07,0,.19.11.35.08a1.21,1.21,0,0,0,.56-.11,2.77,2.77,0,0,0,.66-.34c.89-.6,1.87-1.59,2.95-2.41a7.52,7.52,0,0,1,.82-.57,7.08,7.08,0,0,1,.84-.47c.29-.12.57-.24.84-.33s.54-.14.79-.18l.68-.05a4.53,4.53,0,0,1,.55,0Z"/><path class="cls-47" d="M416.55,283.4l.43.06a2.49,2.49,0,0,0,.51-.11,2.35,2.35,0,0,0,.59-.3c.81-.54,1.62-1.5,2.57-2.22a8.72,8.72,0,0,1,.72-.52c.27-.12.5-.3.76-.39a5.87,5.87,0,0,1,1.46-.47,7.25,7.25,0,0,1,1.1-.16l.42-.05-.42-.07a5.44,5.44,0,0,0-1.14-.05,5.6,5.6,0,0,0-1.61.32,5.43,5.43,0,0,0-.85.39,7,7,0,0,0-.8.54,28.58,28.58,0,0,0-2.41,2.42,4.46,4.46,0,0,1-.48.37,2.93,2.93,0,0,1-.42.19Z"/><path class="cls-47" d="M419.79,282.91l.25-.09a5.22,5.22,0,0,1,.66-.21,18.85,18.85,0,0,0,2.06-.54,3.51,3.51,0,0,0,.55-.27,2,2,0,0,0,.49-.36,1.64,1.64,0,0,0,.37-.41,2.54,2.54,0,0,0,.27-.43c.28-.55.25-.57.28-.55s-.09-.33-.17-.19a3.21,3.21,0,0,1-.39.56,1.46,1.46,0,0,1-.3.31,2.21,2.21,0,0,1-.39.31,2.09,2.09,0,0,1-.43.27c-.15.09-.32.14-.49.22-.34.13-.7.24-1.05.37a9.26,9.26,0,0,0-.93.4,2.75,2.75,0,0,0-.59.42Z"/><path class="cls-48" d="M464.85,263.76l-26,7.68a1.12,1.12,0,0,0-.75,1.53l1,3a1.13,1.13,0,0,0,1.65.6l25-10.24a1.32,1.32,0,0,0,.79-1.56v0A1.33,1.33,0,0,0,464.85,263.76Z"/><path class="cls-49" d="M438.86,271.44l-14.46,6a4.08,4.08,0,0,0,1.18,3.41L441,276.8C440,275.87,438.33,273.44,438.86,271.44Z"/><path class="cls-50" d="M425.14,278.64a2.25,2.25,0,0,1-.21-1.08l12.87-5.32a5.13,5.13,0,0,0,.36,1.92Z"/><path class="cls-51" d="M449.94,274.71s-10.83.75-18-2.19c-1.51-.61-4.07-1.24-4.61.15,0,0-1.7,3.09,3.15,5,2.64,1.05,4.41,1.16,6.78,2.17a2.6,2.6,0,0,1,1.53,2.33c.1,2.89,1.11,5.51,2.89,8.75,3.18,5.79,7.2,6.51,7.2,6.51L455.6,306l8.57-6.76-6.77-8.57h0S456.49,276.91,449.94,274.71Z"/><polygon class="cls-52" points="472.94 306.8 460.61 316.53 451.67 305.19 462.28 293.29 472.94 306.8"/></g></g></g></svg>