<svg xmlns="http://www.w3.org/2000/svg" xmlns:xlink="http://www.w3.org/1999/xlink" viewBox="0 0 613.67 680.28"><defs><style>.cls-1,.cls-4{fill:none;}.cls-2{isolation:isolate;}.cls-3{fill:#8da658;}.cls-4{stroke:#fff;stroke-linecap:round;stroke-linejoin:round;stroke-width:1.5px;}.cls-5{fill:#a3bf65;}.cls-6{fill:#3d3d3d;}.cls-7{opacity:0.55;}.cls-8{fill:#fff;}.cls-9{clip-path:url(#clip-path);}.cls-10,.cls-11{fill:#e49273;}.cls-11,.cls-18{opacity:0.6;}.cls-11,.cls-18,.cls-47,.cls-52,.cls-53{mix-blend-mode:multiply;}.cls-12{fill:#b70051;}.cls-13{fill:#d54588;}.cls-14{fill:#ed5c9d;}.cls-15{fill:#cc7e66;}.cls-16{fill:#2b1200;}.cls-17{fill:#1e0e00;}.cls-19{fill:#352c38;}.cls-20{clip-path:url(#clip-path-2);}.cls-21{fill:#0c9b14;}.cls-22{fill:#32b839;}.cls-23{fill:#ffcb86;}.cls-24{fill:#3fbf46;}.cls-25{fill:#cc7a0a;}.cls-26{fill:#f89f26;}.cls-27{fill:#ffaf42;}.cls-28{fill:#db8816;}.cls-29{fill:#cc2e0a;}.cls-30{fill:#f84d26;}.cls-31{fill:#ff6542;}.cls-32{fill:#db3b16;}.cls-33{fill:#0a5bcc;}.cls-34{fill:#267ef8;}.cls-35{fill:#4291ff;}.cls-36{fill:#005bdb;}.cls-37{fill:#9d4108;}.cls-38{fill:#c9601f;}.cls-39{fill:#d07136;}.cls-40{fill:#ac4d11;}.cls-41{fill:#1a2e35;}.cls-42{fill:#375a64;}.cls-43{fill:#ff735d;}.cls-44{clip-path:url(#clip-path-3);}.cls-45{fill:#ffdeff;}.cls-46{fill:#ffbfff;}.cls-47{fill:#ff6883;}.cls-47,.cls-52,.cls-53{opacity:0.5;}.cls-48{fill:#ff679b;}.cls-49{fill:#ffbf00;}.cls-50{fill:#f4d5f6;}.cls-51{fill:#bf8063;}.cls-52{fill:#dcb68d;}.cls-53{fill:#c09873;}</style><clipPath id="clip-path" transform="translate(0 -5.29)"><path id="SVGID" class="cls-1" d="M414.61,92a65.63,65.63,0,1,1-131.26,0c0-36.24,29.39-92,65.63-92S414.61,55.78,414.61,92Z"/></clipPath><clipPath id="clip-path-2" transform="translate(0 -5.29)"><path id="SVGID-2" data-name="SVGID" class="cls-1" d="M212,305.34a65.63,65.63,0,1,1-131.25,0c0-1.32-32.43-35.77-32.39-37.16,1-36.74,47.42-62.9,82.35-62.9C167,205.28,212,269.1,212,305.34Z"/></clipPath><clipPath id="clip-path-3" transform="translate(0 -5.29)"><path id="SVGID-3" data-name="SVGID" class="cls-1" d="M152.15,514.85a36.14,36.14,0,1,1-72.28,0c0-1-17.25-20.2-17.18-21.17,1.5-18.59,54.17-33.09,70.49-27,17.57,6.6,29.87,14,30,32.82C163.15,500.74,152.15,513.66,152.15,514.85Z"/></clipPath></defs><g class="cls-2"><g id="Capa_2" data-name="Capa 2"><g id="mapa"><path class="cls-3" d="M238,121c.13.22,7.72.92,8.42.94a45.79,45.79,0,0,0,8.19-.48l-1.32-2.76c3.68-1.19,8.14-1,12-1,4.14,0,8.28,0,12.42-.27,10.54-.82,20.65-4.36,30.63-7.86l22.86-8c1.91-.68,5-2.29,6.94-3a8,8,0,0,1,7.75-7.23c2,0,4.69.41,5.39-1.46.2-.52.16-1.11.39-1.61a3.32,3.32,0,0,1,2.05-1.44c12-4.4,24.2-9.57,36.22-14l10.17-.61c4.08-.24,8.48-.62,11.55-3.32,4.6-4,5-12.26,10.69-14.46,1.29-.5,2.69-.6,4-1a8.36,8.36,0,0,0,5-4.9c3.13,1.41.51,6.9,2.5,9.7.91,1.29,2.53,1.81,3.89,2.61,3.64,2.15,5.53,6.41,8.93,8.92,2.57,1.9,5.84,2.66,8.45,4.52,7.19,5.12,7,16.44,13.51,22.4a9.06,9.06,0,0,0,4.27,2.32,13.68,13.68,0,0,0,5.84-.57c4-1,8-2,11.56-4s6.71-5.08,7.83-9c.51-1.78.59-3.67,1.22-5.4s2-3.41,3.84-3.56c3-.24,5.67,3.52,8.43,2.33a4.85,4.85,0,0,0,1.72-1.5,20,20,0,0,0,4-15.44c-.48-2.89-1.59-5.65-2.07-8.53-1-6.27.95-12.61,3.19-18.54.81-2.13,2.21-4.62,4.47-4.51,1.48.08,2.67,1.3,4.12,1.55,1.68.28,3.26-.77,4.66-1.74,3-2.09,6.17-4.12,9.77-4.59s7.72,1.05,9.15,4.4c.46,1.07.66,2.33,1.51,3.13s2.41.93,3.72,1.06a17.5,17.5,0,0,1,13,8.09,5.6,5.6,0,0,1,1.06,4c-.36,1.72-2,2.83-3.36,3.89-7.94,6-12.38,15.48-18.34,23.49a13.48,13.48,0,0,1-2.5,2.72c-2.16,1.65-5.42,2.33-6.26,4.91-.34,1-.18,2.2-.52,3.23-1,2.92-4.88,3.2-7.68,4.46-6.56,3-7.51,12.3-8.39,18.73a7.93,7.93,0,0,0,.12,2.83,36.63,36.63,0,0,0,2.2,7.28c.89,1.93,2.09,3.7,3.15,5.53,2.26,3.89,4,8.64,2.31,12.83l-4.71,2.08L403.94,192c-1.09,1.27-3.57,2.53-4.82,1.41-.44-.39-.64-1-1.11-1.37-1.18-.88-2.7.49-3.58,1.68A48.3,48.3,0,0,1,388,200.8a9.89,9.89,0,0,1-3.69,2.38c-1.57.47-3.27.23-4.86.63a8.34,8.34,0,0,0-5.14,4.63,24.85,24.85,0,0,0-1.8,6.88l-1.61,10a8.71,8.71,0,0,0,.06,4.45c.63,1.68,2.21,2.8,3.21,4.29a9.17,9.17,0,0,1,.94,7.2A23.74,23.74,0,0,1,372,248a9.64,9.64,0,0,1-1.64,2.15c-2,1.84-5,1.74-7.75,2.06-2.05.24-2.7,1.08-3.6,2.69a2.48,2.48,0,0,1-2.9,1.17c-7.66-2.35-16.62-5.36-20.81-11.87-1.7-2.63-3.12-6-6.19-6.68a19.54,19.54,0,0,1-2-.32,3.21,3.21,0,0,1-2-3.88c.46-1.43,2-2.81,1.29-4.15-.52-1.05-2-1.12-3.14-.82s-2.33.79-3.43.37c-1.72-.68-.37-3.9-1.51-5.37-1.55-2-4.07-1.66-6.4-1.42-.65.07-2.24,0-2.77.42-.89.68.58,2.78-1.8,3.44a1.74,1.74,0,0,1-1.88-.79,10.37,10.37,0,0,0-1.31-1.75c-1.06-.87-2,.22-3.09.22H272.77c-.87-1.42.54-3.93-.65-5.48s-3.08-2.35-4.68-3.46-3.07-2.93-2.65-4.84,2.86-3.3,3-5.39c.26-3-4.16-4.42-4.93-7.37-.49-1.88.65-4-.07-5.78-.41-1-1.37-1.76-2-2.71a9.73,9.73,0,0,1-1.09-3.65,45.84,45.84,0,0,0-6.91-17.42,7,7,0,0,0-1.88-2.1c-1.42-.93-3.33-.84-4.77-1.75-.83-.52-1.44-1.34-2.28-1.83-2.7-1.57-6.21.78-9.2-.12-2.31-.69-3.66-3.16-4-5.54s0-4.82-.22-7.23c-.3-3.76-1.91-7.31-2.39-11s.6-8.18,4-9.79c1-.45,2-.64,3-1.17a2.54,2.54,0,0,0,1.44-2.62C236.22,123,237.15,121.89,238,121Z" transform="translate(0 -5.29)"/><path class="cls-4" d="M238,121c.13.22,7.72.92,8.42.94a45.79,45.79,0,0,0,8.19-.48l-1.32-2.76c3.68-1.19,8.14-1,12-1,4.14,0,8.28,0,12.42-.27,10.54-.82,20.65-4.36,30.63-7.86l22.86-8c1.91-.68,5-2.29,6.94-3a8,8,0,0,1,7.75-7.23c2,0,4.69.41,5.39-1.46.2-.52.16-1.11.39-1.61a3.32,3.32,0,0,1,2.05-1.44c12-4.4,24.2-9.57,36.22-14l10.17-.61c4.08-.24,8.48-.62,11.55-3.32,4.6-4,5-12.26,10.69-14.46,1.29-.5,2.69-.6,4-1a8.36,8.36,0,0,0,5-4.9c3.13,1.41.51,6.9,2.5,9.7.91,1.29,2.53,1.81,3.89,2.61,3.64,2.15,5.53,6.41,8.93,8.92,2.57,1.9,5.84,2.66,8.45,4.52,7.19,5.12,7,16.44,13.51,22.4a9.06,9.06,0,0,0,4.27,2.32,13.68,13.68,0,0,0,5.84-.57c4-1,8-2,11.56-4s6.71-5.08,7.83-9c.51-1.78.59-3.67,1.22-5.4s2-3.41,3.84-3.56c3-.24,5.67,3.52,8.43,2.33a4.85,4.85,0,0,0,1.72-1.5,20,20,0,0,0,4-15.44c-.48-2.89-1.59-5.65-2.07-8.53-1-6.27.95-12.61,3.19-18.54.81-2.13,2.21-4.62,4.47-4.51,1.48.08,2.67,1.3,4.12,1.55,1.68.28,3.26-.77,4.66-1.74,3-2.09,6.17-4.12,9.77-4.59s7.72,1.05,9.15,4.4c.46,1.07.66,2.33,1.51,3.13s2.41.93,3.72,1.06a17.5,17.5,0,0,1,13,8.09,5.6,5.6,0,0,1,1.06,4c-.36,1.72-2,2.83-3.36,3.89-7.94,6-12.38,15.48-18.34,23.49a13.48,13.48,0,0,1-2.5,2.72c-2.16,1.65-5.42,2.33-6.26,4.91-.34,1-.18,2.2-.52,3.23-1,2.92-4.88,3.2-7.68,4.46-6.56,3-7.51,12.3-8.39,18.73a7.93,7.93,0,0,0,.12,2.83,36.63,36.63,0,0,0,2.2,7.28c.89,1.93,2.09,3.7,3.15,5.53,2.26,3.89,4,8.64,2.31,12.83l-4.71,2.08L403.94,192c-1.09,1.27-3.57,2.53-4.82,1.41-.44-.39-.64-1-1.11-1.37-1.18-.88-2.7.49-3.58,1.68A48.3,48.3,0,0,1,388,200.8a9.89,9.89,0,0,1-3.69,2.38c-1.57.47-3.27.23-4.86.63a8.34,8.34,0,0,0-5.14,4.63,24.85,24.85,0,0,0-1.8,6.88l-1.61,10a8.71,8.71,0,0,0,.06,4.45c.63,1.68,2.21,2.8,3.21,4.29a9.17,9.17,0,0,1,.94,7.2A23.74,23.74,0,0,1,372,248a9.64,9.64,0,0,1-1.64,2.15c-2,1.84-5,1.74-7.75,2.06-2.05.24-2.7,1.08-3.6,2.69a2.48,2.48,0,0,1-2.9,1.17c-7.66-2.35-16.62-5.36-20.81-11.87-1.7-2.63-3.12-6-6.19-6.68a19.54,19.54,0,0,1-2-.32,3.21,3.21,0,0,1-2-3.88c.46-1.43,2-2.81,1.29-4.15-.52-1.05-2-1.12-3.14-.82s-2.33.79-3.43.37c-1.72-.68-.37-3.9-1.51-5.37-1.55-2-4.07-1.66-6.4-1.42-.65.07-2.24,0-2.77.42-.89.68.58,2.78-1.8,3.44a1.74,1.74,0,0,1-1.88-.79,10.37,10.37,0,0,0-1.31-1.75c-1.06-.87-2,.22-3.09.22H272.77c-.87-1.42.54-3.93-.65-5.48s-3.08-2.35-4.68-3.46-3.07-2.93-2.65-4.84,2.86-3.3,3-5.39c.26-3-4.16-4.42-4.93-7.37-.49-1.88.65-4-.07-5.78-.41-1-1.37-1.76-2-2.71a9.73,9.73,0,0,1-1.09-3.65,45.84,45.84,0,0,0-6.91-17.42,7,7,0,0,0-1.88-2.1c-1.42-.93-3.33-.84-4.77-1.75-.83-.52-1.44-1.34-2.28-1.83-2.7-1.57-6.21.78-9.2-.12-2.31-.69-3.66-3.16-4-5.54s0-4.82-.22-7.23c-.3-3.76-1.91-7.31-2.39-11s.6-8.18,4-9.79c1-.45,2-.64,3-1.17a2.54,2.54,0,0,0,1.44-2.62C236.22,123,237.15,121.89,238,121Z" transform="translate(0 -5.29)"/><path class="cls-5" d="M134.34,311.11a22.6,22.6,0,0,1,3.53-6c3.64-5,8.32-10.55,9.54-16.65,1.6-8,2.15-16.22,2.69-24.36.13-2-2.66-4.52-1.6-6.19a16.33,16.33,0,0,1,3.52-3.42c6.24-5.23,9.78-13,12.2-20.77s3.93-15.85,7.13-23.34c4.18-9.79,11.13-18.24,19.25-25.14,3.37-2.87,7-5.51,9.86-8.88,6.6-7.72,10.77-18.36,18.32-25.16a7.9,7.9,0,0,0,2.63-8.31c-1-4.17-3.39-8.78-2.28-13.16a3.79,3.79,0,0,1,1.15-2c1.3-1.11,2.82-.6,4.09.2,1.59,1,3.24,2.16,5.18,2.27.79-1.51,5.55-3.42,5.55-3.42,2.06-1.86,1.44-2.62,1.44-2.62A10.27,10.27,0,0,1,238,121c-1.64-1.24-1.38-6.36-1.38-6.36.21-2.06,1.46-3.83,2.56-5.57a19.2,19.2,0,0,0,3.39-9.09c.16-3.27-1.24-6.78-4.1-8.36-1.21-.67-2.75-1.11-3.25-2.4s.27-2.56,1-3.64c3.45-4.85,8-9.67,7.9-15.62-.12-7.38-7.44-13.13-7.63-20.5-.09-3.58,1.49-7.48-.32-10.57a5.52,5.52,0,0,0-4.72-2.68c1.43,4-.7,8.34-2.78,12.06-1.63,2.92-8.41,16.92-13.66,10.29-1-1.29-1.28-3.07-2.62-4.18a2.28,2.28,0,0,0-2.33-.37c-2,.92-1.63,4-2,5.66-1.34,5.89-15,11.29-20.25,11.55a4.06,4.06,0,0,0-3.38,1.88C182.31,76.47,169,67.52,167,65.31c-1.75-1.94-1.49-3.17-1.65-4.93-.25-2.92.32-4.89-.68-7a5,5,0,0,0-4.69-2.72c-11.18.31-17.21,12.26-27.23,16-3.51,1.31-7.31,1.52-11,2.11-2.31.37-4.94,1.18-5.75,3.37-.36,1-.28,2-.63,3-.77,2.17-3.41,3.11-5.7,3s-4.46-1.11-6.73-1.5c-5-.85-10.47,1.44-12.84,5.88-1.6,3-1.89,6.85-1.94,10.26,0,2.65.42,5.71-1.23,7.79a15.85,15.85,0,0,0-2.22,2.78c-1,2.12,0,5-1.57,6.76-.84,1-2.2,1.34-3.4,1.89a10,10,0,0,0-5.57,10.26,10.87,10.87,0,0,1,.37,3.52c-.26,1.41-1.36,2.55-1.64,4-.33,1.63.5,3.25.74,4.9.39,2.72-.89,5.44-2.58,7.61s-3.81,4-5.49,6.18c-.48.62-1.08,1.47-1.94,1.52a2,2,0,0,1-1-.27c-1.53-.76-2.59-2.15-4-3.16a4.6,4.6,0,0,0-4.37-1,10.78,10.78,0,0,0-2.52,2.07c-4.52,3.78-12.61.34-16.6,4.66-1.15,1.24-2,3.12-3.65,3.33-1.31.16-2.44-.82-3.57-1.51a9.1,9.1,0,0,0-6.07-1.22,28.26,28.26,0,0,1-4,0,6.72,6.72,0,0,0-2.07,3.36A11.5,11.5,0,0,1,14,160.1a5.52,5.52,0,0,1-2.49,1.51c-.33.11-.92.13-1.14.38s-.32.86-.64,1.23a11.27,11.27,0,0,1-1.9,1.53,36.48,36.48,0,0,0-4.87,4.43,7.88,7.88,0,0,0-1.73,2.56A8.71,8.71,0,0,0,.85,175c.05,2.73-.28,5.8.05,8.51.38,3.13.6,6.43.79,9.59A27.44,27.44,0,0,0,3.36,201c.89,2.37,1.94,4.9,3.85,6.61,1.1,1,2.32,1.8,3.39,2.8,2.38,2.24,3.85,5.27,6.29,7.45a25.64,25.64,0,0,0,8.81,5.21c2.88,1,6.11,1.5,8.26,3.65,3.71,3.72,2.22,9.93,3.33,15.06.82,3.79-2.24,7.41-2.22,11.28a32,32,0,0,0,3.84,15.66,12.63,12.63,0,0,0,4.17,4.65,6.35,6.35,0,0,0,6,.52,9.51,9.51,0,0,1,2.66-1.3,3.29,3.29,0,0,1,3.16,1.94c.8,1.54,1.19,3.48-.11,4.75A11.43,11.43,0,0,0,52,290.86a18.21,18.21,0,0,1,1.12,3.34,17.4,17.4,0,0,1-.1,3.22,26.68,26.68,0,0,0,.36,4.63,122.67,122.67,0,0,1,.38,27.49c1.92,1.49,4.55,2.73,6,4.67a8,8,0,0,0,1.59,1.87,5.32,5.32,0,0,0,2.12.66,13.46,13.46,0,0,1,6.09,2.05c1.5,1.14,2.46,2.84,3.88,4.08a8.26,8.26,0,0,0,4.42,1.92c1.28.14,2.58,0,3.85.18s2.46.51,3.4-.42a6.45,6.45,0,0,0,.91-1.52c2.62-4.6,11.12-2.1,13.83-6.66,1.36-2.29.51-5.39,1.77-7.73s4.45-3.24,7.18-3.92a67.45,67.45,0,0,0,22.6-10.38A8,8,0,0,0,134.34,311.11Z" transform="translate(0 -5.29)"/><path class="cls-4" d="M134.34,311.11a22.6,22.6,0,0,1,3.53-6c3.64-5,8.32-10.55,9.54-16.65,1.6-8,2.15-16.22,2.69-24.36.13-2-2.66-4.52-1.6-6.19a16.33,16.33,0,0,1,3.52-3.42c6.24-5.23,9.78-13,12.2-20.77s3.93-15.85,7.13-23.34c4.18-9.79,11.13-18.24,19.25-25.14,3.37-2.87,7-5.51,9.86-8.88,6.6-7.72,10.77-18.36,18.32-25.16a7.9,7.9,0,0,0,2.63-8.31c-1-4.17-3.39-8.78-2.28-13.16a3.79,3.79,0,0,1,1.15-2c1.3-1.11,2.82-.6,4.09.2,1.59,1,3.24,2.16,5.18,2.27.79-1.51,5.55-3.42,5.55-3.42,2.06-1.86,1.44-2.62,1.44-2.62A10.27,10.27,0,0,1,238,121c-1.64-1.24-1.38-6.36-1.38-6.36.21-2.06,1.46-3.83,2.56-5.57a19.2,19.2,0,0,0,3.39-9.09c.16-3.27-1.24-6.78-4.1-8.36-1.21-.67-2.75-1.11-3.25-2.4s.27-2.56,1-3.64c3.45-4.85,8-9.67,7.9-15.62-.12-7.38-7.44-13.13-7.63-20.5-.09-3.58,1.49-7.48-.32-10.57a5.52,5.52,0,0,0-4.72-2.68c1.43,4-.7,8.34-2.78,12.06-1.63,2.92-8.41,16.92-13.66,10.29-1-1.29-1.28-3.07-2.62-4.18a2.28,2.28,0,0,0-2.33-.37c-2,.92-1.63,4-2,5.66-1.34,5.89-15,11.29-20.25,11.55a4.06,4.06,0,0,0-3.38,1.88C182.31,76.47,169,67.52,167,65.31c-1.75-1.94-1.49-3.17-1.65-4.93-.25-2.92.32-4.89-.68-7a5,5,0,0,0-4.69-2.72c-11.18.31-17.21,12.26-27.23,16-3.51,1.31-7.31,1.52-11,2.11-2.31.37-4.94,1.18-5.75,3.37-.36,1-.28,2-.63,3-.77,2.17-3.41,3.11-5.7,3s-4.46-1.11-6.73-1.5c-5-.85-10.47,1.44-12.84,5.88-1.6,3-1.89,6.85-1.94,10.26,0,2.65.42,5.71-1.23,7.79a15.85,15.85,0,0,0-2.22,2.78c-1,2.12,0,5-1.57,6.76-.84,1-2.2,1.34-3.4,1.89a10,10,0,0,0-5.57,10.26,10.87,10.87,0,0,1,.37,3.52c-.26,1.41-1.36,2.55-1.64,4-.33,1.63.5,3.25.74,4.9.39,2.72-.89,5.44-2.58,7.61s-3.81,4-5.49,6.18c-.48.62-1.08,1.47-1.94,1.52a2,2,0,0,1-1-.27c-1.53-.76-2.59-2.15-4-3.16a4.6,4.6,0,0,0-4.37-1,10.78,10.78,0,0,0-2.52,2.07c-4.52,3.78-12.61.34-16.6,4.66-1.15,1.24-2,3.12-3.65,3.33-1.31.16-2.44-.82-3.57-1.51a9.1,9.1,0,0,0-6.07-1.22,28.26,28.26,0,0,1-4,0,6.72,6.72,0,0,0-2.07,3.36A11.5,11.5,0,0,1,14,160.1a5.52,5.52,0,0,1-2.49,1.51c-.33.11-.92.13-1.14.38s-.32.86-.64,1.23a11.27,11.27,0,0,1-1.9,1.53,36.48,36.48,0,0,0-4.87,4.43,7.88,7.88,0,0,0-1.73,2.56A8.71,8.71,0,0,0,.85,175c.05,2.73-.28,5.8.05,8.51.38,3.13.6,6.43.79,9.59A27.44,27.44,0,0,0,3.36,201c.89,2.37,1.94,4.9,3.85,6.61,1.1,1,2.32,1.8,3.39,2.8,2.38,2.24,3.85,5.27,6.29,7.45a25.64,25.64,0,0,0,8.81,5.21c2.88,1,6.11,1.5,8.26,3.65,3.71,3.72,2.22,9.93,3.33,15.06.82,3.79-2.24,7.41-2.22,11.28a32,32,0,0,0,3.84,15.66,12.63,12.63,0,0,0,4.17,4.65,6.35,6.35,0,0,0,6,.52,9.51,9.51,0,0,1,2.66-1.3,3.29,3.29,0,0,1,3.16,1.94c.8,1.54,1.19,3.48-.11,4.75A11.43,11.43,0,0,0,52,290.86a18.21,18.21,0,0,1,1.12,3.34,17.4,17.4,0,0,1-.1,3.22,26.68,26.68,0,0,0,.36,4.63,122.67,122.67,0,0,1,.38,27.49c1.92,1.49,4.55,2.73,6,4.67a8,8,0,0,0,1.59,1.87,5.32,5.32,0,0,0,2.12.66,13.46,13.46,0,0,1,6.09,2.05c1.5,1.14,2.46,2.84,3.88,4.08a8.26,8.26,0,0,0,4.42,1.92c1.28.14,2.58,0,3.85.18s2.46.51,3.4-.42a6.45,6.45,0,0,0,.91-1.52c2.62-4.6,11.12-2.1,13.83-6.66,1.36-2.29.51-5.39,1.77-7.73s4.45-3.24,7.18-3.92a67.45,67.45,0,0,0,22.6-10.38A8,8,0,0,0,134.34,311.11Z" transform="translate(0 -5.29)"/><path class="cls-5" d="M272.48,223.4c-1.33,1.52.44,6.71.7,8.48.41,2.82.78,5.84-.49,8.39-1,1.93-2.73,3.3-4.21,4.87s-2.75,3.66-2.31,5.77c.21,1,.82,2,.62,3.05s-1.16,1.74-1.9,2.53c-2.4,2.58-2.48,6.53-2,10,.36,2.75,1.4,5.79,1.31,8.6a3.62,3.62,0,0,0,1.65,3.24c4.29,2.65,6.85,7.82,7.53,12.92.79,5.85-.42,11.76-1.29,17.61s-1.38,12,.69,17.51c1.6,4.28,4.66,7.93,5.95,12.31.62,2.08.82,4.27,1.44,6.34,1.46,5.48,5.12,9.52,5.27,15a2.31,2.31,0,0,0,2.39,2.27,16.35,16.35,0,0,1,6.41.81c1.84.66,3.73,1.67,5.63,1.23,2.3-.54,3.61-3,4.11-5.29s.49-4.77,1.54-6.88,3.71-3.73,5.77-2.57c1.55.88,2.45,3.13,4.24,3,2-.11,2.78-3.1,4.75-3.27,1.73-.15,2.76,1.92,4.33,2.67,2.16,1,4.54-.64,6.83-1.34,4.24-1.3,8.65.85,13,1.77a6.72,6.72,0,0,0,3.56,0c4-1.39,3.3-7.62,6.18-10.77,2.14-2.33,5.71-2.44,8.87-2.37a38.19,38.19,0,0,1,9.25.93c3.49.93,7.18,2.85,10.49,1.42,2.9-1.24,5-4.88,8.1-4.36A9.6,9.6,0,0,1,394,338.9c3,1.76,6.62,2.08,10,2.83s7.08,2.31,9.2,5.08a8.22,8.22,0,0,1,.62,8.84,5.06,5.06,0,0,0-.9,2.08c-.09,1.51,1.51,2.53,3,3,.68.21,1.41.41,2.08.69a2.1,2.1,0,0,1,1,2.81,3.14,3.14,0,0,0,.72,3.88c1.58,1.46,3.86,2.35,4.65,4.35a7.41,7.41,0,0,1,.16,3.63c-.61,5.09-1.34,10.48-4.56,14.48-.67.82-1.48,1.72-1.34,2.78.08.64.53,1.24.43,1.88-.15.86-1.13,1.23-1.87,1.7-2.38,1.51-2.55,5-1.53,7.65s2.91,4.85,3.89,7.49c1.33,3.56.9,7.5.51,11.28-1.27,12.24-.95,24.37-1,36.67,2.35.52,4.43-1.43,6.53-2.6,4-2.24,9-1.74,13.53-1.16s9.59,1.23,13.59,3.78c2.72,1.73,5.41,4.41,8.58,3.85,1.75-.31,3.83-1.52,5-.23.3.31.27,2.24.67,2.35s.87-1.39,1.21-1.79c8.06-9.61,22-17.76,24.56-30,1.24-6.06,2.58-12.33,6.27-17.28,3.26-4.38,8.15-7.41,11.07-12,3.88-6.13,4-14.59,9.5-19.33a11.28,11.28,0,0,0,2.79-2.72c.63-1.14.43-2.89-.78-3.36-.33-.13-.7-.15-1-.3-1.09-.54-.85-2.27.06-3.07s2.17-1,3.25-1.58c4.19-2.12,4.45-8.09,3-12.54-.74-2.22-1.72-4.85-.33-6.74,1.5-2,4.88-1.86,6.39-3.89,2-2.65-.28-7.64,2.69-9.09,1.63-.8,3.49.34,5.2.94a9.11,9.11,0,0,0,8.33-1.24c2.38-1.75,3.83-4.62,6.41-6,3.88-2.13,9.48.46,10.36,4.8,2.72-1.91,4-5.28,4.6-8.55s.48-6.65,1.14-9.91c.37-1.8,1.35-3.88,3.18-4,.66,0,1.31.21,2,.16,1.55-.11,2.51-1.67,3.7-2.66,4.17-3.46,10.42.3,15.78-.43a9.54,9.54,0,0,0,7.92-7.92,24.46,24.46,0,0,1,.49-4.19c1.05-3.33,4.91-4.73,8.28-5.68-3.06-2-6.5-3.82-10.17-3.7a17,17,0,0,0-2.75-1.48,9.63,9.63,0,0,0-4.5-.1,53,53,0,0,0-10.31,2.69,13.54,13.54,0,0,1-5.49,1.32,4.06,4.06,0,0,1-3.78-2.89,7.29,7.29,0,0,0-5.67-5.57c-3.56-.66-7.06.53-10.62.66-3.13.12-6.7-.92-8-3.76-1.28-2.69-.08-5.88-.47-8.83-.16-1.24-.61-2.43-.76-3.67-.32-2.56.61-5.09,1.18-7.62a28.08,28.08,0,0,0-1.27-16.39,8.81,8.81,0,0,0-1.89-3.17c-.92-.9-2.15-1.44-3.07-2.35-1.47-1.45-1.94-3.61-2.35-5.63l-4.05-20.42c-.62-3.16-1.37-6.54-3.73-8.74-1.2-1.13-2.75-1.85-3.92-3a12.92,12.92,0,0,1-2.58-4.27,78.53,78.53,0,0,1-6.16-26.21,29.64,29.64,0,0,0-.37-3.87,24.88,24.88,0,0,1-.52-2.57c-.24-2.66,1.24-5.12,2.49-7.48,3.94-7.44,6.6-16.05,6.44-24.47l-4.71,2.08L403.94,192c-1.09,1.27-3.57,2.53-4.82,1.41-.44-.39-.64-1-1.11-1.37-1.18-.88-2.7.49-3.58,1.68A48.3,48.3,0,0,1,388,200.8a9.89,9.89,0,0,1-3.69,2.38c-1.57.47-3.27.23-4.86.63a8.34,8.34,0,0,0-5.14,4.63,24.85,24.85,0,0,0-1.8,6.88l-1.61,10a8.71,8.71,0,0,0,.06,4.45c.63,1.68,2.21,2.8,3.21,4.29a9.17,9.17,0,0,1,.94,7.2A23.74,23.74,0,0,1,372,248a9.64,9.64,0,0,1-1.64,2.15c-2,1.84-5,1.74-7.75,2.06-2.06.24-2.7,1.09-3.61,2.71a2.46,2.46,0,0,1-2.86,1.16c-7.67-2.36-16.65-5.36-20.84-11.88-1.7-2.63-3.12-6-6.19-6.68a19.54,19.54,0,0,1-2-.32,3.21,3.21,0,0,1-2-3.88c.46-1.43,2-2.81,1.29-4.15-.52-1.05-2-1.12-3.14-.82s-2.33.79-3.43.37c-1.72-.68-.37-3.9-1.51-5.37-1.55-2-4.07-1.66-6.4-1.42-.65.07-2.24,0-2.77.42-.89.68.58,2.78-1.8,3.44a1.74,1.74,0,0,1-1.88-.79,10.37,10.37,0,0,0-1.31-1.75c-1.33-1.1-2.16-.15-4-.06Z" transform="translate(0 -5.29)"/><path class="cls-4" d="M272.48,223.4c-1.33,1.52.44,6.71.7,8.48.41,2.82.78,5.84-.49,8.39-1,1.93-2.73,3.3-4.21,4.87s-2.75,3.66-2.31,5.77c.21,1,.82,2,.62,3.05s-1.16,1.74-1.9,2.53c-2.4,2.58-2.48,6.53-2,10,.36,2.75,1.4,5.79,1.31,8.6a3.62,3.62,0,0,0,1.65,3.24c4.29,2.65,6.85,7.82,7.53,12.92.79,5.85-.42,11.76-1.29,17.61s-1.38,12,.69,17.51c1.6,4.28,4.66,7.93,5.95,12.31.62,2.08.82,4.27,1.44,6.34,1.46,5.48,5.12,9.52,5.27,15a2.31,2.31,0,0,0,2.39,2.27,16.35,16.35,0,0,1,6.41.81c1.84.66,3.73,1.67,5.63,1.23,2.3-.54,3.61-3,4.11-5.29s.49-4.77,1.54-6.88,3.71-3.73,5.77-2.57c1.55.88,2.45,3.13,4.24,3,2-.11,2.78-3.1,4.75-3.27,1.73-.15,2.76,1.92,4.33,2.67,2.16,1,4.54-.64,6.83-1.34,4.24-1.3,8.65.85,13,1.77a6.72,6.72,0,0,0,3.56,0c4-1.39,3.3-7.62,6.18-10.77,2.14-2.33,5.71-2.44,8.87-2.37a38.19,38.19,0,0,1,9.25.93c3.49.93,7.18,2.85,10.49,1.42,2.9-1.24,5-4.88,8.1-4.36A9.6,9.6,0,0,1,394,338.9c3,1.76,6.62,2.08,10,2.83s7.08,2.31,9.2,5.08a8.22,8.22,0,0,1,.62,8.84,5.06,5.06,0,0,0-.9,2.08c-.09,1.51,1.51,2.53,3,3,.68.21,1.41.41,2.08.69a2.1,2.1,0,0,1,1,2.81,3.14,3.14,0,0,0,.72,3.88c1.58,1.46,3.86,2.35,4.65,4.35a7.41,7.41,0,0,1,.16,3.63c-.61,5.09-1.34,10.48-4.56,14.48-.67.82-1.48,1.72-1.34,2.78.08.64.53,1.24.43,1.88-.15.86-1.13,1.23-1.87,1.7-2.38,1.51-2.55,5-1.53,7.65s2.91,4.85,3.89,7.49c1.33,3.56.9,7.5.51,11.28-1.27,12.24-.95,24.37-1,36.67,2.35.52,4.43-1.43,6.53-2.6,4-2.24,9-1.74,13.53-1.16s9.59,1.23,13.59,3.78c2.72,1.73,5.41,4.41,8.58,3.85,1.75-.31,3.83-1.52,5-.23.3.31.27,2.24.67,2.35s.87-1.39,1.21-1.79c8.06-9.61,22-17.76,24.56-30,1.24-6.06,2.58-12.33,6.27-17.28,3.26-4.38,8.15-7.41,11.07-12,3.88-6.13,4-14.59,9.5-19.33a11.28,11.28,0,0,0,2.79-2.72c.63-1.14.43-2.89-.78-3.36-.33-.13-.7-.15-1-.3-1.09-.54-.85-2.27.06-3.07s2.17-1,3.25-1.58c4.19-2.12,4.45-8.09,3-12.54-.74-2.22-1.72-4.85-.33-6.74,1.5-2,4.88-1.86,6.39-3.89,2-2.65-.28-7.64,2.69-9.09,1.63-.8,3.49.34,5.2.94a9.11,9.11,0,0,0,8.33-1.24c2.38-1.75,3.83-4.62,6.41-6,3.88-2.13,9.48.46,10.36,4.8,2.72-1.91,4-5.28,4.6-8.55s.48-6.65,1.14-9.91c.37-1.8,1.35-3.88,3.18-4,.66,0,1.31.21,2,.16,1.55-.11,2.51-1.67,3.7-2.66,4.17-3.46,10.42.3,15.78-.43a9.54,9.54,0,0,0,7.92-7.92,24.46,24.46,0,0,1,.49-4.19c1.05-3.33,4.91-4.73,8.28-5.68-3.06-2-6.5-3.82-10.17-3.7a17,17,0,0,0-2.75-1.48,9.63,9.63,0,0,0-4.5-.1,53,53,0,0,0-10.31,2.69,13.54,13.54,0,0,1-5.49,1.32,4.06,4.06,0,0,1-3.78-2.89,7.29,7.29,0,0,0-5.67-5.57c-3.56-.66-7.06.53-10.62.66-3.13.12-6.7-.92-8-3.76-1.28-2.69-.08-5.88-.47-8.83-.16-1.24-.61-2.43-.76-3.67-.32-2.56.61-5.09,1.18-7.62a28.08,28.08,0,0,0-1.27-16.39,8.81,8.81,0,0,0-1.89-3.17c-.92-.9-2.15-1.44-3.07-2.35-1.47-1.45-1.94-3.61-2.35-5.63l-4.05-20.42c-.62-3.16-1.37-6.54-3.73-8.74-1.2-1.13-2.75-1.85-3.92-3a12.92,12.92,0,0,1-2.58-4.27,78.53,78.53,0,0,1-6.16-26.21,29.64,29.64,0,0,0-.37-3.87,24.88,24.88,0,0,1-.52-2.57c-.24-2.66,1.24-5.12,2.49-7.48,3.94-7.44,6.6-16.05,6.44-24.47l-4.71,2.08L403.94,192c-1.09,1.27-3.57,2.53-4.82,1.41-.44-.39-.64-1-1.11-1.37-1.18-.88-2.7.49-3.58,1.68A48.3,48.3,0,0,1,388,200.8a9.89,9.89,0,0,1-3.69,2.38c-1.57.47-3.27.23-4.86.63a8.34,8.34,0,0,0-5.14,4.63,24.85,24.85,0,0,0-1.8,6.88l-1.61,10a8.71,8.71,0,0,0,.06,4.45c.63,1.68,2.21,2.8,3.21,4.29a9.17,9.17,0,0,1,.94,7.2A23.74,23.74,0,0,1,372,248a9.64,9.64,0,0,1-1.64,2.15c-2,1.84-5,1.74-7.75,2.06-2.06.24-2.7,1.09-3.61,2.71a2.46,2.46,0,0,1-2.86,1.16c-7.67-2.36-16.65-5.36-20.84-11.88-1.7-2.63-3.12-6-6.19-6.68a19.54,19.54,0,0,1-2-.32,3.21,3.21,0,0,1-2-3.88c.46-1.43,2-2.81,1.29-4.15-.52-1.05-2-1.12-3.14-.82s-2.33.79-3.43.37c-1.72-.68-.37-3.9-1.51-5.37-1.55-2-4.07-1.66-6.4-1.42-.65.07-2.24,0-2.77.42-.89.68.58,2.78-1.8,3.44a1.74,1.74,0,0,1-1.88-.79,10.37,10.37,0,0,0-1.31-1.75c-1.33-1.1-2.16-.15-4-.06Z" transform="translate(0 -5.29)"/><path class="cls-3" d="M273.35,291.28c-.68-5.1-3.24-10.27-7.53-12.92a3.62,3.62,0,0,1-1.65-3.24c.09-2.81-.95-5.85-1.31-8.6-.31-2.4-.47-5.16.47-7.46.55-1.32,1.92-2.42,2.56-3.76,1.05-2.17.15-3.07.29-5.22.27-4.47,4.68-6.14,6.51-9.81,1.27-2.55.9-5.57.49-8.39-.24-1.67-.49-3.54-.63-5.22a9.12,9.12,0,0,1,.22-3.17c-.87-1.42.54-3.93-.65-5.48s-3.08-2.35-4.68-3.46-3.07-2.93-2.65-4.84,2.86-3.3,3-5.39c.26-3-4.16-4.42-4.93-7.37-.49-1.88.65-4-.07-5.78-.41-1-1.37-1.76-2-2.71a9.73,9.73,0,0,1-1.09-3.65c-1-5.7-3.58-16.3-9-19.57A18.8,18.8,0,0,0,247.5,164c-1.94-.72-3.23-2.4-5.2-2.8-2.5-.52-5,1.16-7.56.4-2.31-.69-3.66-3.16-4-5.54s0-4.82-.22-7.23c-.3-3.76-1.91-7.31-2.39-11a14.64,14.64,0,0,1,1.46-7.54c-2-.11-3.46-1.22-5.09-2.24a4,4,0,0,0-3.43-.67c-5.21,2-.4,12.33.38,15.59a7.9,7.9,0,0,1-2.63,8.31c-7.55,6.8-11.72,17.44-18.32,25.16-2.88,3.37-6.49,6-9.86,8.88-8.12,6.9-15.07,15.35-19.25,25.14-3.2,7.49-4.71,15.57-7.13,23.34s-6,15.54-12.2,20.77a16.33,16.33,0,0,0-3.52,3.42c-1.06,1.67,1.73,4.21,1.6,6.19-.54,8.14-1.09,16.36-2.69,24.36-1,4.89-4,9.16-6.89,13.09-2.7,3.62-4.76,7.91-7.68,11.31-5.42,6.29-16.24,9.9-24,11.84-2.73.68-5.84,1.44-7.18,3.92s-.41,5.44-1.77,7.73c-1.49,2.51-4.73,2.88-7.32,3.38-3.42.67-5.45,1.53-7.33,4.57-1.21,2,0,3.87-1.36,5.79-1,1.38-2.36,2.43-3.38,3.78a6,6,0,0,0-.7,5.08,19.11,19.11,0,0,1,.48,12.57c-.56,1.7-1.53,3.27-1.92,5-.74,3.31.8,3.15,2,5.11a4.44,4.44,0,0,1,.47,2c.36,4.17,1.72,8.72,5,11.58,3,2.69,7,4,10,6.75,2.61,2.46,3.39,6.81,5.94,9a1.29,1.29,0,0,0,1.77,0c.21-.24.28-.6.54-.8.54-.43,1.3.15,1.69.72,1.35,2,2.1,4.65,4.29,5.63a4,4,0,0,0,5.23-2.24,18.11,18.11,0,0,0,6.64,3.13c1.34.26,2.78-.31,4.07,0,6.82,1.41,11.63,7.56,18.79,7.43a9,9,0,0,1,3,.18c3.46,1.17,5.61,4.18,8.48,6.23,2.07,1.48,4.47,2.11,6.69,3.27.62.33,2.64,2.07,3.18,2.06,1.89,0,.61-.64,1.55-2s3.2.23,4.21-1.59c2.82-5.07-5.64-4.81-7.49-5.47a3.14,3.14,0,0,1-1.51-1.72c-2.14-4.27-6.89-11-6.39-16,.38-3.66,3.22-6.48,2.37-10.34-.29-1.35-1-2.67-.76-4,.27-1.95,2.93-5.4,4.33-6.81,2.4-2.4,4-1.9,5.95.71a103,103,0,0,0,7.42,8.34,7.15,7.15,0,0,0,3.41,2.36c.84.19,1.71.08,2.55.2,1.85.26,3.37,1.55,4.77,2.79l12.62,11.1c2.53,2.23,3.39,5.56,6,7.84,4.09,3.62,7.24,8.27,11.66,11.48a7.8,7.8,0,0,0,3.79,1.72c1.89.16,1.89.16,4.63.31l-2.47-7.11a7.17,7.17,0,0,0,9.19-4.76c.63-2.57,3-3.21,4.15-5.45,1.39-2.75-.52-6.33,1.49-8.92,1.63-2.12,5.48-2.25,6.1-4.84a5.42,5.42,0,0,1-4.35-3.16c-1.25-2.42-.53-5.57-2.7-7.55,2.32.09,4.76.41,7.16.28.66-1.31-1.46-2.45-1.53-3.91s1.56-2.07,2.86-2.5a25.3,25.3,0,0,0,12.58-9.24,24.06,24.06,0,0,1-3.4-15.42c.37-3.53.85-7.16-.2-10.55a25.63,25.63,0,0,0-1.76-4c-1.31-2.57-2.58-5.27-2.7-8.15s1.16-6,3.78-7.23c1.47-.68,3.19-.7,4.63-1.45,1-.51,1.78-1.34,2.77-1.86a2.61,2.61,0,0,1,3.09.18,39.35,39.35,0,0,1,1.67-19.1,14,14,0,0,0,1.18-4.84c0-1.16-.35-2.45.32-3.4a5,5,0,0,1,1.92-1.28C272.57,299.37,273.89,295.27,273.35,291.28Z" transform="translate(0 -5.29)"/><path class="cls-4" d="M273.35,291.28c-.68-5.1-3.24-10.27-7.53-12.92a3.62,3.62,0,0,1-1.65-3.24c.09-2.81-.95-5.85-1.31-8.6-.31-2.4-.47-5.16.47-7.46.55-1.32,1.92-2.42,2.56-3.76,1.05-2.17.15-3.07.29-5.22.27-4.47,4.68-6.14,6.51-9.81,1.27-2.55.9-5.57.49-8.39-.24-1.67-.49-3.54-.63-5.22a9.12,9.12,0,0,1,.22-3.17c-.87-1.42.54-3.93-.65-5.48s-3.08-2.35-4.68-3.46-3.07-2.93-2.65-4.84,2.86-3.3,3-5.39c.26-3-4.16-4.42-4.93-7.37-.49-1.88.65-4-.07-5.78-.41-1-1.37-1.76-2-2.71a9.73,9.73,0,0,1-1.09-3.65c-1-5.7-3.58-16.3-9-19.57A18.8,18.8,0,0,0,247.5,164c-1.94-.72-3.23-2.4-5.2-2.8-2.5-.52-5,1.16-7.56.4-2.31-.69-3.66-3.16-4-5.54s0-4.82-.22-7.23c-.3-3.76-1.91-7.31-2.39-11a14.64,14.64,0,0,1,1.46-7.54c-2-.11-3.46-1.22-5.09-2.24a4,4,0,0,0-3.43-.67c-5.21,2-.4,12.33.38,15.59a7.9,7.9,0,0,1-2.63,8.31c-7.55,6.8-11.72,17.44-18.32,25.16-2.88,3.37-6.49,6-9.86,8.88-8.12,6.9-15.07,15.35-19.25,25.14-3.2,7.49-4.71,15.57-7.13,23.34s-6,15.54-12.2,20.77a16.33,16.33,0,0,0-3.52,3.42c-1.06,1.67,1.73,4.21,1.6,6.19-.54,8.14-1.09,16.36-2.69,24.36-1,4.89-4,9.16-6.89,13.09-2.7,3.62-4.76,7.91-7.68,11.31-5.42,6.29-16.24,9.9-24,11.84-2.73.68-5.84,1.44-7.18,3.92s-.41,5.44-1.77,7.73c-1.49,2.51-4.73,2.88-7.32,3.38-3.42.67-5.45,1.53-7.33,4.57-1.21,2,0,3.87-1.36,5.79-1,1.38-2.36,2.43-3.38,3.78a6,6,0,0,0-.7,5.08,19.11,19.11,0,0,1,.48,12.57c-.56,1.7-1.53,3.27-1.92,5-.74,3.31.8,3.15,2,5.11a4.44,4.44,0,0,1,.47,2c.36,4.17,1.72,8.72,5,11.58,3,2.69,7,4,10,6.75,2.61,2.46,3.39,6.81,5.94,9a1.29,1.29,0,0,0,1.77,0c.21-.24.28-.6.54-.8.54-.43,1.3.15,1.69.72,1.35,2,2.1,4.65,4.29,5.63a4,4,0,0,0,5.23-2.24,18.11,18.11,0,0,0,6.64,3.13c1.34.26,2.78-.31,4.07,0,6.82,1.41,11.63,7.56,18.79,7.43a9,9,0,0,1,3,.18c3.46,1.17,5.61,4.18,8.48,6.23,2.07,1.48,4.47,2.11,6.69,3.27.62.33,2.64,2.07,3.18,2.06,1.89,0,.61-.64,1.55-2s3.2.23,4.21-1.59c2.82-5.07-5.64-4.81-7.49-5.47a3.14,3.14,0,0,1-1.51-1.72c-2.14-4.27-6.89-11-6.39-16,.38-3.66,3.22-6.48,2.37-10.34-.29-1.35-1-2.67-.76-4,.27-1.95,2.93-5.4,4.33-6.81,2.4-2.4,4-1.9,5.95.71a103,103,0,0,0,7.42,8.34,7.15,7.15,0,0,0,3.41,2.36c.84.19,1.71.08,2.55.2,1.85.26,3.37,1.55,4.77,2.79l12.62,11.1c2.53,2.23,3.39,5.56,6,7.84,4.09,3.62,7.24,8.27,11.66,11.48a7.8,7.8,0,0,0,3.79,1.72c1.89.16,1.89.16,4.63.31l-2.47-7.11a7.17,7.17,0,0,0,9.19-4.76c.63-2.57,3-3.21,4.15-5.45,1.39-2.75-.52-6.33,1.49-8.92,1.63-2.12,5.48-2.25,6.1-4.84a5.42,5.42,0,0,1-4.35-3.16c-1.25-2.42-.53-5.57-2.7-7.55,2.32.09,4.76.41,7.16.28.66-1.31-1.46-2.45-1.53-3.91s1.56-2.07,2.86-2.5a25.3,25.3,0,0,0,12.58-9.24,24.06,24.06,0,0,1-3.4-15.42c.37-3.53.85-7.16-.2-10.55a25.63,25.63,0,0,0-1.76-4c-1.31-2.57-2.58-5.27-2.7-8.15s1.16-6,3.78-7.23c1.47-.68,3.19-.7,4.63-1.45,1-.51,1.78-1.34,2.77-1.86a2.61,2.61,0,0,1,3.09.18,39.35,39.35,0,0,1,1.67-19.1,14,14,0,0,0,1.18-4.84c0-1.16-.35-2.45.32-3.4a5,5,0,0,1,1.92-1.28C272.57,299.37,273.89,295.27,273.35,291.28Z" transform="translate(0 -5.29)"/><path class="cls-5" d="M225.21,435.46l-2.47-7.11a7.17,7.17,0,0,0,9.19-4.76c.63-2.57,3-3.21,4.15-5.45,1.39-2.75-.52-6.33,1.49-8.92,1.63-2.12,5.48-2.25,6.1-4.84a5.42,5.42,0,0,1-4.35-3.16c-1.25-2.42-.53-5.57-2.7-7.55,2.32.09,4.76.41,7.16.28.66-1.31-1.46-2.45-1.53-3.91s1.56-2.07,2.86-2.5a25.3,25.3,0,0,0,12.58-9.24,24.06,24.06,0,0,1-3.4-15.42c.37-3.53.85-7.16-.2-10.55a25.63,25.63,0,0,0-1.76-4c-1.31-2.57-2.58-5.27-2.7-8.15a8.34,8.34,0,0,1,1.79-5.69c1.66-2,4.08-1.83,6.26-2.89,1-.49,1.9-1.19,2.9-1.69a4.53,4.53,0,0,1,2.19-.52c.25,0,.86.26,1,.08s-.11-1.26-.14-1.5a44.59,44.59,0,0,1-.18-5.89,39,39,0,0,1,2.09-11.36,14,14,0,0,0,1.18-4.84c0-1.16-.35-2.45.32-3.4a5,5,0,0,1,1.92-1.28c3.58-1.85,4.9-6,4.36-9.94.41,5.39-.49,12.26-1.29,17.61-.87,5.84-1.38,12,.69,17.51,1.6,4.28,4.66,7.93,5.95,12.31.62,2.08.82,4.27,1.44,6.34,1.46,5.48,5.12,9.52,5.27,15a2.31,2.31,0,0,0,2.39,2.28,16.35,16.35,0,0,1,6.41.81c1.84.66,3.73,1.67,5.63,1.23,2.3-.54,3.61-3,4.11-5.29s.49-4.77,1.54-6.88,3.71-3.73,5.77-2.57c1.55.88,2.45,3.13,4.24,3,2-.11,2.78-3.1,4.75-3.27,1.73-.15,2.76,1.92,4.33,2.67,2.16,1,4.54-.64,6.83-1.34,4.24-1.3,8.65.85,13,1.77a6.72,6.72,0,0,0,3.56,0c4-1.39,3.3-7.62,6.18-10.77,2.14-2.33,5.71-2.44,8.87-2.37a38.19,38.19,0,0,1,9.25.93c3.49.93,7.18,2.85,10.49,1.42,2.9-1.24,5-4.88,8.1-4.36A9.6,9.6,0,0,1,394,338.9c3,1.76,6.62,2.08,10,2.83s7.08,2.31,9.2,5.08a8.22,8.22,0,0,1,.62,8.84,5.06,5.06,0,0,0-.9,2.08c-.09,1.51,1.51,2.53,3,3a21.77,21.77,0,0,1,2.07.68,2.12,2.12,0,0,1,1,2.83,3.14,3.14,0,0,0,.72,3.87c1.58,1.46,3.86,2.35,4.65,4.35a7.41,7.41,0,0,1,.16,3.63c-.61,5.09-1.34,10.48-4.56,14.48-.67.82-1.48,1.72-1.34,2.78.08.64.53,1.24.43,1.88-.15.86-1.13,1.23-1.87,1.7-2.38,1.51-2.55,5-1.53,7.65s2.91,4.85,3.89,7.49a4.36,4.36,0,0,1-.74,4,4.79,4.79,0,0,1-4.08,2c-3-.07-3.83-3.14-6.08-4.19-2-.94-4.4.11-6.64.25-4.49.26-8.23-3.14-12.17-5.3a5.78,5.78,0,0,0-2.71-.87c-3.42,0-4.42,4.62-4.48,8.05a3.4,3.4,0,0,1-.74,2.52c-1.75,1.65-4.57-1.28-6.76-1.82a5.7,5.7,0,0,1-3.41-2.76,6.57,6.57,0,0,0-3-2.85,4.06,4.06,0,0,0-4.48,1.25,3,3,0,0,1-3,1.12c-3.34-.72-7.35,1.16-10.52,3.07a7.94,7.94,0,0,0-1.41,1.07,3.66,3.66,0,0,1-4.52.7c-2.09-1.32-4-3-6.09-4.34a21.65,21.65,0,0,0-19.83-1.48c-1.08.47-2.26,1.25-2.28,2.42,0,.77.51,1.47.54,2.24.07,2.06-2.88,2.57-4.28,4.08-1.2,1.29-1.4,3.55-3,4.19-1.38.55-2.85-.45-4.32-.66-3.3-.46-5.74,3-6.88,6.14a26.57,26.57,0,0,1-2.5,5.71,2.84,2.84,0,0,1-4.29.3c-2.9-2.63-8.23-2.65-10.67.59-1.75,2.31-2,5.6-4.11,7.59-1.69,1.6-4.15,2-6.45,2.3-6.68.91-13.64,1.79-20-.42-1.26-.44-2.62-1-3.86-.54-1.61.58-3.38,2.64-4.49,1.34-.51-.59-.3-1.5-.46-2.26-.45-2.15-3.36-2.49-5.53-2.17s-4.92.55-6-1.35c-.7-1.23-.3-2.86-1-4.11C228.29,435.92,227.35,435.15,225.21,435.46Z" transform="translate(0 -5.29)"/><path class="cls-4" d="M225.21,435.46l-2.47-7.11a7.17,7.17,0,0,0,9.19-4.76c.63-2.57,3-3.21,4.15-5.45,1.39-2.75-.52-6.33,1.49-8.92,1.63-2.12,5.48-2.25,6.1-4.84a5.42,5.42,0,0,1-4.35-3.16c-1.25-2.42-.53-5.57-2.7-7.55,2.32.09,4.76.41,7.16.28.66-1.31-1.46-2.45-1.53-3.91s1.56-2.07,2.86-2.5a25.3,25.3,0,0,0,12.58-9.24,24.06,24.06,0,0,1-3.4-15.42c.37-3.53.85-7.16-.2-10.55a25.63,25.63,0,0,0-1.76-4c-1.31-2.57-2.58-5.27-2.7-8.15a8.34,8.34,0,0,1,1.79-5.69c1.66-2,4.08-1.83,6.26-2.89,1-.49,1.9-1.19,2.9-1.69a4.53,4.53,0,0,1,2.19-.52c.25,0,.86.26,1,.08s-.11-1.26-.14-1.5a44.59,44.59,0,0,1-.18-5.89,39,39,0,0,1,2.09-11.36,14,14,0,0,0,1.18-4.84c0-1.16-.35-2.45.32-3.4a5,5,0,0,1,1.92-1.28c3.58-1.85,4.9-6,4.36-9.94.41,5.39-.49,12.26-1.29,17.61-.87,5.84-1.38,12,.69,17.51,1.6,4.28,4.66,7.93,5.95,12.31.62,2.08.82,4.27,1.44,6.34,1.46,5.48,5.12,9.52,5.27,15a2.31,2.31,0,0,0,2.39,2.28,16.35,16.35,0,0,1,6.41.81c1.84.66,3.73,1.67,5.63,1.23,2.3-.54,3.61-3,4.11-5.29s.49-4.77,1.54-6.88,3.71-3.73,5.77-2.57c1.55.88,2.45,3.13,4.24,3,2-.11,2.78-3.1,4.75-3.27,1.73-.15,2.76,1.92,4.33,2.67,2.16,1,4.54-.64,6.83-1.34,4.24-1.3,8.65.85,13,1.77a6.72,6.72,0,0,0,3.56,0c4-1.39,3.3-7.62,6.18-10.77,2.14-2.33,5.71-2.44,8.87-2.37a38.19,38.19,0,0,1,9.25.93c3.49.93,7.18,2.85,10.49,1.42,2.9-1.24,5-4.88,8.1-4.36A9.6,9.6,0,0,1,394,338.9c3,1.76,6.62,2.08,10,2.83s7.08,2.31,9.2,5.08a8.22,8.22,0,0,1,.62,8.84,5.06,5.06,0,0,0-.9,2.08c-.09,1.51,1.51,2.53,3,3a21.77,21.77,0,0,1,2.07.68,2.12,2.12,0,0,1,1,2.83,3.14,3.14,0,0,0,.72,3.87c1.58,1.46,3.86,2.35,4.65,4.35a7.41,7.41,0,0,1,.16,3.63c-.61,5.09-1.34,10.48-4.56,14.48-.67.82-1.48,1.72-1.34,2.78.08.64.53,1.24.43,1.88-.15.86-1.13,1.23-1.87,1.7-2.38,1.51-2.55,5-1.53,7.65s2.91,4.85,3.89,7.49a4.36,4.36,0,0,1-.74,4,4.79,4.79,0,0,1-4.08,2c-3-.07-3.83-3.14-6.08-4.19-2-.94-4.4.11-6.64.25-4.49.26-8.23-3.14-12.17-5.3a5.78,5.78,0,0,0-2.71-.87c-3.42,0-4.42,4.62-4.48,8.05a3.4,3.4,0,0,1-.74,2.52c-1.75,1.65-4.57-1.28-6.76-1.82a5.7,5.7,0,0,1-3.41-2.76,6.57,6.57,0,0,0-3-2.85,4.06,4.06,0,0,0-4.48,1.25,3,3,0,0,1-3,1.12c-3.34-.72-7.35,1.16-10.52,3.07a7.94,7.94,0,0,0-1.41,1.07,3.66,3.66,0,0,1-4.52.7c-2.09-1.32-4-3-6.09-4.34a21.65,21.65,0,0,0-19.83-1.48c-1.08.47-2.26,1.25-2.28,2.42,0,.77.51,1.47.54,2.24.07,2.06-2.88,2.57-4.28,4.08-1.2,1.29-1.4,3.55-3,4.19-1.38.55-2.85-.45-4.32-.66-3.3-.46-5.74,3-6.88,6.14a26.57,26.57,0,0,1-2.5,5.71,2.84,2.84,0,0,1-4.29.3c-2.9-2.63-8.23-2.65-10.67.59-1.75,2.31-2,5.6-4.11,7.59-1.69,1.6-4.15,2-6.45,2.3-6.68.91-13.64,1.79-20-.42-1.26-.44-2.62-1-3.86-.54-1.61.58-3.38,2.64-4.49,1.34-.51-.59-.3-1.5-.46-2.26-.45-2.15-3.36-2.49-5.53-2.17s-4.92.55-6-1.35c-.7-1.23-.3-2.86-1-4.11C228.29,435.92,227.35,435.15,225.21,435.46Z" transform="translate(0 -5.29)"/><path class="cls-5" d="M236.26,444.27c2.19-1.47,4.78-2.46,5.55,1.18.16.76-.05,1.67.46,2.26,1.15,1.35,2.72-.7,3.79-1.07,3.34-1.16,7.95,1.36,11.46,1.59a66.12,66.12,0,0,0,13.1-.9c2.3-.31,4.76-.7,6.45-2.3,2.1-2,2.36-5.28,4.11-7.59,2.23-3,6.89-3.2,9.88-1.2a4.06,4.06,0,0,0,6-1.4c.61-1.29,1.07-2.7,1.55-4,1.14-3.13,3.58-6.6,6.88-6.14,1.47.21,2.94,1.21,4.32.66,1.63-.64,1.83-2.9,3-4.19,1.36-1.47,4.89-2.07,4.15-4.68a4.92,4.92,0,0,1-.38-1.8c.35-3.28,7.68-3.91,10-4a21.55,21.55,0,0,1,12.07,3.2c1.74,1.1,3.35,2.46,5,3.64a5,5,0,0,0,6-.39,10,10,0,0,1,1-.68c3-1.84,6.86-3.64,10.11-3.15a4.35,4.35,0,0,0,3.67-1.35,4,4,0,0,1,4.2-.94,7,7,0,0,1,3.28,3.39,4.38,4.38,0,0,0,3,2.2c2.2.47,5.09,3.51,6.87,1.84a3.4,3.4,0,0,0,.74-2.52c.06-3.43,1.06-8,4.48-8.05a5.78,5.78,0,0,1,2.71.87c3.94,2.16,7.68,5.56,12.17,5.3,2.24-.14,4.6-1.19,6.64-.25,2.24,1.05,3.06,4.12,6.08,4.19,1.48,0,3.36-2.35,4.71-1.94,2.41.74.69,6.83.5,8.54a168.1,168.1,0,0,0-.84,16.94c-.05,3.75-.54,7.47-.57,11.21,0,3.1,1.29,7.63,0,10.38-3.32-1.14-3.89-3.77-7.95-3.36a9.6,9.6,0,0,0-6.6,3.82,10.6,10.6,0,0,1-4.07,3.32c-2.32,1.06-1.71,4.5-4.19,5.36a3,3,0,0,1-2.94-.84c-1.09-.84-2.27-1.64-3.31-2.55-2.26-2-3.18-4.79-6.76-4a5.62,5.62,0,0,0-3.64,3c-.57,1.14-.2,3.33-1.13,4.13s-2.74.9-3.87,1.7a28.16,28.16,0,0,0-3.28,3.09c-1.87,1.81-4.06,4.12-6.93,3.7-3.2-.46-4.75-4-6.54-6.73s-6.07-4.79-7.95-2.15c-1.46,2-.13,5.58-2.23,7s-4.85-.87-6.88.33c-1.09.65-1.51,2.07-2.57,2.77-2.54,1.71-7.39-1.26-8.42,1.62-.66,1.84,1.5,3.7.24,5.41-2.31,3.12-12.27.68-14.77-1.26-2.12-1.64-4.68-4.41-6.86-2.84-1.46,1.06-1.5,3.6-3.19,4.21-.91.32-1.91-.08-2.87,0-2.92.14-3.95,3.89-6,5.94-3.93,3.89-10.37,1.07-15.73-.26-8.5-2.1-17.25.31-25.52,2.29a95.81,95.81,0,0,1-14.47,2.31c-2.11.18-5.44.74-7.45-.25-3.14-1.54.08-3.75-.86-6.63-1-3.12-4.7-4.12-7.5-4.9l-9.18-2.57c-1.19-.34-2.57-.87-2.83-2.08s.85-2.32,1-3.57c.26-2-1.84-3.46-2.46-5.37-.84-2.58,1-4.76,1.45-7.19.71-4-5.13-6.19,2.1-9.67a22.09,22.09,0,0,1,7.36-2c3.44-.37,2.68-1.57,3.43-4.12a3.64,3.64,0,0,1,2.32-2.16,17.71,17.71,0,0,0,6.06-2.31C234.12,445.9,235.14,445,236.26,444.27Z" transform="translate(0 -5.29)"/><path class="cls-4" d="M236.26,444.27c2.19-1.47,4.78-2.46,5.55,1.18.16.76-.05,1.67.46,2.26,1.15,1.35,2.72-.7,3.79-1.07,3.34-1.16,7.95,1.36,11.46,1.59a66.12,66.12,0,0,0,13.1-.9c2.3-.31,4.76-.7,6.45-2.3,2.1-2,2.36-5.28,4.11-7.59,2.23-3,6.89-3.2,9.88-1.2a4.06,4.06,0,0,0,6-1.4c.61-1.29,1.07-2.7,1.55-4,1.14-3.13,3.58-6.6,6.88-6.14,1.47.21,2.94,1.21,4.32.66,1.63-.64,1.83-2.9,3-4.19,1.36-1.47,4.89-2.07,4.15-4.68a4.92,4.92,0,0,1-.38-1.8c.35-3.28,7.68-3.91,10-4a21.55,21.55,0,0,1,12.07,3.2c1.74,1.1,3.35,2.46,5,3.64a5,5,0,0,0,6-.39,10,10,0,0,1,1-.68c3-1.84,6.86-3.64,10.11-3.15a4.35,4.35,0,0,0,3.67-1.35,4,4,0,0,1,4.2-.94,7,7,0,0,1,3.28,3.39,4.38,4.38,0,0,0,3,2.2c2.2.47,5.09,3.51,6.87,1.84a3.4,3.4,0,0,0,.74-2.52c.06-3.43,1.06-8,4.48-8.05a5.78,5.78,0,0,1,2.71.87c3.94,2.16,7.68,5.56,12.17,5.3,2.24-.14,4.6-1.19,6.64-.25,2.24,1.05,3.06,4.12,6.08,4.19,1.48,0,3.36-2.35,4.71-1.94,2.41.74.69,6.83.5,8.54a168.1,168.1,0,0,0-.84,16.94c-.05,3.75-.54,7.47-.57,11.21,0,3.1,1.29,7.63,0,10.38-3.32-1.14-3.89-3.77-7.95-3.36a9.6,9.6,0,0,0-6.6,3.82,10.6,10.6,0,0,1-4.07,3.32c-2.32,1.06-1.71,4.5-4.19,5.36a3,3,0,0,1-2.94-.84c-1.09-.84-2.27-1.64-3.31-2.55-2.26-2-3.18-4.79-6.76-4a5.62,5.62,0,0,0-3.64,3c-.57,1.14-.2,3.33-1.13,4.13s-2.74.9-3.87,1.7a28.16,28.16,0,0,0-3.28,3.09c-1.87,1.81-4.06,4.12-6.93,3.7-3.2-.46-4.75-4-6.54-6.73s-6.07-4.79-7.95-2.15c-1.46,2-.13,5.58-2.23,7s-4.85-.87-6.88.33c-1.09.65-1.51,2.07-2.57,2.77-2.54,1.71-7.39-1.26-8.42,1.62-.66,1.84,1.5,3.7.24,5.41-2.31,3.12-12.27.68-14.77-1.26-2.12-1.64-4.68-4.41-6.86-2.84-1.46,1.06-1.5,3.6-3.19,4.21-.91.32-1.91-.08-2.87,0-2.92.14-3.95,3.89-6,5.94-3.93,3.89-10.37,1.07-15.73-.26-8.5-2.1-17.25.31-25.52,2.29a95.81,95.81,0,0,1-14.47,2.31c-2.11.18-5.44.74-7.45-.25-3.14-1.54.08-3.75-.86-6.63-1-3.12-4.7-4.12-7.5-4.9l-9.18-2.57c-1.19-.34-2.57-.87-2.83-2.08s.85-2.32,1-3.57c.26-2-1.84-3.46-2.46-5.37-.84-2.58,1-4.76,1.45-7.19.71-4-5.13-6.19,2.1-9.67a22.09,22.09,0,0,1,7.36-2c3.44-.37,2.68-1.57,3.43-4.12a3.64,3.64,0,0,1,2.32-2.16,17.71,17.71,0,0,0,6.06-2.31C234.12,445.9,235.14,445,236.26,444.27Z" transform="translate(0 -5.29)"/><path class="cls-5" d="M68.27,535.23c1.57-1.64,4.1-1.54,6-2.64a19.71,19.71,0,0,1,11.22-2.9c1.38.11,2.94.37,4-.54s1-2.67.49-4-1.23-2.69-1.13-4.12,1.14-2.8,1.89-4.12c2.18-3.82,2.13-8.45,2.35-12.84s.92-9.14,4.08-12.19c2-2,4.71-2.85,7.37-3.55,1.91-.49,6.54-.28,6.82-3a4.9,4.9,0,0,0-.89-2.88c-.66-1.12-1.39-2-.77-3.35s2.44-1.42,2.51-3-2.38-2.54-2.78-4.22c-.87-3.67,2.24-7.16,4.5-9.64,1.48-1.64,8.9-7.52,4.31-9.09-3.29-1.14-3.34-4.41-5.36-6.73-1.53-1.74-4.34-2.68-4.57-5a4.92,4.92,0,0,1,.54-2.42c1.56-3.71,4.05-6.91,6.31-10.21.66-1,1.35-2.09,1-3.21a15.31,15.31,0,0,0-.91-1.75c-.57-1.38,1-2.63,1.89-3.42s2-2.45,3.07-2.94c.87-.4,1.79.09,2.69.09a13.58,13.58,0,0,1,3-.15c6.82,1.41,11.63,7.56,18.79,7.43a9,9,0,0,1,3,.18c3.46,1.17,5.61,4.18,8.48,6.23,2.07,1.48,4.47,2.11,6.69,3.27.62.33,2.64,2.07,3.18,2.06,1.89,0,.61-.64,1.55-2s3.2.23,4.21-1.59c2.82-5.07-5.64-4.81-7.49-5.47a3.14,3.14,0,0,1-1.51-1.72c-2.14-4.27-6.89-11-6.39-16,.38-3.66,3.22-6.48,2.37-10.34-.29-1.35-1-2.67-.76-4,.27-1.95,2.93-5.4,4.33-6.81,2.4-2.4,4-1.9,5.95.71a103,103,0,0,0,7.42,8.34,7.15,7.15,0,0,0,3.41,2.36c.84.19,1.71.08,2.55.2,1.85.26,3.37,1.55,4.77,2.79l12.62,11.1c2.53,2.23,3.39,5.56,6,7.84,4.09,3.62,7.24,8.27,11.66,11.48a11.49,11.49,0,0,0,4.76,2.28c3,.42,5.94-1.28,7.76,2.11.67,1.25.27,2.88,1,4.11a3.56,3.56,0,0,0,3,1.55c.46,0,3.41-.58,3,.52a1.07,1.07,0,0,1-.39.46,22.11,22.11,0,0,1-8.5,4.18,3.64,3.64,0,0,0-2.32,2.16c-.75,2.55,0,3.75-3.43,4.12a22.09,22.09,0,0,0-7.36,2c-7.23,3.48-1.39,5.63-2.1,9.67-.42,2.43-2.29,4.61-1.45,7.19.62,1.91,2.72,3.38,2.46,5.37-.16,1.25-1.27,2.35-1,3.57s1.64,1.74,2.83,2.08l9.18,2.57c2.8.78,6.49,1.78,7.5,4.9.94,2.88-2.28,5.09.86,6.63,2,1,5.34.43,7.45.25a95.81,95.81,0,0,0,14.47-2.31c8.27-2,17-4.39,25.52-2.29,5.36,1.33,11.8,4.15,15.73.26,2.08-2.05,3.11-5.8,6-5.94,1-.05,2,.35,2.87,0,1.69-.61,1.73-3.15,3.19-4.21,2.18-1.57,4.74,1.2,6.86,2.84,2.5,1.94,12.46,4.38,14.77,1.26,1.26-1.71-.9-3.57-.24-5.41,1-2.88,5.88.09,8.42-1.62,1.06-.7,1.48-2.12,2.57-2.77,2-1.2,4.91,1,6.88-.33s.77-4.93,2.23-7c1.88-2.64,6.16-.55,7.95,2.15s3.34,6.27,6.54,6.73c2.87.42,5.06-1.89,6.93-3.7a28.16,28.16,0,0,1,3.28-3.09c1.13-.8,2.94-.9,3.87-1.7s.56-3,1.13-4.13a5.62,5.62,0,0,1,3.64-3c3.58-.82,4.5,2,6.76,4,1,.91,2.22,1.71,3.31,2.55a3,3,0,0,0,2.94.84c2.48-.86,1.87-4.3,4.19-5.36A10.6,10.6,0,0,0,404,463.6a9.6,9.6,0,0,1,6.6-3.82c4.06-.41,4.63,2.22,7.95,3.36,0-1,.43-2.15.47-3.14,2.35.52,4.43-1.43,6.53-2.6,4-2.24,9-1.74,13.53-1.16s9.59,1.23,13.59,3.78c2.72,1.73,5.41,4.41,8.58,3.85,1.7-.3,5.17-2,5.69.94a2.88,2.88,0,0,1-.42,1.93,26,26,0,0,1-3.55,3.95l-4.35,4.63q-4.24,4.55-8.51,9.08a31.9,31.9,0,0,1-5.79,5.23c-1.63,1-3.44,1.76-5,2.84a15.85,15.85,0,0,0-4.9,5.79,2.42,2.42,0,0,1-1.22,1.18,3,3,0,0,1-1.26.06,85.9,85.9,0,0,1-9.6-1.19c-2.3-.49-4-2.47-5.93-3.77a30.18,30.18,0,0,0-7.13-3.86,17.37,17.37,0,0,0-7.17-1c-1.64.12-5.11.55-5.86,2.36a3.94,3.94,0,0,0-.14,1.61c.2,5.73-3.39,10.45-6.82,14.69a6.4,6.4,0,0,1-2,1.86,5.54,5.54,0,0,1-3.79.07,56,56,0,0,0-5.8-1.6,6.34,6.34,0,0,0-5.58,1.54c-.85.92-2.31-.36-3.45-.87-1.74-.78-3.75.55-5.64.28-2.65-.38-4.41-3.8-7.07-3.44-1.48.21-2.52,1.55-3.85,2.21a4.62,4.62,0,0,1-5-.71c-1.1-1-1.62-2.49-2.54-3.67a6.91,6.91,0,0,0-8.12-2c-1.5.7-3.2,2.27-5,2-1.35-.21-2.14-1.48-3.41-1.85-1.66-.49-3.26,1-4.37,2-1.93,1.88-4.24,3.54-6.14,5.54-.71.75-2.36,2.27-2.48,3.36s1.43,1.57,1.61,2.71a3,3,0,0,1-1.24,2.81,5.59,5.59,0,0,1-4.57.48c-1.53-.39-3-1.08-4.54-1.37a2.09,2.09,0,0,0-2.2.57c-.53.82.11,2-.26,2.86-.47,1.12-2.21,1-3.1.21a11.37,11.37,0,0,1-1.82-3.14,7.75,7.75,0,0,0-6.81-4,4.41,4.41,0,0,0-3.86,1.93,10.16,10.16,0,0,0-.7,3.17c-.41,2.28-1.2,5-3.25,6.09-9.09,4.88-16.07,11.75-20.27,20.87a2.58,2.58,0,0,1-2.54,1.14c-1-.07-1.79-1-2.82-.76a1.59,1.59,0,0,0-1.12,1.43c-.09,1,.59,1.74,1.07,2.55,1.25,2.15-1.54,4.06-1.11,6.28a4.09,4.09,0,0,0,2.6,2.73c1.2.51,2.52.7,3.76,1.13,4.09,1.43,6.77,5.31,8.94,9.07a6.09,6.09,0,0,1,1,2.42,2.17,2.17,0,0,1-1.07,2.21c-1.76-.13-3.7-.14-5.1.92a9.29,9.29,0,0,1-1.8,1.42c-1.06.45-2.26-.07-3.3-.56a134.45,134.45,0,0,0-13.92-5.68,28.61,28.61,0,0,0-8.35-1.56,33.07,33.07,0,0,1-5.63-.33,20.29,20.29,0,0,1-5.27-2.22L219,561a6.67,6.67,0,0,0-2.52-1,3.44,3.44,0,0,0-2.34.64,14.38,14.38,0,0,1-1.67,1.36c-1.77.91-3.71-.69-5.33-1.84a13.88,13.88,0,0,0-8.5-2.55c-1.56.06-3.22.36-4.58-.4s-2-2.42-2.9-3.78-2.5-2.62-4-1.94c-.78.36-1.24,1.17-1.82,1.8a5.25,5.25,0,0,1-4.91,1.55A29.7,29.7,0,0,0,177,553.8c-1.86-.19-3.55,1-5.2,1.81a22.57,22.57,0,0,1-5.11,2c-1.2.29-2.71.49-3.22-.89-.41-1.13,1.35-4.18.36-4.92-3-2.26-6.47-4.63-9.5-6.9a5.88,5.88,0,0,1-2.1-2.22c-.57-1.33-.12-2.87-.29-4.31-.34-2.92-3.21-4.92-6.05-5.7s-5.86-.72-8.68-1.57a35.56,35.56,0,0,0-4.33-1.36A4.46,4.46,0,0,0,128.7,531a4.22,4.22,0,0,0-.82,2.89c.05,1.08.33,2.31-.37,3.14-1.19,1.44-3.75.12-5.31,1.14-.53.35-.87.92-1.38,1.29-1.11.79-2.66.4-3.84-.27a13.28,13.28,0,0,0-3.61-1.85,3,3,0,0,0-3.59,2.09c-.21,1.19.51,2.33.68,3.52A5.24,5.24,0,0,1,109,547a15.74,15.74,0,0,1-3.49,2.72l-2.37,1.5c-5.86-1.12-10.74-4.83-16.48-6.48-4.82-1.39-9.94-1.19-14.86-2.12-1.35-.26-4.46-.39-4.93-2.1A5.8,5.8,0,0,1,68.27,535.23Z" transform="translate(0 -5.29)"/><path class="cls-4" d="M68.27,535.23c1.57-1.64,4.1-1.54,6-2.64a19.71,19.71,0,0,1,11.22-2.9c1.38.11,2.94.37,4-.54s1-2.67.49-4-1.23-2.69-1.13-4.12,1.14-2.8,1.89-4.12c2.18-3.82,2.13-8.45,2.35-12.84s.92-9.14,4.08-12.19c2-2,4.71-2.85,7.37-3.55,1.91-.49,6.54-.28,6.82-3a4.9,4.9,0,0,0-.89-2.88c-.66-1.12-1.39-2-.77-3.35s2.44-1.42,2.51-3-2.38-2.54-2.78-4.22c-.87-3.67,2.24-7.16,4.5-9.64,1.48-1.64,8.9-7.52,4.31-9.09-3.29-1.14-3.34-4.41-5.36-6.73-1.53-1.74-4.34-2.68-4.57-5a4.92,4.92,0,0,1,.54-2.42c1.56-3.71,4.05-6.91,6.31-10.21.66-1,1.35-2.09,1-3.21a15.31,15.31,0,0,0-.91-1.75c-.57-1.38,1-2.63,1.89-3.42s2-2.45,3.07-2.94c.87-.4,1.79.09,2.69.09a13.58,13.58,0,0,1,3-.15c6.82,1.41,11.63,7.56,18.79,7.43a9,9,0,0,1,3,.18c3.46,1.17,5.61,4.18,8.48,6.23,2.07,1.48,4.47,2.11,6.69,3.27.62.33,2.64,2.07,3.18,2.06,1.89,0,.61-.64,1.55-2s3.2.23,4.21-1.59c2.82-5.07-5.64-4.81-7.49-5.47a3.14,3.14,0,0,1-1.51-1.72c-2.14-4.27-6.89-11-6.39-16,.38-3.66,3.22-6.48,2.37-10.34-.29-1.35-1-2.67-.76-4,.27-1.95,2.93-5.4,4.33-6.81,2.4-2.4,4-1.9,5.95.71a103,103,0,0,0,7.42,8.34,7.15,7.15,0,0,0,3.41,2.36c.84.19,1.71.08,2.55.2,1.85.26,3.37,1.55,4.77,2.79l12.62,11.1c2.53,2.23,3.39,5.56,6,7.84,4.09,3.62,7.24,8.27,11.66,11.48a11.49,11.49,0,0,0,4.76,2.28c3,.42,5.94-1.28,7.76,2.11.67,1.25.27,2.88,1,4.11a3.56,3.56,0,0,0,3,1.55c.46,0,3.41-.58,3,.52a1.07,1.07,0,0,1-.39.46,22.11,22.11,0,0,1-8.5,4.18,3.64,3.64,0,0,0-2.32,2.16c-.75,2.55,0,3.75-3.43,4.12a22.09,22.09,0,0,0-7.36,2c-7.23,3.48-1.39,5.63-2.1,9.67-.42,2.43-2.29,4.61-1.45,7.19.62,1.91,2.72,3.38,2.46,5.37-.16,1.25-1.27,2.35-1,3.57s1.64,1.74,2.83,2.08l9.18,2.57c2.8.78,6.49,1.78,7.5,4.9.94,2.88-2.28,5.09.86,6.63,2,1,5.34.43,7.45.25a95.81,95.81,0,0,0,14.47-2.31c8.27-2,17-4.39,25.52-2.29,5.36,1.33,11.8,4.15,15.73.26,2.08-2.05,3.11-5.8,6-5.94,1-.05,2,.35,2.87,0,1.69-.61,1.73-3.15,3.19-4.21,2.18-1.57,4.74,1.2,6.86,2.84,2.5,1.94,12.46,4.38,14.77,1.26,1.26-1.71-.9-3.57-.24-5.41,1-2.88,5.88.09,8.42-1.62,1.06-.7,1.48-2.12,2.57-2.77,2-1.2,4.91,1,6.88-.33s.77-4.93,2.23-7c1.88-2.64,6.16-.55,7.95,2.15s3.34,6.27,6.54,6.73c2.87.42,5.06-1.89,6.93-3.7a28.16,28.16,0,0,1,3.28-3.09c1.13-.8,2.94-.9,3.87-1.7s.56-3,1.13-4.13a5.62,5.62,0,0,1,3.64-3c3.58-.82,4.5,2,6.76,4,1,.91,2.22,1.71,3.31,2.55a3,3,0,0,0,2.94.84c2.48-.86,1.87-4.3,4.19-5.36A10.6,10.6,0,0,0,404,463.6a9.6,9.6,0,0,1,6.6-3.82c4.06-.41,4.63,2.22,7.95,3.36,0-1,.43-2.15.47-3.14,2.35.52,4.43-1.43,6.53-2.6,4-2.24,9-1.74,13.53-1.16s9.59,1.23,13.59,3.78c2.72,1.73,5.41,4.41,8.58,3.85,1.7-.3,5.17-2,5.69.94a2.88,2.88,0,0,1-.42,1.93,26,26,0,0,1-3.55,3.95l-4.35,4.63q-4.24,4.55-8.51,9.08a31.9,31.9,0,0,1-5.79,5.23c-1.63,1-3.44,1.76-5,2.84a15.85,15.85,0,0,0-4.9,5.79,2.42,2.42,0,0,1-1.22,1.18,3,3,0,0,1-1.26.06,85.9,85.9,0,0,1-9.6-1.19c-2.3-.49-4-2.47-5.93-3.77a30.18,30.18,0,0,0-7.13-3.86,17.37,17.37,0,0,0-7.17-1c-1.64.12-5.11.55-5.86,2.36a3.94,3.94,0,0,0-.14,1.61c.2,5.73-3.39,10.45-6.82,14.69a6.4,6.4,0,0,1-2,1.86,5.54,5.54,0,0,1-3.79.07,56,56,0,0,0-5.8-1.6,6.34,6.34,0,0,0-5.58,1.54c-.85.92-2.31-.36-3.45-.87-1.74-.78-3.75.55-5.64.28-2.65-.38-4.41-3.8-7.07-3.44-1.48.21-2.52,1.55-3.85,2.21a4.62,4.62,0,0,1-5-.71c-1.1-1-1.62-2.49-2.54-3.67a6.91,6.91,0,0,0-8.12-2c-1.5.7-3.2,2.27-5,2-1.35-.21-2.14-1.48-3.41-1.85-1.66-.49-3.26,1-4.37,2-1.93,1.88-4.24,3.54-6.14,5.54-.71.75-2.36,2.27-2.48,3.36s1.43,1.57,1.61,2.71a3,3,0,0,1-1.24,2.81,5.59,5.59,0,0,1-4.57.48c-1.53-.39-3-1.08-4.54-1.37a2.09,2.09,0,0,0-2.2.57c-.53.82.11,2-.26,2.86-.47,1.12-2.21,1-3.1.21a11.37,11.37,0,0,1-1.82-3.14,7.75,7.75,0,0,0-6.81-4,4.41,4.41,0,0,0-3.86,1.93,10.16,10.16,0,0,0-.7,3.17c-.41,2.28-1.2,5-3.25,6.09-9.09,4.88-16.07,11.75-20.27,20.87a2.58,2.58,0,0,1-2.54,1.14c-1-.07-1.79-1-2.82-.76a1.59,1.59,0,0,0-1.12,1.43c-.09,1,.59,1.74,1.07,2.55,1.25,2.15-1.54,4.06-1.11,6.28a4.09,4.09,0,0,0,2.6,2.73c1.2.51,2.52.7,3.76,1.13,4.09,1.43,6.77,5.31,8.94,9.07a6.09,6.09,0,0,1,1,2.42,2.17,2.17,0,0,1-1.07,2.21c-1.76-.13-3.7-.14-5.1.92a9.29,9.29,0,0,1-1.8,1.42c-1.06.45-2.26-.07-3.3-.56a134.45,134.45,0,0,0-13.92-5.68,28.61,28.61,0,0,0-8.35-1.56,33.07,33.07,0,0,1-5.63-.33,20.29,20.29,0,0,1-5.27-2.22L219,561a6.67,6.67,0,0,0-2.52-1,3.44,3.44,0,0,0-2.34.64,14.38,14.38,0,0,1-1.67,1.36c-1.77.91-3.71-.69-5.33-1.84a13.88,13.88,0,0,0-8.5-2.55c-1.56.06-3.22.36-4.58-.4s-2-2.42-2.9-3.78-2.5-2.62-4-1.94c-.78.36-1.24,1.17-1.82,1.8a5.25,5.25,0,0,1-4.91,1.55A29.7,29.7,0,0,0,177,553.8c-1.86-.19-3.55,1-5.2,1.81a22.57,22.57,0,0,1-5.11,2c-1.2.29-2.71.49-3.22-.89-.41-1.13,1.35-4.18.36-4.92-3-2.26-6.47-4.63-9.5-6.9a5.88,5.88,0,0,1-2.1-2.22c-.57-1.33-.12-2.87-.29-4.31-.34-2.92-3.21-4.92-6.05-5.7s-5.86-.72-8.68-1.57a35.56,35.56,0,0,0-4.33-1.36A4.46,4.46,0,0,0,128.7,531a4.22,4.22,0,0,0-.82,2.89c.05,1.08.33,2.31-.37,3.14-1.19,1.44-3.75.12-5.31,1.14-.53.35-.87.92-1.38,1.29-1.11.79-2.66.4-3.84-.27a13.28,13.28,0,0,0-3.61-1.85,3,3,0,0,0-3.59,2.09c-.21,1.19.51,2.33.68,3.52A5.24,5.24,0,0,1,109,547a15.74,15.74,0,0,1-3.49,2.72l-2.37,1.5c-5.86-1.12-10.74-4.83-16.48-6.48-4.82-1.39-9.94-1.19-14.86-2.12-1.35-.26-4.46-.39-4.93-2.1A5.8,5.8,0,0,1,68.27,535.23Z" transform="translate(0 -5.29)"/><path class="cls-3" d="M103.19,551.26c1.53-1.68,5.35-3.68,5.84-4.24a5.24,5.24,0,0,0,1.43-4.07c-.17-1.19-.89-2.33-.68-3.52a3,3,0,0,1,3.59-2.09,13.28,13.28,0,0,1,3.61,1.85c1.18.67,2.73,1.06,3.84.27.51-.37.85-.94,1.38-1.29,1.56-1,4.12.3,5.31-1.14.7-.83.42-2.06.37-3.14a4.22,4.22,0,0,1,.82-2.89,4.46,4.46,0,0,1,4.18-1.21,35.56,35.56,0,0,1,4.33,1.36c2.82.85,5.85.8,8.68,1.57s5.71,2.78,6.05,5.7c.17,1.44-.28,3,.29,4.31a5.88,5.88,0,0,0,2.1,2.22c3,2.27,6.47,4.64,9.5,6.9.46.35.32,1.2.09,2.12a3.24,3.24,0,0,1-2.6,2.49,5,5,0,0,0-3.14,1.75c-.44.57-.81,1.31-1.52,1.47-1.16.26-1.94-1.25-3.08-1.59s-2.06.41-3.06.83a6,6,0,0,1-4.42.07,1.66,1.66,0,0,0-1.1-.2,1.37,1.37,0,0,0-.7.74c-1.82,3.5-.79,7.88-2.18,11.58a2.18,2.18,0,0,1-.7,1.07c-.94.69-2.41-.15-3.4.46-.59.37-.89,1.19-1.57,1.35s-1.28-.45-1.72-1l-3.47-4.31a10.53,10.53,0,0,1-2.41-4.22,24.14,24.14,0,0,1-.06-4,3.9,3.9,0,0,0-1.67-3.44,4.57,4.57,0,0,0-2.41-.33,35,35,0,0,0-10.12,2.1,2.76,2.76,0,0,1-1.58.27c-1.08-.25-1.38-1.58-1.83-2.59-1.31-3-3.37-3-6-3.56C103.79,552.61,102.31,552.22,103.19,551.26Z" transform="translate(0 -5.29)"/><path class="cls-4" d="M103.19,551.26c1.53-1.68,5.35-3.68,5.84-4.24a5.24,5.24,0,0,0,1.43-4.07c-.17-1.19-.89-2.33-.68-3.52a3,3,0,0,1,3.59-2.09,13.28,13.28,0,0,1,3.61,1.85c1.18.67,2.73,1.06,3.84.27.51-.37.85-.94,1.38-1.29,1.56-1,4.12.3,5.31-1.14.7-.83.42-2.06.37-3.14a4.22,4.22,0,0,1,.82-2.89,4.46,4.46,0,0,1,4.18-1.21,35.56,35.56,0,0,1,4.33,1.36c2.82.85,5.85.8,8.68,1.57s5.71,2.78,6.05,5.7c.17,1.44-.28,3,.29,4.31a5.88,5.88,0,0,0,2.1,2.22c3,2.27,6.47,4.64,9.5,6.9.46.35.32,1.2.09,2.12a3.24,3.24,0,0,1-2.6,2.49,5,5,0,0,0-3.14,1.75c-.44.57-.81,1.31-1.52,1.47-1.16.26-1.94-1.25-3.08-1.59s-2.06.41-3.06.83a6,6,0,0,1-4.42.07,1.66,1.66,0,0,0-1.1-.2,1.37,1.37,0,0,0-.7.74c-1.82,3.5-.79,7.88-2.18,11.58a2.18,2.18,0,0,1-.7,1.07c-.94.69-2.41-.15-3.4.46-.59.37-.89,1.19-1.57,1.35s-1.28-.45-1.72-1l-3.47-4.31a10.53,10.53,0,0,1-2.41-4.22,24.14,24.14,0,0,1-.06-4,3.9,3.9,0,0,0-1.67-3.44,4.57,4.57,0,0,0-2.41-.33,35,35,0,0,0-10.12,2.1,2.76,2.76,0,0,1-1.58.27c-1.08-.25-1.38-1.58-1.83-2.59-1.31-3-3.37-3-6-3.56C103.79,552.61,102.31,552.22,103.19,551.26Z" transform="translate(0 -5.29)"/><path class="cls-5" d="M160.89,624.37a14.12,14.12,0,0,0-3.66-4.77c-4.3-4.21-8.66-8.46-13.92-11.38-2.89-1.61-5.84-3.11-8.77-4.65-2.13-1.12-7.19-2.8-8.32-5-.62-1.24,1.5-2.95,1.67-4.21.21-1.61-.22-3.53,1-4.82.76-.79,1.91-1,2.83-1.59,3.54-2.24,3.31-5.95,8.24-5.89,3.22,0,7.08-.26,9.87-2,1.67-1,2-2.07,2.5-3.81.71-2.29,2.16-3,4.39-3.71,3.47-1.06,7.12-2,10.14-4.11a8.05,8.05,0,0,0,3.69-6.65c.08-3-.38-5.91-3.89-4.08-1.09.57-2.71.49-3.22-.89a5.3,5.3,0,0,0-2.15-.31,5,5,0,0,0-3.14,1.75c-.44.57-.81,1.31-1.52,1.47-1.16.26-1.94-1.25-3.08-1.59s-2.06.41-3.06.83a6,6,0,0,1-4.42.07,1.66,1.66,0,0,0-1.1-.2,1.37,1.37,0,0,0-.7.74c-1.82,3.5-.79,7.88-2.18,11.58a2.18,2.18,0,0,1-.7,1.07c-.94.69-2.41-.15-3.4.46-.59.37-.89,1.19-1.57,1.35s-1.28-.45-1.72-1l-3.47-4.31a10.53,10.53,0,0,1-2.41-4.22,24.14,24.14,0,0,1-.06-4,3.9,3.9,0,0,0-1.67-3.44,4.57,4.57,0,0,0-2.41-.33,35,35,0,0,0-10.12,2.1,2.76,2.76,0,0,1-1.58.27c-1.08-.25-1.38-1.58-1.83-2.59-1.31-3-3.37-3-6-3.56-.8-.18-1.45-1.09-2-1.69-5.86-1.12-10.74-4.83-16.48-6.48-6.47-1.86-13.14-1.36-19.57-3.58a9.59,9.59,0,0,1-4.43,5.08,6.32,6.32,0,0,0-1.32.81c-1.17,1-.75,2.91-2.11,3.79-2.11,1.35-4.88-1-7.31-.41-3.42.82-3.25,6.1-6,8.25-1.4,1.09-3.38,1.21-4.74,2.35s-1.78,3.05-2.67,4.6c-2.16,3.8-2.63,3.14-5.7,6.07-.2,1.19.95,1.94,2.12,2.24a21.68,21.68,0,0,0,3.61.18c4.26.33,7.46,4.16,11.6,5.23,1.82.47,4,.54,5.06,2.11.52.79.63,1.87,1.38,2.45.45.36,1.07.46,1.55.79,1.3.89.95,3.07-.26,4.08a8.26,8.26,0,0,1-4.46,1.37,7.93,7.93,0,0,0-3.81,1c-1.13.86-.49,1.53-.5,2.52a6.09,6.09,0,0,1-1.36,3.66,8,8,0,0,0-1.22,4.89,5.28,5.28,0,0,0,.85,2.59c1.12,1.6,3.31,2.1,5.25,1.88a19.46,19.46,0,0,0,6.72-2c1.61-.86,2.4-.59,3.84.39,2.52,1.7,5.7,2.34,8,4.33,1.1.95,2,2.19,3.3,2.81,1.86.88,3,.79,3.64,3,.77,2.59,2,7.08,4.57,8.51a7.34,7.34,0,0,0,3.3.59c6.2.27,12.06,2.49,17.78,4.72,5.23,2,10.63,3.55,15.93,5.38,4,1.4,8.14,5.56,12.7,4.26,2.85-.82,5-3.18,7.88-4.24,3-1.13,6.18-1.81,9-3.44,2.55-1.48,4.71-3.71,7.52-4.6C158.34,625.94,160.16,625.84,160.89,624.37Z" transform="translate(0 -5.29)"/><path class="cls-4" d="M160.89,624.37a14.12,14.12,0,0,0-3.66-4.77c-4.3-4.21-8.66-8.46-13.92-11.38-2.89-1.61-5.84-3.11-8.77-4.65-2.13-1.12-7.19-2.8-8.32-5-.62-1.24,1.5-2.95,1.67-4.21.21-1.61-.22-3.53,1-4.82.76-.79,1.91-1,2.83-1.59,3.54-2.24,3.31-5.95,8.24-5.89,3.22,0,7.08-.26,9.87-2,1.67-1,2-2.07,2.5-3.81.71-2.29,2.16-3,4.39-3.71,3.47-1.06,7.12-2,10.14-4.11a8.05,8.05,0,0,0,3.69-6.65c.08-3-.38-5.91-3.89-4.08-1.09.57-2.71.49-3.22-.89a5.3,5.3,0,0,0-2.15-.31,5,5,0,0,0-3.14,1.75c-.44.57-.81,1.31-1.52,1.47-1.16.26-1.94-1.25-3.08-1.59s-2.06.41-3.06.83a6,6,0,0,1-4.42.07,1.66,1.66,0,0,0-1.1-.2,1.37,1.37,0,0,0-.7.74c-1.82,3.5-.79,7.88-2.18,11.58a2.18,2.18,0,0,1-.7,1.07c-.94.69-2.41-.15-3.4.46-.59.37-.89,1.19-1.57,1.35s-1.28-.45-1.72-1l-3.47-4.31a10.53,10.53,0,0,1-2.41-4.22,24.14,24.14,0,0,1-.06-4,3.9,3.9,0,0,0-1.67-3.44,4.57,4.57,0,0,0-2.41-.33,35,35,0,0,0-10.12,2.1,2.76,2.76,0,0,1-1.58.27c-1.08-.25-1.38-1.58-1.83-2.59-1.31-3-3.37-3-6-3.56-.8-.18-1.45-1.09-2-1.69-5.86-1.12-10.74-4.83-16.48-6.48-6.47-1.86-13.14-1.36-19.57-3.58a9.59,9.59,0,0,1-4.43,5.08,6.32,6.32,0,0,0-1.32.81c-1.17,1-.75,2.91-2.11,3.79-2.11,1.35-4.88-1-7.31-.41-3.42.82-3.25,6.1-6,8.25-1.4,1.09-3.38,1.21-4.74,2.35s-1.78,3.05-2.67,4.6c-2.16,3.8-2.63,3.14-5.7,6.07-.2,1.19.95,1.94,2.12,2.24a21.68,21.68,0,0,0,3.61.18c4.26.33,7.46,4.16,11.6,5.23,1.82.47,4,.54,5.06,2.11.52.79.63,1.87,1.38,2.45.45.36,1.07.46,1.55.79,1.3.89.95,3.07-.26,4.08a8.26,8.26,0,0,1-4.46,1.37,7.93,7.93,0,0,0-3.81,1c-1.13.86-.49,1.53-.5,2.52a6.09,6.09,0,0,1-1.36,3.66,8,8,0,0,0-1.22,4.89,5.28,5.28,0,0,0,.85,2.59c1.12,1.6,3.31,2.1,5.25,1.88a19.46,19.46,0,0,0,6.72-2c1.61-.86,2.4-.59,3.84.39,2.52,1.7,5.7,2.34,8,4.33,1.1.95,2,2.19,3.3,2.81,1.86.88,3,.79,3.64,3,.77,2.59,2,7.08,4.57,8.51a7.34,7.34,0,0,0,3.3.59c6.2.27,12.06,2.49,17.78,4.72,5.23,2,10.63,3.55,15.93,5.38,4,1.4,8.14,5.56,12.7,4.26,2.85-.82,5-3.18,7.88-4.24,3-1.13,6.18-1.81,9-3.44,2.55-1.48,4.71-3.71,7.52-4.6C158.34,625.94,160.16,625.84,160.89,624.37Z" transform="translate(0 -5.29)"/><path class="cls-5" d="M160.12,622.87a35.4,35.4,0,0,0-4.29-4.68,49.65,49.65,0,0,0-11.3-9.29c-3.28-1.87-6.65-3.57-10-5.33-2.13-1.12-7.19-2.8-8.32-5-.62-1.24,1.5-2.95,1.67-4.21.21-1.61-.22-3.53,1-4.82.76-.79,1.91-1,2.83-1.59,3.54-2.24,3.31-5.95,8.24-5.89,3.22,0,7.08-.26,9.87-2,1.67-1,2-2.07,2.5-3.81.71-2.29,2.16-3,4.39-3.71,3.47-1.06,7.12-2,10.14-4.11a8.33,8.33,0,0,0,3.28-4.23,8.06,8.06,0,0,0,.14-4c-.23-1.27-.92-2.54.24-3.55,1.69-1.48,4.1-3,6.45-2.76a29.7,29.7,0,0,1,3.45,1.06,5.25,5.25,0,0,0,4.91-1.55c.58-.63,1-1.44,1.82-1.8,1.46-.68,3.1.57,4,1.94s1.49,3,2.9,3.78,3,.46,4.58.4a13.88,13.88,0,0,1,8.5,2.55c1.2.85,2.72,2.23,4.3,2.11s2.46-1.9,4.16-2.18c2.29-.38,4.41,1.44,6.32,2.43,2.47,1.28,4.9,2.64,7.35,4a20.29,20.29,0,0,0,5.27,2.22,33.07,33.07,0,0,0,5.63.33,28.61,28.61,0,0,1,8.35,1.56,134.45,134.45,0,0,1,13.92,5.68c1,.49,2.24,1,3.3.56a9.29,9.29,0,0,0,1.8-1.42c1.4-1.06,3.34-1,5.1-.92.72-.83,1.8-1.92,2.72-1.32.64.41.72,1.3.75,2.06a11.81,11.81,0,0,0,1.86,6.43,20.63,20.63,0,0,0,4.16,3.68,8.14,8.14,0,0,1,3.25,4.39c.34,1.62-.16,3.41.56,4.91.64,1.33,2.17,2.2,2.41,3.66.27,1.66-1.25,3-2.61,4l-8.14,5.91a11.76,11.76,0,0,0-3.05,2.83,5.18,5.18,0,0,0-.13,4.59c2.91,6,3.18,12.83,4.74,19.19a87.55,87.55,0,0,0,4.28,12.94c1.74,4.12,4.14,8,5.79,12.11,1,2.58,1.27,5.09,3.13,7.28,2.06,2.43,4.58,3.27,7.23,4.78.9.52,1.9,1.2,2,2.34.09,1.43-1.05,1.7-1.81,2.57a3,3,0,0,0-.33,2.88c.38,1.14,2.3,3.49,1.2,4.66-2,2.1-9.87-4.59-11.42-5.76-2.84-2.14-5.67-4.34-8.29-6.75a86.52,86.52,0,0,0-13.46-9.36c-5.72-3.21-10.87-7.31-16-11.39l-19.23-15.3c-2.65-2.11-5.86-4.35-9.13-3.49-2.72.7-4.81,3.45-7.61,3.35-2.13-.07-4.41-1.79-6.18-.61-.81.53-1.19,1.52-1.88,2.2-1.74,1.73-4.68,1-7,1.78-2.08.71-3.5,2.57-5,4.16s-3.45,3.12-5.71,2.61c-1.56-.36-1.94-1.5-3.05-2.37s-3.13-1.12-4.6-1.19a16.22,16.22,0,0,1-5.26-.68c-3.19-1.24-4.84-4.67-6.46-7.69-1.92-3.59-4.44-7.19-8-9A5.72,5.72,0,0,1,160.12,622.87Z" transform="translate(0 -5.29)"/><path class="cls-4" d="M160.12,622.87a35.4,35.4,0,0,0-4.29-4.68,49.65,49.65,0,0,0-11.3-9.29c-3.28-1.87-6.65-3.57-10-5.33-2.13-1.12-7.19-2.8-8.32-5-.62-1.24,1.5-2.95,1.67-4.21.21-1.61-.22-3.53,1-4.82.76-.79,1.91-1,2.83-1.59,3.54-2.24,3.31-5.95,8.24-5.89,3.22,0,7.08-.26,9.87-2,1.67-1,2-2.07,2.5-3.81.71-2.29,2.16-3,4.39-3.71,3.47-1.06,7.12-2,10.14-4.11a8.33,8.33,0,0,0,3.28-4.23,8.06,8.06,0,0,0,.14-4c-.23-1.27-.92-2.54.24-3.55,1.69-1.48,4.1-3,6.45-2.76a29.7,29.7,0,0,1,3.45,1.06,5.25,5.25,0,0,0,4.91-1.55c.58-.63,1-1.44,1.82-1.8,1.46-.68,3.1.57,4,1.94s1.49,3,2.9,3.78,3,.46,4.58.4a13.88,13.88,0,0,1,8.5,2.55c1.2.85,2.72,2.23,4.3,2.11s2.46-1.9,4.16-2.18c2.29-.38,4.41,1.44,6.32,2.43,2.47,1.28,4.9,2.64,7.35,4a20.29,20.29,0,0,0,5.27,2.22,33.07,33.07,0,0,0,5.63.33,28.61,28.61,0,0,1,8.35,1.56,134.45,134.45,0,0,1,13.92,5.68c1,.49,2.24,1,3.3.56a9.29,9.29,0,0,0,1.8-1.42c1.4-1.06,3.34-1,5.1-.92.72-.83,1.8-1.92,2.72-1.32.64.41.72,1.3.75,2.06a11.81,11.81,0,0,0,1.86,6.43,20.63,20.63,0,0,0,4.16,3.68,8.14,8.14,0,0,1,3.25,4.39c.34,1.62-.16,3.41.56,4.91.64,1.33,2.17,2.2,2.41,3.66.27,1.66-1.25,3-2.61,4l-8.14,5.91a11.76,11.76,0,0,0-3.05,2.83,5.18,5.18,0,0,0-.13,4.59c2.91,6,3.18,12.83,4.74,19.19a87.55,87.55,0,0,0,4.28,12.94c1.74,4.12,4.14,8,5.79,12.11,1,2.58,1.27,5.09,3.13,7.28,2.06,2.43,4.58,3.27,7.23,4.78.9.52,1.9,1.2,2,2.34.09,1.43-1.05,1.7-1.81,2.57a3,3,0,0,0-.33,2.88c.38,1.14,2.3,3.49,1.2,4.66-2,2.1-9.87-4.59-11.42-5.76-2.84-2.14-5.67-4.34-8.29-6.75a86.52,86.52,0,0,0-13.46-9.36c-5.72-3.21-10.87-7.31-16-11.39l-19.23-15.3c-2.65-2.11-5.86-4.35-9.13-3.49-2.72.7-4.81,3.45-7.61,3.35-2.13-.07-4.41-1.79-6.18-.61-.81.53-1.19,1.52-1.88,2.2-1.74,1.73-4.68,1-7,1.78-2.08.71-3.5,2.57-5,4.16s-3.45,3.12-5.71,2.61c-1.56-.36-1.94-1.5-3.05-2.37s-3.13-1.12-4.6-1.19a16.22,16.22,0,0,1-5.26-.68c-3.19-1.24-4.84-4.67-6.46-7.69-1.92-3.59-4.44-7.19-8-9A5.72,5.72,0,0,1,160.12,622.87Z" transform="translate(0 -5.29)"/><g id="PUNTICOS"><circle class="cls-6" cx="93.18" cy="580.51" r="4.27"/><circle class="cls-6" cx="101.72" cy="185.41" r="4.27"/><circle class="cls-6" cx="437.78" cy="285.99" r="4.27"/><circle class="cls-6" cx="301.55" cy="386.04" r="4.27"/><circle class="cls-6" cx="315.62" cy="448.39" r="4.27"/><circle class="cls-6" cx="184.54" cy="497.73" r="4.27"/><circle class="cls-6" cx="203.98" cy="592.9" r="4.27"/></g><g class="cls-7"><circle class="cls-8" cx="348.98" cy="92.02" r="69.23" transform="translate(202.25 416.47) rotate(-80.78)"/><path class="cls-3" d="M349,26.4A65.63,65.63,0,1,1,283.35,92,65.63,65.63,0,0,1,349,26.4m0-7.22A72.84,72.84,0,1,0,421.82,92,72.92,72.92,0,0,0,349,19.18Z" transform="translate(0 -5.29)"/></g><g class="cls-9"><path class="cls-10" d="M364.89,109.28C358.11,105.59,360,87.7,360,87.7l-10.16.66V87.7l-1.09.33-1.08-.33v.66l-10.16-.66s1.85,17.89-4.93,21.58-46.86,5.55-42.55,46.86H407.43C411.75,114.83,371.67,113,364.89,109.28Z" transform="translate(0 -5.29)"/><path class="cls-11" d="M336.05,104.67q12.17-1.82,24.32-3.74A54.2,54.2,0,0,1,360,87.7l-10.16.66V87.7l-1.09.33-1.08-.33v.66l-10.16-.66S338.54,98.09,336.05,104.67Z" transform="translate(0 -5.29)"/><path class="cls-12" d="M374.37,139.93a64,64,0,0,1,.82-27.52c-1.71-.5-3.31-.92-4.74-1.3-.65,7.46-1.52,15-4.33,21.76a36.31,36.31,0,0,1-3.9,7.06Z" transform="translate(0 -5.29)"/><path class="cls-12" d="M325.76,139.17a64,64,0,0,0-.82-27.52c1.71-.5,3.31-.92,4.74-1.3.65,7.46,1.52,15,4.33,21.77a36.23,36.23,0,0,0,3.9,7Z" transform="translate(0 -5.29)"/><path class="cls-13" d="M386.72,116.3c-6.71,9.18-21.08,15.52-37.74,15.52s-31-6.34-37.74-15.52c-11.93,5.63-23.69,16.42-21.24,39.84l57.89,3.29h2.18L408,156.14C410.41,132.72,398.65,121.93,386.72,116.3Z" transform="translate(0 -5.29)"/><path class="cls-14" d="M345.94,145.26c23.69,0,44.42-6.86,55.83-17.1a38.65,38.65,0,0,0-15-11.86c-6.71,9.18-21.08,15.52-37.74,15.52s-31-6.34-37.74-15.52c-6.51,3.07-13,7.69-17.1,15.06C306.05,139.81,324.81,145.26,345.94,145.26Z" transform="translate(0 -5.29)"/><path class="cls-15" d="M328.85,61.53c-2-6.2-6.73-4.77-7.17-4.62s-5.35.78-4.51,7.24,4.62,10,8.16,9C329,72.56,330.86,67.76,328.85,61.53Z" transform="translate(0 -5.29)"/><path class="cls-15" d="M368.76,61.53c2-6.2,6.73-4.77,7.17-4.62s5.35.78,4.51,7.24-4.62,10-8.16,9C368.65,72.56,366.75,67.76,368.76,61.53Z" transform="translate(0 -5.29)"/><path class="cls-10" d="M324,52.14c2.47-27.18,23.13-25.66,25.08-25.46,2-.2,22.61-1.72,25.09,25.46,2.49,27.34-9.69,45.19-25.09,44.21C333.69,97.33,321.52,79.48,324,52.14Z" transform="translate(0 -5.29)"/><circle class="cls-16" cx="349.72" cy="14.8" r="14.8"/><circle class="cls-17" cx="349.85" cy="20.49" r="10.41"/><g class="cls-18"><path class="cls-10" d="M352.66,65.72a19.07,19.07,0,0,1,1.45,3.89c.16.67.33,1.33.45,2s.23,1.35.3,2l0,.32-.17.16A37.49,37.49,0,0,1,351.22,77,36,36,0,0,1,354,73.39l-.14.48c-.2-.66-.39-1.32-.54-2s-.27-1.34-.39-2A17.87,17.87,0,0,1,352.66,65.72Z" transform="translate(0 -5.29)"/></g><path class="cls-8" d="M359.63,81.88c-4.92,4.78-13.25,4.52-19.57.26" transform="translate(0 -5.29)"/><path class="cls-19" d="M368.58,56.51c-1.16-.65-2.24-1.23-3.31-1.7a10.47,10.47,0,0,0-3.19-.86,6.77,6.77,0,0,0-3.15.42,13.11,13.11,0,0,0-1.62.69c-.55.28-1.06.63-1.69.91a9.33,9.33,0,0,1,1-1.72,6.91,6.91,0,0,1,1.52-1.38,6.07,6.07,0,0,1,4.12-1.08,7.47,7.47,0,0,1,3.87,1.58A7.56,7.56,0,0,1,368.58,56.51Z" transform="translate(0 -5.29)"/><path class="cls-19" d="M342.84,56.51c-1.15-.65-2.24-1.23-3.31-1.7a10.47,10.47,0,0,0-3.19-.86,6.79,6.79,0,0,0-3.15.42,13.79,13.79,0,0,0-1.62.69c-.55.28-1.06.63-1.69.91a9.39,9.39,0,0,1,1-1.72,6.49,6.49,0,0,1,1.52-1.38,6,6,0,0,1,4.11-1.08,7.47,7.47,0,0,1,3.87,1.58A7.56,7.56,0,0,1,342.84,56.51Z" transform="translate(0 -5.29)"/><path class="cls-19" d="M342,66.36a8,8,0,0,0-1.52-3.09A3.57,3.57,0,0,0,337.71,62a4,4,0,0,0-1.56.23,3.07,3.07,0,0,0-1.22.93,6.56,6.56,0,0,0-1.11,3.22,5.08,5.08,0,0,1,.49-3.64,3.62,3.62,0,0,1,1.48-1.34,4.69,4.69,0,0,1,1.94-.35,4,4,0,0,1,3.36,1.79A5.75,5.75,0,0,1,342,66.36Z" transform="translate(0 -5.29)"/><path class="cls-19" d="M365.15,66a8,8,0,0,0-1.52-3.08,3.54,3.54,0,0,0-2.79-1.29,4,4,0,0,0-1.56.23,3.07,3.07,0,0,0-1.22.93A6.52,6.52,0,0,0,357,66a5.05,5.05,0,0,1,.49-3.63A3.56,3.56,0,0,1,358.92,61a4.87,4.87,0,0,1,1.94-.36,4,4,0,0,1,3.36,1.79A5.75,5.75,0,0,1,365.15,66Z" transform="translate(0 -5.29)"/><path class="cls-16" d="M350.3,30.62s1.19,18.43-22.54,26.14a69.32,69.32,0,0,1-1.36,18.1s-7.69-13-4.07-28.48S344.28,18.58,350.3,30.62Z" transform="translate(0 -5.29)"/><path class="cls-16" d="M348.43,30.62S348,49.05,371.71,56.76c0,0-1.13,11.72.91,20.5,0,0,8.14-15.44,4.52-30.88S354.45,18.58,348.43,30.62Z" transform="translate(0 -5.29)"/><path class="cls-17" d="M331.34,55.43a34,34,0,0,1-8.61-10.54c-.15.49-.28,1-.4,1.49-3.62,15.44,4.07,28.48,4.07,28.48a69.32,69.32,0,0,0,1.36-18.1C329,56.35,330.21,55.9,331.34,55.43Z" transform="translate(0 -5.29)"/></g><g class="cls-7"><circle class="cls-8" cx="146.39" cy="300.05" r="69.23"/><path class="cls-3" d="M146.39,239.71a65.63,65.63,0,1,1-65.63,65.63,65.63,65.63,0,0,1,65.63-65.63m0-7.21a72.84,72.84,0,1,0,72.84,72.84,72.91,72.91,0,0,0-72.84-72.84Z" transform="translate(0 -5.29)"/></g><g class="cls-20"><path class="cls-21" d="M127.91,279.38c0,.93,2.57,1.8,5.84,1.94s5.94-.52,6-1.45-2.58-1.81-5.84-1.94S127.94,278.44,127.91,279.38Z" transform="translate(0 -5.29)"/><path class="cls-22" d="M136.63,211.9h0a1.33,1.33,0,0,0-1.38,1.27L135,218.5l2.68.11.22-5.33A1.33,1.33,0,0,0,136.63,211.9Z" transform="translate(0 -5.29)"/><path class="cls-23" d="M137.73,217.32l-2.68-.11-5.14,13.51c3.24,3.71,6.59,6.86,11.82.5Z" transform="translate(0 -5.29)"/><path class="cls-22" d="M132.8,232.51c2.17-2.24,4.12-1.94,5.91.24l-1.94,47-5.91-.25Z" transform="translate(0 -5.29)"/><path class="cls-24" d="M141.73,231.22a3,3,0,0,0-3,1.53l-1.94,47,3,.12Z" transform="translate(0 -5.29)"/><path class="cls-21" d="M129.91,230.73a3,3,0,0,1,2.89,1.78l-1.94,47-3-.12Z" transform="translate(0 -5.29)"/><path class="cls-25" d="M117.26,332.71c.71.61,3-.88,5.18-3.33s3.33-4.95,2.63-5.57-3,.87-5.18,3.33S116.56,332.09,117.26,332.71Z" transform="translate(0 -5.29)"/><path class="cls-26" d="M62,276.36v0a1.32,1.32,0,0,0,.12,1.87l4,3.52,1.77-2-4-3.52A1.33,1.33,0,0,0,62,276.36Z" transform="translate(0 -5.29)"/><path class="cls-23" d="M66.94,278.9l-1.77,2,7.3,12.48c4.92-.19,9.47-.82,7.81-8.89Z" transform="translate(0 -5.29)"/><path class="cls-26" d="M75.67,292.27c-.38-3.09,1.09-4.42,3.9-4.44L123.12,326l-3.9,4.45Z" transform="translate(0 -5.29)"/><path class="cls-27" d="M80.28,284.51a3,3,0,0,0-.71,3.32L123.12,326l1.95-2.22Z" transform="translate(0 -5.29)"/><path class="cls-28" d="M72.47,293.41a3,3,0,0,1,3.2-1.14l43.55,38.21-2,2.23Z" transform="translate(0 -5.29)"/><path class="cls-29" d="M109.73,308c.49.8,3.15.05,5.93-1.66s4.63-3.76,4.14-4.56-3.15,0-5.93,1.67S109.24,307.23,109.73,308Z" transform="translate(0 -5.29)"/><path class="cls-30" d="M73.43,238h0a1.33,1.33,0,0,0-.43,1.83l2.81,4.54,2.28-1.41-2.81-4.54A1.32,1.32,0,0,0,73.43,238Z" transform="translate(0 -5.29)"/><path class="cls-23" d="M77.38,241.84l-2.29,1.41,3.32,14.08c4.76,1.25,9.3,2,10.07-6.22Z" transform="translate(0 -5.29)"/><path class="cls-30" d="M81.8,257.18c.55-3.07,2.34-3.91,5-3.11l30.44,49.29-5,3.11Z" transform="translate(0 -5.29)"/><path class="cls-31" d="M88.48,251.11a3,3,0,0,0-1.64,3l30.44,49.29,2.52-1.56Z" transform="translate(0 -5.29)"/><path class="cls-32" d="M78.41,257.33a3,3,0,0,1,3.39-.15l30.45,49.29L109.73,308Z" transform="translate(0 -5.29)"/><path class="cls-33" d="M131.42,334.07c.27.9,3,.85,6.15-.1s5.44-2.45,5.17-3.35-3-.84-6.16.11S131.14,333.18,131.42,334.07Z" transform="translate(0 -5.29)"/><path class="cls-34" d="M110,243.34h0a1.34,1.34,0,0,0-.89,1.66l1.56,5.11,2.57-.78-1.56-5.11A1.32,1.32,0,0,0,110,243.34Z" transform="translate(0 -5.29)"/><path class="cls-23" d="M112.83,248.08l-2.57.79-.38,14.45c4.28,2.43,8.49,4.29,11.32-3.45Z" transform="translate(0 -5.29)"/><path class="cls-34" d="M113.2,264.05c1.31-2.83,3.25-3.19,5.66-1.72l21,69.16-5.66,1.72Z" transform="translate(0 -5.29)"/><path class="cls-35" d="M121.21,259.88a3,3,0,0,0-2.35,2.45l21,69.16,2.83-.87Z" transform="translate(0 -5.29)"/><path class="cls-36" d="M109.88,263.33a3,3,0,0,1,3.32.72l21,69.16-2.83.86Z" transform="translate(0 -5.29)"/><path class="cls-37" d="M135,301.19c-.32.88,1.92,2.5,5,3.6s5.83,1.3,6.15.42-1.92-2.5-5-3.6S135.28,300.31,135,301.19Z" transform="translate(0 -5.29)"/><path class="cls-38" d="M167.22,229.18h0a1.32,1.32,0,0,0-1.7.79l-1.81,5,2.52.91,1.81-5A1.33,1.33,0,0,0,167.22,229.18Z" transform="translate(0 -5.29)"/><path class="cls-23" d="M166.65,234.69l-2.52-.92-9,11.36c2,4.5,4.23,8.52,11.13,4Z" transform="translate(0 -5.29)"/><path class="cls-38" d="M157.39,247.7c2.75-1.49,4.52-.61,5.57,2l-19.65,54.5-5.56-2Z" transform="translate(0 -5.29)"/><path class="cls-39" d="M166.3,249.15a3,3,0,0,0-3.34.55l-19.65,54.5,2.79,1Z" transform="translate(0 -5.29)"/><path class="cls-40" d="M155.17,245.13a3,3,0,0,1,2.22,2.57l-19.64,54.5-2.79-1Z" transform="translate(0 -5.29)"/><circle class="cls-8" cx="173.05" cy="327.72" r="45.48" transform="translate(-63.39 37.05) rotate(-11.81)"/><path class="cls-41" d="M218.54,327.58c-.27,0,0-4.05-1.8-11A45.39,45.39,0,0,0,200.07,292a44.71,44.71,0,0,0-42.34-6.16,44.06,44.06,0,0,0-20.65,15.64,44.38,44.38,0,0,0,.15,52.69A44,44,0,0,0,158,369.68,45,45,0,0,0,216.8,338.6c1.76-7,1.47-11,1.74-11,0,0,.52,4.06-1,11.2a45.8,45.8,0,0,1-35.77,34.34,46.19,46.19,0,0,1-24.33-1.84,45.67,45.67,0,0,1-21.62-16,46.06,46.06,0,0,1-.16-54.84,45.62,45.62,0,0,1,21.52-16.16,46.21,46.21,0,0,1,24.31-2,45.81,45.81,0,0,1,36,34.13C219,323.52,218.54,327.58,218.54,327.58Z" transform="translate(0 -5.29)"/><path class="cls-8" d="M210.81,327.53a37.76,37.76,0,1,1-37.87-37.64A37.75,37.75,0,0,1,210.81,327.53Z" transform="translate(0 -5.29)"/><path class="cls-41" d="M210.37,333.42c-.34-.06-.5-1.58-.37-3.39s.49-3.3.8-3.32.6,1.51.43,3.4S210.7,333.48,210.37,333.42Z" transform="translate(0 -5.29)"/><path class="cls-41" d="M206.78,344.63c-.31-.16-.06-1.48.55-3s1.36-2.6,1.68-2.5.08,1.43-.55,3S207.08,344.79,206.78,344.63Z" transform="translate(0 -5.29)"/><path class="cls-41" d="M199.9,354.19c-.24-.25.4-1.43,1.43-2.65s2.1-2.06,2.38-1.86-.36,1.38-1.44,2.65S200.13,354.43,199.9,354.19Z" transform="translate(0 -5.29)"/><path class="cls-41" d="M190.42,361.17c-.15-.3.82-1.24,2.18-2.08s2.63-1.31,2.83-1-.77,1.2-2.18,2.08S190.57,361.47,190.42,361.17Z" transform="translate(0 -5.29)"/><path class="cls-41" d="M179.25,364.89c-.05-.34,1.17-.93,2.72-1.31s2.9-.43,3-.11-1.1.91-2.71,1.3S179.3,365.22,179.25,364.89Z" transform="translate(0 -5.29)"/><path class="cls-41" d="M167.47,365c.06-.33,1.4-.51,3-.4s2.9.5,2.91.81-1.33.53-3,.42S167.42,365.32,167.47,365Z" transform="translate(0 -5.29)"/><path class="cls-41" d="M156.24,361.45c.16-.3,1.49-.06,3,.53s2.6,1.35,2.51,1.68-1.43.09-3-.53S156.09,361.75,156.24,361.45Z" transform="translate(0 -5.29)"/><path class="cls-41" d="M146.65,354.62c.24-.24,1.43.4,2.66,1.42s2.06,2.09,1.87,2.37-1.39-.35-2.66-1.42S146.41,354.86,146.65,354.62Z" transform="translate(0 -5.29)"/><path class="cls-41" d="M139.62,345.18c.3-.15,1.24.82,2.09,2.17s1.33,2.62,1.06,2.83-1.21-.76-2.1-2.17S139.32,345.34,139.62,345.18Z" transform="translate(0 -5.29)"/><path class="cls-41" d="M135.84,334c.34,0,.93,1.17,1.32,2.72s.45,2.9.13,3-.91-1.1-1.32-2.71S135.51,334.09,135.84,334Z" transform="translate(0 -5.29)"/><path class="cls-41" d="M135.68,322.26c.34.05.52,1.39.41,3s-.48,2.9-.78,2.91-.56-1.33-.45-3S135.35,322.21,135.68,322.26Z" transform="translate(0 -5.29)"/><path class="cls-41" d="M139.15,311c.31.15.08,1.48-.51,3s-1.34,2.61-1.67,2.52-.09-1.43.52-3S138.85,310.85,139.15,311Z" transform="translate(0 -5.29)"/><path class="cls-41" d="M145.93,301.38c.24.24-.39,1.44-1.41,2.67s-2.07,2.07-2.35,1.88.34-1.39,1.4-2.67S145.69,301.14,145.93,301.38Z" transform="translate(0 -5.29)"/><path class="cls-41" d="M155.33,294.3c.16.3-.81,1.24-2.16,2.1s-2.61,1.34-2.82,1.07.76-1.21,2.16-2.1S155.18,294,155.33,294.3Z" transform="translate(0 -5.29)"/><path class="cls-41" d="M166.46,290.46c0,.34-1.16.94-2.7,1.34s-2.9.46-3,.14,1.1-.92,2.71-1.33S166.41,290.13,166.46,290.46Z" transform="translate(0 -5.29)"/><path class="cls-41" d="M178.23,290.24c0,.34-1.39.52-3,.42s-2.91-.46-2.92-.77,1.33-.59,3-.46S178.28,289.9,178.23,290.24Z" transform="translate(0 -5.29)"/><path class="cls-41" d="M189.5,293.65c-.15.3-1.48.08-3-.5s-2.62-1.32-2.53-1.65,1.43-.1,3,.5S189.66,293.35,189.5,293.65Z" transform="translate(0 -5.29)"/><path class="cls-41" d="M199.17,300.38c-.24.24-1.44-.39-2.68-1.4s-2.08-2.06-1.89-2.34,1.39.34,2.67,1.39S199.41,300.13,199.17,300.38Z" transform="translate(0 -5.29)"/><path class="cls-41" d="M206.3,309.74c-.3.16-1.25-.8-2.12-2.15s-1.35-2.6-1.08-2.81,1.22.75,2.12,2.15S206.6,309.58,206.3,309.74Z" transform="translate(0 -5.29)"/><path class="cls-41" d="M210.2,320.85c-.34,0-.94-1.15-1.35-2.7s-.48-2.89-.16-3,.92,1.09,1.35,2.7S210.53,320.79,210.2,320.85Z" transform="translate(0 -5.29)"/><polygon class="cls-42" points="172.43 289.35 159.52 318.03 164.1 318.01 157.48 328.07 164.79 325.73 154.6 337.88 191.6 337.77 181.05 325.83 187.21 325.81 180.79 318.58 186.1 318.56 172.43 289.35"/><rect class="cls-42" x="170.75" y="335.86" width="4.72" height="19.95" transform="translate(-1.04 -4.77) rotate(-0.17)"/><circle class="cls-8" cx="131.14" cy="350.7" r="27.64" transform="translate(-209.57 190.16) rotate(-45)"/><path class="cls-41" d="M158.69,348.46a51,51,0,0,0-1.62-6.58,27.55,27.55,0,0,0-11.25-14.1,27.17,27.17,0,0,0-25.95-1.72,26.83,26.83,0,0,0-11.76,10.45,27,27,0,0,0,2.59,31.91,26.77,26.77,0,0,0,13.3,8.41,27.35,27.35,0,0,0,14.31.06,27,27,0,0,0,11-5.95,27.53,27.53,0,0,0,8.84-15.72,53.22,53.22,0,0,0,.53-6.76,22,22,0,0,1-.1,6.83,27.87,27.87,0,0,1-20,22.5,28.08,28.08,0,0,1-14.82,0,27.77,27.77,0,0,1-13.86-8.69,28,28,0,0,1-2.7-33.21,27.82,27.82,0,0,1,12.27-10.81,28.12,28.12,0,0,1,14.64-2.35,27.87,27.87,0,0,1,23.41,19A22.06,22.06,0,0,1,158.69,348.46Z" transform="translate(0 -5.29)"/><path class="cls-8" d="M154,348.79a22.94,22.94,0,1,1-24.72-21A22.93,22.93,0,0,1,154,348.79Z" transform="translate(0 -5.29)"/><path class="cls-41" d="M154,352.38c-.2,0-.37-.93-.38-2s.14-2,.33-2.05.44.88.42,2S154.22,352.4,154,352.38Z" transform="translate(0 -5.29)"/><path class="cls-41" d="M152.37,359.34c-.19-.08-.1-.89.19-1.82s.71-1.63.91-1.59.11.86-.2,1.82S152.56,359.43,152.37,359.34Z" transform="translate(0 -5.29)"/><path class="cls-41" d="M148.66,365.46c-.16-.14.17-.89.74-1.68s1.17-1.34,1.35-1.23-.15.85-.74,1.67S148.81,365.59,148.66,365.46Z" transform="translate(0 -5.29)"/><path class="cls-41" d="M143.25,370.14c-.11-.18.44-.79,1.22-1.37s1.53-.92,1.67-.76-.41.76-1.23,1.36S143.36,370.31,143.25,370.14Z" transform="translate(0 -5.29)"/><path class="cls-41" d="M136.66,372.92c0-.2.66-.62,1.58-.92s1.74-.4,1.82-.21-.62.6-1.58.92S136.71,373.12,136.66,372.92Z" transform="translate(0 -5.29)"/><path class="cls-41" d="M129.53,373.53c0-.2.82-.37,1.79-.38s1.78.17,1.8.35-.78.39-1.79.4S129.51,373.74,129.53,373.53Z" transform="translate(0 -5.29)"/><path class="cls-41" d="M122.56,371.93c.08-.19.9-.11,1.82.18s1.64.69,1.6.9-.86.12-1.82-.19S122.48,372.12,122.56,371.93Z" transform="translate(0 -5.29)"/><path class="cls-41" d="M116.43,368.25c.13-.16.88.17,1.67.73s1.35,1.17,1.25,1.35-.86-.15-1.68-.74S116.29,368.4,116.43,368.25Z" transform="translate(0 -5.29)"/><path class="cls-41" d="M111.72,362.86c.18-.1.79.44,1.37,1.22s.93,1.52.77,1.66-.77-.41-1.37-1.22S111.54,363,111.72,362.86Z" transform="translate(0 -5.29)"/><path class="cls-41" d="M108.9,356.29c.2-.05.62.66.93,1.58s.41,1.73.22,1.82-.6-.62-.93-1.58S108.7,356.34,108.9,356.29Z" transform="translate(0 -5.29)"/><path class="cls-41" d="M108.25,349.17c.2,0,.38.81.39,1.79s-.16,1.77-.34,1.79-.4-.77-.41-1.78S108,349.15,108.25,349.17Z" transform="translate(0 -5.29)"/><path class="cls-41" d="M109.82,342.18c.19.08.11.9-.18,1.83s-.68,1.64-.88,1.6-.13-.86.17-1.82S109.63,342.11,109.82,342.18Z" transform="translate(0 -5.29)"/><path class="cls-41" d="M113.47,336c.15.14-.17.89-.73,1.68s-1.16,1.36-1.34,1.25.15-.85.73-1.68S113.31,335.9,113.47,336Z" transform="translate(0 -5.29)"/><path class="cls-41" d="M118.82,331.3c.11.17-.43.79-1.2,1.37s-1.52.94-1.66.78.4-.77,1.21-1.37S118.72,331.12,118.82,331.3Z" transform="translate(0 -5.29)"/><path class="cls-41" d="M125.38,328.44c.05.2-.65.63-1.57.94s-1.73.42-1.82.23.62-.61,1.58-.94S125.33,328.24,125.38,328.44Z" transform="translate(0 -5.29)"/><path class="cls-41" d="M132.5,327.75c0,.21-.81.39-1.79.4s-1.78-.14-1.8-.33.78-.42,1.79-.42S132.52,327.55,132.5,327.75Z" transform="translate(0 -5.29)"/><path class="cls-41" d="M139.49,329.28c-.08.19-.89.12-1.82-.16s-1.65-.68-1.61-.88.86-.13,1.82.16S139.57,329.09,139.49,329.28Z" transform="translate(0 -5.29)"/><path class="cls-41" d="M145.66,332.9c-.13.16-.88-.16-1.68-.72s-1.36-1.15-1.26-1.33.86.14,1.69.72S145.8,332.74,145.66,332.9Z" transform="translate(0 -5.29)"/><path class="cls-41" d="M150.43,338.23c-.18.11-.8-.43-1.39-1.2s-.94-1.51-.78-1.65.77.4,1.38,1.2S150.6,338.12,150.43,338.23Z" transform="translate(0 -5.29)"/><path class="cls-41" d="M153.32,344.78c-.2.05-.63-.66-.95-1.57s-.43-1.73-.24-1.82.61.62,1,1.57S153.52,344.73,153.32,344.78Z" transform="translate(0 -5.29)"/><path class="cls-43" d="M129.36,365.1a3.1,3.1,0,0,1-2,.46s0-.06,0-.07a3,3,0,0,0,1-1.42c.14-.36.26-.72.4-1.07a2.18,2.18,0,0,1,.7-.94.24.24,0,0,0,.09-.15c.05-.76.1-1.52.14-2.28l0-.05h-.33c-.06.4-.11.79-.18,1.18a4.75,4.75,0,0,1-1.23,2.48,4.62,4.62,0,0,1-3.69,1.35,4.75,4.75,0,0,1-2.4-.73,3.27,3.27,0,0,1-1.36-3.84,3,3,0,0,1,2.89-2.08h.8c-.07.14-.11.22-.16.3a3.67,3.67,0,0,0-.46,1.4,1.62,1.62,0,0,0,1.57,1.88,2,2,0,0,0,2.13-1.37c.07-.18.12-.37.18-.58h-1a1.68,1.68,0,0,1-.92-.27.81.81,0,0,1,0-1.42,1.7,1.7,0,0,1,1-.27h.75a2.92,2.92,0,0,0-.11-.32,6.21,6.21,0,0,0-2.71-3,6,6,0,0,0-2.49-.85,3.19,3.19,0,0,0-3.52,2.86,3.48,3.48,0,0,0,.33,2.15s0,0-.06,0a8,8,0,0,1-3.18-1.5,4.77,4.77,0,0,1-1.31-5.92,5.62,5.62,0,0,1,4.14-3.34,8.15,8.15,0,0,1,4.29.38,9.54,9.54,0,0,1,5.38,4.83,12.52,12.52,0,0,1,1.27,4.48c0,.25.18.17.35.17-.07-.49-.13-1-.21-1.46a22.84,22.84,0,0,0-2.58-7,16.84,16.84,0,0,1-.93-1.91,6,6,0,0,1,0-4,17.57,17.57,0,0,1,1.25-2.8l3.18-6.27c.16-.32.29-.64.45-1l.19.42q1.39,2.76,2.78,5.53c.55,1.09,1.12,2.18,1.63,3.29a6.92,6.92,0,0,1,.63,2.77,5.7,5.7,0,0,1-.74,3,31.53,31.53,0,0,0-2,4.22,19.06,19.06,0,0,0-1.2,5,1.09,1.09,0,0,0,0,.19h.25c.05-.37.1-.76.17-1.13a11.17,11.17,0,0,1,2.53-5.59,8.82,8.82,0,0,1,8-3.17,5.42,5.42,0,0,1,4.13,2.84,5,5,0,0,1,.67,3.77,4.85,4.85,0,0,1-2.09,3,8.71,8.71,0,0,1-2.76,1.2H143c0-.07.05-.13.08-.19a3.67,3.67,0,0,0-.76-4,3,3,0,0,0-2.62-.82,6.49,6.49,0,0,0-5.08,3.76l-.09.25s0,.05,0,.1h.25a7.73,7.73,0,0,1,1.08.08,1.4,1.4,0,0,1,.59.31.75.75,0,0,1,0,1.17,1.53,1.53,0,0,1-1.08.4h-1a2.26,2.26,0,0,0,1.17,1.75,2,2,0,0,0,2.11-.17,1.54,1.54,0,0,0,.57-1.62,8.12,8.12,0,0,0-.42-1.23,1.77,1.77,0,0,0-.16-.3,3.45,3.45,0,0,1,1.24,0,3,3,0,0,1,2.59,3.24,3.15,3.15,0,0,1-2,2.88,5.06,5.06,0,0,1-4.12.13,4.33,4.33,0,0,1-2.67-3.23c-.11-.47-.17-.94-.26-1.43h-.28a1.92,1.92,0,0,0,0,.24l.12,1.87a.47.47,0,0,0,.17.34,3,3,0,0,1,.82,1.31c.08.23.15.46.23.69a2.76,2.76,0,0,0,1,1.51,3,3,0,0,1-2-.46,5.43,5.43,0,0,1-.83,1.89l-.68,1.24c-.44-.75-.9-1.49-1.31-2.25A5.79,5.79,0,0,1,129.36,365.1Z" transform="translate(0 -5.29)"/></g><g class="cls-7"><circle class="cls-8" cx="116.01" cy="509.56" r="38.13"/><path class="cls-3" d="M116,478.71a36.15,36.15,0,1,1-36.14,36.14A36.14,36.14,0,0,1,116,478.71m0-4a40.12,40.12,0,1,0,40.12,40.11A40.16,40.16,0,0,0,116,474.74Z" transform="translate(0 -5.29)"/></g><g class="cls-44"><path class="cls-45" d="M105.64,496.31c-5.61-.25-9.29,3.15-12.74,7.27.81,2.35,1.81,9.48,9.29,11.37,5.57,1.4,11.59.23,16.9-1.41,2-.63,4.53-1.13,5.26-3.3.65-1.94-.47-4.2-2-5.5-4.22-3.54-9.29-7.33-15-8.26A14.16,14.16,0,0,0,105.64,496.31Z" transform="translate(0 -5.29)"/><path class="cls-46" d="M121,509.3c-1.87-.73-3.8-1.36-5.73-1.94s-3.88-1.09-5.85-1.52-3.95-.76-5.93-1a48,48,0,0,0-6-.33h0a.74.74,0,0,1-.74-.73.75.75,0,0,1,.73-.74h0a48.47,48.47,0,0,1,6.15.56c2,.34,4,.74,6,1.26s3.93,1.09,5.86,1.74,3.83,1.37,5.71,2.18a.29.29,0,0,1,.15.39.31.31,0,0,1-.38.16Z" transform="translate(0 -5.29)"/><path class="cls-47" d="M124.35,510.24c.65-1.94-.47-4.2-2-5.5a56.9,56.9,0,0,0-6.49-4.82c2.93,5,1.8,11.84,1.28,14.19.66-.18,1.32-.37,2-.57C121.12,512.91,123.62,512.41,124.35,510.24Z" transform="translate(0 -5.29)"/><path class="cls-45" d="M134.93,485.57c-1.18-5.49-5.4-8.19-10.26-10.5-2.07,1.38-8.71,4.14-8.65,11.86,0,5.74,2.7,11.28,5.62,16,1.12,1.8,2.23,4.1,4.52,4.25,2,.15,3.94-1.5,4.81-3.33,2.36-5,4.76-10.83,4.21-16.63A15.89,15.89,0,0,0,134.93,485.57Z" transform="translate(0 -5.29)"/><path class="cls-46" d="M126.13,503.76c.19-2,.29-4,.32-6s0-4-.12-6.05-.33-4-.62-6a47.87,47.87,0,0,0-1.3-5.84v0a.77.77,0,0,1,.53-1,.78.78,0,0,1,1,.53v0a50.68,50.68,0,0,1,1.1,6.08c.21,2,.36,4.08.39,6.12s0,4.08-.12,6.12-.3,4.05-.58,6.08a.29.29,0,0,1-.58-.07Z" transform="translate(0 -5.29)"/><path class="cls-47" d="M134.92,492.65c-5.73,8.33-12.07,8.15-14.88,7.54.51.94,1,1.85,1.6,2.74,1.12,1.8,2.23,4.1,4.52,4.25,2,.15,3.94-1.5,4.81-3.33A44.82,44.82,0,0,0,134.92,492.65Z" transform="translate(0 -5.29)"/><path class="cls-45" d="M106.24,524.38c-2.43,5.06-.76,9.78,1.67,14.58,2.48.18,9.42,2.07,14.11-4.07,3.48-4.56,4.78-10.56,5.36-16.08.22-2.11.75-4.61-1-6.14-1.53-1.36-4-1.22-5.84-.31-4.92,2.48-10.4,5.64-13.53,10.56A14.28,14.28,0,0,0,106.24,524.38Z" transform="translate(0 -5.29)"/><path class="cls-46" d="M124.43,515.44c-1.36,1.47-2.66,3-3.91,4.61s-2.43,3.22-3.55,4.89-2.16,3.4-3.12,5.16a46,46,0,0,0-2.49,5.44v0a.7.7,0,0,1-1.3-.5v0a48.93,48.93,0,0,1,2.75-5.52c1-1.77,2.15-3.49,3.35-5.14s2.44-3.26,3.75-4.82,2.66-3.08,4.1-4.54a.3.3,0,0,1,.43.41Z" transform="translate(0 -5.29)"/><path class="cls-47" d="M126.42,512.67c-1.53-1.36-4-1.22-5.84-.31a54.13,54.13,0,0,0-7.3,4.27c9.06-2,12.69,2.11,13.87,4.09.09-.64.16-1.28.23-1.91C127.6,516.7,128.13,514.2,126.42,512.67Z" transform="translate(0 -5.29)"/><path class="cls-45" d="M152.73,509.29c4.81-2.9,6-7.76,6.61-13.1-2-1.51-6.75-6.91-14-4.35-5.42,1.9-9.79,6.21-13.31,10.5-1.34,1.65-3.16,3.44-2.56,5.66.53,2,2.7,3.24,4.71,3.47,5.47.62,11.79,1,17.1-1.41A15.75,15.75,0,0,0,152.73,509.29Z" transform="translate(0 -5.29)"/><path class="cls-46" d="M132.69,506.9c1.95-.46,3.9-1,5.82-1.63s3.81-1.3,5.68-2.06,3.68-1.6,5.46-2.51a47.55,47.55,0,0,0,5.09-3.09l0,0a.93.93,0,0,1,1.28.23.91.91,0,0,1-.23,1.27l0,0a47.83,47.83,0,0,1-5.45,2.94c-1.87.85-3.77,1.62-5.71,2.29s-3.88,1.26-5.85,1.79-3.95,1-6,1.34a.28.28,0,0,1-.34-.23.3.3,0,0,1,.22-.35Z" transform="translate(0 -5.29)"/><path class="cls-47" d="M136.9,506.17c-1.82-2.42-1.47-6-1-8.09a53,53,0,0,0-3.87,4.26c-1.34,1.65-3.16,3.44-2.56,5.66.53,2,2.7,3.24,4.71,3.47,4.57.52,9.73.86,14.41-.45C144.19,510.73,139,509,136.9,506.17Z" transform="translate(0 -5.29)"/><path class="cls-45" d="M135.59,534c4.23,3.7,9.22,3.34,14.49,2.29.84-2.34,4.52-8.53-.14-14.69-3.47-4.57-8.91-7.42-14.07-9.46-2-.78-4.24-1.95-6.17-.71-1.72,1.11-2.26,3.57-1.87,5.55,1.08,5.4,2.66,11.52,6.58,15.85A13,13,0,0,0,135.59,534Z" transform="translate(0 -5.29)"/><path class="cls-46" d="M131.78,514.12c1,1.72,2.17,3.4,3.34,5s2.42,3.23,3.71,4.78,2.66,3,4.08,4.43a49.4,49.4,0,0,0,4.53,3.91h0a.72.72,0,0,1-.87,1.15l0,0a48.65,48.65,0,0,1-4.53-4.19c-1.4-1.5-2.74-3-4-4.65s-2.45-3.27-3.58-5-2.2-3.42-3.2-5.21a.29.29,0,0,1,.12-.4.3.3,0,0,1,.4.11Z" transform="translate(0 -5.29)"/><path class="cls-47" d="M142.14,515.07a48.79,48.79,0,0,0-6.27-3c-2-.78-4.24-1.95-6.17-.71-1.72,1.11-2.26,3.57-1.87,5.55a42.37,42.37,0,0,0,4,12.16c-.33-3.42-.52-9.57,2-11.87S140,514.91,142.14,515.07Z" transform="translate(0 -5.29)"/><path class="cls-48" d="M132.37,509.82l0,.25a6.64,6.64,0,0,1-.21,1.61c-.42,1.16-1.67,1.92-2.55,2.7a2.55,2.55,0,0,1-1.67.79c-.72,0-1.33-.47-2-.6-.37-.08-.76,0-1.14-.11-.72-.12-.92-.65-1.26-1.22l-1.26-2.11a3,3,0,0,1-.33-.68,4.87,4.87,0,0,1,.26-2.1,3,3,0,0,1,.63-1.5,16.71,16.71,0,0,1,2.28-1.63,3.27,3.27,0,0,1,2.19-.8,6.71,6.71,0,0,1,2.2,1.07c1.22.6,2.88,1.3,3,2.85A6.67,6.67,0,0,1,132.37,509.82Z" transform="translate(0 -5.29)"/><path class="cls-49" d="M129,508.33a.74.74,0,0,0,.26,0c1-.24,1.19-1.81.05-1.88S127.67,508.2,129,508.33Z" transform="translate(0 -5.29)"/><path class="cls-49" d="M129.22,512.22a.77.77,0,0,0,.47.24.55.55,0,0,0,.25-.07c.87-.36,1.13-1.55.11-1.92S128.49,511.6,129.22,512.22Z" transform="translate(0 -5.29)"/><path class="cls-49" d="M124.86,508.71a.77.77,0,0,0,.71-.1.65.65,0,0,0,.19-.47c0-.69-.76-1.43-1.42-1-.29.19-.58.63-.41,1A1.65,1.65,0,0,0,124.86,508.71Z" transform="translate(0 -5.29)"/><path class="cls-49" d="M126.13,510.43a2.18,2.18,0,0,0,.56.65.62.62,0,0,0,.42.18.72.72,0,0,0,.27-.09,2.3,2.3,0,0,0,.56-.35,1.25,1.25,0,0,0-.37-2.05C126.73,508.53,125.68,509.64,126.13,510.43Z" transform="translate(0 -5.29)"/><path class="cls-49" d="M125.51,513.13c1.47-.24.71-2.22-.58-2.05S124.49,513.3,125.51,513.13Z" transform="translate(0 -5.29)"/><path class="cls-45" d="M81.28,495.27c-4.08.86-6.09,4-7.81,7.59,1,1.53,3.06,6.47,8.79,6.45,4.26,0,8.37-2,11.88-4.15,1.34-.82,3-1.64,3.17-3.34a4,4,0,0,0-2.47-3.58c-3.68-1.76-8-3.55-12.34-3.16A11.52,11.52,0,0,0,81.28,495.27Z" transform="translate(0 -5.29)"/><path class="cls-46" d="M94.75,501.76c-1.48-.18-3-.28-4.47-.34s-3-.06-4.49,0-3,.19-4.45.37a34.88,34.88,0,0,0-4.35.87h0a.54.54,0,0,1-.67-.38.55.55,0,0,1,.39-.67h0a39,39,0,0,1,4.52-.73c1.52-.14,3-.22,4.55-.21s3,.06,4.53.17,3,.27,4.51.5a.23.23,0,0,1,.18.26.22.22,0,0,1-.24.18Z" transform="translate(0 -5.29)"/><path class="cls-47" d="M97.31,501.82a4,4,0,0,0-2.47-3.58A41.82,41.82,0,0,0,89.29,496c3,3,3.48,8.18,3.55,10l1.3-.78C95.48,504.34,97.19,503.52,97.31,501.82Z" transform="translate(0 -5.29)"/><path class="cls-45" d="M100.34,482.13c-1.86-3.73-5.39-4.89-9.31-5.65-1.23,1.38-5.5,4.59-4,10.13,1.1,4.12,4,7.61,7,10.45,1.14,1.09,2.36,2.54,4,2.23a4,4,0,0,0,2.83-3.29c.78-4,1.42-8.66,0-12.74A10.67,10.67,0,0,0,100.34,482.13Z" transform="translate(0 -5.29)"/><path class="cls-46" d="M97.39,496.83c-.23-1.47-.54-2.94-.89-4.4s-.75-2.89-1.2-4.32-1-2.81-1.56-4.18a35,35,0,0,0-2-4h0a.57.57,0,0,1,.21-.79.56.56,0,0,1,.79.2v0a36.48,36.48,0,0,1,1.92,4.17c.53,1.42,1,2.86,1.41,4.33s.76,2.93,1,4.41.54,3,.71,4.48a.22.22,0,1,1-.43.06Z" transform="translate(0 -5.29)"/><path class="cls-47" d="M101.65,487.22c-2.58,7-7.17,8.09-9.3,8.17.54.58,1.1,1.14,1.66,1.67,1.14,1.09,2.36,2.54,4,2.23a4,4,0,0,0,2.83-3.29A32.74,32.74,0,0,0,101.65,487.22Z" transform="translate(0 -5.29)"/><path class="cls-45" d="M86.91,515.33c-.81,4.09,1.27,7.17,3.9,10.17,1.82-.33,7.16-.25,9.39-5.53,1.66-3.92,1.48-8.48.87-12.56-.23-1.55-.31-3.44-1.82-4.23A4,4,0,0,0,95,504c-3.07,2.69-6.43,6-7.76,10.1A9.6,9.6,0,0,0,86.91,515.33Z" transform="translate(0 -5.29)"/><path class="cls-46" d="M98.33,505.54c-.71,1.31-1.35,2.67-2,4s-1.15,2.77-1.65,4.17-.92,2.85-1.29,4.29a36.06,36.06,0,0,0-.79,4.37h0a.5.5,0,0,1-.57.45.51.51,0,0,1-.45-.57h0a35.69,35.69,0,0,1,1-4.48c.42-1.46.89-2.9,1.45-4.31s1.15-2.8,1.8-4.16,1.35-2.71,2.11-4a.23.23,0,0,1,.3-.08.22.22,0,0,1,.08.3Z" transform="translate(0 -5.29)"/><path class="cls-47" d="M99.25,503.18A4,4,0,0,0,95,504a40.31,40.31,0,0,0-4.45,4.42c6.14-3.12,9.51-.83,10.72.37-.05-.47-.12-.95-.19-1.42C100.84,505.86,100.76,504,99.25,503.18Z" transform="translate(0 -5.29)"/><path class="cls-45" d="M117.53,495.88c2.92-3,2.88-6.69,2.32-10.64-1.7-.72-6.12-3.71-10.88-.53-3.54,2.37-5.89,6.28-7.62,10-.67,1.43-1.64,3-.8,4.54a4,4,0,0,0,4,1.62c4-.57,8.66-1.47,12-4.18A10.75,10.75,0,0,0,117.53,495.88Z" transform="translate(0 -5.29)"/><path class="cls-46" d="M102.68,497.88c1.32-.69,2.62-1.46,3.89-2.25s2.5-1.65,3.7-2.53,2.35-1.84,3.46-2.82a36.93,36.93,0,0,0,3.09-3.17h0a.68.68,0,0,1,1-.08.69.69,0,0,1,.07,1l0,0a35.48,35.48,0,0,1-3.37,3.12c-1.19,1-2.41,1.87-3.68,2.7s-2.55,1.63-3.87,2.37-2.66,1.44-4,2.07a.22.22,0,0,1-.29-.1.22.22,0,0,1,.1-.29Z" transform="translate(0 -5.29)"/><path class="cls-47" d="M105.58,496.57c-1.76-1.4-2.17-4-2.24-5.62a36,36,0,0,0-2,3.78c-.67,1.43-1.64,3-.8,4.54a4,4,0,0,0,4,1.62c3.38-.47,7.15-1.19,10.27-3C111.66,498.5,107.6,498.19,105.58,496.57Z" transform="translate(0 -5.29)"/><path class="cls-45" d="M109.79,516.8c3.72,1.88,7.24.7,10.84-1,.16-1.84,1.66-7-2.83-10.53-3.34-2.64-7.77-3.69-11.86-4.19-1.57-.19-3.41-.62-4.57.63a4,4,0,0,0-.31,4.33c1.77,3.68,4,7.79,7.66,10.18A10.57,10.57,0,0,0,109.79,516.8Z" transform="translate(0 -5.29)"/><path class="cls-46" d="M103.37,503.23c1.06,1,2.19,2,3.34,3s2.33,1.87,3.54,2.74,2.48,1.68,3.76,2.43a33.44,33.44,0,0,0,4,2h0a.54.54,0,0,1,.29.7.55.55,0,0,1-.71.29h0a36.28,36.28,0,0,1-4-2.18c-1.29-.81-2.54-1.67-3.74-2.6s-2.36-1.89-3.49-2.9-2.21-2.05-3.26-3.15a.22.22,0,0,1,0-.31.22.22,0,0,1,.3,0Z" transform="translate(0 -5.29)"/><path class="cls-47" d="M111,502a34.78,34.78,0,0,0-5-1c-1.57-.19-3.41-.62-4.57.63a4,4,0,0,0-.31,4.33,31.13,31.13,0,0,0,5.1,8c-.87-2.4-2.14-6.78-.77-8.9S109.41,502.28,111,502Z" transform="translate(0 -5.29)"/><path class="cls-48" d="M103,500l0,.19a4.79,4.79,0,0,1,.15,1.19,6,6,0,0,1-1.33,2.42,2,2,0,0,1-1.06.88,8.3,8.3,0,0,1-1.57-.07c-.28,0-.55.12-.84.14-.53.05-.78-.3-1.13-.64l-1.3-1.29a2.16,2.16,0,0,1-.36-.43,3.67,3.67,0,0,1-.2-1.55,2.25,2.25,0,0,1,.17-1.2,12.41,12.41,0,0,1,1.34-1.59,2.45,2.45,0,0,1,1.42-1,4.85,4.85,0,0,1,1.79.36c1,.21,2.31.4,2.71,1.49A4.36,4.36,0,0,1,103,500Z" transform="translate(0 -5.29)"/><path class="cls-49" d="M100.27,499.59a.48.48,0,0,0,.18-.06c.65-.35.52-1.52-.31-1.36S99.32,499.74,100.27,499.59Z" transform="translate(0 -5.29)"/><path class="cls-49" d="M101.18,502.34a.4.4,0,0,0,.55,0c.55-.42.52-1.33-.28-1.4S100.54,502,101.18,502.34Z" transform="translate(0 -5.29)"/><path class="cls-49" d="M97.4,500.62a.56.56,0,0,0,.48-.19.5.5,0,0,0,.06-.38c-.11-.5-.82-.89-1.21-.45-.18.18-.31.55-.12.76A1.18,1.18,0,0,0,97.4,500.62Z" transform="translate(0 -5.29)"/><path class="cls-49" d="M98.62,501.62a1.64,1.64,0,0,0,.53.37.43.43,0,0,0,.33.05.54.54,0,0,0,.18-.11,1.94,1.94,0,0,0,.34-.36.93.93,0,0,0-.65-1.4C98.7,500.15,98.15,501.14,98.62,501.62Z" transform="translate(0 -5.29)"/><path class="cls-49" d="M98.68,503.68c1-.44.1-1.72-.8-1.37S98,504,98.68,503.68Z" transform="translate(0 -5.29)"/><path class="cls-45" d="M86.14,524.74c-4.08.87-6.09,4-7.81,7.59,1,1.54,3.06,6.48,8.79,6.45,4.26,0,8.37-2,11.88-4.14,1.34-.83,3-1.65,3.17-3.35a4,4,0,0,0-2.46-3.57c-3.69-1.77-8-3.56-12.34-3.16A11.36,11.36,0,0,0,86.14,524.74Z" transform="translate(0 -5.29)"/><path class="cls-46" d="M99.62,531.23c-1.48-.17-3-.28-4.48-.33s-3-.06-4.48,0-3,.18-4.46.37a33.49,33.49,0,0,0-4.35.87h0a.54.54,0,0,1-.66-.39.54.54,0,0,1,.38-.67h0a37,37,0,0,1,4.52-.74c1.52-.13,3-.21,4.55-.21s3,.06,4.54.17,3,.27,4.5.51a.22.22,0,1,1-.06.44Z" transform="translate(0 -5.29)"/><path class="cls-47" d="M102.17,531.29a4,4,0,0,0-2.46-3.57,42,42,0,0,0-5.56-2.27c3,3,3.49,8.18,3.55,10,.44-.25.88-.51,1.3-.77C100.34,533.81,102.05,533,102.17,531.29Z" transform="translate(0 -5.29)"/><path class="cls-45" d="M105.2,511.6c-1.86-3.73-5.39-4.89-9.31-5.64-1.23,1.37-5.49,4.59-4,10.13,1.09,4.11,4,7.6,7,10.45,1.14,1.09,2.36,2.53,4,2.22a4,4,0,0,0,2.84-3.28c.77-4,1.41-8.67-.06-12.74A11.84,11.84,0,0,0,105.2,511.6Z" transform="translate(0 -5.29)"/><path class="cls-46" d="M102.25,526.31c-.23-1.47-.54-2.95-.88-4.4s-.76-2.9-1.21-4.32-1-2.82-1.56-4.19a34.08,34.08,0,0,0-2-3.95h0a.59.59,0,0,1,.21-.8.58.58,0,0,1,.79.21v0A34.7,34.7,0,0,1,99.51,513c.54,1.43,1,2.87,1.42,4.33s.75,2.93,1,4.42.54,3,.72,4.48a.22.22,0,0,1-.44.06Z" transform="translate(0 -5.29)"/><path class="cls-47" d="M106.51,516.69c-2.58,7-7.17,8.1-9.3,8.18.54.58,1.1,1.13,1.66,1.67,1.14,1.09,2.36,2.53,4,2.22a4,4,0,0,0,2.84-3.28A33.19,33.19,0,0,0,106.51,516.69Z" transform="translate(0 -5.29)"/><path class="cls-45" d="M91.77,544.81C91,548.9,93,552,95.67,555c1.82-.33,7.16-.26,9.39-5.54,1.66-3.92,1.48-8.47.88-12.55-.24-1.56-.32-3.45-1.83-4.23a4,4,0,0,0-4.26.85c-3.07,2.7-6.43,6-7.76,10.1A11.92,11.92,0,0,0,91.77,544.81Z" transform="translate(0 -5.29)"/><path class="cls-46" d="M103.19,535c-.7,1.31-1.35,2.67-2,4s-1.15,2.76-1.65,4.17-.92,2.84-1.29,4.28a34.83,34.83,0,0,0-.78,4.37v0a.51.51,0,0,1-.57.45.52.52,0,0,1-.45-.57v0a35.54,35.54,0,0,1,1-4.47c.42-1.46.9-2.91,1.45-4.32s1.15-2.79,1.8-4.16,1.35-2.7,2.11-4a.22.22,0,0,1,.39.21Z" transform="translate(0 -5.29)"/><path class="cls-47" d="M104.11,532.66a4,4,0,0,0-4.26.85,42.15,42.15,0,0,0-4.45,4.42c6.14-3.11,9.51-.83,10.72.38-.05-.48-.12-.95-.18-1.42C105.7,535.33,105.62,533.44,104.11,532.66Z" transform="translate(0 -5.29)"/><path class="cls-45" d="M122.39,525.35c2.93-3,2.88-6.68,2.33-10.63-1.7-.73-6.13-3.72-10.89-.53-3.54,2.37-5.89,6.27-7.62,10-.66,1.43-1.63,3.06-.8,4.54a4,4,0,0,0,4,1.62c4-.56,8.66-1.47,12-4.18A9.3,9.3,0,0,0,122.39,525.35Z" transform="translate(0 -5.29)"/><path class="cls-46" d="M107.55,527.35c1.32-.69,2.61-1.45,3.88-2.25s2.5-1.64,3.7-2.53,2.35-1.83,3.46-2.82a35.42,35.42,0,0,0,3.09-3.16v0a.68.68,0,0,1,1,.89l0,0a35.6,35.6,0,0,1-3.38,3.13c-1.19.95-2.41,1.86-3.67,2.7s-2.56,1.62-3.88,2.37-2.66,1.43-4,2.07a.22.22,0,0,1-.29-.11.23.23,0,0,1,.1-.29Z" transform="translate(0 -5.29)"/><path class="cls-47" d="M110.44,526.05c-1.75-1.41-2.16-4-2.24-5.63a38.1,38.1,0,0,0-2,3.78c-.66,1.43-1.63,3.06-.8,4.54a4,4,0,0,0,4,1.62c3.38-.47,7.16-1.18,10.27-3C116.52,528,112.47,527.67,110.44,526.05Z" transform="translate(0 -5.29)"/><path class="cls-45" d="M114.65,546.28c3.72,1.87,7.24.69,10.84-1,.16-1.84,1.66-7-2.83-10.53-3.34-2.65-7.77-3.69-11.86-4.2-1.57-.19-3.41-.62-4.57.63a4,4,0,0,0-.31,4.34c1.78,3.68,4,7.79,7.66,10.17A10,10,0,0,0,114.65,546.28Z" transform="translate(0 -5.29)"/><path class="cls-46" d="M108.23,532.71c1.06,1,2.19,2,3.34,3s2.33,1.88,3.55,2.75,2.47,1.67,3.75,2.43a37.72,37.72,0,0,0,4,2h0a.55.55,0,0,1,.29.71.54.54,0,0,1-.71.28h0a34.64,34.64,0,0,1-4-2.17c-1.29-.82-2.54-1.68-3.73-2.61s-2.37-1.89-3.49-2.9-2.22-2-3.27-3.15a.22.22,0,1,1,.32-.3Z" transform="translate(0 -5.29)"/><path class="cls-47" d="M115.86,531.47a38.14,38.14,0,0,0-5.06-1c-1.57-.19-3.41-.62-4.57.63a4,4,0,0,0-.31,4.34,31.25,31.25,0,0,0,5.1,8c-.87-2.39-2.14-6.78-.77-8.9S114.28,531.76,115.86,531.47Z" transform="translate(0 -5.29)"/><path class="cls-48" d="M107.86,529.51a1.1,1.1,0,0,0,0,.18,4.93,4.93,0,0,1,.15,1.2,5.8,5.8,0,0,1-1.33,2.41,1.93,1.93,0,0,1-1,.88,7.6,7.6,0,0,1-1.58-.06c-.28,0-.55.11-.84.14-.53,0-.78-.3-1.13-.65l-1.29-1.28a2.16,2.16,0,0,1-.37-.43,3.69,3.69,0,0,1-.2-1.55,2.18,2.18,0,0,1,.18-1.21,11.49,11.49,0,0,1,1.33-1.58,2.46,2.46,0,0,1,1.42-1,5.29,5.29,0,0,1,1.79.36c1,.21,2.31.41,2.71,1.49A5,5,0,0,1,107.86,529.51Z" transform="translate(0 -5.29)"/><path class="cls-49" d="M105.13,529.07a.62.62,0,0,0,.19-.07c.64-.34.51-1.52-.32-1.35S104.18,529.21,105.13,529.07Z" transform="translate(0 -5.29)"/><path class="cls-49" d="M106,531.82a.52.52,0,0,0,.38.08.56.56,0,0,0,.17-.09c.56-.43.52-1.33-.28-1.41S105.4,531.5,106,531.82Z" transform="translate(0 -5.29)"/><path class="cls-49" d="M102.26,530.1a.56.56,0,0,0,.48-.2.5.5,0,0,0,.06-.38c-.11-.5-.82-.88-1.21-.45-.17.19-.3.56-.12.76A1.24,1.24,0,0,0,102.26,530.1Z" transform="translate(0 -5.29)"/><path class="cls-49" d="M103.48,531.1a1.8,1.8,0,0,0,.53.37.48.48,0,0,0,.33,0,.44.44,0,0,0,.18-.12,1.87,1.87,0,0,0,.34-.35.93.93,0,0,0-.65-1.41C103.56,529.62,103,530.62,103.48,531.1Z" transform="translate(0 -5.29)"/><path class="cls-49" d="M103.54,533.16c1-.45.1-1.73-.8-1.37S102.84,533.47,103.54,533.16Z" transform="translate(0 -5.29)"/><path class="cls-50" d="M84.13,524.45c-4,1-5.93,4.23-7.5,7.9,1.08,1.5,3.31,6.35,9,6.09,4.25-.19,8.29-2.32,11.71-4.62,1.3-.88,3-1.77,3-3.47a4,4,0,0,0-2.61-3.47c-3.75-1.62-8.17-3.23-12.46-2.66A10.82,10.82,0,0,0,84.13,524.45Z" transform="translate(0 -5.29)"/><path class="cls-46" d="M97.85,530.39c-1.48-.11-3-.16-4.48-.15s-3,.06-4.48.17-3,.3-4.44.55a34.85,34.85,0,0,0-4.32,1h0a.56.56,0,0,1-.68-.36.55.55,0,0,1,.36-.69h0a36.48,36.48,0,0,1,4.49-.92c1.5-.2,3-.34,4.53-.39s3-.07,4.54,0,3,.15,4.52.33a.22.22,0,1,1,0,.43Z" transform="translate(0 -5.29)"/><path class="cls-47" d="M100.41,530.35a4,4,0,0,0-2.61-3.47,41.74,41.74,0,0,0-5.64-2c3.14,2.9,3.81,8,4,9.81l1.27-.82C98.68,532.94,100.35,532.05,100.41,530.35Z" transform="translate(0 -5.29)"/><path class="cls-50" d="M102.64,510.55c-2-3.65-5.58-4.66-9.53-5.26-1.17,1.42-5.3,4.81-3.61,10.28,1.26,4.07,4.33,7.44,7.42,10.16,1.18,1,2.46,2.44,4.12,2.06a4,4,0,0,0,2.71-3.39c.61-4,1.06-8.72-.57-12.73A10.58,10.58,0,0,0,102.64,510.55Z" transform="translate(0 -5.29)"/><path class="cls-46" d="M100.29,525.37c-.29-1.46-.66-2.92-1.06-4.36s-.87-2.87-1.38-4.27-1.1-2.78-1.73-4.12A34.85,34.85,0,0,0,94,508.75h0a.6.6,0,0,1,.18-.81.58.58,0,0,1,.8.18v0A35.58,35.58,0,0,1,97,512.21c.59,1.4,1.14,2.82,1.59,4.27s.87,2.9,1.23,4.37.66,2.95.89,4.45a.22.22,0,1,1-.43.07Z" transform="translate(0 -5.29)"/><path class="cls-47" d="M104.16,515.59c-2.3,7.15-6.84,8.37-9,8.54.57.56,1.15,1.09,1.73,1.6,1.18,1,2.46,2.44,4.12,2.06a4,4,0,0,0,2.71-3.39A33.51,33.51,0,0,0,104.16,515.59Z" transform="translate(0 -5.29)"/><path class="cls-50" d="M90.57,544.27c-.65,4.12,1.55,7.12,4.3,10,1.8-.4,7.14-.55,9.16-5.91,1.5-4,1.13-8.53.37-12.58-.3-1.55-.46-3.43-2-4.15a4,4,0,0,0-4.22,1c-3,2.82-6.18,6.24-7.35,10.41A11.26,11.26,0,0,0,90.57,544.27Z" transform="translate(0 -5.29)"/><path class="cls-46" d="M101.58,534c-.65,1.34-1.24,2.72-1.79,4.11s-1,2.81-1.48,4.24-.8,2.88-1.11,4.33a34.73,34.73,0,0,0-.61,4.4v0a.52.52,0,0,1-1-.08v0a36,36,0,0,1,.78-4.51c.36-1.48.78-2.94,1.27-4.37s1-2.84,1.64-4.23,1.23-2.75,1.94-4.1a.24.24,0,0,1,.3-.09.23.23,0,0,1,.09.29Z" transform="translate(0 -5.29)"/><path class="cls-47" d="M102.4,531.64a4,4,0,0,0-4.22,1,41,41,0,0,0-4.27,4.6c6-3.36,9.47-1.21,10.73-.06-.07-.47-.16-1-.24-1.41C104.1,534.24,103.94,532.36,102.4,531.64Z" transform="translate(0 -5.29)"/><path class="cls-50" d="M120.37,523.6c2.81-3.09,2.61-6.8,1.9-10.72-1.73-.66-6.27-3.47-10.9-.09-3.45,2.51-5.64,6.51-7.21,10.31-.61,1.46-1.51,3.12-.62,4.57a4,4,0,0,0,4.09,1.46c4-.73,8.6-1.82,11.86-4.67A10.29,10.29,0,0,0,120.37,523.6Z" transform="translate(0 -5.29)"/><path class="cls-46" d="M105.62,526.19c1.29-.74,2.56-1.55,3.79-2.4s2.43-1.74,3.59-2.68,2.28-1.93,3.35-3a36.78,36.78,0,0,0,3-3.29v0a.68.68,0,0,1,1-.11.69.69,0,0,1,.11,1l0,0a36.93,36.93,0,0,1-3.24,3.26c-1.15,1-2.34,2-3.57,2.85s-2.49,1.73-3.78,2.52-2.59,1.54-4,2.23a.21.21,0,0,1-.29-.09.22.22,0,0,1,.08-.29Z" transform="translate(0 -5.29)"/><path class="cls-47" d="M108.46,524.77c-1.81-1.33-2.33-3.93-2.47-5.53a38.55,38.55,0,0,0-1.83,3.86c-.61,1.46-1.51,3.12-.62,4.57a4,4,0,0,0,4.09,1.46c3.37-.61,7.11-1.48,10.15-3.4C114.61,526.45,110.55,526.31,108.46,524.77Z" transform="translate(0 -5.29)"/><path class="cls-50" d="M113.48,544.82c3.79,1.72,7.27.4,10.79-1.48.09-1.84,1.38-7-3.25-10.4-3.44-2.51-7.92-3.38-12-3.72-1.57-.13-3.43-.48-4.54.82a4,4,0,0,0-.14,4.34c1.93,3.61,4.36,7.62,8.07,9.86A11.52,11.52,0,0,0,113.48,544.82Z" transform="translate(0 -5.29)"/><path class="cls-46" d="M106.52,531.52c1.11,1,2.27,2,3.46,2.87s2.4,1.77,3.65,2.6,2.54,1.57,3.85,2.27a36.54,36.54,0,0,0,4,1.81h0a.52.52,0,0,1,.31.69.54.54,0,0,1-.69.31h0a34.71,34.71,0,0,1-4.11-2c-1.31-.76-2.6-1.57-3.83-2.45s-2.44-1.79-3.61-2.76-2.3-2-3.38-3a.22.22,0,0,1,.3-.32Z" transform="translate(0 -5.29)"/><path class="cls-47" d="M114.09,530a36.62,36.62,0,0,0-5.09-.76c-1.57-.13-3.43-.48-4.54.82a4,4,0,0,0-.14,4.34,31.31,31.31,0,0,0,5.43,7.79c-1-2.36-2.42-6.68-1.13-8.86S112.52,530.33,114.09,530Z" transform="translate(0 -5.29)"/><path class="cls-48" d="M106,528.34l0,.18a4.86,4.86,0,0,1,.2,1.19,5.89,5.89,0,0,1-1.24,2.47,1.91,1.91,0,0,1-1,.91,8.34,8.34,0,0,1-1.58,0c-.28,0-.55.13-.83.17-.53.07-.8-.27-1.16-.6l-1.34-1.23a2.16,2.16,0,0,1-.38-.42,3.46,3.46,0,0,1-.27-1.54,2.18,2.18,0,0,1,.13-1.21,12,12,0,0,1,1.27-1.64,2.44,2.44,0,0,1,1.38-1,5.34,5.34,0,0,1,1.8.29c1,.17,2.32.31,2.77,1.38A4.83,4.83,0,0,1,106,528.34Z" transform="translate(0 -5.29)"/><path class="cls-49" d="M103.28,528a.71.71,0,0,0,.18-.08c.63-.37.46-1.53-.37-1.34S102.33,528.19,103.28,528Z" transform="translate(0 -5.29)"/><path class="cls-49" d="M104.29,530.72a.61.61,0,0,0,.39.07.54.54,0,0,0,.16-.1c.54-.45.47-1.35-.33-1.4S103.64,530.43,104.29,530.72Z" transform="translate(0 -5.29)"/><path class="cls-49" d="M100.45,529.15a.57.57,0,0,0,.48-.21.5.5,0,0,0,0-.38c-.13-.5-.85-.86-1.22-.41-.17.2-.28.57-.09.77A1.2,1.2,0,0,0,100.45,529.15Z" transform="translate(0 -5.29)"/><path class="cls-49" d="M101.71,530.1a1.73,1.73,0,0,0,.54.35.45.45,0,0,0,.34,0,.55.55,0,0,0,.17-.13,1.68,1.68,0,0,0,.33-.37.93.93,0,0,0-.71-1.37C101.73,528.62,101.23,529.64,101.71,530.1Z" transform="translate(0 -5.29)"/><path class="cls-49" d="M101.85,532.16c1-.49,0-1.73-.85-1.34S101.16,532.5,101.85,532.16Z" transform="translate(0 -5.29)"/><path class="cls-51" d="M119.23,533.4a102,102,0,0,1,22.26-14.46c2.17-1,.73,7.69.54,8.65a65.84,65.84,0,0,1-3.92,13.86c-2.42,5.51-6.69,11.58-12.91,12.81-4.35.86-11.09,1.14-12.65-4.23C110.67,543.58,114.59,537.38,119.23,533.4Z" transform="translate(0 -5.29)"/><path class="cls-52" d="M139.41,535.82c-2.42,5.5-6.69,11.58-12.91,12.8-4.35.86-11.09,1.15-12.65-4.22a11.8,11.8,0,0,1-.48-3.44,12.91,12.91,0,0,0-.82,9.07c1.56,5.37,8.3,5.09,12.65,4.23,6.22-1.23,10.49-7.3,12.91-12.81a60.42,60.42,0,0,0,3.62-12.38A46.37,46.37,0,0,1,139.41,535.82Z" transform="translate(0 -5.29)"/><ellipse class="cls-53" cx="122.43" cy="537.07" rx="1.97" ry="1" transform="translate(-312.08 193.21) rotate(-39.23)"/><ellipse class="cls-53" cx="118.81" cy="541" rx="1.97" ry="1" transform="translate(-315.38 191.8) rotate(-39.23)"/><ellipse class="cls-53" cx="122.43" cy="541" rx="1.97" ry="1" transform="translate(-314.56 194.09) rotate(-39.23)"/><ellipse class="cls-53" cx="137.94" cy="529.93" rx="1.97" ry="1" transform="translate(-304.07 201.41) rotate(-39.23)"/><ellipse class="cls-53" cx="133.56" cy="532.89" rx="1.97" ry="1" transform="translate(-306.93 199.3) rotate(-39.23)"/><ellipse class="cls-53" cx="134.98" cy="528.63" rx="1.97" ry="1" transform="translate(-303.91 199.24) rotate(-39.23)"/></g></g></g></g></svg>